<svg width="20" height="22" viewBox="0 0 20 22" fill="none" xmlns="http://www.w3.org/2000/svg">
<path d="M17 9.5V9C17 5.229 17 3.343 15.828 2.172C14.656 1.001 12.771 1 9 1C5.229 1 3.343 1 2.172 2.172C1.001 3.344 1 5.229 1 9V15C1 16.864 1 17.796 1.304 18.53C1.50502 19.0154 1.79968 19.4564 2.17115 19.8278C2.54263 20.1993 2.98364 20.494 3.469 20.695C4.204 21 5.136 21 7 21M5 6H13M5 10H9" stroke="black" stroke-width="1.5" stroke-linecap="round" stroke-linejoin="round"/>
<path d="M13.283 18.004C13.223 17.116 13.118 16.166 12.682 15.092C12.309 14.176 12.413 12.021 14.5 12.021C16.587 12.021 16.666 14.176 16.294 15.091C15.858 16.166 15.776 17.116 15.718 18.004M19 21H10V19.754C10 19.308 10.266 18.915 10.653 18.793L12.908 18.077C13.0693 18.0257 13.234 18 13.402 18H15.598C15.766 18 15.9307 18.0257 16.092 18.077L18.347 18.793C18.734 18.915 19 19.308 19 19.754V21Z" stroke="black" stroke-width="1.5" stroke-linecap="round" stroke-linejoin="round"/>
</svg>
