<svg width="134" height="153" viewBox="0 0 134 153" fill="none" xmlns="http://www.w3.org/2000/svg">
<mask id="mask0_534_32" style="mask-type:luminance" maskUnits="userSpaceOnUse" x="17" y="0" width="109" height="94">
<path d="M125.392 0.956055H17.9683V93.2409H125.392V0.956055Z" fill="white"/>
</mask>
<g mask="url(#mask0_534_32)">
<path d="M110.507 13.3029C100.585 5.08138 86.9352 0.956055 69.5658 0.956055H26.2773V7.04676H68.7736C83.5444 7.04676 96.9145 10.1116 105.087 17.2141C113.25 24.3264 119.443 34.9025 119.443 47.9595C119.443 61.0166 114.081 69.8997 105.59 76.9633C97.098 84.027 81.9504 87.1404 66.7932 87.1404H17.979V93.2311C17.979 93.2311 59.5382 93.2311 67.1313 93.2311C85.4186 93.2311 99.7063 89.2226 109.985 81.2346C120.264 73.2369 125.403 61.9895 125.403 47.473C125.403 32.9566 120.438 21.5341 110.516 13.3029" fill="#51C28A"/>
</g>
<mask id="mask1_534_32" style="mask-type:luminance" maskUnits="userSpaceOnUse" x="40" y="13" width="80" height="68">
<path d="M119.413 13.6133H40.1196V80.5818H119.413V13.6133Z" fill="white"/>
</mask>
<g mask="url(#mask1_534_32)">
<path d="M106.834 22.1266C100.661 17.4078 93.5698 13.6133 73.4954 13.6133C51.856 13.6133 49.1994 13.6133 40.1089 13.6133V19.558C40.1089 19.558 55.0439 19.3634 72.7515 19.558C89.8602 19.7332 96.1394 21.6791 101.897 25.9698C109.268 31.4573 113.837 38.2291 113.837 47.6959C113.837 57.1628 109.2 63.2924 101.791 68.7798C94.217 74.4035 82.6438 74.4619 77.9295 74.5689C76.152 74.6079 53.1408 74.5689 53.1408 74.5689V80.504C53.1408 80.504 64.5884 80.6694 71.6695 80.504C87.9087 80.1342 97.5499 79.1613 106.515 72.4479C114.939 66.1626 119.392 57.8536 119.392 47.3359C119.392 33.4616 112.504 26.4758 106.824 22.1266" fill="#51C28A"/>
</g>
<mask id="mask2_534_32" style="mask-type:luminance" maskUnits="userSpaceOnUse" x="0" y="25" width="114" height="45">
<path d="M113.713 25.0752H0V69.1112H113.713V25.0752Z" fill="white"/>
</mask>
<g mask="url(#mask2_534_32)">
<path d="M103.851 29.9692C99.2235 27.0406 95.1564 25.0752 75.9805 25.0752H51.9839V28.9865H75.3235C92.3066 28.9865 98.7501 32.0318 100.702 33.2286C104.517 35.5831 109.55 39.4166 109.55 47.2294C109.55 52.2207 106.623 58.4962 102.286 60.9578C98.3347 63.1956 91.1184 65.1999 78.4052 65.1999H0.0107422V69.1112H78.695C94.0262 69.1112 99.2814 67.3988 104.691 64.3923C110.111 61.3859 113.724 55.2076 113.724 47.2683C113.724 38.4047 108.807 33.0826 103.87 29.9692" fill="#51C28A"/>
</g>
<path d="M119.114 73.0719C109.192 64.8407 95.5421 60.7251 78.1726 60.7251C54.9392 60.7251 58.9773 60.7251 49.2106 60.7251V66.8158H77.3611C92.1319 66.8158 105.512 69.8806 113.684 76.9832C121.847 84.0955 128.03 94.6715 128.03 107.738C128.03 120.805 122.678 129.669 114.187 136.732C105.695 143.796 90.538 146.909 75.3807 146.909H26.5762V153C26.5762 153 68.1257 153 75.7285 153C94.0157 153 108.294 149.001 118.573 141.004C128.851 133.016 134 121.759 134 107.252C134 92.7451 129.044 81.3031 119.114 73.0816" fill="#51C28A"/>
<path d="M115.442 81.8962C109.269 77.1871 102.178 73.3828 82.104 73.3828C60.4549 73.3828 45.8097 73.3828 36.7192 73.3828V79.3276C36.7192 79.3276 63.6526 79.133 81.3601 79.3276C98.4688 79.5027 104.738 81.4486 110.496 85.7393C117.877 91.2365 122.446 97.9986 122.446 107.465C122.446 116.932 117.809 123.072 110.399 128.559C102.826 134.173 91.2524 134.241 86.5285 134.348C84.7509 134.387 61.7398 134.348 61.7398 134.348V140.283C61.7398 140.283 73.1874 140.449 80.2782 140.283C96.5077 139.904 106.158 138.931 115.123 132.227C123.538 125.932 127.991 117.623 127.991 107.105C127.991 93.2408 121.113 86.2453 115.433 81.8962" fill="#51C28A"/>
<path d="M88.9724 98.728H46.4375V102.046H88.9724V98.728Z" fill="#51C28A"/>
<path d="M88.7213 110.803H63.981V113.654H88.7213V110.803Z" fill="#51C28A"/>
<path d="M39.1831 98.728H26.5762V102.046H39.1831V98.728Z" fill="#51C28A"/>
<path d="M56.9963 110.568H18.7217V113.886H56.9963V110.568Z" fill="#51C28A"/>
<path d="M43.0661 25.981H28.1504V28.715H43.0661V25.981Z" fill="#51C28A"/>
<path d="M51.9249 47.7461H17.7656V50.9277H51.9249V47.7461Z" fill="#51C28A"/>
<path d="M54.7358 135.886H18.7217V139.866H54.7358V135.886Z" fill="#51C28A"/>
<path d="M18.7408 146.997H9.7373V152.757H18.7408V146.997Z" fill="#51C28A"/>
<path d="M88.7988 38.0259H32.2466V41.2074H88.7988V38.0259Z" fill="#51C28A"/>
<path d="M87.736 47.7461H60.5322V50.9277H87.736V47.7461Z" fill="#51C28A"/>
<path d="M112.467 90.3316C107.83 87.5003 103.763 85.603 84.5966 85.603H54.0213V89.3781H83.93C100.913 89.3781 107.366 92.3164 109.308 93.484C113.114 95.7607 118.157 99.4482 118.157 106.998C118.157 111.824 115.23 117.876 110.883 120.24C106.932 122.41 99.7152 124.346 87.002 124.346H8.61719V128.121C8.61719 128.121 80.9256 128.121 87.2918 128.121C102.633 128.121 107.888 126.467 113.298 123.568C118.708 120.659 122.321 114.694 122.321 107.028C122.321 98.4752 117.413 93.3478 112.477 90.3413" fill="#51C28A"/>
</svg>
