<svg width="280" height="293" viewBox="0 0 280 293" fill="none" xmlns="http://www.w3.org/2000/svg">
<path d="M208.545 293C247.757 293 279.545 283.374 279.545 271.5C279.545 259.626 247.757 250 208.545 250C169.333 250 137.545 259.626 137.545 271.5C137.545 283.374 169.333 293 208.545 293Z" fill="#BCBEC0"/>
<path d="M219.426 128.923C219.624 128.188 215.253 126.726 215.405 126.27C215.619 125.625 224.691 127.605 231.478 131.369C231.644 131.462 231.788 131.542 231.788 131.545C232.907 132.179 236.427 134.285 239.888 137.864C243.129 141.215 243.498 142.858 243.542 143.629C243.619 144.99 243.219 146.367 243.459 147.71C243.766 149.435 245.061 150.791 245.86 152.351C246.435 153.632 246.961 155.212 247.198 157.053C248.08 163.88 244.369 169.222 243.119 170.872C243.771 171.027 244.4 171.292 244.545 171.777C245.29 174.268 232.853 180.894 220.844 184.047C214.482 185.717 208.126 186.524 201.406 184.715C195.49 183.121 194.523 180.907 194.273 180.187C192.937 176.338 197.208 172.115 197.44 171.893C213.933 175.745 217.621 177.266 217.512 177.908C217.231 179.574 191.06 176.794 190.722 172.179C190.596 170.455 193.992 169.047 194.103 165.579C194.162 163.741 193.388 162.166 193.123 161.637C191.833 159.077 190.462 159.389 189.52 157.308C188.056 154.075 190.018 150.463 190.137 150.252C190.678 149.29 191.313 148.615 191.774 148.189C191.558 146.485 191.454 143.786 192.447 140.795C195.348 132.063 204.822 129.191 205.942 128.871C212.762 126.919 219.175 129.817 219.418 128.923H219.426Z" fill="#FDF7BE" stroke="#010101" stroke-width="2" stroke-miterlimit="10"/>
<path d="M200.245 150.589C196.937 151.868 193.038 150.135 191.537 146.717C190.036 143.301 191.501 139.495 194.809 138.216C198.118 136.938 202.017 138.67 203.517 142.089C205.018 145.505 203.554 149.31 200.245 150.589Z" fill="white" stroke="#010101" stroke-width="2" stroke-miterlimit="10"/>
<path d="M200.085 148.7C202.121 148.7 203.77 147.05 203.77 145.015C203.77 142.981 202.121 141.331 200.085 141.331C198.05 141.331 196.4 142.981 196.4 145.015C196.4 147.05 198.05 148.7 200.085 148.7Z" fill="#010101" stroke="#010101" stroke-width="2" stroke-miterlimit="10"/>
<path d="M201.14 146.209C201.683 146.209 202.122 145.769 202.122 145.227C202.122 144.684 201.683 144.245 201.14 144.245C200.597 144.245 200.157 144.684 200.157 145.227C200.157 145.769 200.597 146.209 201.14 146.209Z" fill="white" stroke="#010101" stroke-width="2" stroke-miterlimit="10"/>
<path d="M213.616 147.918C214.632 143.884 219.124 141.213 223.644 141.95C228.165 142.687 231.006 146.555 229.988 150.589C228.972 154.624 224.48 157.295 219.959 156.558C215.439 155.821 212.597 151.953 213.616 147.918Z" fill="white" stroke="#010101" stroke-width="2" stroke-miterlimit="10"/>
<path d="M223.183 156.517C226.374 156.517 228.962 153.93 228.962 150.739C228.962 147.548 226.374 144.961 223.183 144.961C219.991 144.961 217.404 147.548 217.404 150.739C217.404 153.93 219.991 156.517 223.183 156.517Z" fill="#010101" stroke="#010101" stroke-width="2" stroke-miterlimit="10"/>
<path d="M222.337 150.19C221.924 150.958 220.968 151.247 220.197 150.834C219.428 150.422 219.139 149.465 219.552 148.694C219.964 147.926 220.921 147.637 221.692 148.05C222.461 148.462 222.749 149.419 222.337 150.19Z" fill="white" stroke="#010101" stroke-width="2" stroke-miterlimit="10"/>
<path d="M231.218 168.052C199.925 155.656 191.312 153.792 190.626 155.21C189.984 156.537 196.9 160.304 195.99 165.497C195.338 169.214 192.393 171.254 191.751 171.679C193.765 173.107 201.202 178.016 211.671 177.225C222.752 176.387 229.583 169.738 231.22 168.054L231.218 168.052Z" fill="#ED685A" stroke="#010101" stroke-width="2" stroke-miterlimit="10"/>
<path d="M196.844 164.053C197.03 164.089 197.334 163.756 197.94 163.091C198.221 162.784 198.445 162.514 198.61 162.31C198.174 162.22 197.661 162.078 197.112 161.838C196.831 161.717 196.578 161.588 196.351 161.457C196.356 163.72 196.671 164.019 196.841 164.05L196.844 164.053Z" fill="white" stroke="#010101" stroke-width="2" stroke-miterlimit="10"/>
<path d="M208.476 167.435C208.675 167.453 209.092 167.031 209.931 166.187C210.317 165.798 210.635 165.455 210.867 165.2C210.4 165.154 209.864 165.053 209.307 164.847C209.023 164.744 208.77 164.625 208.548 164.504C208.015 167.116 208.296 167.42 208.476 167.435Z" fill="white" stroke="#010101" stroke-width="2" stroke-miterlimit="10"/>
<path d="M197.063 171.214C196.88 171.173 196.573 171.493 195.957 172.13C195.673 172.424 195.443 172.684 195.276 172.883C195.704 172.983 196.204 173.138 196.738 173.385C197.011 173.512 197.256 173.646 197.476 173.78C197.53 171.552 197.231 171.251 197.063 171.214Z" fill="white" stroke="#010101" stroke-width="2" stroke-miterlimit="10"/>
<path d="M205.243 173.68C205.176 173.654 205.003 173.618 204.002 174.401C203.51 174.788 203.113 175.139 202.824 175.412C203.288 175.569 203.876 175.716 204.567 175.768C204.869 175.791 205.15 175.791 205.408 175.778C205.459 175.471 205.714 173.868 205.245 173.68H205.243Z" fill="white" stroke="#010101" stroke-width="2" stroke-miterlimit="10"/>
<path d="M247.224 155.336C240.666 153.289 237.649 146.526 237.649 146.526C237.095 145.286 236.288 143.474 235.906 141.625C235.514 139.715 237.118 138.629 236.744 136.525C236.455 134.896 235.617 134.502 235.919 133.989C236.661 132.73 242.069 134.424 246.172 135.711C246.29 135.747 246.44 135.798 246.639 135.865C247.912 136.304 250.241 137.142 251.254 139.323C251.396 139.63 251.654 140.197 251.703 140.973C251.866 143.499 249.601 144.304 249.292 147.204C249.163 148.411 249.431 149.44 249.56 149.942C250.14 152.17 251.35 153.147 250.875 154.297C250.625 154.905 250.05 155.207 249.854 155.31C248.846 155.841 247.732 155.493 247.224 155.333V155.336Z" fill="#E6AA68" stroke="#010101" stroke-width="2" stroke-miterlimit="10"/>
<path d="M207.409 130.199C207.282 128.18 199.863 125.295 194.77 128.309C193.298 129.18 192.328 130.361 191.704 131.346C190.165 133.452 190.547 133.955 189.512 135.053C187.235 137.474 184.064 136.443 183.571 138.008C183.164 139.299 185.013 141.001 186.047 141.7C187.908 142.961 189.889 142.839 190.531 142.772C190.696 142.339 191.645 139.983 194.265 138.861C197.238 137.588 199.915 138.949 200.263 139.132C200.487 138.286 200.91 137.031 201.751 135.7C204.183 131.861 207.491 131.565 207.406 130.196L207.409 130.199Z" fill="#E6AA68" stroke="#010101" stroke-width="2" stroke-miterlimit="10"/>
<path d="M191.194 146.119C191.467 145.936 192.38 147.653 194.523 148.767C195.124 149.079 197.218 150.169 199.301 149.527C201.174 148.952 202.035 147.284 202.406 147.529C202.682 147.712 202.502 148.821 201.89 149.602C200.152 151.825 194.758 151.598 192.378 148.929C191.359 147.79 190.959 146.276 191.197 146.116L191.194 146.119Z" fill="#FDF7BE" stroke="#010101" stroke-width="2" stroke-miterlimit="10"/>
<path d="M213.618 151.149C214.005 150.948 215.029 154.271 218.028 155.55C219.771 156.292 221.566 156.086 222.889 155.934C225.601 155.622 227.182 154.609 227.293 154.828C227.419 155.073 225.596 156.718 223.085 157.36C222.342 157.548 219.518 158.267 216.929 156.653C215.506 155.766 214.786 154.57 214.528 154.129C213.799 152.881 213.35 151.288 213.618 151.151V151.149Z" fill="#FDF7BE" stroke="#010101" stroke-width="2" stroke-miterlimit="10"/>
<path d="M234.147 166.432C233.974 165.886 225.248 170.748 215.103 167.569C210.415 166.1 206.859 163.364 204.268 160.74C202.499 161.348 199.492 162.047 196.114 161.147C193.264 160.389 189.216 158.249 189.345 156.063C189.383 155.408 189.791 154.841 189.984 154.573C190.871 153.338 192.272 152.961 193.179 152.732C198.339 151.435 202.182 151.195 202.182 151.195C204.309 151.126 205.732 151.072 207.625 151.448C211.117 152.144 211.968 153.407 216.246 155.519C222.747 158.731 224.464 157.605 227.136 160.43C227.26 160.562 227.608 161.176 228.252 161.874C228.709 162.38 229.384 163.032 230.32 163.609C234.8 166.373 239.88 164.138 240.328 165.048C240.718 165.842 237.435 168.688 224.668 176.392C208.528 184.132 202.726 184.526 201.148 182.507C200.346 181.481 200.085 179.115 198.842 178.986C197.535 178.849 196.908 181.303 195.307 181.303C193.618 181.303 192.393 178.56 192.045 177.784C191.196 175.892 190.456 172.618 191.751 171.682C193.081 170.72 195.951 172.661 196.906 173.234C207.762 179.751 234.441 167.373 234.145 166.432H234.147Z" fill="#A77D52" stroke="#010101" stroke-width="2" stroke-miterlimit="10"/>
<path d="M203.265 154.212C201.906 153.761 201.068 153.144 201.132 152.665C201.142 152.58 201.209 152.304 202.184 151.943C204.18 151.203 206.243 151.492 206.498 151.531C207.661 151.706 210.016 152.26 210.07 152.941C210.114 153.511 208.533 154.049 206.32 154.318C206.238 154.382 206.143 154.462 206.037 154.557C206.037 154.557 205.856 154.715 205.712 154.9C205.178 155.589 204.985 156.963 204.985 156.963C204.809 158.216 204.838 158.675 204.745 158.675C204.598 158.675 204.34 157.551 204.216 156.576C204.116 155.79 204.108 155.145 204.118 154.712C203.835 154.547 203.548 154.382 203.265 154.214V154.212Z" fill="#544842" stroke="#010101" stroke-width="2" stroke-miterlimit="10"/>
<path d="M207.468 133.274C208.252 132.903 209.389 132.531 210.519 132.895C211.607 133.246 211.62 133.939 212.607 134.553C214.562 135.767 216.295 134.163 219.351 134.867C220.075 135.035 221.164 135.398 222.404 136.308" stroke="#010101" stroke-width="2" stroke-miterlimit="10"/>
<path d="M210.292 131.067C210.836 130.809 211.627 130.551 212.414 130.804C213.172 131.049 213.18 131.531 213.868 131.957C215.23 132.8 216.434 131.686 218.561 132.176C219.067 132.292 219.822 132.544 220.684 133.179" stroke="#010101" stroke-width="2" stroke-miterlimit="10"/>
<path opacity="0.5" d="M224.116 147.364C224.088 147.591 224.823 147.64 225.351 148.313C225.898 149.014 225.658 149.674 226.058 149.837C226.463 150.002 227.213 149.53 227.332 148.968C227.499 148.182 226.414 147.308 225.457 147.122C224.815 146.996 224.139 147.171 224.116 147.362V147.364Z" fill="white" stroke="#010101" stroke-width="2" stroke-miterlimit="10"/>
<path opacity="0.5" d="M200.325 142.058C199.621 141.935 198.781 142.987 198.958 143.378C199.051 143.582 199.451 143.667 199.74 143.572C200.163 143.435 200.183 142.976 200.521 142.935C200.885 142.891 201.15 143.394 201.254 143.324C201.351 143.257 201.21 142.752 200.862 142.396C200.746 142.278 200.57 142.1 200.325 142.056V142.058Z" fill="white" stroke="#010101" stroke-width="2" stroke-miterlimit="10"/>
<path d="M190.263 158.293C190.193 158.221 190.286 158.11 190.371 158.162C191.704 158.989 193.935 160.103 196.895 160.479C199.956 160.866 202.476 160.296 204.013 159.788C204.523 159.621 205.08 159.675 205.544 159.943C208.781 161.81 213.425 163.955 219.25 164.901C229.284 166.533 236.473 163.586 237.128 165.303C237.786 167.028 231.058 171.64 224.66 174.265C221.419 175.595 213.67 178.653 203.605 177.008C199 176.255 195.271 174.742 192.563 173.339C191.4 172.736 191.194 171.161 192.153 170.271C192.194 170.233 192.238 170.194 192.279 170.155C193.247 169.258 200.096 169.794 200.629 171.001C201.269 172.445 201.81 173.051 202.757 173.187C203.734 173.327 204.312 172.385 205.838 171.463C207.017 170.751 208.01 170.521 209.998 170.065C215.56 168.789 231.228 168.248 231.218 168.059C231.215 168.003 230.547 168.08 228.26 168.253C221.574 168.761 217.935 168.946 210.65 169.276C209.469 169.33 208.02 169.374 206.994 168.441C206.009 167.541 206.091 166.353 205.039 165.865C204.245 165.497 203.487 165.842 202.664 166.061C200.188 166.721 195.701 167.044 194.894 164.767C193.927 162.044 192.891 160.786 192.024 160.167C191.689 159.928 190.65 158.716 190.26 158.301L190.263 158.293Z" fill="#754D25" stroke="#010101" stroke-width="2" stroke-miterlimit="10"/>
<path d="M191.354 145.644C192.648 146.575 195.059 142.948 198.974 143.363C202.143 143.698 203.543 146.392 204.508 145.784C205.547 145.129 205.142 141.236 202.849 139.111C200.137 136.595 195.049 136.796 192.548 139.575C190.763 141.561 190.283 144.876 191.354 145.644Z" fill="#FDF7BE" stroke="#010101" stroke-width="2" stroke-miterlimit="10"/>
<path d="M214.18 146.972C214.784 148.261 217.762 146.802 221.7 148.06C226.7 149.656 227.974 153.949 229.4 153.327C231.107 152.582 231.236 145.564 227.533 143.074C227.512 143.061 227.497 143.051 227.476 143.035C225.068 141.46 220.735 140.504 217.432 142.463C215.583 143.561 213.636 145.807 214.18 146.972Z" fill="#FDF7BE" stroke="#010101" stroke-width="2" stroke-miterlimit="10"/>
<path d="M221.747 139.506C220.826 139.795 219.609 139.993 218.443 139.509C217.169 138.98 216.896 138.029 216.045 138.085C215.042 138.152 214.351 139.54 213.716 140.808C213.159 141.922 212.889 142.922 212.747 143.595" stroke="#010101" stroke-width="2" stroke-miterlimit="10"/>
<path d="M203.407 136.869C203.623 137.093 204.384 137.82 205.612 137.967C207.03 138.14 208.048 137.415 208.268 137.253" stroke="#010101" stroke-width="2" stroke-miterlimit="10"/>
<path d="M206.429 145.191C206.736 144.747 207.21 143.943 207.429 142.824C207.656 141.677 207.515 140.73 207.393 140.199" stroke="#010101" stroke-width="2" stroke-miterlimit="10"/>
<path d="M210.87 145.606L210.289 147.939L210.87 145.606Z" fill="#FDF7BE"/>
<path d="M210.87 145.606L210.289 147.939" stroke="#010101" stroke-width="2" stroke-miterlimit="10"/>
<path d="M201.859 154.106C201.99 154.106 202.097 154 202.097 153.869C202.097 153.738 201.99 153.632 201.859 153.632C201.728 153.632 201.622 153.738 201.622 153.869C201.622 154 201.728 154.106 201.859 154.106Z" fill="#010101" stroke="#010101" stroke-width="2" stroke-miterlimit="10"/>
<path d="M217.52 159.595C217.651 159.595 217.757 159.489 217.757 159.358C217.757 159.227 217.651 159.121 217.52 159.121C217.389 159.121 217.282 159.227 217.282 159.358C217.282 159.489 217.389 159.595 217.52 159.595Z" fill="#010101" stroke="#010101" stroke-width="2" stroke-miterlimit="10"/>
<path d="M214.039 158.239C214.17 158.239 214.276 158.133 214.276 158.002C214.276 157.871 214.17 157.765 214.039 157.765C213.908 157.765 213.802 157.871 213.802 158.002C213.802 158.133 213.908 158.239 214.039 158.239Z" fill="#010101" stroke="#010101" stroke-width="2" stroke-miterlimit="10"/>
<path d="M211.148 156.695C211.279 156.695 211.385 156.588 211.385 156.457C211.385 156.326 211.279 156.22 211.148 156.22C211.017 156.22 210.911 156.326 210.911 156.457C210.911 156.588 211.017 156.695 211.148 156.695Z" fill="#010101" stroke="#010101" stroke-width="2" stroke-miterlimit="10"/>
<path d="M209.304 159.639C209.435 159.639 209.541 159.533 209.541 159.402C209.541 159.271 209.435 159.165 209.304 159.165C209.173 159.165 209.067 159.271 209.067 159.402C209.067 159.533 209.173 159.639 209.304 159.639Z" fill="#010101" stroke="#010101" stroke-width="2" stroke-miterlimit="10"/>
<path d="M215.302 161.06C215.433 161.06 215.539 160.954 215.539 160.823C215.539 160.692 215.433 160.585 215.302 160.585C215.171 160.585 215.065 160.692 215.065 160.823C215.065 160.954 215.171 161.06 215.302 161.06Z" fill="#010101" stroke="#010101" stroke-width="2" stroke-miterlimit="10"/>
<path d="M212.347 159.781C212.478 159.781 212.584 159.675 212.584 159.544C212.584 159.413 212.478 159.307 212.347 159.307C212.216 159.307 212.11 159.413 212.11 159.544C212.11 159.675 212.216 159.781 212.347 159.781Z" fill="#010101" stroke="#010101" stroke-width="2" stroke-miterlimit="10"/>
<path d="M199.026 154.8C199.157 154.8 199.263 154.693 199.263 154.562C199.263 154.431 199.157 154.325 199.026 154.325C198.895 154.325 198.788 154.431 198.788 154.562C198.788 154.693 198.895 154.8 199.026 154.8Z" fill="#010101" stroke="#010101" stroke-width="2" stroke-miterlimit="10"/>
<path d="M220.658 161.245C220.789 161.245 220.895 161.139 220.895 161.008C220.895 160.877 220.789 160.771 220.658 160.771C220.527 160.771 220.421 160.877 220.421 161.008C220.421 161.139 220.527 161.245 220.658 161.245Z" fill="#010101" stroke="#010101" stroke-width="2" stroke-miterlimit="10"/>
<path d="M198.087 157.551C198.218 157.551 198.324 157.444 198.324 157.313C198.324 157.182 198.218 157.076 198.087 157.076C197.956 157.076 197.849 157.182 197.849 157.313C197.849 157.444 197.956 157.551 198.087 157.551Z" fill="#010101" stroke="#010101" stroke-width="2" stroke-miterlimit="10"/>
<path d="M193.345 156.963C193.476 156.963 193.582 156.857 193.582 156.726C193.582 156.595 193.476 156.489 193.345 156.489C193.214 156.489 193.107 156.595 193.107 156.726C193.107 156.857 193.214 156.963 193.345 156.963Z" fill="#010101" stroke="#010101" stroke-width="2" stroke-miterlimit="10"/>
<path d="M201.207 156.071C201.338 156.071 201.444 155.964 201.444 155.833C201.444 155.702 201.338 155.596 201.207 155.596C201.076 155.596 200.97 155.702 200.97 155.833C200.97 155.964 201.076 156.071 201.207 156.071Z" fill="#010101" stroke="#010101" stroke-width="2" stroke-miterlimit="10"/>
<path d="M196.534 155.563C196.665 155.563 196.772 155.457 196.772 155.326C196.772 155.195 196.665 155.089 196.534 155.089C196.403 155.089 196.297 155.195 196.297 155.326C196.297 155.457 196.403 155.563 196.534 155.563Z" fill="#010101" stroke="#010101" stroke-width="2" stroke-miterlimit="10"/>
<path d="M189.698 151.959C190.211 151.551 190.99 151.043 192.024 150.773C193.007 150.518 193.27 150.683 195.268 150.543C195.797 150.507 196.545 150.417 198.035 150.159C200.962 149.654 202.063 149.069 203.554 148.764C206.491 148.166 209.015 149.053 210.771 149.669C214.299 150.909 213.729 152.041 218.876 154.537C220.692 155.416 222.435 156.452 224.299 157.218C224.547 157.319 225.395 157.662 226.293 158.291C227.249 158.961 227.85 159.606 228.072 159.84C228.072 159.84 229.825 161.691 232.933 163.256C237.113 165.363 241.587 163.426 241.775 164.107C241.858 164.404 241.087 165.048 237.464 166.559C235.375 166.523 232.435 166.157 229.583 164.468C226.744 162.787 227.19 161.691 224.088 159.394C221.455 157.443 218.647 157.21 215.248 155.362C211.95 153.568 212.592 152.642 209.941 151.734C209.113 151.451 206.375 150.515 203.373 151.26C202.517 151.471 201.308 151.902 199.134 152.358C197.684 152.663 197.282 152.655 197.014 152.657C196.189 152.67 195.776 152.673 194.523 152.572C193.829 152.516 192.403 152.99 189.244 155.184C189.394 154.106 189.544 153.031 189.693 151.954L189.698 151.959Z" fill="#C19672" stroke="#010101" stroke-width="2" stroke-miterlimit="10"/>
<path d="M161.088 133.903L156.446 140.906L153.633 139.168L156.892 130.82L161.088 133.903Z" fill="#FDF7BE" stroke="#010101" stroke-miterlimit="10"/>
<path d="M163.099 144.087C163.099 144.087 170.172 133.695 169.383 131.738C168.597 129.781 166.464 130.761 165.572 131.738C164.68 132.717 161.289 142.669 161.289 142.669L163.096 144.087H163.099Z" fill="#FDF7BE" stroke="#010101" stroke-width="2" stroke-miterlimit="10"/>
<path d="M169.082 143.801C169.082 143.801 175.258 138.073 174.737 135.667C174.216 133.262 171.163 133.927 169.902 136.68C168.641 139.436 167.738 142.358 167.738 142.358L169.082 143.801Z" fill="#FDF7BE" stroke="#010101" stroke-width="2" stroke-miterlimit="10"/>
<path d="M152.89 163.488C152.89 163.488 152.936 157.246 154.697 156.944C154.697 156.944 156.175 157.744 161.002 156.086C161.002 156.086 162.97 155.931 164.017 156.55C165.064 157.169 166.031 157.826 166.748 156.766C167.462 155.709 166.26 153.124 164.767 152.438C163.272 151.752 155.654 148.215 155.654 148.215L149.073 146.709C149.073 146.709 145.806 152.342 147.856 154.619C147.856 154.619 145.819 162.665 144.625 163.738L152.892 163.488H152.89Z" fill="#FDF7BE" stroke="#010101" stroke-width="6" stroke-miterlimit="10"/>
<path d="M141.967 215.078C141.967 215.078 143.787 220.822 152.194 221.941C160.6 223.062 181.529 220.995 181.529 220.995L189.105 193.096C189.105 193.096 174.445 196.484 159.092 199.743C159.092 199.743 154.749 167.229 154.937 162.158C154.937 162.158 146.6 155.834 141.853 160.972C141.853 160.972 141.288 211.801 141.967 215.075V215.078Z" fill="#00A651" stroke="#010101" stroke-width="3" stroke-miterlimit="10"/>
<path d="M89.3144 108.821C84.0771 119.541 82.4319 129.477 85.6372 131.016C85.9931 131.186 86.3979 131.24 86.8389 131.199V131.204C99.9645 125.61 108.985 125.398 114.114 127.597C115.986 128.399 119.137 129.789 122.459 131.266C118.951 132.032 115.728 134.455 113.951 138.091C110.991 144.147 113.155 151.309 118.774 154.052L120.955 155.117C120.981 155.315 121.051 155.457 121.169 155.514L124.137 156.963C124.256 157.02 124.408 156.989 124.581 156.888L139.695 164.269L138.661 166.386C138.624 166.461 138.614 166.549 138.63 166.641C138.544 166.688 138.483 166.747 138.446 166.822L138.036 167.665C137.781 168.188 138.854 169.235 140.432 170.006C142.01 170.777 143.496 170.978 143.751 170.455L144.163 169.611C144.2 169.537 144.21 169.449 144.194 169.356C144.28 169.31 144.341 169.251 144.377 169.176L154.228 149.009L154.824 149.301L144.973 169.467C144.937 169.542 144.927 169.63 144.942 169.722C144.857 169.769 144.795 169.828 144.759 169.903L144.349 170.746C144.094 171.269 145.167 172.316 146.745 173.087C148.323 173.858 149.808 174.059 150.064 173.535L150.476 172.692C150.512 172.618 150.523 172.53 150.507 172.437C150.592 172.391 150.654 172.331 150.69 172.257L160.541 152.09L161.136 152.381L151.286 172.548C151.25 172.623 151.239 172.71 151.255 172.803C151.17 172.85 151.108 172.909 151.072 172.984L150.662 173.827C150.407 174.35 151.479 175.397 153.057 176.168C154.636 176.939 156.121 177.14 156.376 176.616L156.789 175.773C156.825 175.699 156.835 175.611 156.82 175.518C156.905 175.472 156.967 175.412 157.003 175.338L166.853 155.171L180.866 162.014L180.856 162.06C180.632 163.089 180.139 164.117 179.677 165.061C178.38 167.714 177.648 169.898 175.141 170.785C174.427 171.045 173.672 171.166 172.937 171.125C172.73 171.107 172.529 171.076 172.331 171.035C172.282 168.797 171.103 166.719 169.074 165.729L163.114 162.818L161.198 166.739L167.155 169.65C168.127 170.125 168.501 171.365 167.991 172.414C167.478 173.463 166.271 173.93 165.299 173.456L164.339 172.986C164.192 172.914 163.994 172.981 163.772 173.151L159.166 170.903L157.601 174.11L162.207 176.359C162.207 176.637 162.279 176.836 162.423 176.908L163.383 177.377C165.574 178.447 168.153 177.957 169.989 176.343C170.092 176.371 170.198 176.4 170.301 176.431C170.99 176.588 171.694 176.683 172.405 176.707C173.826 176.766 175.27 176.544 176.64 176.044C179.381 175.064 181.813 172.924 183.215 170.228C184.172 168.374 185.294 166.515 186.047 164.551L187.746 165.381C187.751 165.644 187.818 165.824 187.952 165.891L188.004 165.909L193.987 168.059C194.087 168.108 194.208 168.106 194.337 168.059L195.552 168.652C195.578 168.774 195.632 168.861 195.712 168.9L197.901 169.97C197.953 170.06 198.017 170.137 198.094 170.207C198.904 170.921 200.663 172.19 201.589 172.747C202.061 172.976 202.976 172.066 203.636 170.712C204.296 169.359 204.451 168.077 203.982 167.848C202.973 167.459 200.892 166.83 199.83 166.654C199.735 166.639 199.637 166.639 199.539 166.654L197.334 165.577C197.254 165.538 197.153 165.548 197.04 165.602L195.825 165.009C195.781 164.878 195.709 164.783 195.609 164.734L190.235 161.336L190.191 161.307C190.057 161.24 189.871 161.299 189.662 161.457L186.916 160.116C186.936 158.154 186.493 156.213 185.611 154.521C184.984 153.307 184.128 152.137 183.081 151.299C181.947 150.389 180.657 149.708 179.376 149.045C177.56 148.104 175.742 147.168 173.927 146.23L171.763 145.111L172.274 144.064C172.3 144.013 172.313 143.956 172.313 143.894C172.362 143.855 172.4 143.812 172.423 143.76L172.836 142.917C173.027 142.528 172.475 141.842 171.529 141.2L171.983 140.269C173.073 140.622 173.95 140.635 174.141 140.246L174.553 139.403C174.809 138.88 173.736 137.833 172.158 137.062C170.58 136.291 169.094 136.09 168.839 136.613L168.426 137.456C168.236 137.846 168.788 138.532 169.734 139.173L169.28 140.104C168.189 139.751 167.312 139.738 167.122 140.127L166.709 140.97C166.683 141.022 166.67 141.079 166.673 141.141C166.624 141.179 166.585 141.223 166.562 141.275L166.113 142.193L165.525 141.888L165.969 140.983C165.995 140.932 166.005 140.875 166.005 140.813C166.054 140.775 166.093 140.731 166.116 140.679L166.529 139.836C166.719 139.447 166.168 138.761 165.219 138.119L165.675 137.188C166.766 137.541 167.643 137.554 167.833 137.165L168.243 136.322C168.499 135.799 167.426 134.752 165.848 133.981C164.27 133.21 162.784 133.009 162.529 133.532L162.119 134.375C161.928 134.765 162.48 135.451 163.426 136.093L162.973 137.023C161.882 136.67 161.005 136.657 160.814 137.046L160.404 137.89C160.378 137.941 160.365 137.998 160.365 138.06C160.316 138.098 160.278 138.142 160.255 138.194L159.87 138.98C159.682 138.885 159.486 138.782 159.28 138.678L159.659 137.902C159.685 137.851 159.698 137.794 159.695 137.732C159.744 137.694 159.783 137.65 159.806 137.598L160.218 136.755C160.409 136.366 159.857 135.68 158.911 135.038L159.368 134.107C160.458 134.461 161.335 134.473 161.526 134.084L161.938 133.241C162.194 132.718 161.121 131.671 159.543 130.9C157.965 130.129 156.479 129.928 156.224 130.451L155.814 131.295C155.623 131.684 156.175 132.37 157.121 133.012L156.668 133.942C155.577 133.589 154.7 133.576 154.509 133.966L154.099 134.809C154.073 134.86 154.063 134.917 154.063 134.979C154.014 135.017 153.975 135.061 153.952 135.113L153.632 135.768C143.106 130.33 126.187 121.497 119.16 117.29C108.234 110.749 107.456 97.5771 105.777 93.5474L105.751 93.4881L105.741 93.4649C105.473 92.8694 105.099 92.4362 104.611 92.2016C101.406 90.6624 94.5621 98.1031 89.3247 108.823L89.3144 108.821ZM131.964 155.635L132.794 153.936C133.183 153.139 134.101 152.784 134.841 153.145L143.15 157.203L141.613 160.348L131.964 155.635ZM125.813 152.33L132.482 138.681L132.956 138.913C133.075 138.972 133.23 138.939 133.405 138.836L148.516 146.214L145.066 153.279L136.757 149.221C133.539 147.648 130.605 149.197 129.158 152.157L128.328 153.856L126.504 152.964C126.481 152.76 126.409 152.619 126.29 152.559L125.813 152.327V152.33ZM127.593 136L129.772 137.065C129.795 137.266 129.867 137.407 129.986 137.464L130.713 137.82L124.044 151.469L123.317 151.113C123.199 151.054 123.041 151.087 122.866 151.193L120.687 150.128C117.074 148.365 115.684 143.76 117.585 139.864C119.488 135.969 123.975 134.234 127.588 136H127.593Z" fill="#FDB932" stroke="#010101" stroke-width="2" stroke-miterlimit="10"/>
<path d="M89.9076 109.104C94.8767 98.9358 101.06 91.7247 103.717 93.0009C105.006 93.6222 105.228 96.123 104.547 99.699C103.827 103.491 102.089 108.491 99.5313 113.727C96.9629 118.989 94.067 123.457 91.5038 126.368C89.1108 129.085 87.0065 130.446 85.7249 129.83C83.0663 128.554 84.9384 119.275 89.9076 109.107V109.104Z" fill="#DE9339" stroke="#010101" stroke-width="2" stroke-miterlimit="10"/>
<path d="M153.682 174.889C155.033 175.549 156.317 175.792 156.817 175.521C156.833 175.616 156.825 175.701 156.786 175.776C156.531 176.3 155.046 176.096 153.468 175.328C151.889 174.557 150.817 173.51 151.072 172.987C151.108 172.912 151.17 172.85 151.255 172.806C151.351 173.368 152.33 174.232 153.682 174.892V174.889Z" fill="#DE9339" stroke="#010101" stroke-width="2" stroke-miterlimit="10"/>
<path d="M168.96 143.613C167.382 142.842 166.309 141.796 166.565 141.272C166.59 141.221 166.629 141.174 166.676 141.138C166.676 141.695 167.686 142.615 169.107 143.309C170.528 144.003 171.874 144.235 172.315 143.894C172.315 143.956 172.302 144.013 172.276 144.064C172.021 144.588 170.536 144.384 168.958 143.616L168.96 143.613Z" fill="#DE9339" stroke="#010101" stroke-width="2" stroke-miterlimit="10"/>
<path d="M169.52 142.466C167.942 141.695 166.869 140.648 167.124 140.125C167.315 139.736 168.192 139.749 169.283 140.102L169.009 140.664C168.893 140.898 169.303 141.337 169.925 141.641C170.546 141.945 171.142 141.999 171.258 141.762L171.531 141.2C172.48 141.842 173.029 142.525 172.839 142.917C172.583 143.441 171.098 143.237 169.52 142.469V142.466Z" fill="#DE9339" stroke="#010101" stroke-width="2" stroke-miterlimit="10"/>
<path d="M171.237 138.952C169.659 138.181 168.586 137.134 168.842 136.611C169.097 136.087 170.582 136.288 172.161 137.059C173.739 137.83 174.811 138.877 174.556 139.4C174.301 139.924 172.816 139.723 171.237 138.952Z" fill="#DE9339" stroke="#010101" stroke-width="2" stroke-miterlimit="10"/>
<path d="M147.369 171.805C148.72 172.465 150.004 172.708 150.505 172.437C150.52 172.532 150.512 172.617 150.474 172.692C150.218 173.216 148.733 173.015 147.155 172.244C145.577 171.473 144.504 170.426 144.759 169.903C144.795 169.828 144.857 169.766 144.942 169.722C145.038 170.284 146.018 171.148 147.369 171.808V171.805Z" fill="#DE9339" stroke="#010101" stroke-width="2" stroke-miterlimit="10"/>
<path d="M162.65 140.533C161.072 139.762 159.999 138.715 160.255 138.192C160.28 138.14 160.319 138.094 160.365 138.058C160.365 138.615 161.376 139.535 162.797 140.228C164.218 140.922 165.564 141.154 166.005 140.814C166.005 140.876 165.992 140.932 165.969 140.984C165.714 141.507 164.228 141.306 162.65 140.535V140.533Z" fill="#DE9339" stroke="#010101" stroke-width="2" stroke-miterlimit="10"/>
<path d="M163.21 139.383C161.631 138.612 160.559 137.565 160.814 137.042C161.005 136.652 161.882 136.665 162.972 137.018L162.699 137.58C162.583 137.815 162.993 138.253 163.614 138.557C164.236 138.862 164.832 138.916 164.948 138.679L165.221 138.117C166.17 138.759 166.719 139.442 166.528 139.834C166.273 140.357 164.788 140.153 163.21 139.385V139.383Z" fill="#DE9339" stroke="#010101" stroke-width="2" stroke-miterlimit="10"/>
<path d="M164.927 135.871C163.349 135.1 162.276 134.053 162.531 133.53C162.787 133.006 164.272 133.207 165.85 133.978C167.428 134.749 168.501 135.796 168.246 136.319C167.991 136.843 166.505 136.639 164.927 135.871Z" fill="#DE9339" stroke="#010101" stroke-width="2" stroke-miterlimit="10"/>
<path d="M141.059 168.725C142.41 169.385 143.694 169.627 144.195 169.356C144.21 169.452 144.202 169.537 144.164 169.612C143.908 170.135 142.423 169.931 140.845 169.163C139.267 168.392 138.194 167.345 138.449 166.822C138.485 166.747 138.547 166.685 138.632 166.642C138.728 167.204 139.708 168.067 141.059 168.727V168.725Z" fill="#DE9339" stroke="#010101" stroke-width="2" stroke-miterlimit="10"/>
<path d="M156.337 137.449C154.759 136.678 153.687 135.631 153.942 135.108C153.968 135.056 154.006 135.01 154.053 134.974C154.053 135.531 155.064 136.451 156.484 137.144C157.905 137.838 159.251 138.07 159.692 137.73C159.692 137.792 159.679 137.848 159.656 137.9C159.401 138.423 157.916 138.222 156.337 137.451V137.449Z" fill="#DE9339" stroke="#010101" stroke-width="2" stroke-miterlimit="10"/>
<path d="M156.9 136.301C155.322 135.531 154.249 134.484 154.504 133.96C154.695 133.571 155.572 133.584 156.662 133.937L156.389 134.499C156.273 134.737 156.683 135.172 157.305 135.476C157.926 135.781 158.522 135.835 158.638 135.598L158.911 135.036C159.86 135.678 160.409 136.361 160.219 136.753C159.963 137.276 158.478 137.072 156.9 136.304V136.301Z" fill="#DE9339" stroke="#010101" stroke-width="2" stroke-miterlimit="10"/>
<path d="M158.615 132.788C157.036 132.017 155.964 130.97 156.219 130.447C156.474 129.923 157.96 130.124 159.538 130.895C161.116 131.666 162.189 132.713 161.933 133.236C161.678 133.76 160.193 133.556 158.615 132.788Z" fill="#DE9339" stroke="#010101" stroke-width="2" stroke-miterlimit="10"/>
<path d="M196.952 167.443C197.365 166.6 197.486 165.816 197.223 165.687L197.045 165.6C197.158 165.546 197.259 165.535 197.339 165.574C197.654 165.729 197.545 166.598 197.099 167.515C196.65 168.433 196.032 169.052 195.717 168.897C195.637 168.859 195.583 168.771 195.557 168.65L195.735 168.737C195.996 168.866 196.542 168.286 196.952 167.443Z" fill="#DE9339" stroke="#010101" stroke-width="2" stroke-miterlimit="10"/>
<path d="M188.019 165.507C188.329 165.654 189.004 164.899 189.533 163.818C190.062 162.738 190.24 161.74 189.935 161.588L189.665 161.454C189.873 161.297 190.059 161.238 190.193 161.305L190.237 161.333C190.57 161.593 190.376 162.73 189.786 163.942C189.193 165.156 188.414 166.005 188.006 165.904L187.955 165.886C187.821 165.819 187.754 165.639 187.749 165.376L188.019 165.507Z" fill="#DE9339" stroke="#010101" stroke-width="2" stroke-miterlimit="10"/>
<path d="M104.549 99.6992C103.83 103.492 102.092 108.491 99.5336 113.727C96.9652 118.989 94.0693 123.457 91.5061 126.368C92.2256 122.575 93.9636 117.576 96.5191 112.34C99.0901 107.081 101.986 102.613 104.549 99.7018V99.6992Z" fill="#212427" stroke="#010101" stroke-width="2" stroke-miterlimit="10"/>
<path d="M164.063 175.278C163.535 176.361 162.8 177.091 162.423 176.905C162.276 176.833 162.207 176.635 162.207 176.356L162.511 176.503C162.79 176.64 163.367 176.031 163.8 175.147C164.234 174.263 164.357 173.432 164.079 173.296L163.775 173.149C163.996 172.979 164.195 172.912 164.342 172.984C164.718 173.167 164.595 174.196 164.066 175.276L164.063 175.278Z" fill="#DE9339" stroke="#010101" stroke-width="2" stroke-miterlimit="10"/>
<path d="M129.774 137.065L130.104 137.227C130.419 137.379 131.102 136.626 131.631 135.544C132.16 134.461 132.335 133.458 132.02 133.306L131.69 133.143C131.863 133.038 132.018 133.007 132.139 133.066C132.541 133.262 132.387 134.407 131.794 135.621C131.2 136.835 130.393 137.66 129.991 137.464C129.872 137.405 129.803 137.266 129.777 137.062L129.774 137.065Z" fill="#DE9339" stroke="#010101" stroke-width="2" stroke-miterlimit="10"/>
<path d="M121.288 155.274C121.602 155.426 122.286 154.674 122.814 153.591C123.343 152.508 123.518 151.505 123.204 151.353L123.186 151.348L122.868 151.193C123.044 151.087 123.198 151.054 123.32 151.113C123.722 151.309 123.567 152.454 122.974 153.668C122.381 154.882 121.574 155.707 121.172 155.511C121.053 155.455 120.983 155.313 120.958 155.114L121.288 155.274Z" fill="#DE9339" stroke="#010101" stroke-width="2" stroke-miterlimit="10"/>
<path d="M162.392 153.294L162.916 153.549L163.878 154.019C163.109 153.934 162.844 154.032 162.364 154.774C160.203 158.115 156.111 166.157 156.111 166.157L160.324 157.102C157.678 160.376 153.369 169.06 152.575 170.681L161.325 152.773L162.395 153.297L162.392 153.294Z" fill="#FFD459" stroke="#010101" stroke-width="2" stroke-miterlimit="10"/>
<path d="M184.505 160.06C184.505 160.06 178.958 157.463 176.408 156.574C176.111 156.471 173.254 155.135 170.518 153.918L171.544 152.825L188.29 161.003C187.187 160.469 181.256 157.618 178.473 156.968L184.507 160.06H184.505Z" fill="#FFD459" stroke="#010101" stroke-width="2" stroke-miterlimit="10"/>
<path d="M153.253 145.444C150.979 144.242 148.854 143.157 148.627 143.01C146.358 141.545 140.899 138.766 140.899 138.766L147.047 141.625C144.824 139.828 138.929 136.905 137.828 136.363L154.259 144.387C153.921 144.735 153.586 145.088 153.251 145.441L153.253 145.444Z" fill="#FFD459" stroke="#010101" stroke-width="2" stroke-miterlimit="10"/>
<path d="M153.702 147.106C157.65 149.208 166.786 153.823 168.045 154.57L167.501 155.15L152.861 148.001L153.699 147.106H153.702Z" fill="#DE9339" stroke="#010101" stroke-width="2" stroke-miterlimit="10"/>
<path d="M170.265 152.204L169.198 153.344C167.653 152.676 158.571 148.355 154.336 146.431L155.628 145.055L170.265 152.201V152.204Z" fill="#FFD459" stroke="#010101" stroke-width="2" stroke-miterlimit="10"/>
<path d="M156.082 150.214L156.606 150.469L157.568 150.938C156.799 150.853 156.534 150.951 156.051 151.694C153.893 155.035 149.798 163.076 149.798 163.076L154.012 154.022C151.366 157.296 147.057 165.979 146.263 167.601L155.012 149.693L156.082 150.216V150.214Z" fill="#FFD459" stroke="#010101" stroke-width="2" stroke-miterlimit="10"/>
<path d="M162.586 176.274L157.879 173.974L158.073 173.577C158.751 173.804 159.403 173.987 160.012 174.118C159.648 173.938 159.295 173.742 158.95 173.536C159.95 173.878 161.51 174.232 162.013 174.296C162.498 174.353 162.988 174.348 163.398 174.208C163.645 174.113 163.816 173.982 163.898 173.811C164.017 173.569 163.968 173.445 163.968 173.445C164.071 173.497 164.081 174.116 163.632 175.033C163.184 175.954 162.689 176.325 162.586 176.274Z" fill="#DE9339" stroke="#010101" stroke-width="2" stroke-miterlimit="10"/>
<path d="M160.167 172.04C160.518 172.182 160.845 172.36 161.16 172.561C160.822 172.411 160.471 172.285 160.118 172.202C159.793 172.125 159.45 172.086 159.156 172.146C158.821 172.334 158.56 172.589 158.56 172.589L159.264 171.148L163.362 173.149C163.362 173.149 161.136 172.205 159.973 171.97C160.04 171.994 160.105 172.017 160.169 172.043L160.167 172.04Z" fill="#FFD459" stroke="#010101" stroke-width="2" stroke-miterlimit="10"/>
<path d="M164.605 175.315C164.499 175.715 164.293 176.101 164.375 176.498C164.682 176.596 165.035 176.663 165.376 176.687C165.791 176.715 166.214 176.694 166.627 176.604C167.039 176.516 167.449 176.385 167.828 176.181C168.218 175.993 168.568 175.733 168.909 175.457C168.607 175.771 168.287 176.081 167.913 176.326C167.55 176.586 167.14 176.777 166.714 176.929C166.286 177.081 165.832 177.164 165.373 177.192C165.221 177.2 165.074 177.2 164.925 177.197C165.51 177.514 166.382 177.429 166.959 177.303C167.97 177.081 168.849 176.55 169.638 175.895C170.363 175.292 171.023 174.583 171.529 173.786C171.487 173.884 171.449 173.982 171.402 174.077C169.896 177.164 166.348 178.54 163.496 177.145L163.034 176.921C163.171 176.849 163.3 176.754 163.406 176.656C163.824 176.269 164.12 175.748 164.342 175.23C164.466 174.941 164.625 174.572 164.723 174.196C164.726 174.286 164.723 174.377 164.723 174.451C164.716 174.743 164.682 175.031 164.607 175.312L164.605 175.315Z" fill="#DE9339" stroke="#010101" stroke-width="2" stroke-miterlimit="10"/>
<path d="M165.518 167.972C166.217 168.109 166.944 168.214 167.563 168.588C168.068 168.892 168.517 169.377 168.769 169.913C169.321 171.084 168.909 172.51 168.138 173.476C168.001 173.649 167.849 173.806 167.692 173.961C167.715 173.946 167.738 173.93 167.761 173.915C168.104 173.67 168.432 173.389 168.7 173.051C168.984 172.724 169.203 172.347 169.409 171.96C169.257 172.37 169.084 172.78 168.837 173.152C168.604 173.533 168.303 173.871 167.973 174.18C167.64 174.487 167.256 174.745 166.843 174.951C166.425 175.157 165.487 175.451 164.912 175.534C165.007 175.191 165.066 174.848 165.079 174.482C165.092 174.162 165.079 173.801 164.883 173.533L165.188 173.683C166.286 174.219 167.645 173.701 168.22 172.525C168.793 171.352 168.367 169.96 167.269 169.423L161.539 166.626L163.071 163.494C162.993 163.929 162.771 164.355 162.624 164.757C162.421 165.309 162.302 165.902 162.593 166.446C163.125 167.443 164.504 167.776 165.518 167.977V167.972Z" fill="#DE9339" stroke="#010101" stroke-width="2" stroke-miterlimit="10"/>
<path d="M171.176 173.685C170.629 174.52 169.907 175.244 169.115 175.85C169.551 175.327 169.891 174.716 170.162 174.089C170.206 173.986 170.25 173.881 170.291 173.775L170.227 173.87C169.845 174.376 169.386 174.824 168.855 175.157C168.326 175.489 167.733 175.727 167.117 175.788C167.723 175.67 168.28 175.384 168.757 175.018C169.236 174.649 169.631 174.187 169.946 173.68L170.165 173.29C170.232 173.159 170.286 173.017 170.345 172.88C170.477 172.612 170.541 172.316 170.637 172.037C170.714 171.748 170.763 171.452 170.83 171.163L170.905 170.516C170.861 169.431 170.523 168.379 169.866 167.507C168.355 165.507 165.711 165.009 163.842 163.457L168.958 165.955C171.023 166.963 172.297 169.163 172.063 171.457C171.98 172.256 171.617 173.004 171.173 173.687L171.176 173.685Z" fill="#FFD459" stroke="#010101" stroke-width="2" stroke-miterlimit="10"/>
<path d="M171.81 176.325C171.565 176.278 170.995 176.15 170.742 176.093C171.144 175.634 171.477 175.118 171.74 174.556C172.114 173.765 172.416 172.914 172.467 172.035C172.472 172.076 172.478 172.117 172.483 172.153C172.529 172.543 172.54 172.932 172.493 173.324C172.429 173.876 172.228 174.43 172.413 174.946C172.841 175.018 173.326 175.038 173.782 175.005C174.339 174.964 174.899 174.853 175.433 174.657C175.964 174.461 176.49 174.208 176.954 173.863C177.437 173.538 177.854 173.125 178.257 172.692C177.914 173.169 177.547 173.644 177.096 174.041C176.663 174.456 176.152 174.791 175.611 175.074C175.069 175.358 174.481 175.557 173.875 175.68C173.677 175.719 173.478 175.75 173.277 175.773C174.12 176.085 175.265 175.804 176.008 175.526C177.315 175.038 180.534 173.316 183.264 169.604C180.459 174.799 175.095 176.956 171.807 176.322L171.81 176.325Z" fill="#DE9339" stroke="#010101" stroke-width="2" stroke-miterlimit="10"/>
<path d="M178.076 169.877C177.671 170.316 177.21 170.728 176.72 171.066C176.312 171.347 175.866 171.669 175.41 171.878C175.938 171.654 176.482 171.512 176.985 171.218C177.671 170.818 178.285 170.336 178.798 169.728C178.581 170.197 178.12 170.661 177.779 171.043C177.357 171.517 176.867 171.932 176.366 172.324C175.99 172.62 175.539 172.878 175.123 173.108C174.811 173.28 174.468 173.404 174.131 173.507C174.027 173.541 173.029 173.861 173.022 173.917C173.084 173.443 173.097 172.974 173.045 172.484C172.999 172.053 172.913 171.576 172.604 171.259C172.834 171.334 173.086 171.447 173.329 171.473C173.893 171.535 174.566 171.303 175.09 171.107C175.66 170.896 176.204 170.604 176.699 170.254C177.199 169.898 177.656 169.478 178.048 169.003C178.453 168.516 178.721 167.969 179.046 167.438C179.77 166.252 180.34 164.961 180.776 163.641C180.827 163.483 180.856 163.262 180.954 163.143C180.843 164.386 180.474 165.6 179.964 166.734C179.479 167.812 178.883 168.998 178.076 169.872V169.877Z" fill="#DE9339" stroke="#010101" stroke-width="2" stroke-miterlimit="10"/>
<path d="M125.522 156.308C126.579 155.06 126.783 153.397 126.783 153.397L137.227 158.497C137.227 158.497 131.822 156.303 129.212 155.566C127.082 154.965 125.522 156.308 125.522 156.308Z" fill="#FFD459" stroke="#010101" stroke-width="2" stroke-miterlimit="10"/>
<path d="M123.328 155.738C123.433 155.88 123.428 156.009 123.66 156.146C123.805 156.231 123.941 156.148 124.078 156.076C124.217 156.004 124.354 155.901 124.48 155.785C124.73 155.553 124.955 155.282 125.151 154.991C125.004 155.308 124.823 155.615 124.604 155.898C124.511 156.017 124.405 156.125 124.284 156.226C124.457 156.159 124.614 156.037 124.743 155.914C125.579 155.109 126.133 153.918 126.211 152.83C126.321 153.016 126.288 153.833 125.715 155.003C125.089 156.285 124.398 156.803 124.251 156.731L122.041 155.651C122.224 155.645 122.412 155.604 122.587 155.576C122.871 155.527 123.132 155.475 123.328 155.733V155.738Z" fill="#DE9339" stroke="#010101" stroke-width="2" stroke-miterlimit="10"/>
<path d="M132.144 137.691C132.25 137.833 132.245 137.962 132.477 138.098C132.621 138.183 132.758 138.101 132.895 138.029C133.034 137.956 133.171 137.853 133.297 137.737C133.547 137.505 133.771 137.235 133.967 136.943C133.818 137.26 133.64 137.567 133.421 137.851C133.328 137.969 133.22 138.078 133.101 138.178C133.274 138.111 133.431 137.99 133.56 137.866C134.395 137.062 134.95 135.871 135.027 134.783C135.138 134.968 135.105 135.786 134.532 136.956C133.905 138.237 133.214 138.756 133.067 138.684L130.857 137.603C131.041 137.598 131.229 137.557 131.404 137.528C131.69 137.479 131.951 137.428 132.144 137.686V137.691Z" fill="#DE9339" stroke="#010101" stroke-width="2" stroke-miterlimit="10"/>
<path d="M116.174 142.587C116.197 141.406 116.471 140.218 116.974 139.145C117.451 138.124 118.162 137.258 119.042 136.557C120.452 135.433 122.159 134.736 123.941 134.543C123.5 134.548 123.059 134.571 122.611 134.6C123.131 134.437 123.673 134.306 124.225 134.275C124.774 134.223 125.331 134.244 125.88 134.308C126.43 134.376 126.971 134.492 127.495 134.667C128.018 134.837 128.529 135.061 128.99 135.355C128.472 135.177 127.948 135.043 127.425 134.92H127.412C127.894 135.11 128.338 135.371 128.802 135.605C129.184 135.799 129.612 136.008 130.053 135.951C130.344 135.912 130.61 135.775 130.831 135.587C131.342 135.157 131.649 134.512 131.827 133.878C131.791 134.2 131.651 134.729 131.327 135.394C130.865 136.34 130.385 136.827 130.207 136.9L127.742 135.696C123.962 133.85 119.271 135.652 117.286 139.715C116.362 141.605 116.184 143.657 116.641 145.498C116.316 144.562 116.153 143.58 116.174 142.587Z" fill="#DE9339" stroke="#010101" stroke-width="2" stroke-miterlimit="10"/>
<path d="M112.938 116.911C111.094 115.637 109.539 114.4 108.188 112.608C106.976 110.999 106.024 109.207 105.315 107.325C104.869 106.139 104.521 104.91 104.263 103.662C104.665 102.308 104.985 101.022 105.212 99.8255C105.614 97.7139 105.699 96.0098 105.475 94.749C105.697 95.4761 105.921 96.3707 106.166 97.3581C107.584 103.048 109.957 112.569 118.804 117.868C125.816 122.065 142.809 130.936 152.725 136.062C152.725 136.062 133.918 128.851 125.091 124.071C120.957 121.833 116.811 119.587 112.935 116.914L112.938 116.911Z" fill="#FFD459" stroke="#010101" stroke-width="2" stroke-miterlimit="10"/>
<path d="M198.677 167.48C198.623 167.578 198.476 167.879 198.337 167.841C198.257 167.82 198.244 167.585 198.229 167.524C198.205 167.42 198.177 167.31 198.105 167.23C197.984 167.09 197.806 167.108 197.672 167.212C197.519 167.328 197.416 167.506 197.321 167.665C197.197 167.872 197.06 168.073 196.893 168.248C196.823 168.32 196.751 168.382 196.674 168.436C196.87 168.176 197.053 167.874 197.205 167.562C197.488 166.982 197.692 166.327 197.674 165.855L199.379 166.688C199.216 166.735 199.069 166.858 198.953 167.023C198.85 167.168 198.765 167.325 198.677 167.482V167.48Z" fill="#FFD459" stroke="#010101" stroke-width="2" stroke-miterlimit="10"/>
<path d="M197.313 169.117C197.398 169.23 197.393 169.333 197.579 169.441C197.695 169.508 197.803 169.444 197.914 169.387C198.025 169.33 198.136 169.251 198.234 169.158C198.432 168.975 198.613 168.758 198.767 168.529C198.649 168.781 198.51 169.024 198.332 169.248C198.257 169.341 198.172 169.428 198.076 169.508C198.213 169.457 198.339 169.361 198.443 169.263C199.108 168.627 199.549 167.683 199.606 166.819C199.693 166.969 199.67 167.616 199.216 168.544C198.721 169.56 198.169 169.967 198.053 169.911L196.284 169.047C196.431 169.044 196.581 169.011 196.72 168.988C196.947 168.949 197.156 168.908 197.31 169.117H197.313Z" fill="#DE9339" stroke="#010101" stroke-width="2" stroke-miterlimit="10"/>
<path d="M196.462 166.492C196.416 166.577 196.287 166.845 196.184 166.822C196.125 166.809 196.13 166.611 196.125 166.559C196.114 166.471 196.099 166.381 196.052 166.317C195.973 166.206 195.836 166.234 195.728 166.33C195.606 166.438 195.519 166.595 195.436 166.74C195.33 166.923 195.214 167.103 195.078 167.263C195.021 167.33 194.962 167.387 194.902 167.438C195.065 167.206 195.222 166.936 195.356 166.66C195.606 166.147 195.802 165.577 195.818 165.177L197.04 165.773C196.916 165.822 196.798 165.938 196.7 166.085C196.612 166.216 196.537 166.355 196.462 166.492Z" fill="#FFD459" stroke="#010101" stroke-width="2" stroke-miterlimit="10"/>
<path d="M195.333 167.972C195.39 168.062 195.379 168.15 195.511 168.23C195.593 168.279 195.678 168.217 195.763 168.163C195.851 168.106 195.939 168.031 196.019 167.946C196.181 167.776 196.328 167.583 196.46 167.377C196.354 167.598 196.233 167.815 196.088 168.016C196.026 168.101 195.957 168.178 195.879 168.253C195.985 168.199 196.086 168.111 196.168 168.021C196.707 167.436 197.099 166.606 197.197 165.866C197.254 165.987 197.195 166.539 196.792 167.358C196.354 168.253 195.916 168.637 195.83 168.596L194.562 167.977C194.673 167.964 194.786 167.928 194.892 167.9C195.065 167.854 195.222 167.805 195.328 167.97L195.333 167.972Z" fill="#DE9339" stroke="#010101" stroke-width="2" stroke-miterlimit="10"/>
<path d="M193.646 164.321C193.393 164.133 193.226 163.855 193.017 163.625C192.865 163.46 192.695 163.308 192.509 163.182C192.145 162.932 191.699 162.764 191.261 162.896C190.784 163.037 190.474 163.486 190.103 163.808C190.773 162.47 190.505 162.071 190.578 161.689L195.031 164.62C194.894 164.587 194.758 164.558 194.613 164.543C194.288 164.509 193.922 164.525 193.649 164.321H193.646Z" fill="#FFD459" stroke="#010101" stroke-width="2" stroke-miterlimit="10"/>
<path d="M189.649 164.584C189.698 165.104 189.879 165.504 190.134 165.821C190.464 166.058 190.83 166.247 191.23 166.36C191.715 166.502 192.238 166.551 192.751 166.481C192.249 166.605 191.712 166.615 191.191 166.525C191.109 166.512 191.029 166.489 190.946 166.468C191.973 167.007 193.277 167.02 193.589 167.231C193.677 167.291 193.636 167.409 193.767 167.489C193.85 167.538 193.935 167.476 194.02 167.422C194.108 167.365 194.195 167.291 194.275 167.206C194.438 167.035 194.585 166.842 194.716 166.636C194.613 166.858 194.489 167.074 194.345 167.275C194.283 167.36 194.214 167.438 194.136 167.512C194.242 167.458 194.342 167.371 194.425 167.28C194.964 166.695 195.356 165.865 195.454 165.125C195.511 165.246 195.451 165.798 195.049 166.618C194.611 167.512 194.172 167.897 194.087 167.855L188.507 165.911C188.618 165.898 189.193 165.54 189.644 164.581L189.649 164.584Z" fill="#DE9339" stroke="#010101" stroke-width="2" stroke-miterlimit="10"/>
<path d="M200.263 171.117C200.905 171.566 201.478 171.896 201.906 171.682C201.862 171.677 201.818 171.671 201.774 171.664C201.529 171.62 201.295 171.54 201.07 171.447C200.843 171.354 200.635 171.233 200.428 171.109C200.225 170.981 200.034 170.839 199.846 170.692C200.049 170.818 200.256 170.934 200.467 171.037C200.681 171.135 200.898 171.228 201.125 171.29C201.349 171.354 201.576 171.401 201.803 171.414C201.968 171.424 202.148 171.414 202.3 171.385C202.785 170.955 203.51 170.109 204.023 168.062C204.023 168.062 204.023 170.803 201.805 172.6L198.309 170.112C198.309 170.112 199.562 170.632 200.261 171.12L200.263 171.117Z" fill="#DE9339" stroke="#010101" stroke-width="2" stroke-miterlimit="10"/>
<path d="M252.064 267.185C244.142 248.333 252.771 207.714 252.771 207.714C243.379 214.288 219.565 249.375 215.939 267.185C219.738 268.618 223.539 270.052 227.337 271.483C231.422 271.398 236.216 270.998 241.502 269.969C245.445 269.201 248.98 268.216 252.064 267.182V267.185Z" fill="#A72025" stroke="#010101" stroke-width="3" stroke-miterlimit="10"/>
<path d="M254.352 192.32C254.352 192.32 259.323 191.506 254.352 202.445C249.38 213.384 243.732 203.896 243.732 203.896L254.352 192.32Z" fill="#7A4519"/>
<path d="M189.726 267.186L175.804 266.892C175.804 266.892 175.814 266.993 175.832 267.186H189.726Z" fill="#543851" stroke="#010101" stroke-width="3" stroke-miterlimit="10"/>
<path opacity="0.5" d="M189.726 267.186L175.804 266.892C175.804 266.892 175.814 266.995 175.832 267.186H189.726Z" fill="#3B203A" stroke="#010101" stroke-width="3" stroke-miterlimit="10"/>
<path d="M239.653 270.311C237.915 269.904 233.565 268.625 231.509 264.786C231.285 264.368 231.079 263.899 230.906 263.378C230.906 263.378 262.046 213.421 255.272 195.747C255.272 195.747 252.908 188.198 241.162 188.554L179.175 204.227C179.175 204.227 162.39 241.711 174.167 267.186C180.456 269.318 188.009 271.298 196.663 272.448C214.353 274.797 229.348 272.701 239.65 270.311H239.653Z" fill="#00A651" stroke="#010101" stroke-width="3" stroke-miterlimit="10"/>
<path d="M187.001 267.186C196.661 257.337 216.164 237.722 219.065 236.877C219.065 236.877 224.506 240.491 229.037 240.491C231.969 240.491 244.627 236.846 251.384 222.723C254.099 215.483 256.028 208.442 256.221 202.729C244.584 199.96 208.624 214.287 208.624 214.287L178.208 254.909V267.186H186.999H187.001Z" fill="#008E46" stroke="#010101" stroke-width="3" stroke-miterlimit="10"/>
<path d="M175.046 267.186H182.628C200.761 241.492 255.579 192.576 255.579 192.576C254.125 188.26 231.185 187.45 231.185 187.45C196.927 183.913 180.549 190.356 180.549 190.356C175.531 212.338 174.587 260.542 175.044 267.152C175.044 267.163 175.044 267.173 175.046 267.183V267.186Z" fill="#F15755" stroke="#010101" stroke-width="3" stroke-miterlimit="10"/>
<path d="M196.13 187.19C194.369 194.644 191.633 212.642 191.395 223.097C191.395 223.097 220.287 196.121 231.185 187.451C219.532 186.654 203.038 186.427 196.13 187.19Z" fill="#42A383" stroke="#010101" stroke-width="3" stroke-miterlimit="10"/>
<path d="M219.065 190.142C219.065 190.142 213.263 196.088 205.294 196.113C203.154 196.121 201.945 192.202 202.347 188.528L219.067 190.142H219.065Z" fill="#B25E28" stroke="#010101" stroke-width="3" stroke-miterlimit="10"/>
<path d="M175.046 267.186H182.628C200.761 241.492 255.579 192.576 255.579 192.576C255.071 191.068 251.938 189.988 248.078 189.222C219.333 201.27 178.574 264.092 178.574 264.092C175.691 252.336 183.267 200.638 184.657 189.15C181.908 189.825 180.549 190.359 180.549 190.359C169.977 215.135 174.587 260.545 175.044 267.155C175.044 267.166 175.044 267.176 175.046 267.186Z" fill="#EA892E" stroke="#010101" stroke-width="3" stroke-miterlimit="10"/>
<path d="M200.201 173.113C200.201 173.113 194.464 167.907 205.276 167.637L200.201 173.113Z" fill="#F8A066"/>
<path d="M200.201 173.112C200.201 173.112 200.057 173.014 199.827 172.816C199.603 172.612 199.283 172.308 198.987 171.867C198.837 171.645 198.685 171.393 198.582 171.094C198.476 170.797 198.401 170.449 198.445 170.081C198.486 169.712 198.646 169.338 198.896 169.047C199.147 168.75 199.464 168.544 199.778 168.353C200.106 168.191 200.441 168.059 200.776 167.956C200.944 167.907 201.112 167.863 201.277 167.822C201.444 167.791 201.607 167.76 201.769 167.729C202.416 167.621 203.025 167.58 203.546 167.569C204.064 167.562 204.497 167.577 204.799 167.603C205.101 167.629 205.274 167.642 205.274 167.642C205.274 167.642 205.103 167.67 204.804 167.719C204.655 167.74 204.474 167.765 204.268 167.796C204.062 167.832 203.829 167.871 203.577 167.905C203.327 167.948 203.053 167.995 202.764 168.046C202.478 168.103 202.179 168.165 201.872 168.237C201.72 168.276 201.565 168.314 201.408 168.356C201.256 168.405 201.101 168.454 200.944 168.5C200.634 168.601 200.335 168.727 200.052 168.874C199.778 169.031 199.51 169.199 199.319 169.421C199.131 169.64 198.994 169.887 198.951 170.155C198.855 170.699 199.054 171.264 199.27 171.702C199.49 172.148 199.734 172.499 199.907 172.744C200.083 172.986 200.193 173.12 200.193 173.12L200.201 173.112Z" fill="#935125"/>
<path d="M204.505 169.354C203.868 170.627 202.579 171.269 201.624 170.792C200.67 170.313 200.415 168.895 201.052 167.624C201.689 166.353 202.811 165.435 203.762 165.912C204.716 166.389 205.139 168.08 204.502 169.351L204.505 169.354Z" fill="#CB6D27"/>
<path d="M203.93 168.781C203.293 170.052 202.004 170.697 201.05 170.217C200.096 169.74 199.84 168.323 200.48 167.051C201.117 165.78 202.406 165.136 203.36 165.613C204.312 166.09 204.567 167.51 203.93 168.781Z" fill="#EA892E"/>
<path d="M174.837 171.984C174.837 171.984 168.06 158.626 168.251 157.582C168.251 157.582 167.728 156.821 170.105 155.682C172.48 154.54 173.337 155.682 173.337 155.682C173.337 155.682 175.523 156.535 175.714 154.919C175.858 153.697 173.334 151.956 170.771 151.688C168.398 151.438 167.764 152.637 165.822 152.294C163.723 151.923 162.395 150.162 161.616 149.095C157.343 143.255 160.35 136.441 156.74 134.384C156.57 134.286 155.605 133.736 155.041 134.11C154.192 134.672 154.948 136.869 155.783 140.979C156.621 145.088 156.841 147.682 156.877 147.674C156.918 147.669 156.474 144.467 155.783 140.979C155.185 137.959 154.502 134.492 153.854 134.525C153.444 134.549 153.215 135.974 153.143 136.42C152.787 138.645 153.388 140.032 153.945 142.871C154.476 145.578 154.543 147.439 154.564 147.437C154.584 147.434 154.424 145.336 153.945 142.871C153.671 141.468 152.715 136.575 151.66 136.598C151.353 136.603 150.915 137.031 150.417 139.086C150.61 139.483 150.873 140.092 151.069 140.862C151.59 142.925 151.209 144.508 151.069 145.601C150.667 148.759 151.815 151.446 152.431 152.887C153.62 155.666 155.043 156.118 157.14 158.662C159.868 161.97 159.987 164.27 162.026 169.501C163.259 172.664 165.257 177.065 168.558 182.144C170.649 178.759 172.741 175.371 174.832 171.986L174.837 171.984Z" fill="#FDF7BE"/>
<path d="M155.783 140.979C154.948 136.869 154.192 134.672 155.041 134.11C155.605 133.736 156.57 134.286 156.74 134.384C160.35 136.441 157.343 143.255 161.616 149.095C162.395 150.162 163.723 151.923 165.822 152.294C167.764 152.637 168.398 151.438 170.771 151.688C173.334 151.956 175.858 153.697 175.714 154.919C175.523 156.535 173.337 155.682 173.337 155.682C173.337 155.682 172.48 154.54 170.105 155.682C167.728 156.821 168.251 157.582 168.251 157.582C168.06 158.626 174.837 171.984 174.837 171.984L174.832 171.986C172.741 175.371 170.649 178.759 168.558 182.144C165.257 177.065 163.259 172.664 162.026 169.501C159.987 164.27 159.868 161.97 157.14 158.662C155.043 156.118 153.62 155.666 152.431 152.887C151.815 151.446 150.667 148.759 151.069 145.601C151.209 144.508 151.59 142.925 151.069 140.862C150.873 140.092 150.61 139.483 150.417 139.086C150.915 137.031 151.353 136.603 151.66 136.598C152.715 136.575 153.671 141.468 153.945 142.871M155.783 140.979C156.621 145.088 156.841 147.682 156.877 147.674C156.918 147.669 156.474 144.467 155.783 140.979ZM155.783 140.979C155.185 137.959 154.502 134.492 153.854 134.525C153.444 134.549 153.215 135.974 153.143 136.42C152.787 138.645 153.388 140.032 153.945 142.871M153.945 142.871C154.476 145.578 154.543 147.439 154.564 147.437C154.584 147.434 154.424 145.336 153.945 142.871Z" stroke="#010101" stroke-width="3" stroke-miterlimit="10"/>
<path d="M157.137 129.995C157.137 129.995 156.74 133.159 160.205 133.198C163.669 133.234 161.969 130.129 160.809 129.243C160.056 128.668 158.253 127.773 157.137 129.995Z" fill="#FDF7BE" stroke="#010101" stroke-width="2" stroke-miterlimit="10"/>
<path d="M199.35 204.064C199.35 204.064 181.488 176.748 176.56 168.408C176.56 168.408 168.813 164.009 162.158 173.206C162.158 173.206 183.306 227.935 192.496 227.072C197.445 226.605 257.923 227.966 251.319 199.302C248.544 187.257 205.908 204.832 199.348 204.064H199.35Z" fill="#00A651" stroke="#010101" stroke-width="3" stroke-miterlimit="10"/>
<path opacity="0.4" d="M192.496 227.071C196.818 226.664 243.482 227.649 250.845 208.818C238.405 208.093 198.804 220.01 194.162 219.948C189.74 219.889 170.585 188.138 162.895 175.085C166.712 184.689 184.327 227.84 192.496 227.071Z" fill="#593B55" stroke="#010101" stroke-width="3" stroke-miterlimit="10"/>
<path d="M225.122 182.383C225.21 183.804 225.3 185.227 225.388 186.648C217.984 195.798 209.294 198.843 205.292 196.11C204.709 195.713 202.499 194.011 202.344 188.525C202.651 187.542 202.955 186.563 203.262 185.58C206.54 185.903 210.965 185.985 216.058 185.047C219.647 184.384 222.693 183.379 225.122 182.381V182.383Z" fill="#FDF7BE" stroke="#010101" stroke-width="3" stroke-miterlimit="10"/>
<path d="M86.6187 67.6428C74.668 90.0584 46.8037 98.5509 24.3786 86.6001C1.95597 74.6517 -6.53574 46.7881 5.41501 24.3725C17.3682 1.95448 45.235 -6.53302 67.6552 5.41281C90.0803 17.3636 98.5695 45.2223 86.6162 67.6428H86.6187Z" fill="url(#paint0_radial_347_1702)"/>
<g style="mix-blend-mode:multiply" opacity="0.1">
<path d="M83.0774 18.7325C91.5666 30.9576 93.0779 47.389 85.5937 61.4243C74.9448 81.4038 50.1106 88.9713 30.1245 78.3195C10.1384 67.6702 2.57197 42.8411 13.2234 22.8615C23.7825 3.05406 48.2776 -4.54579 68.1739 5.69705C67.9993 5.6023 67.8297 5.50506 67.6576 5.41281C45.235 -6.53302 17.3682 1.95448 5.41501 24.3725C-6.53574 46.7906 1.95597 74.6517 24.3786 86.6001C46.8012 98.5509 74.668 90.0609 86.6187 67.6428C95.2227 51.5031 93.2325 32.5434 83.0774 18.7325Z" fill="#9899BD"/>
</g>
<path opacity="0.4" d="M85.0778 48.6279C77.4365 62.9624 58.4879 67.7871 42.7589 59.4043C27.0249 51.019 20.4659 32.6029 28.1072 18.2709C35.746 3.93636 54.6947 -0.888345 70.4286 7.49692C86.1601 15.8797 92.7191 34.2959 85.0778 48.6279Z" fill="white"/>
<path opacity="0.6" d="M80.686 33.8847C76.0373 42.6041 64.5105 45.5388 54.939 40.4398C45.3674 35.3383 41.3772 24.1355 46.0258 15.4161C50.6744 6.69427 62.2012 3.75955 71.7728 8.86102C81.3443 13.96 85.3346 25.1653 80.686 33.8847Z" fill="white"/>
<g style="mix-blend-mode:multiply" opacity="0.3">
<path d="M16.5629 69.6325C17.1739 67.3635 21.815 67.351 25.6955 70.2034C29.576 73.0584 28.3216 77.165 25.6955 77.8507C23.0695 78.5364 14.9643 75.5667 16.5629 69.6325Z" fill="#497DB2"/>
<path d="M59.3733 79.0327C58.9918 76.9906 61.124 74.39 64.5482 73.6295C67.9748 72.8665 71.172 74.0085 71.7031 77.1277C72.2368 80.2469 68.4761 83.2141 65.5233 82.3813C62.5705 81.5435 59.8297 81.4662 59.3733 79.0352V79.0327Z" fill="#497DB2"/>
<path d="M25.6583 82.5234C26.1396 80.8154 29.9229 82.0023 29.9578 84.3211C29.9952 86.64 25.1246 84.4184 25.6583 82.5234Z" fill="#497DB2"/>
<path d="M36.908 83.2166C37.6338 84.0269 39.8134 84.8722 40.2723 82.5234C40.7287 80.1746 34.6062 80.6459 36.908 83.2166Z" fill="#497DB2"/>
<path d="M53.2107 86.3354C54.8417 86.5299 57.1286 86.6296 57.4727 84.4329C57.8144 82.2387 52.9064 82.3684 51.839 83.5104C50.7716 84.6573 51.7642 86.1633 53.2082 86.3329L53.2107 86.3354Z" fill="#497DB2"/>
<path d="M76.9552 35.2784C78.0126 36.1137 81.2197 36.3456 81.7484 33.4532C82.2821 30.5609 78.7059 29.2668 76.9552 29.8752C75.2045 30.4836 73.6832 32.6927 76.9552 35.2784Z" fill="#497DB2"/>
<path d="M71.7555 20.6696C72.9401 21.7144 77.3693 22.2654 78.4192 20.3629C79.4692 18.458 76.6885 15.8275 73.0773 15.5682C69.4636 15.3088 67.5433 16.937 71.7555 20.6671V20.6696Z" fill="#497DB2"/>
<path d="M44.4898 14.5159C45.9512 15.5482 50.2432 14.8824 50.6223 12.4489C51.0038 10.0128 46.8041 9.4668 44.4898 10.3096C42.1754 11.1523 41.8138 12.6234 44.4898 14.5159Z" fill="#497DB2"/>
<path d="M34.2572 8.4949C35.8758 9.24042 38.24 9.02848 38.3422 7.88651C38.442 6.74454 36.9207 6.06135 35.2473 6.21345C33.5739 6.36305 32.2796 7.58232 34.2572 8.4949Z" fill="#497DB2"/>
<path d="M13.4805 18.4581C13.6949 17.2962 14.9269 18.2312 15.0042 18.8396C15.0815 19.448 13.1787 20.1337 13.4805 18.4581Z" fill="#497DB2"/>
<path d="M16.356 33.8325C15.9795 32.8326 17.5905 33.0695 17.6678 33.8325C17.7426 34.593 16.6453 34.593 16.356 33.8325Z" fill="#497DB2"/>
<path d="M12.1862 57.724C12.7174 58.6391 14.2736 58.1828 14.1439 56.8887C14.0118 55.5946 11.655 56.8114 12.1862 57.724Z" fill="#497DB2"/>
<path d="M9.82692 67.9917C10.0439 68.3682 11.211 68.7821 11.2809 67.5155C11.3482 66.2488 9.29572 67.0716 9.82692 67.9917Z" fill="#497DB2"/>
<path d="M47.5597 89.6071C48.3727 90.026 49.1583 89.2655 48.8715 88.3529C48.5872 87.4403 45.9013 88.7544 47.5597 89.6071Z" fill="#497DB2"/>
<path d="M43.7915 89.268C44.3327 88.677 42.8763 88.4477 42.3076 88.889C41.7365 89.3253 43.1057 90.011 43.7915 89.268Z" fill="#497DB2"/>
<path d="M39.4545 87.2683C40.0954 87.6847 40.5942 87.4403 40.654 86.8668C40.7089 86.2958 38.3123 86.5252 39.4545 87.2683Z" fill="#497DB2"/>
<path d="M45.6768 75.2849C45.5197 74.9109 47.1731 74.7139 47.0235 75.2849C46.8739 75.8559 45.9636 75.9681 45.6768 75.2849Z" fill="#497DB2"/>
<path d="M71.7554 54.5673C71.7604 53.7121 73.132 53.7669 73.1894 54.5673C73.2467 55.3677 71.7504 55.4225 71.7554 54.5673Z" fill="#497DB2"/>
<path d="M79.1274 40.9263C79.0701 40.0711 80.726 40.0137 80.7834 40.9263C80.8407 41.8414 79.1848 41.784 79.1274 40.9263Z" fill="#497DB2"/>
<path d="M66.9672 10.9654C66.8425 9.97554 67.9947 9.99549 68.1667 10.9654C68.3388 11.9353 67.027 11.4466 66.9672 10.9654Z" fill="#497DB2"/>
<path d="M58.9768 10.6237C58.079 9.99291 59.4331 9.4294 60.0042 9.94054C60.5753 10.4542 59.9469 11.3094 58.9768 10.6237Z" fill="#497DB2"/>
<path d="M51.3827 7.02801C50.8116 6.74377 51.5523 5.6367 52.298 6.18774C53.0387 6.74127 51.9538 7.31226 51.3827 7.02801Z" fill="#497DB2"/>
<path d="M47.2729 3.83189C46.6594 3.10881 48.0136 3.31825 48.4725 3.54764C48.9289 3.77704 48.2431 4.97386 47.2729 3.83189Z" fill="#497DB2"/>
<path d="M57.2609 6.03609C56.6923 4.85921 58.1762 5.7294 58.0589 6.03609C57.9467 6.34278 57.2609 6.03609 57.2609 6.03609Z" fill="#497DB2"/>
<path d="M47.39 6.1879C46.8737 5.7715 47.8314 5.73909 47.8663 6.17294C47.9037 6.60429 47.39 6.1879 47.39 6.1879Z" fill="#497DB2"/>
<path d="M38.6288 6.64408C38.3594 6.44711 38.9829 5.9584 39.3096 6.32992C39.6388 6.70143 39.1176 7.00064 38.6288 6.64408Z" fill="#497DB2"/>
<path d="M28.0949 13.6283C27.5786 13.2094 29.1248 12.6783 29.6934 13.2468C30.2645 13.8203 28.8929 14.2766 28.0949 13.6283Z" fill="#497DB2"/>
</g>
<defs>
<radialGradient id="paint0_radial_347_1702" cx="0" cy="0" r="1" gradientUnits="userSpaceOnUse" gradientTransform="translate(46.2118 46.8242) rotate(28.0452) scale(60.9206 60.9137)">
<stop stop-color="white"/>
<stop offset="1" stop-color="#D6D685"/>
</radialGradient>
</defs>
</svg>
