<svg width="548" height="402" viewBox="0 0 548 402" fill="none" xmlns="http://www.w3.org/2000/svg">
<path d="M154.664 53.0015L152.149 401.685L198.735 401.997C212.904 402.092 226.543 399.228 239.375 393.802C242.022 392.691 244.675 391.446 247.258 390.067C248.775 389.313 250.286 388.493 251.768 387.605C255.211 385.668 258.556 383.501 261.797 381.162C277.039 370.27 290.522 355.52 301.421 337.895C301.941 337.069 302.431 336.276 302.915 335.416C304.201 333.3 305.453 331.117 306.6 328.935C313.797 315.731 319.599 301.126 323.757 285.511C324.04 284.685 324.247 283.853 324.426 283.027C324.991 280.905 325.522 278.75 326.018 276.562C329.103 262.699 330.92 248.1 331.306 233.027C331.346 232.195 331.387 231.368 331.358 230.537C331.398 229.872 331.404 229.208 331.404 228.543C331.415 227.047 331.427 225.557 331.369 224.06C331.202 208.981 329.593 194.36 326.675 180.458C326.508 179.626 326.346 178.795 326.144 177.963C325.677 175.769 325.181 173.608 324.616 171.475C322.148 161.661 319.028 152.242 315.314 143.315C313.088 137.956 310.689 132.792 308.048 127.823C307.644 126.991 307.2 126.159 306.727 125.322C305.545 123.089 304.288 120.923 303.002 118.79C292.321 101.02 279.086 86.0855 264.04 74.9868C262.846 74.1159 261.687 73.2784 260.493 72.4745C256.975 70.0571 253.354 67.8742 249.634 65.8923C247.379 64.6808 245.124 63.5698 242.8 62.5258C237.708 60.1978 232.437 58.3052 227.028 56.876C218.706 54.5926 210.107 53.3755 201.255 53.3141L154.664 53.0015Z" fill="#771712"/>
<path d="M154.664 53.0015L154.578 65.2559L249.629 65.8979C247.374 64.6864 245.119 63.5754 242.795 62.5314C237.703 60.2034 232.432 58.3108 227.022 56.8816C218.7 54.5982 210.102 53.3811 201.25 53.3197L154.664 53.0015Z" fill="#B22B1D"/>
<path d="M22.0062 226.456C21.7755 258.301 27.9923 288.197 39.0706 313.979C49.8549 339.091 65.218 360.317 83.7127 375.586C88.3147 379.371 93.1474 382.821 98.107 385.881C114.554 395.924 132.865 401.557 152.167 401.686C166.307 401.781 179.975 398.917 192.777 393.49C245.655 371.164 284.276 305.739 284.836 228.232C285.06 197.314 279.213 168.249 268.728 143.009C253.152 105.375 227.356 76.2437 196.215 62.2195C191.099 59.8915 185.834 57.9989 180.436 56.5641C172.114 54.2863 163.516 53.0636 154.675 53.0022C141.209 52.9129 128.199 55.5145 115.944 60.4107C62.0981 81.9717 22.5714 148.056 22.0062 226.456Z" fill="#C93C25"/>
<path opacity="0.2" d="M98.1077 385.88C114.555 395.924 132.865 401.557 152.167 401.685C166.308 401.78 179.975 398.916 192.778 393.49L268.729 143.003C253.152 105.369 227.357 76.2378 196.215 62.2136L98.1077 385.875V385.88Z" fill="#F3F6EB"/>
<path opacity="0.2" d="M39.0767 313.979C49.8609 339.091 65.2241 360.317 83.7187 375.586L180.436 56.5641C172.115 54.2863 163.516 53.0636 154.675 53.0022C141.21 52.9129 128.199 55.5145 115.945 60.4107L39.0767 313.979Z" fill="#F3F6EB"/>
<path d="M263.14 228.083C263.719 147.693 215.066 82.1921 154.47 81.7825C93.8734 81.373 44.2803 146.21 43.7006 226.599C43.1209 306.989 91.774 372.49 152.37 372.9C212.967 373.309 262.56 308.472 263.14 228.083Z" fill="#B22B1D"/>
<path opacity="0.1" d="M220.049 187.34C220.373 142.417 187.75 105.778 147.184 105.503C106.617 105.229 73.4689 141.424 73.1449 186.347C72.821 231.27 105.444 267.91 146.01 268.184C186.577 268.458 219.725 232.263 220.049 187.34Z" fill="#F3F6EB"/>
<path opacity="0.3" d="M249.789 227.997C250.348 150.579 205.245 87.0016 147.789 82.0329C149.997 81.871 152.224 81.7705 154.467 81.7872C215.066 82.1948 263.716 147.699 263.14 228.092C262.563 308.485 212.967 373.319 152.368 372.911C150.124 372.895 147.904 372.766 145.695 372.571C203.215 368.378 249.23 305.414 249.789 227.997Z" fill="#140B00"/>
<g opacity="0.86">
<path d="M149.093 140.435C149.3 137.956 139.376 135.187 139.566 133.635C139.837 131.435 160.114 133.758 175.984 142.925C176.371 143.148 176.711 143.349 176.711 143.349C179.329 144.907 187.605 150.16 196.203 160.232C204.254 169.667 205.551 174.842 205.88 177.326C206.463 181.726 206.007 186.387 206.935 190.653C208.123 196.129 211.347 199.954 213.55 204.666C215.188 208.574 216.803 213.475 217.881 219.365C221.866 241.183 215.436 260.254 213.221 266.194C214.681 266.395 216.128 266.976 216.589 268.495C218.96 276.26 193.989 303.482 168.891 319.209C155.592 327.539 142.051 333.06 126.925 330.224C113.609 327.729 110.835 320.962 110.079 318.735C106.014 306.815 113.995 291.128 114.433 290.296C157.115 299.474 169.525 301.517 169.6 300.78C169.802 298.899 91.5271 261.616 89.0703 249.211C87.2768 240.139 89.5317 234.277 89.5317 234.277C90.7024 225.713 93.2052 219.416 94.9526 215.714C93.9665 210.265 92.9227 201.534 94.1683 191.339C97.813 161.599 117.496 147.944 119.831 146.392C134.035 136.94 148.833 143.45 149.087 140.424L149.093 140.435Z" fill="#FFFABC" stroke="black" stroke-miterlimit="10"/>
<path d="M114.048 219.678C107.26 225.344 98.2754 221.475 93.979 211.035C89.6884 200.596 91.7126 187.543 98.5003 181.876C105.288 176.21 114.273 180.078 118.569 190.518C122.86 200.958 120.836 214.011 114.048 219.678Z" fill="white" stroke="black" stroke-miterlimit="10"/>
<path d="M119.791 204.844C118.603 211.287 114.151 215.067 109.854 213.28C105.558 211.493 103.038 204.822 104.231 198.379C105.419 191.937 109.872 188.157 114.168 189.944C118.464 191.73 120.984 198.402 119.791 204.844Z" fill="black" stroke="black" stroke-miterlimit="10"/>
<path d="M116.44 202.683C116.123 204.403 114.935 205.407 113.793 204.933C112.651 204.458 111.977 202.677 112.294 200.963C112.611 199.25 113.799 198.239 114.941 198.714C116.088 199.188 116.757 200.969 116.44 202.683Z" fill="white" stroke="black" stroke-miterlimit="10"/>
<path d="M142.246 204.912C143.226 191.323 152.159 180.582 162.194 180.928C172.229 181.274 179.564 192.568 178.578 206.157C177.598 219.745 168.665 230.487 158.63 230.141C148.596 229.795 141.26 218.501 142.246 204.912Z" fill="white" stroke="black" stroke-miterlimit="10"/>
<path d="M175.736 216.3C173.32 226.137 166.042 231.172 159.485 227.544C152.928 223.915 149.571 213 151.988 203.163C154.404 193.326 161.682 188.29 168.239 191.919C174.796 195.548 178.152 206.463 175.736 216.3Z" fill="black" stroke="black" stroke-miterlimit="10"/>
<path d="M161.856 208.334C161.193 211.024 159.203 212.398 157.41 211.41C155.616 210.416 154.699 207.435 155.362 204.744C156.025 202.053 158.015 200.679 159.809 201.668C161.602 202.661 162.519 205.643 161.856 208.334Z" fill="white" stroke="black" stroke-miterlimit="10"/>
<path d="M178.683 276.182C155.442 271.917 132.207 267.657 108.966 263.392C108.534 275.093 108.107 286.795 107.674 298.491C113.92 301.595 128.758 307.569 146.913 301.165C163.095 295.46 173.804 282.775 178.683 276.176V276.182Z" fill="#EF6759" stroke="black" stroke-miterlimit="10"/>
<path d="M110.587 284.696C111.002 284.73 111.561 283.507 112.674 281.073C113.188 279.945 113.597 278.963 113.897 278.22C112.922 278.131 111.769 277.891 110.506 277.372C109.86 277.104 109.272 276.797 108.741 276.479C109.439 283.842 110.212 284.674 110.592 284.702L110.587 284.696Z" fill="white" stroke="black" stroke-miterlimit="10"/>
<path d="M138.372 289.961C138.81 289.927 139.589 288.364 141.146 285.238C141.867 283.792 142.449 282.536 142.876 281.592C141.849 281.648 140.655 281.564 139.381 281.157C138.735 280.945 138.153 280.677 137.634 280.386C137.27 289.123 137.968 289.994 138.366 289.961H138.372Z" fill="white" stroke="black" stroke-miterlimit="10"/>
<path d="M113.407 288.258C112.997 288.208 112.426 289.386 111.284 291.741C110.754 292.83 110.339 293.779 110.033 294.499C110.99 294.628 112.121 294.907 113.355 295.471C113.983 295.761 114.56 296.085 115.073 296.42C114.52 289.145 113.77 288.297 113.401 288.252L113.407 288.258Z" fill="white" stroke="black" stroke-miterlimit="10"/>
<path d="M131.896 292.557C131.747 292.501 131.36 292.462 129.422 295.471C128.471 296.95 127.721 298.279 127.173 299.295C128.229 299.597 129.549 299.809 131.06 299.664C131.723 299.597 132.335 299.474 132.888 299.318C132.906 298.296 132.975 292.964 131.896 292.557Z" fill="white" stroke="black" stroke-miterlimit="10"/>
<path d="M217.407 213.755C202.563 210.071 193.964 189.442 193.964 189.442C192.39 185.657 190.083 180.124 188.699 174.284C187.269 168.244 190.418 163.984 188.97 157.307C187.846 152.132 185.914 151.238 186.416 149.429C187.644 145.002 199.887 148.056 209.183 150.367C209.449 150.434 209.789 150.529 210.245 150.663C213.14 151.506 218.451 153.176 221.306 159.814C221.709 160.752 222.436 162.471 222.782 164.983C223.901 173.134 219.23 176.786 219.437 186.366C219.524 190.352 220.412 193.573 220.85 195.153C222.782 202.143 225.7 204.772 225.02 208.731C224.662 210.824 223.503 212.064 223.111 212.494C221.081 214.676 218.561 214.051 217.407 213.766V213.755Z" fill="#E5A968" stroke="black" stroke-miterlimit="10"/>
<path d="M123.407 150.054C122.519 143.539 105.547 137.526 95.4146 149.652C92.4793 153.158 90.7376 157.446 89.6881 160.935C86.9891 168.494 87.9695 169.951 86.0606 173.999C81.8565 182.915 74.6594 181 74.0654 186.32C73.5752 190.714 78.1022 195.409 80.5532 197.213C84.9764 200.467 89.2325 199.172 90.6108 198.659C90.8357 197.173 92.1852 189.073 97.5254 184.227C103.586 178.728 109.809 181.938 110.616 182.379C110.847 179.526 111.378 175.244 112.802 170.538C116.914 156.932 124.001 154.465 123.402 150.049L123.407 150.054Z" fill="#E5A968" stroke="black" stroke-miterlimit="10"/>
<path d="M93.0596 209.249C93.5959 208.529 96.0988 213.704 101.081 216.356C102.483 217.099 107.356 219.695 111.681 216.663C115.568 213.939 116.929 208.116 117.811 208.752C118.463 209.221 118.411 212.917 117.321 215.736C114.224 223.765 102.448 225.473 96.4736 217.875C93.9189 214.626 92.5925 209.88 93.0596 209.255V209.249Z" fill="#FFFABC" stroke="black" stroke-miterlimit="10"/>
<path d="M143.233 215.418C144.012 214.586 147.241 224.937 154.138 227.734C158.146 229.358 161.981 227.868 164.796 226.773C170.586 224.523 173.706 220.509 174.017 221.168C174.363 221.911 170.909 228.096 165.655 231.318C164.098 232.272 158.192 235.896 152.085 231.82C148.729 229.582 146.803 226.014 146.111 224.697C144.15 220.967 142.697 215.987 143.233 215.418Z" fill="#FFFABC" stroke="black" stroke-miterlimit="10"/>
<path d="M188.119 273.552C188.263 274.116 167.992 294.784 144.348 287.526C136.026 284.969 129.296 279.57 124.181 274.183C122.387 276.327 116.269 283.071 108.593 281.457C100.421 279.744 93.4891 270.225 91.8916 258.216C90.5018 247.765 93.4718 238.079 97.03 232.379C101.54 225.154 107.434 223.625 118.443 220.761C123.033 219.566 126.107 218.74 130.328 219.108C138.114 219.789 140.346 223.507 150.271 228.437C165.351 235.935 168.731 231.491 175.386 239.469C180.87 246.045 179.549 250.233 184.82 255.966C194.826 266.853 205.853 258.59 207.271 263.045C211.031 274.847 136.372 342.193 125.698 323.15C124.042 320.203 122.41 312.593 119.631 312.738C116.753 312.889 116.136 321.163 112.664 321.883C108.996 322.648 105.513 314.285 104.521 311.912C102.105 306.139 99.5098 295.817 102.036 292.182C104.637 288.442 111.494 293.455 113.691 294.89C139.36 311.644 187.912 272.692 188.131 273.541L188.119 273.552Z" fill="#A67C52" stroke="black" stroke-miterlimit="10"/>
<path d="M125.212 225.886C122.127 223.017 120.466 219.594 120.968 217.266C121.054 216.859 121.418 215.536 124.117 214.224C129.641 211.55 134.607 213.956 135.218 214.263C138.003 215.675 143.511 219.539 143.159 222.9C142.865 225.713 138.523 227.606 132.79 227.857C132.288 228.404 131.591 229.247 130.852 230.431C129.688 232.301 129.065 234.049 128.707 235.059C126.089 242.451 124.78 246.141 124.359 249.502C123.655 255.085 124.382 259.183 124.267 259.194C124.134 259.21 123.015 253.845 123.898 247.66C124.509 243.405 125.553 242.361 126.377 237.46C126.989 233.853 127.035 230.749 126.989 228.728C126.395 227.779 125.795 226.83 125.201 225.881L125.212 225.886Z" fill="#534741" stroke="black" stroke-miterlimit="10"/>
<path opacity="0.5" d="M164.859 198.329C164.87 199.077 166.474 198.904 167.823 200.858C169.224 202.89 168.902 205.151 169.818 205.498C170.747 205.855 172.229 203.973 172.321 202.092C172.448 199.457 169.83 197.107 167.696 196.933C166.26 196.816 164.853 197.693 164.859 198.324V198.329Z" fill="white" stroke="black" stroke-miterlimit="10"/>
<path opacity="0.5" d="M111.635 191.881C110.067 191.797 108.562 195.61 109.069 196.799C109.334 197.419 110.222 197.514 110.822 197.078C111.699 196.442 111.607 194.94 112.322 194.655C113.1 194.348 113.827 195.867 114.029 195.593C114.219 195.336 113.758 193.751 112.898 192.751C112.61 192.416 112.177 191.914 111.63 191.886L111.635 191.881Z" fill="white" stroke="black" stroke-miterlimit="10"/>
<path d="M90.9085 256.57C91.3583 255.978 93.7862 260.829 99.7319 265.028C101.081 265.982 104.057 268.048 107.696 268.936C114.317 270.549 120.009 267.518 123.255 265.217C130.516 271.091 140.908 277.427 153.549 277.952C173.93 278.795 189.829 264.101 190.798 267.071C191.53 269.298 182.915 278.594 174.195 285.628C166.634 291.725 151.006 303.979 129.345 304.136C115.845 304.23 99.0687 299.636 98.8669 294.019C98.7746 291.446 102.16 288.431 105.176 287.956C109.49 287.281 112.829 291.836 114.761 293.885C120.827 300.317 128.411 298.218 143.584 294.031C152.442 291.585 165.602 286.544 180.804 275.2C177.136 278.812 166.779 287.968 152.286 287.46C137.16 286.929 126.791 276.21 123.342 272.291C122.892 272.849 113.936 283.579 103.521 277.985C93.8784 272.805 90.1934 257.513 90.9027 256.575L90.9085 256.57Z" fill="#754C24" stroke="black" stroke-miterlimit="10"/>
<path d="M93.3379 196.933C95.4025 199.831 100.276 191.412 108.442 191.379C115.95 191.345 120.247 198.43 121.642 196.113C122.951 193.947 120.523 185.522 116.221 181.134C109.261 174.033 97.6286 177.745 94.0127 187.331C92.9054 190.273 92.0404 195.108 93.3379 196.933Z" fill="#FFFABC" stroke="black" stroke-miterlimit="10"/>
<path d="M144 196.118C145.085 198.709 150.99 192.562 159.56 192.4C171.561 192.171 178.585 203.867 180.142 200.947C181.451 198.497 177.806 187.766 170.967 182.803C170.949 182.792 170.903 182.758 170.834 182.708C163.856 177.672 154.75 178.264 148.868 185.416C146.18 188.687 143.141 194.075 143.995 196.118H144Z" fill="#FFFABC" stroke="black" stroke-miterlimit="10"/>
<path d="M124.469 160.276C126.055 158.713 128.413 156.982 130.974 157.657C133.442 158.305 133.679 160.555 136.008 162.101C140.622 165.161 143.892 159.154 150.737 160.052C152.364 160.265 154.832 160.957 157.796 163.357" stroke="black" stroke-miterlimit="10" stroke-linecap="round"/>
<path d="M129.924 151.818C131.025 150.729 132.669 149.529 134.451 149.998C136.169 150.45 136.331 152.013 137.951 153.085C141.158 155.212 143.436 151.036 148.199 151.661C149.329 151.812 151.048 152.287 153.113 153.962" stroke="black" stroke-miterlimit="10" stroke-linecap="round"/>
<path d="M157.3 174.629C155.392 175.986 152.814 177.186 150.132 176.142C147.208 175.003 146.326 172.033 144.498 172.603C142.341 173.273 141.263 178.102 140.271 182.523C139.4 186.403 139.117 189.775 139.013 192.031" stroke="black" stroke-miterlimit="10" stroke-linecap="round"/>
<path d="M116.712 174.389C117.248 175.02 119.117 177.041 121.827 176.963C124.959 176.873 126.948 174.054 127.369 173.429" stroke="black" stroke-miterlimit="10" stroke-linecap="round"/>
<path d="M125.789 200.099C126.32 198.519 127.104 195.677 127.243 191.942C127.387 188.107 126.793 185.087 126.372 183.417" stroke="black" stroke-miterlimit="10" stroke-linecap="round"/>
<path d="M135.547 199.434C135.362 202.052 135.177 204.671 134.993 207.289" stroke="black" stroke-miterlimit="10" stroke-linecap="round"/>
<path d="M148.459 248.117C148.746 248.117 148.978 247.767 148.978 247.336C148.978 246.904 148.746 246.554 148.459 246.554C148.173 246.554 147.94 246.904 147.94 247.336C147.94 247.767 148.173 248.117 148.459 248.117Z" fill="black" stroke="black" stroke-miterlimit="10"/>
<path d="M142.49 243.505C142.776 243.505 143.009 243.155 143.009 242.723C143.009 242.292 142.776 241.942 142.49 241.942C142.203 241.942 141.971 242.292 141.971 242.723C141.971 243.155 142.203 243.505 142.49 243.505Z" fill="black" stroke="black" stroke-miterlimit="10"/>
<path d="M137.934 248.552C138.22 248.552 138.453 248.203 138.453 247.771C138.453 247.339 138.22 246.989 137.934 246.989C137.647 246.989 137.415 247.339 137.415 247.771C137.415 248.203 137.647 248.552 137.934 248.552Z" fill="black" stroke="black" stroke-miterlimit="10"/>
<path d="M144.6 253.282C144.886 253.282 145.119 252.932 145.119 252.5C145.119 252.068 144.886 251.719 144.6 251.719C144.313 251.719 144.081 252.068 144.081 252.5C144.081 252.932 144.313 253.282 144.6 253.282Z" fill="black" stroke="black" stroke-miterlimit="10"/>
<path d="M139.773 257.239C140.06 257.239 140.292 256.89 140.292 256.458C140.292 256.026 140.06 255.676 139.773 255.676C139.487 255.676 139.254 256.026 139.254 256.458C139.254 256.89 139.487 257.239 139.773 257.239Z" fill="black" stroke="black" stroke-miterlimit="10"/>
<path d="M107.011 240.351C107.298 240.351 107.53 240.001 107.53 239.569C107.53 239.138 107.298 238.788 107.011 238.788C106.724 238.788 106.492 239.138 106.492 239.569C106.492 240.001 106.724 240.351 107.011 240.351Z" fill="black" stroke="black" stroke-miterlimit="10"/>
<path d="M153.21 255.168C153.497 255.168 153.729 254.818 153.729 254.386C153.729 253.954 153.497 253.604 153.21 253.604C152.923 253.604 152.691 253.954 152.691 254.386C152.691 254.818 152.923 255.168 153.21 255.168Z" fill="black" stroke="black" stroke-miterlimit="10"/>
<path d="M112.71 253.839C112.997 253.839 113.229 253.489 113.229 253.057C113.229 252.625 112.997 252.275 112.71 252.275C112.424 252.275 112.191 252.625 112.191 253.057C112.191 253.489 112.424 253.839 112.71 253.839Z" fill="black" stroke="black" stroke-miterlimit="10"/>
<path d="M108.505 248.983C108.791 248.983 109.024 248.633 109.024 248.202C109.024 247.77 108.791 247.42 108.505 247.42C108.218 247.42 107.986 247.77 107.986 248.202C107.986 248.633 108.218 248.983 108.505 248.983Z" fill="black" stroke="black" stroke-miterlimit="10"/>
<path d="M113.769 238.794C114.056 238.794 114.288 238.444 114.288 238.012C114.288 237.58 114.056 237.23 113.769 237.23C113.483 237.23 113.25 237.58 113.25 238.012C113.25 238.444 113.483 238.794 113.769 238.794Z" fill="black" stroke="black" stroke-miterlimit="10"/>
<path d="M112.946 245.488C113.233 245.488 113.465 245.138 113.465 244.707C113.465 244.275 113.233 243.925 112.946 243.925C112.659 243.925 112.427 244.275 112.427 244.707C112.427 245.138 112.659 245.488 112.946 245.488Z" fill="black" stroke="black" stroke-miterlimit="10"/>
<path d="M102.968 248.107C103.255 248.107 103.487 247.757 103.487 247.325C103.487 246.893 103.255 246.543 102.968 246.543C102.682 246.543 102.449 246.893 102.449 247.325C102.449 247.757 102.682 248.107 102.968 248.107Z" fill="black" stroke="black" stroke-miterlimit="10"/>
<path d="M91.6874 258.016C90.3841 257.849 87.293 235.528 94.5421 225.808C97.8119 221.42 99.7381 224.206 109.121 219.288C117.916 214.682 118.498 211.019 125.753 208.68C129.305 207.536 133.723 206.107 138.74 208.088C147.114 211.388 146.941 220.131 156.26 226.746C163.965 232.218 165.528 227.271 172.892 232.904C180.914 239.04 179.91 244.974 188.025 252.065C197.869 260.673 207.996 259.155 207.967 261.394C207.955 262.265 206.415 263.381 200.095 264.565C196.467 264.118 191.283 262.823 185.793 258.775C176.369 251.819 177.263 244.974 168.457 237.499C157.46 228.159 151.306 234.869 144.103 223.938C142.079 220.862 140.372 217.004 136.508 214.793C132.264 212.371 128.267 213.56 126.554 214.101C119.899 216.212 119.455 221.577 112.189 225.954C105.47 229.996 104.052 226.551 100.119 230.225C91.8143 237.974 92.9389 258.178 91.6932 258.022L91.6874 258.016Z" fill="#C19672" stroke="black" stroke-miterlimit="10"/>
</g>
<path d="M15.481 258.201C15.5141 258.184 15.5515 258.17 15.5906 258.16C15.8236 258.11 16.0541 258.256 16.1047 258.49C19.9034 276.104 27.0521 301.63 39.5377 323.205C39.6564 323.412 39.5856 323.676 39.3796 323.794C39.1705 323.927 38.9076 323.844 38.7898 323.638C26.2475 301.967 19.0706 276.35 15.26 258.674C15.2175 258.48 15.3137 258.289 15.4826 258.2L15.481 258.201Z" fill="white"/>
<path d="M13.239 280.949C13.2622 280.937 13.2879 280.925 13.3136 280.918C13.543 280.849 13.7832 280.977 13.8529 281.203C18.8113 297.53 29.5531 327.558 45.7844 345.233C45.9461 345.409 45.9322 345.681 45.757 345.842C45.5801 346.004 45.3059 345.992 45.1468 345.817C28.7998 328.017 18.0056 297.853 13.0252 281.456C12.9642 281.254 13.0576 281.042 13.2381 280.947L13.239 280.949Z" fill="white"/>
<path d="M397.178 16.5902C397.191 16.6252 397.2 16.6639 397.204 16.704C397.225 16.9415 397.051 17.1518 396.813 17.1726C378.861 18.7251 352.638 22.6055 329.664 32.2775C329.444 32.3693 329.191 32.2659 329.099 32.0466C328.994 31.8225 329.11 31.5722 329.328 31.4811C352.405 21.7649 378.721 17.8678 396.737 16.3114C396.935 16.2937 397.112 16.4132 397.179 16.5919L397.178 16.5902Z" fill="white"/>
<path d="M374.893 11.504C374.902 11.5285 374.91 11.5554 374.914 11.5819C374.954 11.8182 374.796 12.0403 374.563 12.0811C357.743 14.946 326.602 21.8246 307.025 35.7032C306.83 35.8414 306.562 35.7935 306.425 35.5994C306.286 35.4036 306.333 35.1331 306.526 34.9973C326.241 21.0195 357.524 14.1061 374.417 11.2282C374.625 11.193 374.824 11.3124 374.895 11.5033L374.893 11.504Z" fill="white"/>
<path d="M519.112 220.664C519.112 221.283 519.112 221.898 519.08 222.516C519.08 223.29 519.08 224.06 519.048 224.834C518.739 238.851 516.826 252.441 513.521 265.347C513.025 267.387 512.47 269.394 511.855 271.37C511.641 272.144 511.422 272.914 511.176 273.687C508.121 283.567 504.197 293.018 499.567 301.941C497.373 306.139 495.028 310.218 492.528 314.169C491.231 316.236 489.902 318.244 488.481 320.22C487.958 320.994 487.402 321.763 486.843 322.537C476.467 336.896 463.929 349.247 449.757 358.944C447.69 360.365 445.587 361.722 443.429 363.019C440.278 364.935 437.068 366.757 433.763 368.423C433.299 368.637 432.867 368.887 432.406 369.07C430.799 369.871 429.165 370.645 427.498 371.387C410.949 378.735 392.853 382.782 373.955 382.782C358.33 382.782 343.229 380.032 329.152 374.906C326.22 373.855 323.347 372.684 320.507 371.387C318.808 370.677 317.142 369.903 315.503 369.07C311.738 367.249 308.06 365.209 304.481 363.019C287.714 352.83 272.954 338.995 261.035 322.537C260.448 321.763 259.924 321.025 259.397 320.22C257.976 318.244 256.647 316.205 255.381 314.169C247.506 301.85 241.209 288.233 236.73 273.687C236.484 272.914 236.234 272.144 236.019 271.37C235.432 269.394 234.877 267.387 234.353 265.347C231.048 252.441 229.131 238.851 228.826 224.834C228.794 224.06 228.794 223.29 228.794 222.516C228.762 221.898 228.762 221.283 228.762 220.664C228.762 219.275 228.794 217.886 228.826 216.494C229.135 202.476 231.048 188.887 234.353 175.98C234.539 175.206 234.754 174.436 234.972 173.663C235.527 171.623 236.083 169.616 236.733 167.64C239.543 158.53 243.062 149.793 247.232 141.517C249.704 136.545 252.418 131.76 255.354 127.158C255.85 126.384 256.342 125.614 256.865 124.841C258.195 122.774 259.583 120.766 261.035 118.79C272.954 102.332 287.682 88.5287 304.449 78.3081C305.747 77.5066 307.076 76.7329 308.401 75.9909C312.294 73.7691 316.305 71.7614 320.411 69.9403C322.911 68.8293 325.415 67.8096 327.978 66.8534C333.659 64.7228 339.496 62.9929 345.455 61.6955C354.656 59.6283 364.167 58.5452 373.955 58.5452C388.806 58.5452 403.165 61.0448 416.659 65.679C420.333 66.9447 423.975 68.3651 427.526 69.9403C431.601 71.7614 435.584 73.7691 439.477 75.9909C440.806 76.7329 442.131 77.5026 443.429 78.3081C460.164 88.5287 474.924 102.332 486.843 118.79C488.295 120.766 489.683 122.774 491.013 124.841C491.505 125.614 492.032 126.384 492.524 127.158C500.337 139.477 506.637 153.094 511.176 167.64C511.795 169.616 512.351 171.623 512.906 173.663C513.12 174.436 513.339 175.206 513.525 175.98C516.83 188.887 518.743 202.472 519.052 216.494C519.084 217.882 519.116 219.271 519.116 220.664H519.112Z" fill="#1A1A1A"/>
<path d="M427.526 69.9481H320.407C322.907 68.8371 325.41 67.8175 327.974 66.8612C333.655 64.7306 339.492 63.0007 345.451 61.7033C354.652 59.6361 364.163 58.553 373.951 58.553C388.802 58.553 403.161 61.0526 416.655 65.6868C420.329 66.9525 423.971 68.3729 427.522 69.9481H427.526Z" fill="#1A1A1A"/>
<path d="M547.599 220.663C547.599 250.274 540.493 278.036 528.046 301.937C515.933 325.219 498.789 344.859 478.244 358.94C473.13 362.428 467.762 365.61 462.263 368.419C444.011 377.652 423.741 382.778 402.422 382.778C386.798 382.778 371.729 380.028 357.624 374.902C299.386 353.814 257.242 292.736 257.242 220.663C257.242 191.918 263.935 164.93 275.715 141.521C293.217 106.629 321.95 79.7046 356.461 66.8573C362.131 64.7267 367.963 62.9968 373.939 61.6994C383.148 59.6322 392.658 58.5491 402.422 58.5491C417.301 58.5491 431.652 61.0487 445.146 65.6829C504.463 86.0608 547.603 147.758 547.603 220.663H547.599Z" fill="#333333"/>
<path opacity="0.2" d="M462.263 368.419C444.012 377.652 423.741 382.778 402.423 382.778C386.798 382.778 371.729 380.028 357.624 374.902L275.712 141.525C293.217 106.629 321.951 79.7047 356.462 66.8574L462.263 368.415V368.419Z" fill="#F3F6EB"/>
<path opacity="0.2" d="M528.051 301.937C515.938 325.219 498.794 344.859 478.249 358.94L373.939 61.7033C383.148 59.6361 392.659 58.553 402.423 58.553C417.302 58.553 431.653 61.0526 445.147 65.6868L528.051 301.937Z" fill="#F3F6EB"/>
<path d="M402.419 356.012C469.362 356.012 523.631 295.414 523.631 220.663C523.631 145.912 469.362 85.3145 402.419 85.3145C335.475 85.3145 281.207 145.912 281.207 220.663C281.207 295.414 335.475 356.012 402.419 356.012Z" fill="#1A1A1A"/>
<path opacity="0.1" d="M410.287 258.677C455.103 258.677 491.434 224.814 491.434 183.042C491.434 141.27 455.103 107.406 410.287 107.406C365.471 107.406 329.141 141.27 329.141 183.042C329.141 224.814 365.471 258.677 410.287 258.677Z" fill="#F3F6EB"/>
<path opacity="0.3" d="M295.955 220.664C295.955 148.678 346.288 89.8461 409.795 85.5848C407.354 85.4221 404.898 85.311 402.419 85.311C335.472 85.311 281.207 145.909 281.207 220.66C281.207 295.41 335.476 356.008 402.419 356.008C404.898 356.008 407.35 355.901 409.795 355.735C346.288 351.477 295.955 292.641 295.955 220.656V220.664Z" fill="black"/>
<path d="M439.311 128.761C406.561 146.929 373.812 165.097 341.059 183.264C339.48 184.141 338.377 185.693 338.032 187.526C335.874 198.992 333.715 210.463 331.557 221.929C331.14 224.151 333.485 225.972 335.394 224.909C368.075 206.749 400.753 188.585 433.434 170.425C435.002 169.556 436.097 168.017 436.45 166.2C438.68 154.717 440.909 143.235 443.143 131.748C443.576 129.523 441.227 127.69 439.311 128.753V128.761Z" fill="url(#paint0_linear_265_6415)"/>
<path d="M489.228 218.43C456.479 236.598 423.73 254.766 390.977 272.934C389.398 273.811 388.295 275.362 387.95 277.195C385.791 288.661 383.633 300.132 381.475 311.598C381.058 313.82 383.403 315.642 385.311 314.578C417.993 296.418 450.671 278.254 483.352 260.094C484.919 259.225 486.014 257.686 486.368 255.869C488.597 244.386 490.827 232.904 493.061 221.418C493.493 219.192 491.145 217.359 489.228 218.422V218.43Z" fill="url(#paint1_linear_265_6415)"/>
<path d="M480.506 202.761C447.813 221.028 415.115 239.296 382.422 257.559C380.847 258.439 378.946 258.558 377.204 257.884C366.321 253.678 355.434 249.469 344.551 245.263C342.444 244.449 342.13 241.494 344.039 240.43C376.693 222.219 409.342 204.011 441.996 185.8C443.56 184.927 445.444 184.804 447.174 185.462C458.109 189.616 469.044 193.771 479.983 197.921C482.101 198.726 482.423 201.69 480.51 202.757L480.506 202.761Z" fill="url(#paint2_linear_265_6415)"/>
<defs>
<linearGradient id="paint0_linear_265_6415" x1="324.655" y1="211.687" x2="448.745" y2="142.591" gradientUnits="userSpaceOnUse">
<stop stop-color="#7C8FD8"/>
<stop offset="0.15" stop-color="#609DCB"/>
<stop offset="0.41" stop-color="#36B4B9"/>
<stop offset="0.65" stop-color="#18C4AC"/>
<stop offset="0.86" stop-color="#06CEA4"/>
<stop offset="1" stop-color="#00D2A2"/>
</linearGradient>
<linearGradient id="paint1_linear_265_6415" x1="379.965" y1="308.832" x2="495.378" y2="225.847" gradientUnits="userSpaceOnUse">
<stop stop-color="#BA5BFB"/>
<stop offset="0.15" stop-color="#9F6EED"/>
<stop offset="0.4" stop-color="#7C88DB"/>
<stop offset="0.63" stop-color="#629ACD"/>
<stop offset="0.83" stop-color="#53A6C5"/>
<stop offset="1" stop-color="#4EAAC3"/>
</linearGradient>
<linearGradient id="paint2_linear_265_6415" x1="349.616" y1="256.516" x2="473.707" y2="187.419" gradientUnits="userSpaceOnUse">
<stop stop-color="#8E82E2"/>
<stop offset="0.29" stop-color="#6896D1"/>
<stop offset="0.58" stop-color="#4AA7C4"/>
<stop offset="0.82" stop-color="#38B1BB"/>
<stop offset="1" stop-color="#32B5B9"/>
</linearGradient>
</defs>
</svg>
