<svg width="147" height="150" viewBox="0 0 147 150" fill="none" xmlns="http://www.w3.org/2000/svg">
<path d="M146.307 74.8306V74.5406C146.163 33.4998 113.33 0 73.1534 0C32.9767 0 0 33.4998 0 74.8306C0 116.162 32.8326 149.661 73.1534 149.661C91.7298 149.661 109.298 142.555 122.834 129.648C125.57 127.038 125.714 122.832 123.122 120.077C120.674 117.322 116.498 117.177 113.762 119.642L113.618 119.787C102.674 130.229 87.9857 136.174 72.8654 136.174C55.1531 136.174 39.3128 128.343 28.3686 115.871L59.6172 65.4043V88.7526C59.6172 99.9192 63.9373 103.545 67.5373 104.56C71.1374 105.575 76.6095 104.85 82.5136 95.4236L99.65 67.4346C100.226 66.5645 100.658 65.6943 101.234 65.1143V79.3263C101.234 89.7678 105.41 98.179 112.61 102.24C119.09 106.01 127.299 105.575 134.067 101.369C142.419 95.8586 146.883 86.2873 146.307 74.8306ZM127.298 89.4777C124.706 91.073 121.682 91.363 119.378 90.0578C116.498 88.3176 114.77 84.402 114.77 79.0362V62.6489C114.77 54.8178 111.746 49.162 106.562 47.7118C97.7779 45.1014 91.1538 55.978 88.7057 60.0385L73.1534 85.1271V54.2377C73.0094 47.1317 70.7054 42.9261 66.3853 41.6209C63.5053 40.7508 59.1852 41.1859 55.0091 47.5668L20.3044 103.545C15.6963 94.6985 13.2483 84.8371 13.2483 74.8306C13.2483 41.0408 40.1768 13.6319 73.1534 13.6319C106.13 13.6319 133.059 41.0408 133.059 74.8306V75.1207C133.347 81.6466 131.331 86.8674 127.298 89.4777Z" fill="white"/>
</svg>
