<svg width="207" height="208" viewBox="0 0 207 208" fill="none" xmlns="http://www.w3.org/2000/svg">
<path d="M206.999 103.17C207.252 160.402 161.117 206.999 103.958 207.252C46.7945 207.505 0.253982 161.315 0.00106247 104.086C-0.255185 46.8576 45.8727 0.260925 103.029 0.00103629C160.192 -0.252189 206.739 45.9347 206.999 103.167V103.17Z" fill="#8DC63F"/>
<path d="M199.202 103.19C199.441 156.111 156.788 199.202 103.934 199.446C51.0808 199.689 8.03789 156.98 7.79495 104.063C7.55534 51.1458 50.2055 8.0509 103.059 7.80767C155.916 7.56445 198.959 50.2695 199.198 103.187L199.202 103.19Z" fill="#F9E988"/>
<path d="M105.242 14.0217C111.325 12.9355 117.555 12.9355 123.639 14.0217C129.782 14.9946 135.719 16.9904 141.207 19.9192C146.658 22.9212 151.38 26.9928 156.069 30.8378C160.758 34.6828 165.437 38.5678 169.886 42.8493C174.422 47.0575 178.382 51.8488 181.664 57.0966C185.045 62.311 187.817 67.8986 189.92 73.7461C194.01 85.4311 195.175 97.9424 193.311 110.18H192.699C190.902 98.4888 187.9 87.0138 183.734 75.9418C181.737 70.4675 179.387 65.1265 176.699 59.9587C173.873 54.8042 170.765 49.8097 167.387 45.0017C163.943 40.1338 159.72 35.8657 154.891 32.3705C150.039 28.9086 144.455 26.6596 139.047 24.5305C133.639 22.4014 128.228 20.2823 122.614 18.6564C117 17.0304 111.249 15.8176 105.262 14.6381L105.239 14.025L105.242 14.0217Z" fill="white"/>
<path d="M152.026 69.3454C145.08 67.3262 137.849 64.4774 130.587 61.592C130.171 59.7561 128.547 57.4771 125.276 54.6916C120.51 50.5534 111.568 50.6634 103.838 52.5092C95.3084 50.5001 86.8788 49.7904 78.7554 51.7329C12.617 69.9651 50.1289 114.546 25.832 159.31C29.2897 166.647 66.5521 209.535 120.467 197.994C120.467 197.994 102.037 153.633 143.639 132.342C177.391 115.016 201.784 82.9362 152.026 69.342V69.3454Z" fill="#8BC53F"/>
<path d="M160.192 98.5085C160.209 100.728 158.428 102.54 156.212 102.56C153.996 102.577 152.185 100.794 152.165 98.5751C152.145 96.3561 153.929 94.5435 156.145 94.5235C156.152 94.5235 156.159 94.5235 156.169 94.5235C158.378 94.5102 160.182 96.2961 160.192 98.5085Z" fill="white"/>
<path d="M103.834 52.4859C108.653 52.8357 126.091 58.5333 130.584 61.592C126.867 50.6733 114.227 49.2539 103.834 52.4859Z" fill="#009345"/>
<path d="M108.427 80.023C108.427 90.2753 100.127 98.585 89.8873 98.585C79.6474 98.585 71.3477 90.2753 71.3477 80.023C71.3477 69.7707 79.6474 61.4609 89.8873 61.4609C100.127 61.4609 108.427 69.7707 108.427 80.023Z" fill="white"/>
<path d="M102.939 80.1865C102.946 87.3868 97.122 93.2276 89.9304 93.2343C82.7389 93.2409 76.9051 87.4101 76.8984 80.2099C76.8918 73.0096 82.7156 67.1688 89.9071 67.1621C89.9105 67.1621 89.9138 67.1621 89.9171 67.1621C97.102 67.1688 102.926 72.9929 102.939 80.1865Z" fill="#58595B"/>
<path d="M175.188 106.675C160.192 117.253 143.137 125.237 118.95 125.237C107.632 125.237 105.339 113.225 97.8576 119.099C93.9872 122.145 80.4095 128.925 69.5572 128.445C58.705 127.966 41.2036 121.578 36.3516 98.4849C34.4214 121.578 33.4297 138.588 24.7705 158.089C42.0223 185.744 83.145 207.068 120.464 197.899C116.46 169.861 140.934 142.389 154.728 128.339C159.939 123.021 169.996 114.331 175.184 106.635V106.678L175.188 106.675Z" fill="#8BC53F"/>
<path d="M174.598 107.372C169.823 111.486 164.492 114.905 158.764 117.537C153.057 120.253 147.103 122.425 140.99 124.021C134.883 125.604 128.494 126.793 122.024 126.204C115.555 125.614 108.939 123.408 104.673 118.56L104.879 118.32C110.157 121.739 116.187 122.938 122.207 123.115C128.321 123.291 134.431 122.785 140.431 121.599C146.491 120.333 152.421 118.507 158.142 116.141C163.956 113.919 169.43 110.89 174.402 107.145L174.598 107.375V107.372Z" fill="#58595B"/>
</svg>
