<svg width="41" height="41" viewBox="0 0 41 41" fill="none" xmlns="http://www.w3.org/2000/svg">
<g clip-path="url(#clip0_265_10181)">
<path d="M0.5 35.875V33.3693C2.1437 34.3295 4.24605 35.0401 6.56653 35.5285C9.28393 36.1004 12.3361 36.375 15.375 36.375C18.4139 36.375 21.4661 36.1004 24.1835 35.5285C26.504 35.0401 28.6063 34.3295 30.25 33.3693V35.875C30.25 36.3626 29.9534 36.9073 29.2319 37.4755C28.5162 38.0392 27.4497 38.569 26.0874 39.0232C23.3681 39.93 19.5803 40.5 15.375 40.5C11.1697 40.5 7.38186 39.93 4.66256 39.0232C3.30029 38.569 2.23375 38.0392 1.51805 37.4755C0.796576 36.9073 0.5 36.3626 0.5 35.875ZM40.5 5.125C40.5 5.61255 40.2034 6.15727 39.4819 6.72552C38.7662 7.28922 37.6997 7.81896 36.3374 8.27321C33.6181 9.17997 29.8303 9.75 25.625 9.75C21.4197 9.75 17.6319 9.17997 14.9126 8.27321C13.5503 7.81896 12.4838 7.28922 11.7681 6.72552C11.0466 6.15727 10.75 5.61255 10.75 5.125C10.75 4.63745 11.0466 4.09273 11.7681 3.52448C12.4838 2.96078 13.5503 2.43104 14.9126 1.97679C17.6319 1.07003 21.4197 0.5 25.625 0.5C29.8303 0.5 33.6181 1.07003 36.3374 1.97679C37.6997 2.43104 38.7662 2.96078 39.4819 3.52448C40.2034 4.09273 40.5 4.63745 40.5 5.125ZM0.5 28.1875V25.0537C4.04936 27.4774 9.77147 28.6875 15.375 28.6875C20.9785 28.6875 26.7006 27.4774 30.25 25.0537V28.1875C30.25 28.6751 29.9534 29.2198 29.2319 29.788C28.5162 30.3517 27.4497 30.8815 26.0874 31.3357C23.3681 32.2425 19.5803 32.8125 15.375 32.8125C11.1697 32.8125 7.38186 32.2425 4.66256 31.3357C3.30029 30.8815 2.23375 30.3517 1.51805 29.788C0.796575 29.2198 0.5 28.6751 0.5 28.1875ZM40.5 20.5C40.5 21.1595 39.9488 21.9177 38.6312 22.6611C37.4616 23.321 35.8103 23.8952 33.8125 24.324V20.2597C36.3778 19.7719 38.7123 19.0369 40.5 17.9946V20.5ZM0.5 19.2188C0.5 18.5081 0.843561 17.786 1.55953 17.0808C2.27727 16.3739 3.34145 15.7144 4.69666 15.1499C7.40488 14.0218 11.1804 13.3125 15.375 13.3125C19.5696 13.3125 23.3451 14.0218 26.0533 15.1499C27.4085 15.7144 28.4727 16.3739 29.1905 17.0808C29.9064 17.786 30.25 18.5081 30.25 19.2188C30.25 19.9294 29.9064 20.6515 29.1905 21.3567C28.4727 22.0636 27.4085 22.7231 26.0533 23.2876C23.3451 24.4157 19.5696 25.125 15.375 25.125C11.1804 25.125 7.40488 24.4157 4.69666 23.2876C3.34145 22.7231 2.27727 22.0636 1.55953 21.3567C0.843561 20.6515 0.5 19.9294 0.5 19.2188ZM40.5 12.8125C40.5 13.4898 39.9175 14.2729 38.5295 15.0336C37.2548 15.7323 35.4389 16.3307 33.2438 16.7549C32.5938 15.3136 31.3966 14.1048 29.8535 13.1244C33.9696 12.7682 37.8466 11.8607 40.5 10.308V12.8125Z" fill="#FFFABC" stroke="black"/>
</g>
<defs>
<clipPath id="clip0_265_10181">
<rect width="41" height="41" fill="white"/>
</clipPath>
</defs>
</svg>
