<svg width="24" height="25" viewBox="0 0 24 25" fill="none" xmlns="http://www.w3.org/2000/svg">
<g id="solar:copy-linear">
<g id="Group">
<path id="Vector" d="M6 11.3711C6 8.54309 6 7.12809 6.879 6.25009C7.757 5.37109 9.172 5.37109 12 5.37109H15C17.828 5.37109 19.243 5.37109 20.121 6.25009C21 7.12809 21 8.54309 21 11.3711V16.3711C21 19.1991 21 20.6141 20.121 21.4921C19.243 22.3711 17.828 22.3711 15 22.3711H12C9.172 22.3711 7.757 22.3711 6.879 21.4921C6 20.6141 6 19.1991 6 16.3711V11.3711Z" stroke="black" stroke-width="1.5"/>
<path id="Vector_2" d="M6 19.3711C5.20435 19.3711 4.44129 19.055 3.87868 18.4924C3.31607 17.9298 3 17.1667 3 16.3711V10.3711C3 6.60009 3 4.71409 4.172 3.54309C5.343 2.37109 7.229 2.37109 11 2.37109H15C15.7956 2.37109 16.5587 2.68716 17.1213 3.24977C17.6839 3.81238 18 4.57544 18 5.37109" stroke="black" stroke-width="1.5"/>
</g>
</g>
</svg>
