<svg width="401" height="230" viewBox="0 0 401 230" fill="none" xmlns="http://www.w3.org/2000/svg">
<path d="M222.117 79.3736C222.369 79.3988 222.653 79.3135 222.832 79.1404C223.069 78.9108 223.023 78.6143 222.732 78.4801L218.66 76.5772C218.372 76.4433 217.944 76.5164 217.71 76.7483C217.473 76.9779 217.519 77.2744 217.81 77.4086L221.882 79.3115C221.953 79.3444 222.035 79.3655 222.119 79.3739L222.117 79.3736Z" fill="black"/>
<path d="M231.439 83.7898C231.691 83.815 231.976 83.7297 232.155 83.5566C232.391 83.327 232.345 83.0305 232.055 82.8963L227.983 80.9934C227.695 80.8595 227.266 80.9347 227.032 81.1646C226.796 81.3942 226.841 81.6906 227.132 81.8249L231.204 83.7277C231.276 83.7606 231.358 83.7817 231.442 83.7901L231.439 83.7898Z" fill="black"/>
<path d="M219.152 86.0704C219.408 86.0959 219.696 86.0098 219.878 85.8353L223.226 82.5874C223.466 82.356 223.42 82.0571 223.129 81.92C222.834 81.7847 222.403 81.8608 222.164 82.0902L218.815 85.338C218.575 85.5695 218.622 85.8684 218.913 86.0055C218.985 86.0387 219.068 86.0599 219.153 86.0684L219.152 86.0704Z" fill="black"/>
<path d="M226.98 78.4464C227.235 78.4718 227.523 78.3858 227.705 78.2113L231.054 74.9634C231.293 74.7319 231.247 74.4331 230.956 74.296C230.662 74.1607 230.23 74.2367 229.991 74.4661L226.642 77.714C226.403 77.9455 226.449 78.2444 226.74 78.3815C226.812 78.4146 226.895 78.4359 226.981 78.4443L226.98 78.4464Z" fill="black"/>
<path d="M359.889 161.727C360 161.738 360.123 161.726 360.248 161.69C360.61 161.581 360.833 161.294 360.744 161.046C360.589 160.615 360.42 160.142 360.23 159.635C360.139 159.387 359.771 159.278 359.413 159.389C359.052 159.501 358.833 159.788 358.925 160.034C359.113 160.538 359.281 161.006 359.434 161.436C359.49 161.6 359.67 161.704 359.889 161.725L359.889 161.727ZM357.242 155.017C357.364 155.028 357.497 155.015 357.631 154.969C357.989 154.849 358.193 154.558 358.088 154.315C357.334 152.577 356.515 150.819 355.657 149.094C355.538 148.857 355.158 148.768 354.805 148.897C354.451 149.027 354.26 149.321 354.379 149.559C355.233 151.274 356.048 153.019 356.798 154.748C356.865 154.9 357.036 154.997 357.244 155.017L357.242 155.017ZM352.11 144.709C352.249 144.722 352.402 144.702 352.547 144.644C352.894 144.508 353.07 144.208 352.94 143.976C351.99 142.292 350.982 140.608 349.947 138.968C349.804 138.742 349.409 138.676 349.066 138.821C348.723 138.966 348.562 139.268 348.705 139.495C349.736 141.123 350.736 142.798 351.682 144.473C351.759 144.608 351.921 144.691 352.113 144.709L352.11 144.709ZM345.863 134.842C346.016 134.857 346.189 134.83 346.346 134.758C346.683 134.606 346.829 134.3 346.675 134.079C345.538 132.469 344.343 130.869 343.125 129.316C342.954 129.1 342.549 129.059 342.217 129.22C341.884 129.382 341.755 129.689 341.923 129.905C343.134 131.446 344.322 133.037 345.451 134.638C345.535 134.757 345.688 134.826 345.863 134.842ZM338.509 125.485C338.679 125.501 338.872 125.467 339.038 125.379C339.363 125.208 339.478 124.899 339.295 124.691C337.971 123.171 336.586 121.668 335.179 120.216C334.981 120.015 334.567 119.997 334.251 120.175C333.935 120.354 333.836 120.664 334.031 120.865C335.427 122.306 336.804 123.803 338.119 125.31C338.207 125.412 338.347 125.471 338.506 125.486L338.509 125.485ZM330.017 116.728C330.206 116.746 330.418 116.701 330.595 116.595C330.904 116.407 330.985 116.097 330.775 115.906C329.255 114.491 327.672 113.101 326.08 111.769C325.857 111.583 325.437 111.592 325.137 111.787C324.837 111.983 324.776 112.292 324.997 112.478C326.578 113.8 328.148 115.18 329.658 116.583C329.749 116.666 329.876 116.715 330.017 116.728ZM320.372 108.676C320.58 108.696 320.817 108.641 320.998 108.51C321.287 108.305 321.33 107.999 321.094 107.822C319.376 106.536 317.6 105.278 315.816 104.084C315.566 103.919 315.141 103.954 314.863 104.166C314.585 104.379 314.563 104.685 314.812 104.852C316.582 106.039 318.344 107.287 320.049 108.563C320.135 108.628 320.249 108.667 320.371 108.678L320.372 108.676ZM309.57 101.448C309.801 101.47 310.061 101.399 310.243 101.245C310.507 101.025 310.511 100.721 310.248 100.565C308.345 99.4294 306.375 98.3262 304.399 97.283C304.124 97.1372 303.697 97.205 303.447 97.4331C303.194 97.661 303.215 97.9627 303.49 98.1065C305.45 99.1414 307.403 100.237 309.293 101.363C309.374 101.412 309.47 101.438 309.573 101.448L309.57 101.448ZM297.647 95.1593C297.9 95.1835 298.186 95.0935 298.366 94.9152C298.604 94.6816 298.562 94.3822 298.276 94.2504C296.192 93.284 294.041 92.3502 291.886 91.4791C291.589 91.3594 291.165 91.4557 290.944 91.6974C290.721 91.9389 290.785 92.2319 291.085 92.3518C293.222 93.2169 295.354 94.1402 297.421 95.0985C297.491 95.1313 297.57 95.1497 297.651 95.1575L297.647 95.1593ZM284.672 89.9107C284.95 89.9373 285.262 89.8259 285.432 89.6228C285.638 89.3752 285.554 89.0891 285.243 88.9811C283.002 88.1995 280.69 87.4524 278.369 86.763C278.046 86.6691 277.636 86.795 277.446 87.0462C277.255 87.2995 277.362 87.5792 277.681 87.6749C279.982 88.358 282.274 89.0988 284.497 89.8743C284.552 89.8948 284.61 89.9069 284.669 89.9125L284.672 89.9107ZM270.799 85.7342C271.1 85.7629 271.432 85.6296 271.59 85.4079C271.769 85.1535 271.65 84.8748 271.324 84.7893C268.807 84.1182 266.453 83.5365 264.13 83.0121C263.795 82.9344 263.392 83.0848 263.228 83.3429C263.064 83.6009 263.201 83.8726 263.534 83.9479C265.838 84.4684 268.174 85.0461 270.675 85.7136C270.717 85.7241 270.757 85.7323 270.801 85.7365L270.799 85.7342ZM256.286 82.4741C256.611 82.5052 256.969 82.3461 257.105 82.1005C257.25 81.8385 257.09 81.5755 256.748 81.5145C254.224 81.0643 251.678 80.6728 249.179 80.3531C248.842 80.2927 248.442 80.4868 248.318 80.7531C248.194 81.0193 248.376 81.2714 248.727 81.3159C251.202 81.6332 253.721 82.0199 256.22 82.4656C256.243 82.4677 256.264 82.472 256.286 82.4741Z" fill="black"/>
<path d="M16.9428 152.085C17.1484 152.104 17.3787 152.05 17.5605 151.924C19.8083 150.373 21.9102 148.98 23.9886 147.664C24.2932 147.472 24.3624 147.163 24.1461 146.973C23.9298 146.783 23.5096 146.786 23.205 146.979C21.1103 148.306 18.9885 149.712 16.7217 151.275C16.4304 151.477 16.3814 151.785 16.6113 151.964C16.6992 152.031 16.8158 152.07 16.9409 152.082L16.9428 152.085ZM30.1377 143.773C30.3156 143.79 30.5167 143.75 30.6893 143.654C33.0419 142.332 35.4027 141.103 37.7055 140C38.0397 139.841 38.1746 139.534 38.0101 139.316C37.8456 139.099 37.4396 139.053 37.1082 139.213C34.7727 140.332 32.3754 141.58 29.9892 142.92C29.6732 143.098 29.5725 143.406 29.7661 143.609C29.8548 143.702 29.9886 143.756 30.1414 143.771L30.1377 143.773ZM99.3304 147.998C101.442 148.201 103.496 147.591 104.962 146.326C105.221 146.103 105.214 145.798 104.946 145.648C104.679 145.497 104.253 145.556 103.994 145.779C102.895 146.728 101.341 147.185 99.7289 147.031C99.5233 147.011 99.3192 146.98 99.1157 146.941C98.5062 146.822 97.9632 146.675 97.5055 146.503C97.2028 146.389 96.781 146.494 96.5648 146.739C96.3514 146.983 96.4257 147.273 96.7276 147.389C97.2554 147.587 97.873 147.757 98.5605 147.89C98.8067 147.937 99.0655 147.975 99.3268 148L99.3304 147.998ZM94.2403 142.668C94.282 142.672 94.3245 142.674 94.3697 142.67C94.7413 142.651 95.0715 142.417 95.1096 142.15C95.3463 140.501 96.1194 138.414 96.9216 136.402C97.0281 136.137 96.8269 135.896 96.474 135.862L96.4684 135.862C96.1118 135.83 95.738 136.022 95.6306 136.29C94.8095 138.347 94.0159 140.491 93.7695 142.219C93.736 142.455 93.9401 142.639 94.2403 142.668ZM44.6139 136.874C44.75 136.887 44.9028 136.867 45.047 136.811C47.5623 135.831 50.1348 134.943 52.6924 134.176C53.0549 134.067 53.2744 133.78 53.1857 133.532C53.097 133.285 52.7325 133.174 52.37 133.282C49.7629 134.065 47.1401 134.97 44.5765 135.969C44.2259 136.105 44.051 136.403 44.1772 136.637C44.2543 136.773 44.4166 136.855 44.6111 136.874L44.6139 136.874ZM106.368 140.855C106.438 140.861 106.511 140.86 106.591 140.848C106.963 140.792 107.254 140.535 107.241 140.271C107.15 138.24 106.47 136.391 105.217 134.776C105.049 134.56 104.646 134.515 104.311 134.676C103.979 134.838 103.845 135.142 104.012 135.36C105.176 136.86 105.809 138.579 105.891 140.47C105.9 140.68 106.099 140.829 106.365 140.855L106.368 140.855ZM60.2746 132.171C60.3636 132.179 60.4585 132.173 60.5567 132.152C63.1493 131.594 65.8369 131.121 68.5404 130.75C68.9111 130.699 69.2101 130.443 69.203 130.179C69.196 129.916 68.8896 129.741 68.5189 129.792C65.7658 130.172 63.0323 130.651 60.3892 131.219C60.0212 131.299 59.7587 131.571 59.8053 131.83C59.8405 132.018 60.0301 132.147 60.2746 132.171ZM76.403 129.93C76.4503 129.934 76.4992 129.935 76.5499 129.931C79.1355 129.755 81.8148 129.653 84.5132 129.631C84.8807 129.629 85.226 129.408 85.2881 129.138C85.3474 128.868 85.0933 128.65 84.7332 128.655C81.997 128.677 79.2807 128.778 76.6583 128.959C76.2868 128.984 75.9633 129.223 75.9335 129.492C75.9073 129.724 76.1112 129.902 76.4058 129.93L76.403 129.93ZM99.3629 131.737C99.6158 131.761 99.9049 131.669 100.084 131.493C100.32 131.257 100.278 130.96 99.9913 130.828C99.8405 130.759 99.687 130.69 99.5317 130.625C100.541 128.834 101.797 127.018 103.266 125.225C103.469 124.977 103.382 124.691 103.07 124.585C102.762 124.477 102.342 124.594 102.139 124.841C100.687 126.614 99.4355 128.411 98.4156 130.186C96.6788 129.563 94.747 129.12 92.7329 128.89C92.3777 128.841 91.9982 129.033 91.8797 129.3C91.7612 129.566 91.9506 129.815 92.3038 129.855C94.798 130.14 97.1612 130.77 99.1385 131.678C99.2087 131.711 99.285 131.729 99.3656 131.737L99.3629 131.737ZM107.394 120.321C107.642 120.345 107.919 120.261 108.101 120.091C109.792 118.504 111.686 116.899 113.729 115.326C114.004 115.114 114.027 114.807 113.777 114.642C113.524 114.477 113.102 114.515 112.826 114.727C110.744 116.331 108.815 117.965 107.091 119.584C106.846 119.815 106.873 120.115 107.153 120.255C107.227 120.292 107.311 120.313 107.397 120.321L107.394 120.321ZM119.329 111.072C119.526 111.091 119.752 111.041 119.93 110.923C122.009 109.558 124.242 108.19 126.565 106.856C126.879 106.676 126.974 106.368 126.777 106.166C126.579 105.965 126.16 105.951 125.846 106.131C123.494 107.481 121.234 108.866 119.126 110.253C118.826 110.448 118.765 110.757 118.99 110.942C119.078 111.015 119.198 111.059 119.329 111.072ZM133.001 103.201C133.167 103.217 133.354 103.185 133.519 103.101C135.826 101.925 138.249 100.76 140.718 99.6336C141.056 99.4791 141.201 99.1758 141.047 98.9546C140.889 98.7331 140.49 98.6797 140.152 98.8321C137.659 99.9687 135.213 101.147 132.881 102.334C132.553 102.5 132.432 102.808 132.607 103.02C132.695 103.124 132.84 103.186 133.001 103.201ZM147.672 96.5015C147.814 96.5151 147.973 96.4934 148.12 96.4314C150.581 95.422 153.126 94.4316 155.678 93.4875C156.029 93.3581 156.218 93.0612 156.098 92.8259C155.978 92.5907 155.595 92.504 155.244 92.6334C152.669 93.584 150.106 94.5835 147.621 95.6015C147.273 95.7442 147.107 96.0433 147.246 96.2739C147.325 96.4052 147.486 96.4837 147.672 96.5015ZM162.985 90.8476C163.107 90.8593 163.24 90.8459 163.37 90.8019C165.961 89.9462 168.586 89.1285 171.17 88.3743C171.532 88.2677 171.757 87.9807 171.673 87.7338C171.587 87.4865 171.227 87.3717 170.864 87.4759C168.26 88.2369 165.613 89.059 162.999 89.9233C162.641 90.0412 162.434 90.3342 162.539 90.5767C162.603 90.7306 162.777 90.8255 162.988 90.8457L162.985 90.8476ZM178.746 86.2512C178.846 86.2608 178.953 86.2536 179.063 86.225C181.783 85.5403 184.462 84.9256 187.031 84.398C187.4 84.3225 187.668 84.0505 187.624 83.7921C187.583 83.534 187.252 83.385 186.879 83.4623C184.285 83.9961 181.577 84.6167 178.827 85.3095C178.46 85.4025 178.218 85.6814 178.281 85.9351C178.326 86.1132 178.511 86.2309 178.745 86.2533L178.746 86.2512ZM194.824 82.9757C194.893 82.9824 194.966 82.9807 195.043 82.9685C197.953 82.5388 200.644 82.2532 203.043 82.1157C203.413 82.0947 203.744 81.8591 203.779 81.5909C203.816 81.3206 203.545 81.123 203.173 81.1417C200.717 81.2825 197.968 81.5755 195.001 82.0128C194.628 82.0684 194.338 82.3252 194.347 82.589C194.356 82.7985 194.555 82.9478 194.822 82.9734L194.824 82.9757Z" fill="black"/>
</svg>
