<svg width="278" height="69" viewBox="0 0 278 69" fill="none" xmlns="http://www.w3.org/2000/svg">
<rect x="2" y="4" width="273.289" height="60.7683" rx="30.3842" fill="#FFE459" stroke="black" stroke-width="4"/>
<path d="M191.867 66.9613C204.348 66.9613 214.466 56.8435 214.466 44.3624C214.466 31.8814 204.348 21.7635 191.867 21.7635C179.386 21.7635 169.268 31.8814 169.268 44.3624C169.268 56.8435 179.386 66.9613 191.867 66.9613Z" fill="white" stroke="black" stroke-width="4" stroke-miterlimit="10"/>
<path d="M199.913 57.9723C208.389 57.9723 215.26 51.1011 215.26 42.625C215.26 34.149 208.389 27.2778 199.913 27.2778C191.437 27.2778 184.566 34.149 184.566 42.625C184.566 51.1011 191.437 57.9723 199.913 57.9723Z" fill="black" stroke="black" stroke-width="4" stroke-miterlimit="10"/>
<path d="M133.895 38.3848C134.94 22.603 121.832 7.67753 104.614 5.05453C87.3988 2.42816 72.5948 13.0955 71.5496 28.8773C70.5045 44.6591 83.6127 59.5845 100.831 62.2075C118.045 64.8339 132.849 54.1666 133.895 38.3848Z" fill="white" stroke="black" stroke-width="4" stroke-miterlimit="10"/>
<path d="M108.211 61.2905C120.342 61.2905 130.176 51.4564 130.176 39.3254C130.176 27.1944 120.342 17.3604 108.211 17.3604C96.0797 17.3604 86.2456 27.1944 86.2456 39.3254C86.2456 51.4564 96.0797 61.2905 108.211 61.2905Z" fill="black" stroke="black" stroke-width="4" stroke-miterlimit="10"/>
<path d="M113.386 38.0173C113.258 40.4582 114.913 42.5316 117.085 42.6463C119.256 42.7609 121.12 40.8729 121.248 38.4319C121.376 35.991 119.721 33.9176 117.55 33.8029C115.379 33.6883 113.514 35.5763 113.386 38.0173Z" fill="white" stroke="black" stroke-width="4" stroke-miterlimit="10"/>
<path d="M216.708 46.9098C215.187 45.2941 209.597 51.9175 197.753 53.8725C193.532 54.5691 187.918 55.4992 182.029 52.8804C175.407 49.9371 172.68 44.3969 170.613 45.4692C168.966 46.3226 168.785 50.8234 170.032 54.2372C173.896 64.8107 193.754 71.3211 206.303 63.6545C214.353 58.738 218.331 48.635 216.708 46.9098Z" fill="#FFFABC" stroke="black" stroke-width="4" stroke-miterlimit="10"/>
<path d="M126.474 56.8031C127.212 56.058 133.824 49.3016 132.61 47.6597C131.332 45.9301 123.433 52.7203 109.782 54.4498C107.081 54.7903 101.124 55.495 94.0101 53.9036C81.6436 51.1357 74.7219 43.4218 73.7577 44.4905C73.0092 45.3199 76.5291 50.7041 81.7548 55.2118C89.934 62.2716 104.876 69.4258 116.953 63.9169C121.494 61.8434 125.048 58.2461 126.474 56.8031Z" fill="#FFFABC" stroke="black" stroke-width="4" stroke-miterlimit="10"/>
<path d="M217.578 35.46C215.348 39.2863 203.223 31.0196 187.949 32.1735C173.759 33.2454 167.453 41.3445 164.224 38.3557C160.507 34.9203 164.738 19.0906 175.318 11.881C177.358 10.489 182.44 6.72972 189.457 7.52623C195.624 8.22225 199.65 11.9852 201.018 13.3884C205.026 12.3202 209.203 13.4517 211.9 16.3958C214.766 19.5223 214.798 23.4342 214.784 24.3312C215.402 25.2058 216.174 26.4862 216.77 28.1611C217.093 29.0656 218.695 33.5506 217.578 35.4637V35.46Z" fill="#FFFABC" stroke="black" stroke-width="4" stroke-miterlimit="10"/>
<path d="M132.957 34.0069C129.65 38.1808 118.17 29.1891 104.482 29.1385C84.5261 29.061 74.8939 43.093 70.4672 39.1753C65.1639 34.4789 72.9216 8.94346 89.2293 4.27399C89.2597 4.26388 89.2866 4.25714 89.3102 4.2504C89.3102 4.2504 89.3945 4.2268 89.4788 4.2032C109.927 -1.29903 116.258 5.23823 116.258 5.23823C117.152 6.15864 118.285 7.71288 118.918 10.3426C120.206 10.5382 123.676 11.2394 126.771 14.1591C130.213 17.4126 130.981 21.3302 131.174 22.5608C131.912 23.316 133.335 24.995 133.857 27.5202C134.326 29.7858 134.046 32.6246 132.954 34.0035L132.957 34.0069Z" fill="#FFFABC" stroke="black" stroke-width="4" stroke-miterlimit="10"/>
<path d="M202.244 43.769C203.006 45.6672 204.695 46.564 206.02 45.7717C207.345 44.9794 207.804 42.7947 207.042 40.8965C206.28 38.9984 204.591 38.1016 203.266 38.8939C201.941 39.6862 201.482 41.8709 202.244 43.769Z" fill="white" stroke="black" stroke-width="4" stroke-miterlimit="10"/>
<path d="M91.0532 11.7469C94.1617 10.4186 99.2661 8.69237 105.766 8.5002C111.346 8.335 115.904 9.35992 118.922 10.2904" fill="#FFFABC"/>
<path d="M91.0532 11.7469C94.1617 10.4186 99.2661 8.69237 105.766 8.5002C111.346 8.335 115.904 9.35992 118.922 10.2904" stroke="black" stroke-width="4" stroke-miterlimit="10"/>
<path d="M104.563 18.3112C107.348 17.6166 112.32 16.7502 118.389 17.7919C124.411 18.827 128.787 21.2713 131.177 22.8491" fill="#FFFABC"/>
<path d="M104.563 18.3112C107.348 17.6166 112.32 16.7502 118.389 17.7919C124.411 18.827 128.787 21.2713 131.177 22.8491" stroke="black" stroke-width="4" stroke-miterlimit="10"/>
<path d="M180.052 18.25C182.234 17.0785 185.021 15.8488 188.364 14.9682C193.763 13.5445 198.459 13.5988 201.718 13.9324" fill="#FFFABC"/>
<path d="M180.052 18.25C182.234 17.0785 185.021 15.8488 188.364 14.9682C193.763 13.5445 198.459 13.5988 201.718 13.9324" stroke="black" stroke-width="4" stroke-miterlimit="10"/>
<path d="M190.885 21.7593C193.38 21.2733 197.687 20.6701 202.993 21.1121C208.204 21.5469 212.115 22.7997 214.357 23.6667" fill="#FFFABC"/>
<path d="M190.885 21.7593C193.38 21.2733 197.687 20.6701 202.993 21.1121C208.204 21.5469 212.115 22.7997 214.357 23.6667" stroke="black" stroke-width="4" stroke-miterlimit="10"/>
</svg>
