<svg width="7" height="15" viewBox="0 0 7 15" fill="currentColor" xmlns="http://www.w3.org/2000/svg">
<g clip-path="url(#clip0_563_4)">
<path fill-rule="evenodd" clip-rule="evenodd" d="M1.54284 7.56041V14.8136C1.54284 14.9171 1.62605 15.0035 1.73353 15.0035H4.43784C4.54185 15.0035 4.62853 14.9171 4.62853 14.8136V7.44304H6.59089C6.68796 7.44304 6.77117 7.36709 6.78158 7.27043L6.9688 5.05063C6.9792 4.94016 6.89252 4.84695 6.77811 4.84695H4.62853V3.27273C4.62853 2.90334 4.93016 2.60299 5.30114 2.60299H6.81278C6.91679 2.60299 7.00347 2.51669 7.00347 2.41312V0.189873C7.00347 0.0863061 6.92026 0 6.81278 0H4.25755C2.75978 0 1.54284 1.20829 1.54284 2.70311V4.8435H0.190688C0.0866766 4.8435 0 4.9298 0 5.03337V7.25316C0 7.35673 0.0866766 7.44304 0.190688 7.44304H1.54284V7.56041Z" fill="currentColor"/>
</g>
<defs>
<clipPath id="clip0_563_4">
<rect width="7" height="15" fill="white"/>
</clipPath>
</defs>
</svg>
