<svg width="173" height="116" viewBox="0 0 173 116" fill="none" xmlns="http://www.w3.org/2000/svg">
<g clip-path="url(#clip0_381_2533)">
<path d="M160.289 112.417C156.728 114.621 152.176 114.379 148.836 111.859C142.654 107.189 135.486 99.5653 128.142 91.4209C124.468 86.9967 119.849 84.4222 113.55 85.147H59.4502C53.1553 84.4222 48.5324 86.9967 44.8625 91.4209C44.6618 91.6417 44.4654 91.8583 44.2647 92.075C37.1256 99.9735 30.1745 107.31 24.168 111.859C20.8241 114.375 16.2806 114.617 12.711 112.417C3.88317 106.993 1.28331 96.795 2.27811 84.2639C2.28229 84.1472 2.29483 84.0306 2.30737 83.9056C2.51218 81.3519 2.88001 78.7024 3.36905 75.9737C3.36905 75.9612 3.36905 75.9445 3.37323 75.932C3.41085 75.7237 3.45265 75.5071 3.49027 75.2946C5.81845 62.7136 10.7507 48.5744 16.1594 34.8436C17.7603 30.7776 19.3988 26.7534 21.0248 22.8041C21.4971 21.6668 21.961 20.5212 22.4292 19.4005L27.1148 16.7218L27.19 16.476L28.2016 12.7767C28.6363 11.1728 29.7607 9.83974 31.2696 9.13153C37.9866 5.96544 44.9168 3.62419 52.1062 2.2661C52.2943 2.22861 52.474 2.19111 52.6579 2.16195C54.0372 1.91616 55.4626 2.17862 56.6664 2.91182L61.9497 6.12374C63.6258 7.15272 65.5569 7.69429 67.5298 7.69429H105.475C107.443 7.69429 109.374 7.14856 111.055 6.12374L116.33 2.91182C117.529 2.18278 118.963 1.91616 120.346 2.16195C127.72 3.51171 134.838 5.88628 141.731 9.1357C143.24 9.83974 144.356 11.177 144.803 12.7809L145.881 16.726L150.567 19.4047C151.064 20.6003 151.566 21.8126 152.063 23.029C159.253 40.4551 166.693 59.5641 169.623 75.9445C172.54 92.2333 170.994 105.831 160.289 112.417Z" fill="#C93F27"/>
<path d="M18.0236 114.109C16.1593 114.109 14.291 113.596 12.619 112.567C4.43068 107.535 0.990657 98.2741 2.1025 84.2516C2.10668 84.1433 2.11922 84.0266 2.13176 83.9058C2.32821 81.4313 2.67932 78.8317 3.19762 75.9447C3.19762 75.9447 3.19344 75.9281 3.20598 75.8864C3.2227 75.7864 3.2436 75.6823 3.2645 75.5781C3.2854 75.474 3.3063 75.3657 3.32302 75.2615C5.91453 61.2599 11.7998 45.4502 16.0005 34.7771C17.3966 31.2361 18.9431 27.4118 20.8659 22.7376C21.0832 22.2127 21.3006 21.6878 21.5137 21.1629C21.7645 20.5505 22.0153 19.9381 22.2661 19.3341L22.287 19.2799L26.9643 16.6054L27.0186 16.4263L28.0301 12.7311C28.4816 11.0731 29.631 9.70247 31.1901 8.97344C38.0701 5.72819 45.0965 3.41194 52.0685 2.09134L52.1521 2.07468C52.3109 2.04135 52.4656 2.01219 52.6244 1.98719C54.0455 1.73307 55.5127 2.00386 56.7541 2.75789L62.0374 5.96981C63.6885 6.98213 65.5861 7.51537 67.5256 7.51537H105.47C107.406 7.51537 109.303 6.98213 110.958 5.96981L116.233 2.75789C117.471 2.00386 118.942 1.72891 120.371 1.98719C127.536 3.29529 134.742 5.64903 141.797 8.97344C143.344 9.69831 144.502 11.0647 144.962 12.7269L146.023 16.6054L150.701 19.2758L150.721 19.3299C151.219 20.5255 151.72 21.7378 152.218 22.9543C159.645 40.9594 166.914 59.8393 169.786 75.9072C173.134 94.6122 170.057 106.602 160.369 112.559C156.786 114.775 152.105 114.546 148.719 111.992C142.449 107.256 135.055 99.3572 128 91.5294C123.979 86.6886 119.255 84.6598 113.558 85.3139H59.4376C53.7112 84.6557 48.9963 86.6886 44.9878 91.5253C44.7955 91.7419 44.6074 91.946 44.4193 92.1543L44.3859 92.1877C37.5936 99.7071 30.4503 107.31 24.2641 111.992C22.4041 113.392 20.2096 114.1 18.0152 114.1L18.0236 114.109ZM3.54455 75.9864V76.0072C3.02625 78.8817 2.67932 81.4688 2.48286 83.9225C2.47032 84.0558 2.45779 84.1683 2.45361 84.2766C1.3543 98.1574 4.73999 107.314 12.8029 112.272C16.3182 114.442 20.7405 114.225 24.0635 111.726C30.2287 107.06 37.3554 99.4697 44.1393 91.9627L44.1727 91.9252C44.3608 91.7211 44.5489 91.5169 44.7328 91.3086C48.8207 86.3804 53.6443 84.3099 59.471 84.9764H113.55C119.356 84.3057 124.179 86.3804 128.276 91.3128C135.314 99.1239 142.692 107.006 148.941 111.726C152.214 114.192 156.736 114.413 160.193 112.272C169.744 106.393 172.77 94.5247 169.447 75.9781C166.58 59.9435 159.319 41.0843 151.896 23.0959C151.407 21.8961 150.914 20.7005 150.425 19.5257L145.726 16.8429L144.627 12.8269C144.192 11.2647 143.106 9.97742 141.651 9.29421C134.625 5.98231 127.444 3.64106 120.309 2.33713C118.963 2.09551 117.579 2.35379 116.417 3.062L111.142 6.27392C109.433 7.31957 107.468 7.86947 105.47 7.86947H67.5256C65.5193 7.86947 63.5589 7.3154 61.8535 6.27392L56.5702 3.062C55.3998 2.35379 54.0205 2.09551 52.6829 2.33713C52.5241 2.36213 52.3736 2.39545 52.219 2.42461L52.1312 2.44128C45.1843 3.75771 38.1872 6.06146 31.3364 9.29421C29.8693 9.98159 28.7867 11.2689 28.3645 12.8269L27.2569 16.8429L22.5629 19.5257C22.3205 20.1089 22.078 20.7047 21.8314 21.2962C21.6141 21.8211 21.4009 22.346 21.1835 22.8709C19.2566 27.5451 17.7143 31.3694 16.3182 34.9063C12.1216 45.5669 6.24473 61.3557 3.6574 75.3282C3.64068 75.4323 3.61978 75.5406 3.59889 75.6448C3.57799 75.7489 3.55709 75.8573 3.54037 75.9614V75.9864H3.54455Z" fill="black"/>
<g opacity="0.55">
<path d="M169.623 75.8532C166.693 59.4728 159.252 40.3638 152.063 22.9377C151.566 21.7171 151.064 20.5048 150.567 19.3134L145.881 16.6347L144.803 12.6896C144.355 11.0857 143.239 9.7526 141.73 9.04439C134.842 5.79497 127.72 3.4204 120.346 2.07064C118.963 1.82485 117.529 2.08731 116.329 2.82051L111.055 6.03243C110.967 6.08659 110.879 6.13241 110.791 6.1824C110.398 5.94911 109.897 5.91579 109.458 6.13658C109.069 6.33238 108.822 6.69065 108.739 7.08641C107.686 7.42385 106.586 7.60298 105.474 7.60298H67.5297C67.0281 7.60298 66.5307 7.56549 66.0417 7.49884C66.096 6.9531 65.8201 6.4032 65.2977 6.13658C64.6163 5.79081 63.7846 6.05743 63.4376 6.73647L63.4167 6.77813C62.911 6.56567 62.4177 6.31988 61.9496 6.03243L56.6663 2.82051C55.4625 2.09147 54.033 1.82485 52.6578 2.07064C52.4697 2.0998 52.29 2.1373 52.106 2.17479C44.9167 3.53705 37.9865 5.87413 31.2695 9.04023C29.7605 9.74427 28.6362 11.0815 28.2015 12.6854L27.1899 16.3847L27.1147 16.6305L22.4291 19.3092C21.9651 20.4298 21.497 21.5755 21.0246 22.7128C19.3987 26.6579 17.7602 30.6863 16.1593 34.7523C10.7547 48.4873 5.81834 62.6223 3.49016 75.2033C3.45254 75.4116 3.41074 75.6283 3.37312 75.8407C3.36894 75.8532 3.36894 75.8699 3.36894 75.8824C2.8799 78.6111 2.51207 81.2564 2.30726 83.8143C2.29472 83.9393 2.28218 84.0559 2.278 84.1726C2.09827 86.4597 2.03557 88.6718 2.11081 90.788C2.14425 89.8007 2.19858 88.8009 2.278 87.7803C2.28218 87.6636 2.29472 87.547 2.30726 87.422C2.51207 84.8683 2.8799 82.2188 3.36894 79.4901C3.36894 79.4776 3.36894 79.4609 3.37312 79.4484C3.41074 79.2401 3.45254 79.0235 3.49016 78.811C5.81834 66.2299 10.7506 52.0908 16.1593 38.36C17.7602 34.294 19.3987 30.2697 21.0246 26.3205C21.497 25.1832 21.9609 24.0375 22.4291 22.9169L27.1147 20.2382L27.1899 19.9924L28.2015 16.2931C28.6362 14.6892 29.7605 13.3561 31.2695 12.6479C37.9865 9.48181 44.9167 7.14057 52.106 5.78248C52.2941 5.74498 52.4739 5.70749 52.6578 5.67833C54.0371 5.43254 55.4625 5.69499 56.6663 6.42819L61.9454 9.63595L58.9108 15.5474C58.5639 16.2264 58.8314 17.0555 59.5127 17.4012C59.7134 17.5054 59.9307 17.5512 60.1397 17.5512C60.6413 17.5512 61.1262 17.2762 61.3728 16.8013L64.4742 10.7566C65.4607 11.0482 66.4889 11.2065 67.5297 11.2065H105.474C107.042 11.2065 108.58 10.8566 109.993 10.1983L113.383 16.8013C113.629 17.2762 114.11 17.5512 114.616 17.5512C114.829 17.5512 115.042 17.5012 115.243 17.4012C115.924 17.0555 116.192 16.2264 115.845 15.5474L112.392 8.8236L116.329 6.42819C117.529 5.69916 118.963 5.43254 120.346 5.67833C127.72 7.02809 134.838 9.40266 141.73 12.6521C143.239 13.3561 144.355 14.6934 144.803 16.2973L145.881 20.2424L150.567 22.9211C151.064 24.1167 151.566 25.329 152.063 26.5454C159.252 43.9715 166.693 63.0805 169.623 79.4609C170.329 83.4019 170.768 87.1845 170.885 90.7464C171.044 86.1639 170.571 81.1523 169.623 75.8532Z" fill="white"/>
</g>
<g opacity="0.3">
<path d="M103.38 7.69013C103.456 8.0234 103.497 8.22336 103.497 8.22336L110.29 19.4089L112.455 18.3757C116.451 10.4813 124.092 11.5519 124.092 11.5519L121.032 2.76184L120.823 2.2661C120.635 2.22861 120.455 2.19111 120.271 2.16195C118.892 1.91616 117.466 2.17862 116.263 2.91182L110.979 6.12374C109.303 7.15272 107.372 7.69429 105.399 7.69429H103.38V7.69013Z" fill="black"/>
</g>
<g opacity="0.3">
<path d="M69.5486 7.69013C69.4733 8.0234 69.4315 8.22336 69.4315 8.22336L62.6393 19.4089L60.4741 18.3757C56.4782 10.4813 48.8374 11.5519 48.8374 11.5519L51.8971 2.76184L52.1061 2.2661C52.2941 2.22861 52.4739 2.19111 52.6578 2.16195C54.0371 1.91616 55.4625 2.17862 56.6663 2.91182L61.9496 6.12374C63.6257 7.15272 65.5568 7.69429 67.5297 7.69429H69.5486V7.69013Z" fill="black"/>
</g>
<path d="M169.623 75.9404C166.693 59.56 159.252 40.4509 152.063 23.0249C151.566 21.8043 151.064 20.592 150.567 19.4005L145.881 16.7218L127.03 11.956C122.219 10.7396 117.124 12.2226 113.73 15.8303L106.06 23.9789C104.074 26.0868 101.307 27.2824 98.4062 27.2824H74.5894C71.6886 27.2824 68.9216 26.0868 66.9361 23.9789L59.2661 15.8303C55.872 12.2226 50.7768 10.7396 45.9658 11.956L27.1105 16.726L22.4249 19.4047C21.9609 20.5253 21.4927 21.6709 21.0204 22.8082C19.3945 26.7534 17.756 30.7818 16.1551 34.8477C10.7505 48.5828 5.81411 62.7177 3.48593 75.2988C3.44831 75.5071 3.40651 75.7237 3.36889 75.9362C3.36471 75.9487 3.36471 75.9654 3.36471 75.9779C2.87567 78.7065 2.50784 81.3519 2.30303 83.9098C2.29049 84.0347 2.27795 84.1514 2.27377 84.268C1.27897 96.8033 3.88301 106.997 12.7067 112.421C16.2763 114.625 20.8198 114.383 24.1637 111.863C30.1701 107.318 37.1254 99.9777 44.2604 92.0791C44.461 91.8625 44.6575 91.6459 44.8581 91.4251C48.528 87.0009 53.151 84.4263 59.4458 85.1512H113.546C119.845 84.4263 124.463 87.0009 128.138 91.4251C135.482 99.5736 142.65 107.193 148.832 111.863C152.172 114.379 156.719 114.621 160.285 112.421C170.994 105.831 172.536 92.2374 169.618 75.9487L169.623 75.9404Z" fill="white"/>
<g opacity="0.3">
<path d="M160.289 112.413C156.728 114.621 152.176 114.375 148.84 111.859C142.654 107.189 135.486 99.5655 128.146 91.417C124.468 86.9969 119.849 84.4266 113.554 85.1514H59.4499C53.1551 84.4266 48.5322 86.9969 44.8622 91.417C44.6658 91.6378 44.4652 91.8627 44.2645 92.0794C37.1253 99.9779 30.1742 107.314 24.172 111.863C20.8281 114.38 16.2846 114.621 12.715 112.417C3.89132 106.993 1.28727 96.8035 2.28207 84.2641C2.28207 84.1475 2.29461 84.035 2.31133 83.91C2.34059 83.5309 2.37821 83.1476 2.42001 82.7602C3.38555 90.4422 6.5079 96.6161 12.715 100.424C16.2846 102.632 20.8281 102.386 24.172 99.8696C30.1784 95.3204 37.1295 87.9843 44.2645 80.0857C44.4652 79.8649 44.67 79.6483 44.8622 79.4233C48.5322 75.0033 53.1551 72.4329 59.4499 73.1494H113.554C115.481 72.9286 117.253 73.0203 118.887 73.3702C118.896 73.3786 118.896 73.3702 118.896 73.3702C122.553 70.0875 124.158 64.8384 122.645 59.9601C122.574 59.7393 122.499 59.5144 122.424 59.2978C121.705 57.3564 123.958 55.6817 125.584 56.969C125.684 57.0482 125.78 57.1273 125.872 57.2065C127.774 58.7937 129.224 60.9516 129.977 63.5303C131.097 67.4505 130.232 71.5872 127.912 74.7242C126.875 76.1281 127.013 78.0527 128.133 79.39C128.142 79.3983 128.15 79.4066 128.154 79.415C135.494 87.5635 142.662 95.1871 148.849 99.8571C152.188 102.373 156.736 102.615 160.297 100.411C166.504 96.5952 169.635 90.4213 170.592 82.7352C171.917 95.9578 169.476 106.756 160.297 112.405L160.289 112.413Z" fill="black"/>
</g>
<path d="M154.977 116C152.377 116 149.781 115.163 147.582 113.5C141.191 108.672 133.718 100.699 126.6 92.7999C126.583 92.7791 126.562 92.7583 126.545 92.7375C122.925 88.3757 118.871 86.6177 113.788 87.1968C113.709 87.2051 113.629 87.2093 113.554 87.2093H59.4543C59.3749 87.2093 59.2955 87.2051 59.2203 87.1968C54.1376 86.6177 50.0831 88.3757 46.4633 92.7375C46.4466 92.7583 46.4257 92.7791 46.409 92.7999C39.2865 100.699 31.8171 108.672 25.4261 113.5C21.3633 116.571 15.9462 116.833 11.6284 114.175C0.882033 107.556 -2.36571 94.308 1.70128 73.6701C5.04517 56.6981 12.8364 37.16 20.5273 18.6091C20.7029 18.1884 21.0122 17.8343 21.4135 17.6051L25.3551 15.3514L26.212 12.2311C26.8138 10.0398 28.3395 8.22765 30.3918 7.26115C37.5895 3.86593 44.9586 1.46636 52.2817 0.129102C54.1668 -0.216669 56.1105 0.145766 57.7531 1.14142L63.0323 4.35751C64.3866 5.18236 65.9415 5.61978 67.5298 5.61978H105.475C107.063 5.61978 108.618 5.18236 109.972 4.35751L115.251 1.14142C116.89 0.1416 118.833 -0.216669 120.723 0.124936C128.046 1.4622 135.415 3.86177 142.621 7.25699C144.677 8.22348 146.199 10.0357 146.801 12.2269L147.658 15.3472L151.599 17.601C151.996 17.8301 152.31 18.18 152.485 18.6049C160.176 37.16 167.968 56.6939 171.311 73.6659C175.378 94.3038 172.131 107.556 161.384 114.171C159.403 115.392 157.188 115.996 154.981 115.996L154.977 116ZM129.714 90.0713C136.69 97.8074 143.984 105.598 150.09 110.209C152.778 112.238 156.356 112.417 159.202 110.663C180.528 97.5324 161.673 51.6032 148.924 20.842L144.853 18.5133C144.376 18.2425 144.03 17.7926 143.883 17.2677L142.801 13.3226C142.521 12.2977 141.806 11.4479 140.849 10.998C133.969 7.7569 126.946 5.46981 119.974 4.19504C119.092 4.03257 118.181 4.20337 117.412 4.66995L112.133 7.88604C110.127 9.10666 107.824 9.75237 105.475 9.75237H67.5298C65.1807 9.75237 62.8776 9.10666 60.8713 7.88604L55.5922 4.66995C54.8231 4.20337 53.916 4.03257 53.0341 4.19504C46.0621 5.46981 39.0399 7.7569 32.1599 10.998C31.2027 11.4479 30.4879 12.2977 30.2079 13.3226L29.1253 17.2677C28.979 17.7926 28.6321 18.2425 28.1556 18.5133L24.0844 20.842C11.3317 51.6032 -7.51948 97.5324 13.8061 110.663C16.6526 112.417 20.2306 112.238 22.9182 110.209C29.025 105.598 36.3188 97.8074 43.295 90.0713C47.7967 84.6681 53.126 82.381 59.5714 83.0767H113.441C119.887 82.3768 125.216 84.6639 129.718 90.0713H129.714Z" fill="black"/>
<path d="M98.4063 29.1153H74.5895C71.1954 29.1153 67.9142 27.6989 65.5944 25.2327L57.9244 17.0842C54.9901 13.9639 50.5804 12.6808 46.4214 13.7306L27.5703 18.4964C26.5838 18.7464 25.5807 18.1506 25.3299 17.1675C25.0791 16.1843 25.6768 15.1845 26.6633 14.9346L45.5144 10.1687C50.9733 8.78983 56.7582 10.4729 60.612 14.568L68.2821 22.7165C69.9122 24.4454 72.2111 25.441 74.5895 25.441H98.4063C100.789 25.441 103.088 24.4495 104.714 22.7165L112.384 14.568C116.238 10.4729 122.022 8.78983 127.481 10.1687L146.332 14.9346C147.319 15.1845 147.917 16.1843 147.666 17.1675C147.415 18.1506 146.412 18.7464 145.425 18.4964L126.574 13.7306C122.415 12.6808 118.006 13.9639 115.071 17.0842L107.401 25.2327C105.077 27.6989 101.8 29.1153 98.4063 29.1153Z" fill="black"/>
<path d="M59.2703 17.2053C59.0571 17.2053 58.844 17.1553 58.6433 17.0553C57.962 16.7096 57.6945 15.8805 58.0414 15.2015L62.564 6.38641C62.9109 5.70737 63.7469 5.44075 64.4241 5.78652C65.1054 6.13229 65.3729 6.96131 65.026 7.64035L60.5034 16.4554C60.2567 16.9304 59.7761 17.2053 59.2703 17.2053Z" fill="black"/>
<path d="M113.738 17.2053C113.236 17.2053 112.752 16.9304 112.505 16.4554L107.982 7.64035C107.635 6.96131 107.903 6.13229 108.584 5.78652C109.266 5.44075 110.097 5.70737 110.444 6.38641L114.967 15.2015C115.314 15.8805 115.046 16.7096 114.365 17.0553C114.164 17.1595 113.947 17.2053 113.738 17.2053Z" fill="black"/>
<path d="M64.5744 75.9323C71.9546 75.9323 77.9374 69.9694 77.9374 62.6139C77.9374 55.2583 71.9546 49.2954 64.5744 49.2954C57.1942 49.2954 51.2114 55.2583 51.2114 62.6139C51.2114 69.9694 57.1942 75.9323 64.5744 75.9323Z" fill="#D8D2D1"/>
<path d="M64.5744 76.103C57.1092 76.103 51.0359 70.0499 51.0359 62.6096C51.0359 55.1693 57.1092 49.1162 64.5744 49.1162C72.0397 49.1162 78.113 55.1693 78.113 62.6096C78.113 70.0499 72.0397 76.103 64.5744 76.103ZM64.5744 49.4703C57.3015 49.4703 51.387 55.3651 51.387 62.6138C51.387 69.8625 57.3015 75.7573 64.5744 75.7573C71.8474 75.7573 77.7619 69.8625 77.7619 62.6138C77.7619 55.3651 71.8474 49.4703 64.5744 49.4703Z" fill="black"/>
<g opacity="0.3">
<path d="M75.3835 54.7863C73.837 54.1573 72.1358 53.8074 70.3552 53.8074C62.9735 53.8074 56.9922 59.773 56.9922 67.1258C56.9922 70.0503 57.9368 72.7581 59.5461 74.9494C54.6556 72.9748 51.2114 68.1923 51.2114 62.6099C51.2114 55.2571 57.197 49.2915 64.5744 49.2915C69.0218 49.2915 72.955 51.4536 75.3835 54.7822V54.7863Z" fill="#6D3E27"/>
<path d="M60.1731 75.4408L59.4626 75.1534C54.3172 73.0746 50.99 68.1504 50.99 62.6098C50.99 55.1444 57.0842 49.0747 64.5703 49.0747C68.9007 49.0747 73.0095 51.1618 75.5592 54.657L76.0106 55.2778L75.3 54.9903C73.7284 54.3529 72.0648 54.028 70.3553 54.028C63.1074 54.028 57.2096 59.9061 57.2096 67.1298C57.2096 69.921 58.079 72.583 59.7217 74.8284L60.1731 75.445V75.4408ZM64.5703 49.5121C57.3225 49.5121 51.4247 55.3902 51.4247 62.6139C51.4247 67.7214 54.3464 72.2872 58.9275 74.4451C57.5147 72.2664 56.7707 69.7543 56.7707 67.1256C56.7707 59.6603 62.865 53.5906 70.3511 53.5906C71.8558 53.5906 73.3271 53.8322 74.7357 54.3154C72.2487 51.2951 68.5036 49.5121 64.5703 49.5121Z" fill="black"/>
</g>
<path d="M64.5744 77.2404C56.4822 77.2404 49.8989 70.6791 49.8989 62.6138C49.8989 54.5486 56.4822 47.9873 64.5744 47.9873C72.6666 47.9873 79.2499 54.5486 79.2499 62.6138C79.2499 70.6791 72.6666 77.2404 64.5744 77.2404ZM64.5744 50.6035C57.9284 50.6035 52.5239 55.99 52.5239 62.6138C52.5239 69.2377 57.9284 74.6242 64.5744 74.6242C71.2204 74.6242 76.6249 69.2377 76.6249 62.6138C76.6249 55.99 71.2204 50.6035 64.5744 50.6035Z" fill="black"/>
<path d="M109.211 72.104C114.47 72.104 118.733 67.8552 118.733 62.614C118.733 57.3728 114.47 53.124 109.211 53.124C103.952 53.124 99.6895 57.3728 99.6895 62.614C99.6895 67.8552 103.952 72.104 109.211 72.104Z" fill="#C93F27"/>
<path d="M109.211 72.3204C103.84 72.3204 99.468 67.9629 99.468 62.6097C99.468 57.2565 103.836 52.8989 109.211 52.8989C114.587 52.8989 118.954 57.2523 118.954 62.6097C118.954 67.967 114.587 72.3204 109.211 72.3204ZM109.211 53.3405C104.083 53.3405 99.9069 57.5023 99.9069 62.6138C99.9069 67.7254 104.083 71.8872 109.211 71.8872C114.34 71.8872 118.516 67.7254 118.516 62.6138C118.516 57.5023 114.34 53.3405 109.211 53.3405Z" fill="black"/>
<path d="M109.211 72.1035C114.47 72.1035 118.733 67.8547 118.733 62.6135C118.733 57.3723 114.47 53.1235 109.211 53.1235C103.952 53.1235 99.6895 57.3723 99.6895 62.6135C99.6895 67.8547 103.952 72.1035 109.211 72.1035Z" fill="#D8D2D1"/>
<path d="M109.211 72.2786C103.865 72.2786 99.5139 67.9419 99.5139 62.6137C99.5139 57.2855 103.865 52.9487 109.211 52.9487C114.557 52.9487 118.908 57.2855 118.908 62.6137C118.908 67.9419 114.557 72.2786 109.211 72.2786ZM109.211 53.2945C104.057 53.2945 99.865 57.4729 99.865 62.6095C99.865 67.7461 104.057 71.9245 109.211 71.9245C114.365 71.9245 118.557 67.7461 118.557 62.6095C118.557 57.4729 114.365 53.2945 109.211 53.2945Z" fill="black"/>
<path d="M109.211 73.4116C103.238 73.4116 98.377 68.5666 98.377 62.6135C98.377 56.6604 103.238 51.8154 109.211 51.8154C115.184 51.8154 120.045 56.6604 120.045 62.6135C120.045 68.5666 115.184 73.4116 109.211 73.4116ZM109.211 54.4275C104.684 54.4275 101.002 58.0976 101.002 62.6093C101.002 67.121 104.684 70.7912 109.211 70.7912C113.738 70.7912 117.42 67.121 117.42 62.6093C117.42 58.0976 113.738 54.4275 109.211 54.4275Z" fill="black"/>
<path d="M109.211 67.1294C111.714 67.1294 113.742 65.1075 113.742 62.6135C113.742 60.1195 111.714 58.0977 109.211 58.0977C106.709 58.0977 104.68 60.1195 104.68 62.6135C104.68 65.1075 106.709 67.1294 109.211 67.1294Z" fill="black"/>
<path d="M43.6291 45.3417C48.8878 45.3417 53.1508 41.0929 53.1508 35.8518C53.1508 30.6106 48.8878 26.3618 43.6291 26.3618C38.3704 26.3618 34.1074 30.6106 34.1074 35.8518C34.1074 41.0929 38.3704 45.3417 43.6291 45.3417Z" fill="#C93F27"/>
<path d="M43.6292 45.5626C38.2581 45.5626 33.886 41.2092 33.886 35.8519C33.886 30.4945 38.2539 26.1411 43.6292 26.1411C49.0045 26.1411 53.3725 30.4987 53.3725 35.8519C53.3725 41.2051 49.0045 45.5626 43.6292 45.5626ZM43.6292 26.5785C38.5005 26.5785 34.3249 30.7403 34.3249 35.8519C34.3249 40.9634 38.5005 45.1252 43.6292 45.1252C48.7579 45.1252 52.9336 40.9634 52.9336 35.8519C52.9336 30.7403 48.7579 26.5785 43.6292 26.5785Z" fill="black"/>
<g opacity="0.3">
<path d="M62.1879 42.4422C61.7156 48.5911 56.8084 53.6277 50.6557 54.2693C46.7099 54.6775 43.065 53.3028 40.4401 50.8532C39.579 49.5243 40.415 48.5578 41.6941 48.6078C42.5384 48.7369 43.4078 48.7828 44.2939 48.7369C50.8479 48.4162 56.2107 43.0879 56.5576 36.5558C56.5702 36.3267 56.5743 36.0934 56.5743 35.8642C56.5785 33.7938 59.2745 32.9981 60.3487 34.7686C60.4156 34.8811 60.4783 34.9852 60.541 35.0894C61.7699 37.2348 62.3843 39.7594 62.1879 42.4381V42.4422Z" fill="black"/>
</g>
<path d="M43.6291 45.3417C48.8878 45.3417 53.1508 41.0929 53.1508 35.8518C53.1508 30.6106 48.8878 26.3618 43.6291 26.3618C38.3704 26.3618 34.1074 30.6106 34.1074 35.8518C34.1074 41.0929 38.3704 45.3417 43.6291 45.3417Z" fill="#D8D2D1"/>
<path d="M43.6293 47.1998C37.3512 47.1998 32.2434 42.1091 32.2434 35.8519C32.2434 29.5947 37.3512 24.5039 43.6293 24.5039C49.9075 24.5039 55.0153 29.5947 55.0153 35.8519C55.0153 42.1091 49.9075 47.1998 43.6293 47.1998ZM43.6293 28.2157C39.4035 28.2157 35.9677 31.6401 35.9677 35.8519C35.9677 40.0636 39.4035 43.488 43.6293 43.488C47.8552 43.488 51.291 40.0636 51.291 35.8519C51.291 31.6401 47.8552 28.2157 43.6293 28.2157Z" fill="black"/>
<path d="M43.6293 40.3676C46.1317 40.3676 48.1603 38.3458 48.1603 35.8518C48.1603 33.3578 46.1317 31.3359 43.6293 31.3359C41.127 31.3359 39.0984 33.3578 39.0984 35.8518C39.0984 38.3458 41.127 40.3676 43.6293 40.3676Z" fill="black"/>
<path d="M129.952 31.8028C132.863 31.8028 135.223 29.4509 135.223 26.5496C135.223 23.6483 132.863 21.2964 129.952 21.2964C127.041 21.2964 124.681 23.6483 124.681 26.5496C124.681 29.4509 127.041 31.8028 129.952 31.8028Z" fill="#4360AC"/>
<path d="M73.8119 60.2598V64.9631C73.8119 65.5464 73.3396 66.0171 72.7544 66.0171H68.282V70.4747C68.282 71.0579 67.8096 71.5286 67.2244 71.5286H62.5096C61.9244 71.5286 61.4521 71.0579 61.4521 70.4747V66.0171H56.9796C56.3944 66.0171 55.9221 65.5464 55.9221 64.9631V60.2598C55.9221 59.6766 56.3944 59.2058 56.9796 59.2058H61.4521V54.7483C61.4521 54.1651 61.9244 53.6943 62.5096 53.6943H67.2244C67.8096 53.6943 68.282 54.1651 68.282 54.7483V59.2058H72.7544C73.3396 59.2058 73.8119 59.6766 73.8119 60.2598Z" fill="black"/>
<path d="M140.782 42.5963C143.693 42.5963 146.052 40.2443 146.052 37.3431C146.052 34.4418 143.693 32.0898 140.782 32.0898C137.871 32.0898 135.511 34.4418 135.511 37.3431C135.511 40.2443 137.871 42.5963 140.782 42.5963Z" fill="#B3D337"/>
<path d="M119.117 42.5963C122.028 42.5963 124.388 40.2443 124.388 37.3431C124.388 34.4418 122.028 32.0898 119.117 32.0898C116.207 32.0898 113.847 34.4418 113.847 37.3431C113.847 40.2443 116.207 42.5963 119.117 42.5963Z" fill="#BA7965"/>
<g opacity="0.3">
<path d="M138.378 30.2364C138.378 33.1401 136.012 35.4897 133.107 35.4897C130.808 35.4897 128.848 34.0191 128.129 31.9736C128.882 32.3819 129.738 32.611 130.645 32.611C133.559 32.611 135.916 30.2614 135.916 27.3578C135.916 26.7496 135.812 26.1663 135.619 25.6206C137.258 26.5079 138.374 28.241 138.374 30.2364H138.378Z" fill="black"/>
<path d="M138.378 51.8282C138.378 54.7319 136.012 57.0815 133.107 57.0815C130.808 57.0815 128.848 55.6109 128.129 53.5654C128.882 53.9737 129.738 54.2028 130.645 54.2028C133.559 54.2028 135.916 51.8532 135.916 48.9496C135.916 48.3372 135.812 47.754 135.619 47.2124C137.258 48.0997 138.374 49.8328 138.374 51.8282H138.378Z" fill="black"/>
<path d="M149.208 41.0343C149.208 43.9338 146.851 46.2834 143.937 46.2834C141.639 46.2834 139.678 44.8128 138.959 42.7715C139.707 43.1797 140.568 43.4089 141.48 43.4089C144.393 43.4089 146.75 41.0593 146.75 38.1556C146.75 37.5433 146.646 36.96 146.454 36.4185C148.092 37.31 149.204 39.0388 149.204 41.0343H149.208Z" fill="black"/>
<path d="M127.544 41.0343C127.544 43.9338 125.186 46.2834 122.273 46.2834C119.974 46.2834 118.014 44.8128 117.295 42.7715C118.043 43.1797 118.904 43.4089 119.815 43.4089C122.729 43.4089 125.086 41.0593 125.086 38.1556C125.086 37.5433 124.982 36.96 124.789 36.4185C126.428 37.31 127.54 39.0388 127.54 41.0343H127.544Z" fill="black"/>
</g>
<path d="M129.952 53.3902C132.863 53.3902 135.223 51.0383 135.223 48.137C135.223 45.2357 132.863 42.8838 129.952 42.8838C127.041 42.8838 124.681 45.2357 124.681 48.137C124.681 51.0383 127.041 53.3902 129.952 53.3902Z" fill="#A85BA4"/>
<g opacity="0.55">
<path d="M133.764 22.925C133.316 22.7959 132.848 22.7292 132.363 22.7292C129.45 22.7292 127.092 25.0788 127.092 27.9825C127.092 29.3905 127.648 30.6695 128.547 31.6026C126.319 30.9986 124.677 28.9656 124.677 26.5452C124.677 23.6416 127.042 21.292 129.947 21.292C131.448 21.292 132.802 21.9169 133.764 22.925Z" fill="white"/>
</g>
<g opacity="0.55">
<path d="M144.589 33.719C144.142 33.5898 143.674 33.5232 143.189 33.5232C140.276 33.5232 137.918 35.8811 137.918 38.7764C137.918 40.1845 138.474 41.4634 139.373 42.3966C137.145 41.7925 135.502 39.7596 135.502 37.3392C135.502 34.4438 137.868 32.0859 140.773 32.0859C142.274 32.0859 143.628 32.7108 144.589 33.719Z" fill="white"/>
</g>
<g opacity="0.55">
<path d="M122.934 33.719C122.486 33.5898 122.018 33.5232 121.533 33.5232C118.62 33.5232 116.263 35.8811 116.263 38.7764C116.263 40.1845 116.819 41.4634 117.717 42.3966C115.481 41.7925 113.847 39.7596 113.847 37.3392C113.847 34.4438 116.204 32.0859 119.117 32.0859C120.618 32.0859 121.972 32.7108 122.934 33.719Z" fill="white"/>
</g>
<g opacity="0.55">
<path d="M133.764 44.5212C133.316 44.3921 132.848 44.3254 132.363 44.3254C129.45 44.3254 127.092 46.675 127.092 49.5787C127.092 50.9867 127.648 52.2573 128.547 53.1988C126.319 52.5948 124.677 50.5535 124.677 48.1414C124.677 45.2378 127.042 42.8882 129.947 42.8882C131.448 42.8882 132.802 43.5131 133.764 44.5212Z" fill="white"/>
</g>
<path d="M129.952 54.9359C126.19 54.9359 123.13 51.8865 123.13 48.1372C123.13 44.3878 126.19 41.3384 129.952 41.3384C133.714 41.3384 136.773 44.3878 136.773 48.1372C136.773 51.8865 133.714 54.9359 129.952 54.9359ZM129.952 44.4295C127.899 44.4295 126.232 46.0917 126.232 48.1372C126.232 50.1826 127.899 51.8448 129.952 51.8448C132.004 51.8448 133.672 50.1826 133.672 48.1372C133.672 46.0917 132.004 44.4295 129.952 44.4295Z" fill="black"/>
<path d="M129.952 33.348C126.19 33.348 123.13 30.2986 123.13 26.5493C123.13 22.7999 126.19 19.7505 129.952 19.7505C133.714 19.7505 136.773 22.7999 136.773 26.5493C136.773 30.2986 133.714 33.348 129.952 33.348ZM129.952 22.8416C127.899 22.8416 126.232 24.5038 126.232 26.5493C126.232 28.5947 127.899 30.2569 129.952 30.2569C132.004 30.2569 133.672 28.5947 133.672 26.5493C133.672 24.5038 132.004 22.8416 129.952 22.8416Z" fill="black"/>
<path d="M140.781 44.142C137.02 44.142 133.96 41.0925 133.96 37.3432C133.96 33.5939 137.02 30.5444 140.781 30.5444C144.543 30.5444 147.603 33.5939 147.603 37.3432C147.603 41.0925 144.543 44.142 140.781 44.142ZM140.781 33.6355C138.729 33.6355 137.061 35.2977 137.061 37.3432C137.061 39.3887 138.729 41.0509 140.781 41.0509C142.834 41.0509 144.502 39.3887 144.502 37.3432C144.502 35.2977 142.834 33.6355 140.781 33.6355Z" fill="black"/>
<path d="M119.117 44.142C115.356 44.142 112.296 41.0925 112.296 37.3432C112.296 33.5939 115.356 30.5444 119.117 30.5444C122.879 30.5444 125.939 33.5939 125.939 37.3432C125.939 41.0925 122.879 44.142 119.117 44.142ZM119.117 33.6355C117.065 33.6355 115.397 35.2977 115.397 37.3432C115.397 39.3887 117.065 41.0509 119.117 41.0509C121.17 41.0509 122.837 39.3887 122.837 37.3432C122.837 35.2977 121.17 33.6355 119.117 33.6355Z" fill="black"/>
<path d="M81.7256 41.6028C82.1668 39.7397 81.0091 37.873 79.1398 37.4333C77.2705 36.9935 75.3975 38.1474 74.9563 40.0104C74.5151 41.8735 75.6728 43.7403 77.5421 44.18C79.4114 44.6197 81.2844 43.4659 81.7256 41.6028Z" fill="black"/>
<path d="M94.6571 44.2753C96.5777 44.2753 98.1347 42.7235 98.1347 40.8093C98.1347 38.8951 96.5777 37.3433 94.6571 37.3433C92.7364 37.3433 91.1794 38.8951 91.1794 40.8093C91.1794 42.7235 92.7364 44.2753 94.6571 44.2753Z" fill="black"/>
<g opacity="0.3">
<path d="M84.0484 42.8837C84.0484 44.8 82.4893 46.3539 80.5707 46.3539C79.091 46.3539 77.8246 45.4291 77.3271 44.1252C77.649 44.2251 77.9917 44.2751 78.347 44.2751C80.2698 44.2751 81.8247 42.7212 81.8247 40.8091C81.8247 40.3675 81.7411 39.9509 81.5906 39.5635C83.0159 39.9967 84.0525 41.3173 84.0525 42.8795L84.0484 42.8837Z" fill="black"/>
<path d="M100.362 42.8837C100.362 44.8 98.8032 46.3539 96.8847 46.3539C95.405 46.3539 94.1385 45.4291 93.6411 44.1252C93.963 44.2251 94.3057 44.2751 94.661 44.2751C96.5837 44.2751 98.1386 42.7212 98.1386 40.8091C98.1386 40.3675 98.055 39.9509 97.9046 39.5635C99.3299 39.9967 100.366 41.3173 100.366 42.8795L100.362 42.8837Z" fill="black"/>
</g>
</g>
<defs>
<clipPath id="clip0_381_2533">
<rect width="173" height="116" fill="white"/>
</clipPath>
</defs>
</svg>
