<svg width="386" height="389" viewBox="0 0 386 389" fill="none" xmlns="http://www.w3.org/2000/svg">
<path fill-rule="evenodd" clip-rule="evenodd" d="M173.401 113.82C172.124 114.112 170.819 113.436 170.327 112.221L132.949 19.9843C132.37 18.551 133.136 16.9318 134.613 16.4474C144.836 13.103 154.813 10.807 165.468 9.34053C167.006 9.12819 168.41 10.2496 168.516 11.7891L175.471 111.033C175.565 112.341 174.686 113.522 173.401 113.814V113.82Z" fill="#FBB03C" stroke="#010101" stroke-width="2" stroke-miterlimit="10"/>
<path fill-rule="evenodd" clip-rule="evenodd" d="M142.327 127.178C143.392 129.096 140.856 130.967 139.325 129.395C119.492 108.923 91.7383 77.3836 71.9049 56.9123C70.0281 54.9746 70.2011 51.8426 72.2909 50.1438C76.7967 46.4809 81.4489 43.0502 86.2742 39.8252C88.5171 38.3255 91.572 39.082 92.8831 41.4377L142.327 127.185V127.178Z" fill="#412312" stroke="#010101" stroke-width="2" stroke-miterlimit="10"/>
<path fill-rule="evenodd" clip-rule="evenodd" d="M126.587 139.023C128.071 140.523 126.068 142.852 124.357 141.624C97.9215 122.739 71.4857 103.847 45.05 84.9616C43.0001 83.4951 42.5609 80.6483 44.0517 78.6178C45.5425 76.5873 47.2264 74.4505 49.0833 72.3006C49.862 71.3981 50.6473 70.5288 51.4194 69.6927C53.1631 67.8148 56.1315 67.7949 57.9285 69.6131C80.8168 92.752 103.705 115.884 126.587 139.023Z" fill="#8DC641" stroke="#010101" stroke-width="2" stroke-miterlimit="10"/>
<path fill-rule="evenodd" clip-rule="evenodd" d="M113.123 164.133C111.086 168.871 109.489 173.781 108.344 178.818C107.272 183.522 103.026 186.82 98.1876 186.82H13.2765C7.04697 186.82 2.22837 181.419 2.90058 175.241C5.64265 150.058 13.1235 127.138 25.7556 105.161C28.8371 99.799 35.9253 98.3126 40.9369 101.942L109.622 151.704C113.535 154.537 115.019 159.693 113.116 164.126L113.123 164.133Z" fill="#F26A22" stroke="#010101" stroke-width="2" stroke-miterlimit="10"/>
<path fill-rule="evenodd" clip-rule="evenodd" d="M181.615 293.49V378.673C181.615 384.022 176.949 388.182 171.618 387.598C128.597 382.867 88.7568 363.869 57.7089 332.913C27.4063 302.714 8.53125 264.153 3.2268 222.448C2.34828 215.513 7.77252 209.382 14.7874 209.382H97.2493C102.62 209.382 107.306 213.045 108.557 218.247C116.131 249.787 141.083 274.658 172.716 282.216C177.941 283.463 181.608 288.135 181.608 293.49H181.615Z" fill="#FECD8D" stroke="#010101" stroke-width="2" stroke-miterlimit="10"/>
<path fill-rule="evenodd" clip-rule="evenodd" d="M384.162 198.101C384.162 249.03 364.268 296.914 328.149 332.92C296.562 364.419 255.877 383.53 211.997 387.837C207.844 388.242 204.243 384.97 204.243 380.81V291.977C204.243 287.405 207.458 283.503 211.93 282.501C250.652 273.841 279.67 239.289 279.67 198.108C279.67 156.92 250.652 122.374 211.93 113.714C207.458 112.712 204.243 108.81 204.243 104.238V18.3252C204.243 12.5455 209.281 8.02651 215.045 8.68345C257.754 13.5607 297.301 32.5191 328.149 63.2758C364.268 99.288 384.162 147.165 384.162 198.094V198.101Z" fill="#C93F27" stroke="#010101" stroke-width="2" stroke-miterlimit="10"/>
<path fill-rule="evenodd" clip-rule="evenodd" d="M106.341 30.2498C105.655 29.009 106.068 27.4562 107.286 26.7196C108.364 26.0693 109.602 25.4124 111 24.8085C112.118 24.3308 113.189 23.9525 114.194 23.6539C115.499 23.2624 116.883 23.9326 117.396 25.1934C124.663 43.0436 148.59 99.9783 155.864 117.829C157.116 120.901 154.407 122.367 152.803 119.468C143.439 102.546 115.712 47.171 106.347 30.2565L106.341 30.2498Z" fill="#CF6528" stroke="#010101" stroke-width="2" stroke-miterlimit="10"/>
<path fill-rule="evenodd" clip-rule="evenodd" d="M187.731 109.899C187.571 108.094 183.944 11.4109 183.877 9.60594C183.824 8.09962 185.042 6.83219 186.56 6.87201C186.573 6.87201 186.586 6.87201 186.6 6.87201C186.706 6.87201 186.819 6.87201 186.926 6.87864C188.363 6.93173 189.488 8.12616 189.461 9.55949C189.428 11.3644 190.12 108.114 189.941 109.912C189.761 111.71 187.917 111.903 187.738 109.899H187.731Z" fill="#FEEC96" stroke="#010101" stroke-width="2" stroke-miterlimit="10"/>
<path fill-rule="evenodd" clip-rule="evenodd" d="M171.401 108.82C170.124 109.112 168.819 108.436 168.327 107.221L130.949 14.9843C130.37 13.551 131.136 11.9318 132.613 11.4474C142.836 8.10301 152.813 5.80703 163.468 4.34053C165.006 4.12819 166.41 5.24963 166.516 6.78913L173.471 106.033C173.565 107.341 172.686 108.522 171.401 108.814V108.82Z" fill="#FBB03C" stroke="#010101" stroke-width="2" stroke-miterlimit="10"/>
<path fill-rule="evenodd" clip-rule="evenodd" d="M140.327 122.178C141.392 124.096 138.856 125.967 137.325 124.395C117.492 103.923 89.7383 72.3836 69.9049 51.9123C68.0281 49.9746 68.2011 46.8426 70.2909 45.1438C74.7967 41.4809 79.4489 38.0502 84.2742 34.8252C86.5171 33.3255 89.572 34.082 90.8831 36.4377L140.327 122.185V122.178Z" fill="#412312" stroke="#010101" stroke-width="2" stroke-miterlimit="10"/>
<path fill-rule="evenodd" clip-rule="evenodd" d="M124.587 134.023C126.071 135.523 124.068 137.852 122.357 136.624C95.9215 117.739 69.4857 98.8469 43.05 79.9616C41.0001 78.4951 40.5609 75.6483 42.0517 73.6178C43.5425 71.5873 45.2264 69.4505 47.0833 67.3006C47.862 66.3981 48.6473 65.5288 49.4194 64.6927C51.1631 62.8148 54.1315 62.7949 55.9285 64.6131C78.8168 87.752 101.705 110.884 124.587 134.023Z" fill="#8DC641" stroke="#010101" stroke-width="2" stroke-miterlimit="10"/>
<path fill-rule="evenodd" clip-rule="evenodd" d="M111.123 159.133C109.086 163.871 107.489 168.781 106.344 173.818C105.272 178.522 101.026 181.82 96.1876 181.82H11.2765C5.04697 181.82 0.228373 176.419 0.900581 170.241C3.64265 145.058 11.1235 122.138 23.7556 100.161C26.8371 94.799 33.9253 93.3126 38.9369 96.9424L107.622 146.704C111.535 149.537 113.019 154.693 111.116 159.126L111.123 159.133Z" fill="#F26A22" stroke="#010101" stroke-width="2" stroke-miterlimit="10"/>
<path fill-rule="evenodd" clip-rule="evenodd" d="M179.615 288.49V373.673C179.615 379.022 174.949 383.182 169.618 382.598C126.597 377.867 86.7568 358.869 55.7089 327.913C25.4063 297.714 6.53125 259.153 1.2268 217.448C0.348275 210.513 5.77252 204.382 12.7874 204.382H95.2493C100.62 204.382 105.306 208.045 106.557 213.247C114.131 244.787 139.083 269.658 170.716 277.216C175.941 278.463 179.608 283.135 179.608 288.49H179.615Z" fill="#FECD8D" stroke="#010101" stroke-width="2" stroke-miterlimit="10"/>
<path fill-rule="evenodd" clip-rule="evenodd" d="M382.162 193.101C382.162 244.03 362.268 291.914 326.149 327.92C294.562 359.42 253.877 378.53 209.997 382.837C205.844 383.242 202.243 379.97 202.243 375.81V286.977C202.243 282.405 205.458 278.503 209.93 277.501C248.652 268.841 277.67 234.289 277.67 193.108C277.67 151.92 248.652 117.374 209.93 108.714C205.458 107.712 202.243 103.81 202.243 99.2383V13.3252C202.243 7.54546 207.281 3.02651 213.045 3.68345C255.754 8.56073 295.301 27.5191 326.149 58.2758C362.268 94.288 382.162 142.165 382.162 193.094V193.101Z" fill="#C93F27" stroke="#010101" stroke-width="2" stroke-miterlimit="10"/>
<path fill-rule="evenodd" clip-rule="evenodd" d="M104.341 25.2498C103.655 24.009 104.068 22.4562 105.286 21.7196C106.364 21.0693 107.602 20.4124 109 19.8085C110.118 19.3308 111.189 18.9525 112.194 18.6539C113.499 18.2624 114.883 18.9326 115.396 20.1934C122.663 38.0436 146.59 94.9783 153.864 112.829C155.116 115.901 152.407 117.367 150.803 114.468C141.439 97.5464 113.712 42.171 104.347 25.2565L104.341 25.2498Z" fill="#CF6528" stroke="#010101" stroke-width="2" stroke-miterlimit="10"/>
<path fill-rule="evenodd" clip-rule="evenodd" d="M185.731 104.899C185.571 103.094 181.944 6.41086 181.877 4.60594C181.824 3.09962 183.042 1.83219 184.56 1.87201C184.573 1.87201 184.586 1.87201 184.6 1.87201C184.706 1.87201 184.819 1.87201 184.926 1.87864C186.363 1.93173 187.488 3.12616 187.461 4.55949C187.428 6.36441 188.12 103.114 187.941 104.912C187.761 106.71 185.917 106.903 185.738 104.899H185.731Z" fill="#FEEC96" stroke="#010101" stroke-width="2" stroke-miterlimit="10"/>
<path d="M190.388 151.113C190.414 149.854 182.795 149.253 182.856 148.461C182.942 147.341 198.334 146.895 210.768 150.228C211.072 150.31 211.337 150.384 211.337 150.384C213.39 150.956 219.901 152.932 226.903 157.294C233.462 161.38 234.715 163.868 235.094 165.087C235.765 167.243 235.671 169.613 236.594 171.674C237.78 174.32 240.407 175.98 242.316 178.166C243.754 179.993 245.231 182.32 246.353 185.183C250.506 195.789 246.675 205.846 245.323 208.994C246.434 208.981 247.553 209.156 247.982 209.878C250.178 213.579 232.817 229.182 214.754 239.04C205.185 244.263 195.279 248.1 183.742 247.877C173.586 247.681 171.14 244.512 170.452 243.459C166.76 237.813 171.94 229.329 172.223 228.878C200.308 228.472 206.854 229.443 206.937 230.516C207.154 233.303 163.922 239.293 161.531 232.018C160.638 229.3 165.538 225.686 164.329 220.071C163.688 217.095 161.812 214.874 161.172 214.133C158.071 210.538 155.99 211.586 153.64 208.625C149.988 204.022 151.699 197.439 151.805 197.053C152.289 195.293 153.044 193.954 153.616 193.089C152.586 190.439 151.338 186.149 151.738 180.949C152.907 165.774 167.003 157.378 168.679 156.415C178.872 150.559 190.356 152.647 190.388 151.114V151.113Z" fill="#FFFABC" stroke="black" stroke-width="2.5" stroke-miterlimit="10"/>
<path d="M168.199 193.557C163.387 196.93 156.418 195.705 152.635 190.82C148.851 185.934 149.685 179.239 154.497 175.865C159.31 172.492 166.277 173.717 170.061 178.603C173.845 183.488 173.011 190.183 168.199 193.557Z" fill="white" stroke="black" stroke-width="2.5" stroke-miterlimit="10"/>
<path d="M165.709 190.767C169.084 190.767 171.821 188.038 171.821 184.671C171.821 181.305 169.084 178.576 165.709 178.576C162.334 178.576 159.597 181.305 159.597 184.671C159.597 188.038 162.334 190.767 165.709 190.767Z" fill="black" stroke="black" stroke-width="2.5" stroke-miterlimit="10"/>
<path d="M167.493 186.217C168.393 186.217 169.122 185.489 169.122 184.592C169.122 183.695 168.393 182.968 167.493 182.968C166.594 182.968 165.864 183.695 165.864 184.592C165.864 185.489 166.594 186.217 167.493 186.217Z" fill="white" stroke="black" stroke-width="2.5" stroke-miterlimit="10"/>
<path d="M188.646 183.931C188.667 177.049 194.822 170.966 202.394 170.344C209.965 169.722 216.086 174.797 216.065 181.678C216.044 188.56 209.889 194.642 202.317 195.264C194.746 195.886 188.625 190.812 188.646 183.931Z" fill="white" stroke="black" stroke-width="2.5" stroke-miterlimit="10"/>
<path d="M205.173 194.191C210.465 194.191 214.755 189.913 214.755 184.635C214.755 179.358 210.465 175.079 205.173 175.079C199.882 175.079 195.592 179.358 195.592 184.635C195.592 189.913 199.882 194.191 205.173 194.191Z" fill="black" stroke="black" stroke-width="2.5" stroke-miterlimit="10"/>
<path d="M203.59 184.093C203.235 185.492 201.81 186.339 200.407 185.984C199.004 185.629 198.155 184.208 198.511 182.809C198.866 181.41 200.291 180.563 201.694 180.918C203.098 181.273 203.946 182.694 203.59 184.093Z" fill="white" stroke="black" stroke-width="2.5" stroke-miterlimit="10"/>
<path d="M225.04 209.219C169.715 201.822 155.106 202.267 154.572 204.818C154.072 207.207 166.709 210.488 167.325 219.189C167.765 225.417 163.842 229.869 162.977 230.807C166.788 232.294 180.724 237.205 197.254 231.751C214.748 225.979 223.081 212.578 225.039 209.219H225.04Z" fill="#EF6759" stroke="black" stroke-width="2.5" stroke-miterlimit="10"/>
<path d="M168.12 216.528C168.433 216.511 168.789 215.857 169.5 214.548C169.829 213.943 170.084 213.418 170.268 213.023C169.529 213.055 168.647 213.028 167.668 212.866C167.167 212.784 166.708 212.677 166.291 212.559C167.207 216.188 167.832 216.544 168.119 216.528H168.12Z" fill="white" stroke="black" stroke-width="2.5" stroke-miterlimit="10"/>
<path d="M188.196 217.314C188.524 217.262 189.027 216.417 190.034 214.729C190.5 213.948 190.873 213.274 191.145 212.768C190.376 212.878 189.471 212.931 188.493 212.826C187.994 212.771 187.541 212.684 187.136 212.579C187.325 216.982 187.896 217.361 188.196 217.314V217.314Z" fill="white" stroke="black" stroke-width="2.5" stroke-miterlimit="10"/>
<path d="M171.342 227.938C171.032 227.947 170.665 228.581 169.93 229.85C169.591 230.437 169.325 230.946 169.134 231.329C169.861 231.318 170.729 231.368 171.688 231.553C172.179 231.648 172.628 231.766 173.034 231.893C172.231 228.296 171.625 227.93 171.342 227.938L171.342 227.938Z" fill="white" stroke="black" stroke-width="2.5" stroke-miterlimit="10"/>
<path d="M185.49 228.628C185.374 228.611 185.081 228.622 183.784 230.283C183.146 231.099 182.649 231.823 182.291 232.375C183.101 232.443 184.107 232.445 185.238 232.251C185.733 232.166 186.186 232.055 186.595 231.932C186.554 231.421 186.323 228.745 185.49 228.628Z" fill="white" stroke="black" stroke-width="2.5" stroke-miterlimit="10"/>
<path d="M245.702 182.41C234.33 181.741 226.766 172.092 226.766 172.092C225.378 170.323 223.349 167.735 222 164.922C220.603 162.011 222.749 159.629 221.306 156.401C220.187 153.901 218.681 153.604 218.963 152.659C219.652 150.345 229.034 150.904 236.153 151.328C236.356 151.34 236.617 151.361 236.965 151.391C239.191 151.585 243.275 151.999 245.778 155.097C246.131 155.534 246.769 156.339 247.161 157.567C248.436 161.558 245.113 163.755 245.776 168.535C246.052 170.523 246.894 172.067 247.305 172.821C249.13 176.166 251.467 177.251 251.165 179.286C251.005 180.362 250.201 181.076 249.926 181.32C248.515 182.574 246.583 182.461 245.702 182.409V182.41Z" fill="#E5A968" stroke="black" stroke-width="2.5" stroke-miterlimit="10"/>
<path d="M171.558 157.961C170.546 154.771 157.452 153.103 150.461 159.975C148.439 161.963 147.355 164.247 146.746 166.076C145.114 170.073 145.928 170.727 144.705 172.904C142.012 177.701 136.494 177.311 136.329 180.021C136.192 182.26 139.849 184.252 141.791 184.961C145.294 186.242 148.429 185.255 149.438 184.89C149.531 184.13 150.115 179.968 153.882 177.118C158.155 173.886 163.008 175.001 163.642 175.159C163.664 173.713 163.841 171.527 164.663 169.057C167.04 161.92 172.245 160.124 171.558 157.96V157.961Z" fill="#E5A968" stroke="black" stroke-width="2.5" stroke-miterlimit="10"/>
<path d="M151.844 189.996C152.209 189.594 154.367 191.986 158.261 192.919C159.353 193.18 163.161 194.092 166.255 192.234C169.039 190.56 169.755 187.539 170.451 187.788C170.967 187.971 171.121 189.825 170.451 191.322C168.544 195.585 159.771 197.375 154.871 194.043C152.776 192.618 151.524 190.349 151.844 189.997V189.996Z" fill="#FFFABC" stroke="black" stroke-width="2.5" stroke-miterlimit="10"/>
<path d="M189.944 189.112C190.487 188.635 193.463 193.559 198.805 194.414C201.906 194.91 204.714 193.861 206.779 193.088C211.021 191.502 213.157 189.248 213.424 189.553C213.726 189.897 211.452 193.266 207.665 195.297C206.545 195.898 202.291 198.179 197.475 196.623C194.828 195.767 193.193 194.134 192.602 193.53C190.928 191.819 189.569 189.441 189.943 189.112H189.944Z" fill="#FFFABC" stroke="black" stroke-width="2.5" stroke-miterlimit="10"/>
<path d="M229.103 205.447C228.608 204.64 216.51 215.93 198.913 214.878C190.78 214.392 183.962 211.418 178.739 208.241C176.137 209.922 171.578 212.246 165.781 212.154C160.892 212.076 153.52 210.255 152.852 206.694C152.652 205.627 153.08 204.553 153.282 204.046C154.215 201.708 156.318 200.544 157.687 199.815C165.471 195.67 171.559 193.751 171.559 193.751C174.954 192.79 177.224 192.133 180.42 191.984C186.316 191.708 188.194 193.393 195.926 195.077C207.676 197.636 209.986 195.144 215.42 198.612C215.67 198.772 216.479 199.621 217.795 200.483C218.73 201.114 220.082 201.89 221.819 202.442C230.135 205.088 237.414 199.472 238.499 200.755C239.445 201.873 235.301 207.753 217.841 225.222C194.966 244.094 185.789 247.047 182.438 244.437C180.736 243.111 179.369 239.416 177.319 239.704C175.161 240.006 175.133 244.196 172.558 244.835C169.838 245.508 166.771 241.596 165.899 240.489C163.775 237.792 161.272 232.829 162.982 230.808C164.737 228.732 170.137 230.704 171.899 231.242C191.98 237.37 229.958 206.84 229.103 205.447Z" fill="#A67C52" stroke="black" stroke-width="2.5" stroke-miterlimit="10"/>
<path d="M174.511 198.165C172.141 197.983 170.546 197.33 170.458 196.532C170.443 196.392 170.438 195.922 171.863 194.951C174.776 192.966 178.214 192.604 178.641 192.563C180.581 192.378 184.595 192.331 184.954 193.4C185.254 194.296 182.925 195.795 179.472 197.108C179.366 197.242 179.242 197.41 179.114 197.607C179.114 197.607 178.887 197.93 178.729 198.287C178.144 199.605 178.384 201.887 178.384 201.887C178.603 203.97 178.835 204.695 178.682 204.731C178.443 204.787 177.582 203.087 176.992 201.574C176.516 200.353 176.244 199.319 176.085 198.62C175.561 198.467 175.036 198.315 174.512 198.164L174.511 198.165Z" fill="#534741" stroke="black" stroke-width="2.5" stroke-miterlimit="10"/>
<path d="M172.888 162.876C173.999 161.969 175.681 160.916 177.645 161.05C179.539 161.18 179.834 162.285 181.671 162.876C185.305 164.042 187.451 160.776 192.651 160.686C193.885 160.664 195.782 160.813 198.14 161.781" stroke="black" stroke-width="2.5" stroke-miterlimit="10" stroke-linecap="round"/>
<path d="M176.547 158.207C177.32 157.576 178.49 156.843 179.857 156.937C181.174 157.027 181.38 157.796 182.658 158.207C185.185 159.018 186.678 156.746 190.296 156.683C191.154 156.669 192.474 156.772 194.115 157.445" stroke="black" stroke-width="2.5" stroke-miterlimit="10" stroke-linecap="round"/>
<path opacity="0.5" d="M205.323 178.846C205.37 179.22 206.57 179.004 207.69 179.877C208.852 180.783 208.729 181.94 209.437 182.043C210.155 182.147 211.173 181.09 211.14 180.14C211.095 178.81 209 177.842 207.385 177.925C206.299 177.981 205.283 178.531 205.323 178.846Z" fill="white" stroke="black" stroke-width="2.5" stroke-miterlimit="10"/>
<path opacity="0.5" d="M164.911 179.832C163.727 179.913 162.796 181.941 163.241 182.496C163.473 182.786 164.147 182.762 164.576 182.496C165.204 182.109 165.054 181.363 165.578 181.164C166.147 180.948 166.774 181.652 166.914 181.497C167.046 181.352 166.614 180.597 165.912 180.165C165.677 180.021 165.325 179.804 164.91 179.832H164.911Z" fill="white" stroke="black" stroke-width="2.5" stroke-miterlimit="10"/>
<path d="M155.22 209.911C155.08 209.822 155.182 209.607 155.34 209.658C157.816 210.454 161.851 211.353 166.767 210.771C172.849 210.052 177.127 207.44 179.105 206.049C185.122 207.893 193.993 209.808 204.516 208.939C221.315 207.552 231.704 199.95 233.445 202.442C235.195 204.946 226.216 215.04 216.969 221.808C211.861 225.546 200.377 232.841 184.184 234.622C174.025 235.739 161.153 234.765 160.703 231.971C160.497 230.689 162.887 228.911 165.133 228.436C168.345 227.756 171.1 229.772 172.664 230.645C178.168 233.716 185.089 231.481 194.373 228.436C211.852 222.702 226.011 210.907 225.038 209.218C224.37 208.057 217.275 213.242 205.565 214.318C194.995 215.289 185.902 212.434 179.461 209.554C178.592 210.382 172.495 216.006 164.685 214.633C162.152 214.188 160.171 213.136 158.803 212.2C157.608 211.437 156.412 210.673 155.218 209.909L155.22 209.911Z" fill="#754C24" stroke="black" stroke-width="2.5" stroke-miterlimit="10"/>
<path d="M151.91 189.169C154.366 190.145 156.794 183.36 163.258 182.462C168.493 181.735 171.823 185.501 173.135 184.139C174.546 182.671 172.333 176.586 167.793 174.089C162.421 171.134 154.311 173.486 151.4 178.949C149.322 182.85 149.88 188.363 151.91 189.169Z" fill="#FFFABC" stroke="black" stroke-width="2.5" stroke-miterlimit="10"/>
<path d="M189.175 182.183C190.661 184.01 194.872 180.479 201.714 180.925C210.402 181.492 214.17 187.872 216.214 186.305C218.663 184.426 216.057 173.11 209.102 170.592C209.062 170.577 209.036 170.569 208.994 170.554C204.488 168.985 197.132 169.182 192.602 173.647C190.065 176.148 187.832 180.53 189.175 182.182V182.183Z" fill="#FFFABC" stroke="black" stroke-width="2.5" stroke-miterlimit="10"/>
<path d="M198.362 167.175C196.998 168.006 195.118 168.811 193.046 168.501C190.783 168.163 189.965 166.745 188.616 167.175C187.029 167.682 186.47 170.186 185.957 172.477C185.508 174.489 185.472 176.2 185.514 177.338" stroke="black" stroke-width="2.5" stroke-miterlimit="10" stroke-linecap="round"/>
<path d="M167.792 170.268C168.231 170.54 169.744 171.404 171.78 171.152C174.132 170.86 175.482 169.291 175.768 168.942" stroke="black" stroke-width="2.5" stroke-miterlimit="10" stroke-linecap="round"/>
<path d="M175.989 182.419C176.305 181.585 176.744 180.103 176.653 178.222C176.56 176.292 175.951 174.827 175.545 174.025" stroke="black" stroke-width="2.5" stroke-miterlimit="10" stroke-linecap="round"/>
<path d="M183.299 181.315V185.292V181.315Z" fill="#FFFABC"/>
<path d="M183.299 181.315V185.292" stroke="black" stroke-width="2.5" stroke-miterlimit="10" stroke-linecap="round"/>
<path d="M172.113 198.572C172.331 198.572 172.508 198.396 172.508 198.178C172.508 197.961 172.331 197.785 172.113 197.785C171.895 197.785 171.718 197.961 171.718 198.178C171.718 198.396 171.895 198.572 172.113 198.572Z" fill="black" stroke="black" stroke-width="2.5" stroke-miterlimit="10"/>
<path d="M199.513 201.125C199.731 201.125 199.908 200.948 199.908 200.731C199.908 200.514 199.731 200.337 199.513 200.337C199.295 200.337 199.119 200.514 199.119 200.731C199.119 200.948 199.295 201.125 199.513 201.125Z" fill="black" stroke="black" stroke-width="2.5" stroke-miterlimit="10"/>
<path d="M193.366 200.339C193.584 200.339 193.761 200.163 193.761 199.946C193.761 199.728 193.584 199.552 193.366 199.552C193.148 199.552 192.971 199.728 192.971 199.946C192.971 200.163 193.148 200.339 193.366 200.339Z" fill="black" stroke="black" stroke-width="2.5" stroke-miterlimit="10"/>
<path d="M188.095 199.016C188.313 199.016 188.49 198.84 188.49 198.622C188.49 198.405 188.313 198.229 188.095 198.229C187.877 198.229 187.701 198.405 187.701 198.622C187.701 198.84 187.877 199.016 188.095 199.016Z" fill="black" stroke="black" stroke-width="2.5" stroke-miterlimit="10"/>
<path d="M186.306 204.477C186.524 204.477 186.7 204.301 186.7 204.084C186.7 203.866 186.524 203.69 186.306 203.69C186.088 203.69 185.911 203.866 185.911 204.084C185.911 204.301 186.088 204.477 186.306 204.477Z" fill="black" stroke="black" stroke-width="2.5" stroke-miterlimit="10"/>
<path d="M196.529 204.364C196.747 204.364 196.923 204.188 196.923 203.97C196.923 203.753 196.747 203.577 196.529 203.577C196.311 203.577 196.134 203.753 196.134 203.97C196.134 204.188 196.311 204.364 196.529 204.364Z" fill="black" stroke="black" stroke-width="2.5" stroke-miterlimit="10"/>
<path d="M191.261 203.491C191.479 203.491 191.655 203.315 191.655 203.097C191.655 202.88 191.479 202.704 191.261 202.704C191.043 202.704 190.866 202.88 190.866 203.097C190.866 203.315 191.043 203.491 191.261 203.491Z" fill="black" stroke="black" stroke-width="2.5" stroke-miterlimit="10"/>
<path d="M167.827 200.815C168.045 200.815 168.222 200.639 168.222 200.422C168.222 200.204 168.045 200.028 167.827 200.028C167.61 200.028 167.433 200.204 167.433 200.422C167.433 200.639 167.61 200.815 167.827 200.815Z" fill="black" stroke="black" stroke-width="2.5" stroke-miterlimit="10"/>
<path d="M205.223 202.521C205.44 202.521 205.617 202.345 205.617 202.127C205.617 201.91 205.44 201.734 205.223 201.734C205.005 201.734 204.828 201.91 204.828 202.127C204.828 202.345 205.005 202.521 205.223 202.521Z" fill="black" stroke="black" stroke-width="2.5" stroke-miterlimit="10"/>
<path d="M167.42 205.609C167.638 205.609 167.814 205.432 167.814 205.215C167.814 204.998 167.638 204.822 167.42 204.822C167.202 204.822 167.025 204.998 167.025 205.215C167.025 205.432 167.202 205.609 167.42 205.609Z" fill="black" stroke="black" stroke-width="2.5" stroke-miterlimit="10"/>
<path d="M159.552 206.56C159.77 206.56 159.946 206.384 159.946 206.167C159.946 205.949 159.77 205.773 159.552 205.773C159.334 205.773 159.157 205.949 159.157 206.167C159.157 206.384 159.334 206.56 159.552 206.56Z" fill="black" stroke="black" stroke-width="2.5" stroke-miterlimit="10"/>
<path d="M171.85 201.986C172.068 201.986 172.245 201.81 172.245 201.593C172.245 201.375 172.068 201.199 171.85 201.199C171.632 201.199 171.456 201.375 171.456 201.593C171.456 201.81 171.632 201.986 171.85 201.986Z" fill="black" stroke="black" stroke-width="2.5" stroke-miterlimit="10"/>
<path d="M164.126 203.034C164.344 203.034 164.52 202.858 164.52 202.641C164.52 202.423 164.344 202.247 164.126 202.247C163.908 202.247 163.731 202.423 163.731 202.641C163.731 202.858 163.908 203.034 164.126 203.034Z" fill="black" stroke="black" stroke-width="2.5" stroke-miterlimit="10"/>
<path d="M151.775 199.969C152.438 199.108 153.487 197.983 155.044 197.137C156.523 196.334 157.012 196.497 160.173 195.474C161.009 195.203 162.174 194.761 164.47 193.752C168.977 191.77 170.517 190.392 172.792 189.309C177.281 187.176 181.696 187.59 184.771 187.878C190.945 188.458 190.483 190.505 199.763 192.457C203.035 193.146 206.256 194.111 209.565 194.596C210.003 194.66 211.507 194.87 213.203 195.519C215.011 196.211 216.237 197.007 216.688 197.294C216.688 197.294 220.252 199.566 225.879 200.836C233.452 202.546 239.875 197.652 240.45 198.671C240.7 199.114 239.721 200.455 234.495 204.33C231.121 205.107 226.243 205.691 220.976 204.12C215.733 202.556 216.012 200.619 210.101 198.17C205.081 196.091 200.47 196.841 194.26 195.23C188.233 193.667 188.897 191.923 184.268 191.527C182.82 191.404 178.041 190.995 173.508 193.388C172.214 194.071 170.444 195.245 167.127 196.845C164.916 197.911 164.267 198.059 163.837 198.174C162.515 198.524 161.853 198.694 159.795 199.033C158.655 199.221 156.55 200.55 152.347 205.335C152.155 203.546 151.965 201.758 151.773 199.969H151.775Z" fill="#C19672" stroke="black" stroke-width="2.5" stroke-miterlimit="10"/>
</svg>
