<svg width="243" height="71" viewBox="0 0 243 71" fill="none" xmlns="http://www.w3.org/2000/svg">
<rect x="2.5" y="8.36523" width="238.797" height="56.5757" rx="28.2879" fill="#FFA755" stroke="black" stroke-width="3"/>
<path d="M89.6437 64.6736C84.821 65.6436 81.3705 64.632 78.2109 64.1065C58.5 64.6736 31.5 65.4463 26 63.2233C4.5 54.5336 5.37244 45.0918 3.00003 38.5169C8.3904 39.8989 7.73852 43.2162 17.2252 45.1405C27.6027 47.2437 37.0303 46.0255 41.7398 45.417L41.7478 45.416C46.5574 44.7941 50.0702 43.9372 55.892 42.5155C63.3389 40.6981 66.2065 39.5264 68.3218 38.5169C72.819 36.3719 75.5505 34.1778 76.1348 33.7024C78.1546 32.0568 78.6901 31.2289 81.0707 28.9279C83.5152 26.5666 85.3584 25.1125 88.7985 22.4004C99.6735 13.8285 99.173 16.1427 107.601 9.82692L107.649 9.79055C108.731 8.97941 110.745 7.46992 113.322 7.54942C114.499 7.58714 114.646 7.91995 118.33 9.61373C120.265 10.5025 123.344 11.8901 126.509 13.8542C126.871 14.0801 127.477 14.4645 127.94 15.1763C128.876 16.6157 128.519 18.2835 128.291 19.3488L128.291 19.3495C127.905 21.1459 127.015 22.4981 126.311 23.3524C126.76 24.2455 127.156 24.5933 127.379 25.6284C127.694 27.0831 127.344 28.3895 127.003 29.2616C124.177 26.8029 121.558 25.1523 119.702 24.1071C121.785 25.2981 124.677 27.1855 127.705 30.0439C126.448 31.0933 124.551 32.3185 122.245 32.3399C120.615 32.3559 119.833 31.7606 115.446 29.9064C111.881 28.3984 110.022 27.8068 108.573 28.1979C104.723 29.2369 102.482 36.0604 103.536 41.5041C104.207 44.9733 106.122 47.3864 107.241 48.5988C109.023 49.2669 111.718 50.2096 115.079 51.1061C121.769 52.8912 124.532 52.7478 126.443 54.8402C127.586 56.0924 128.696 58.4445 127.663 63.2233C125.006 62.1669 121.119 60.8479 116.248 59.9739C110.858 59.0059 107.194 58.3491 102.741 59.2595C96.5106 60.5339 95.7757 63.4399 89.6437 64.6736Z" fill="#FDF7BE"/>
<path d="M119.702 24.1071C121.785 25.2981 124.677 27.1855 127.705 30.0439C126.448 31.0933 124.551 32.3185 122.245 32.3399C120.615 32.3559 119.833 31.7606 115.446 29.9063C111.881 28.3984 110.022 27.8068 108.573 28.1979C104.723 29.2369 102.482 36.0604 103.536 41.5041C104.207 44.9733 106.122 47.3864 107.241 48.5988C109.023 49.2669 111.718 50.2096 115.079 51.1061C121.769 52.8912 124.532 52.7478 126.443 54.8402C127.586 56.0924 128.696 58.4445 127.663 63.2233C125.006 62.1669 121.119 60.8479 116.248 59.9739C110.858 59.0059 107.194 58.3491 102.741 59.2595C96.5106 60.5339 95.7757 63.4399 89.6437 64.6736C84.821 65.6436 81.3705 64.632 78.2109 64.1065C58.5 64.6736 31.5 65.4463 26 63.2233C4.5 54.5336 5.37244 45.0918 3.00003 38.5169C8.3904 39.8989 7.73852 43.2162 17.2252 45.1405C27.6086 47.2449 37.041 46.0241 41.7478 45.416C46.5574 44.7941 50.0702 43.9372 55.892 42.5155C63.3389 40.6981 66.2065 39.5264 68.3218 38.5169C72.819 36.3719 75.5505 34.1778 76.1348 33.7024C78.1546 32.0568 78.6901 31.2289 81.0707 28.9279C83.5153 26.5666 85.3584 25.1125 88.7985 22.4004C99.6735 13.8285 99.173 16.1427 107.601 9.82692C108.67 9.02551 110.706 7.46871 113.322 7.54942C114.499 7.58714 114.646 7.91995 118.33 9.61373C120.265 10.5025 123.344 11.8901 126.509 13.8542C126.871 14.0801 127.477 14.4645 127.94 15.1763C128.877 16.616 128.519 18.2843 128.291 19.3495C127.904 21.1492 127.012 22.503 126.308 23.357C126.204 23.138 126.048 22.7894 125.889 22.3508C125.062 20.0759 125.611 19.4683 124.995 18.3832C124.459 17.4411 123.418 16.9363 121.332 15.9281C120.68 15.6129 120.625 15.6356 119.334 15.0539C118.435 14.6487 117.631 14.2636 116.349 13.6214C111.943 11.4187 111.136 10.8178 109.576 10.9455M119.702 24.1071C115.752 21.8489 112.036 19.7256 107.559 20.3177M119.702 24.1071C115.62 21.809 111.966 19.7531 107.559 20.3177M119.702 24.1071C121.558 25.1523 124.177 26.803 127.003 29.2616C127.344 28.3895 127.694 27.0831 127.379 25.6284C127.088 24.2783 126.503 24.0976 125.891 22.351C125.149 20.2347 125.692 19.5999 124.997 18.3834C124.314 17.1868 123.226 16.8101 121.335 15.9282C114.688 12.8265 113.123 10.4706 109.576 10.9455M107.559 20.3177C106.694 20.4318 105.454 20.8549 102.975 21.7013M107.559 20.3177C106.594 20.4419 105.389 20.8617 102.975 21.7013M102.975 21.7013C98.0654 23.3765 94.7955 25.025 94.7955 25.025C96.6784 24.144 99.4684 22.921 102.975 21.7013ZM109.576 10.9455C108.837 11.0457 108.222 11.2385 107.969 11.3198M109.576 10.9455C108.955 10.9968 108.525 11.138 107.969 11.3198M107.969 11.3198C105.331 12.1663 103.697 13.8774 102.9 14.8642C103.727 13.8472 105.353 12.1774 107.969 11.3198Z" stroke="black" stroke-width="3" stroke-miterlimit="10"/>
<path d="M129.178 18.4164C129.177 18.4229 129.177 18.4294 129.177 18.4359L129.176 18.4378C129.177 18.4307 129.177 18.4236 129.178 18.4164C129.223 17.7377 129.388 16.7781 129.972 15.8089C130.958 14.1719 132.188 14.0798 133.954 12.6756C136.92 10.3169 136.431 8.19956 138.679 7.39973C140.123 6.88613 141.525 7.32704 142.568 7.67569C148.969 9.81019 157.325 13.5597 159.361 14.4785C159.358 14.4779 159.355 14.4774 159.353 14.4768C159.355 14.478 159.358 14.4792 159.36 14.4804C161.445 14.8076 164.21 15.5855 166.344 17.6595C167.264 18.5506 167.738 19.3643 167.959 19.7252C169.829 22.7702 172.786 24.8492 179.757 29.3473C189.221 35.4526 189.611 37.4523 193.288 37.3834C195.742 37.3381 197.741 36.4062 201.141 37.2083C203.851 37.8469 205.607 39.152 206.125 39.513C213.836 44.9028 231.227 47.1892 238 48.3297C238 48.3297 231.5 59.6604 220 62.9637C208.5 66.267 192.727 62.9637 192.727 62.9637C191.94 62.9422 188.679 62.9759 185.05 61.4424C184.074 61.0279 183.311 60.6037 182.818 60.3075C180.924 60.0911 179.033 59.8768 177.139 59.6604C175.672 60.3115 173.349 61.1881 170.406 61.622C160.71 63.0547 155.782 57.9846 149.069 60.8402C146.281 62.027 145.906 63.4232 143.014 63.8264C140.05 64.2397 138.46 63.0474 134.508 62.7346C131.643 62.5083 129.243 62.8778 127.667 63.2256C127.378 63.1059 124.595 61.9205 124.597 60.0801C124.599 59.7312 124.699 58.5463 127.542 56.8732C131.469 54.5618 134.637 54.8458 138.548 53.9942C140.964 53.4676 144.32 52.365 148.126 49.7932C148.766 48.5169 149.692 46.6525 150.778 44.3702L150.793 44.3373C151.78 42.2594 152.28 41.2064 152.475 40.5865C152.996 38.9241 153.329 36.0201 151.045 31.7002C150.187 30.7449 149.327 29.7893 148.469 28.8339C147.981 28.8298 147.236 28.7636 146.421 28.4444C145.056 27.9108 144.305 26.9879 144.003 26.564C143.424 27.0798 142.22 28.0186 140.406 28.504C139.092 28.8551 137.962 28.836 137.245 28.7679C135.261 32.1994 131.615 34.0711 128.395 33.5088C126.166 33.1218 124.771 31.6782 124.213 31.0168C125.481 30.1703 126.747 29.3237 128.015 28.4772C128.224 28.2635 128.448 28.041 128.685 27.8113C127.72 24.0859 128.613 21.7548 129.209 20.6354C129.607 19.8855 130.546 18.8135 132.488 16.7198C134.57 14.4721 135.621 13.3203 136.57 12.6171L136.573 12.615C138.246 11.3744 140.206 9.92077 142.576 10.1156C143.474 10.1889 144.113 10.4746 144.352 10.5773C146.266 11.4053 150.357 12.6298 159.353 14.4768C157.304 13.552 148.958 9.80729 142.568 7.67759C141.525 7.32894 140.12 6.88787 138.679 7.40163C136.429 8.20318 136.919 10.3188 133.954 12.6775C132.19 14.0819 130.958 14.1738 129.972 15.8108C129.39 16.7792 129.225 17.738 129.178 18.4164Z" fill="#FFFABC"/>
<path d="M137.454 21.7087C137.096 21.9084 135.247 22.9578 132.98 24.563C131.183 25.8354 129.751 27.0155 128.714 27.9203C127.703 24.1313 128.608 21.7657 129.209 20.6354C129.607 19.8855 130.546 18.8135 132.488 16.7198C134.57 14.4721 135.621 13.3203 136.57 12.6171C138.244 11.376 140.205 9.92067 142.576 10.1156C143.474 10.1889 144.113 10.4746 144.352 10.5773C146.267 11.4056 150.359 12.6305 159.361 14.4785C157.325 13.5597 148.969 9.81019 142.568 7.67569C141.525 7.32704 140.123 6.88613 138.679 7.39973C136.431 8.19956 136.92 10.3169 133.954 12.6756C132.188 14.0798 130.958 14.1719 129.972 15.8089C129.382 16.7874 129.219 17.7562 129.177 18.4359L129.176 18.4378C129.222 17.7582 129.384 16.7895 129.972 15.8108C130.958 14.1738 132.19 14.0819 133.954 12.6775C136.919 10.3188 136.429 8.20318 138.679 7.40163C140.12 6.88787 141.525 7.32894 142.568 7.67759C148.966 9.81003 157.325 13.5616 159.36 14.4804C161.445 14.8076 164.21 15.5855 166.344 17.6595C167.264 18.5506 167.738 19.3643 167.959 19.7252C169.829 22.7702 172.786 24.8492 179.757 29.3473C189.221 35.4526 189.611 37.4523 193.288 37.3834C195.742 37.3381 197.741 36.4062 201.141 37.2083C203.851 37.8469 205.607 39.152 206.125 39.513C213.836 44.9028 231.227 47.1892 238 48.3297C238 48.3297 231.5 59.6604 220 62.9637C208.5 66.267 192.727 62.9637 192.727 62.9637C191.94 62.9422 188.679 62.9759 185.05 61.4424C184.074 61.0279 183.311 60.6037 182.818 60.3075C180.924 60.0911 179.033 59.8768 177.139 59.6604C175.672 60.3115 173.349 61.1881 170.406 61.622C160.71 63.0547 155.782 57.9846 149.069 60.8402C146.281 62.027 145.906 63.4232 143.014 63.8264C140.05 64.2397 138.46 63.0474 134.508 62.7346C131.643 62.5083 129.243 62.8778 127.667 63.2256C127.378 63.1059 124.595 61.9205 124.597 60.0801C124.599 59.7312 124.699 58.5463 127.542 56.8732C131.469 54.5618 134.637 54.8458 138.548 53.9942C140.964 53.4676 144.32 52.365 148.126 49.7932C148.766 48.5169 149.692 46.6525 150.778 44.3702C151.775 42.2705 152.279 41.2097 152.475 40.5865C152.996 38.9241 153.329 36.0201 151.045 31.7002C150.187 30.7449 149.327 29.7893 148.469 28.8339C147.981 28.8298 147.236 28.7636 146.421 28.4444C145.056 27.9108 144.305 26.9879 144.003 26.564C143.424 27.0798 142.22 28.0186 140.406 28.504C139.092 28.8551 137.962 28.836 137.245 28.7679C135.261 32.1994 131.615 34.0711 128.395 33.5088C126.166 33.1218 124.771 31.6782 124.213 31.0168C125.481 30.1703 126.747 29.3237 128.015 28.4772C129.916 26.5332 133.002 23.857 137.454 21.7087ZM137.454 21.7087C142.893 18.6845 152.194 18.286 153.747 18.2284C150.55 18.156 144.25 18.428 137.454 21.7087Z" stroke="black" stroke-width="3" stroke-miterlimit="10"/>
</svg>
