<svg width="21" height="20" viewBox="0 0 21 20" fill="currentColor" xmlns="http://www.w3.org/2000/svg">
<g clip-path="url(#clip0_26_500)">
<g clip-path="url(#clip1_26_500)">
<path d="M11.2168 1.66669C12.1543 1.66919 12.6302 1.67419 13.041 1.68585L13.2027 1.69169C13.3893 1.69835 13.5735 1.70669 13.796 1.71669C14.6827 1.75835 15.2877 1.89835 15.8185 2.10419C16.3685 2.31585 16.8318 2.60252 17.2952 3.06502C17.7189 3.4816 18.0468 3.98551 18.256 4.54169C18.4618 5.07252 18.6018 5.67752 18.6435 6.56502C18.6535 6.78669 18.6618 6.97085 18.6685 7.15835L18.6735 7.32002C18.686 7.73002 18.691 8.20585 18.6927 9.14335L18.6935 9.76502V10.8567C18.6956 11.4645 18.6892 12.0724 18.6743 12.68L18.6693 12.8417C18.6627 13.0292 18.6543 13.2134 18.6443 13.435C18.6027 14.3225 18.461 14.9267 18.256 15.4584C18.0474 16.0148 17.7194 16.5189 17.2952 16.935C16.8785 17.3586 16.3746 17.6865 15.8185 17.8959C15.2877 18.1017 14.6827 18.2417 13.796 18.2834C13.5983 18.2927 13.4005 18.301 13.2027 18.3084L13.041 18.3134C12.6302 18.325 12.1543 18.3309 11.2168 18.3325L10.5952 18.3334H9.50435C8.89624 18.3355 8.28812 18.3291 7.68018 18.3142L7.51852 18.3092C7.32069 18.3017 7.12291 18.2931 6.92518 18.2834C6.03852 18.2417 5.43352 18.1017 4.90185 17.8959C4.34574 17.687 3.84203 17.3591 3.42602 16.935C3.00189 16.5186 2.6737 16.0147 2.46435 15.4584C2.25852 14.9275 2.11852 14.3225 2.07685 13.435C2.06757 13.2373 2.05923 13.0395 2.05185 12.8417L2.04768 12.68C2.03233 12.0724 2.02538 11.4645 2.02685 10.8567V9.14335C2.02452 8.53552 2.03064 7.92768 2.04518 7.32002L2.05102 7.15835C2.05768 6.97085 2.06602 6.78669 2.07602 6.56502C2.11768 5.67752 2.25768 5.07335 2.46352 4.54169C2.67278 3.98494 3.00162 3.48087 3.42685 3.06502C3.84276 2.64125 4.34614 2.31334 4.90185 2.10419C5.43352 1.89835 6.03768 1.75835 6.92518 1.71669C7.14685 1.70669 7.33185 1.69835 7.51852 1.69169L7.68018 1.68669C8.28784 1.67188 8.89568 1.66549 9.50352 1.66752L11.2168 1.66669ZM10.3602 5.83335C9.25512 5.83335 8.19531 6.27234 7.41391 7.05374C6.6325 7.83514 6.19352 8.89495 6.19352 10C6.19352 11.1051 6.6325 12.1649 7.41391 12.9463C8.19531 13.7277 9.25512 14.1667 10.3602 14.1667C11.4652 14.1667 12.5251 13.7277 13.3065 12.9463C14.0879 12.1649 14.5268 11.1051 14.5268 10C14.5268 8.89495 14.0879 7.83514 13.3065 7.05374C12.5251 6.27234 11.4652 5.83335 10.3602 5.83335ZM10.3602 7.50002C10.6885 7.49997 11.0136 7.56458 11.3169 7.69016C11.6202 7.81575 11.8959 7.99985 12.1281 8.23196C12.3602 8.46407 12.5444 8.73963 12.6701 9.04293C12.7958 9.34622 12.8605 9.6713 12.8606 9.9996C12.8606 10.3279 12.796 10.653 12.6704 10.9563C12.5449 11.2597 12.3608 11.5353 12.1287 11.7675C11.8965 11.9997 11.621 12.1839 11.3177 12.3096C11.0144 12.4352 10.6893 12.5 10.361 12.5C9.69798 12.5 9.06209 12.2366 8.59325 11.7678C8.12441 11.2989 7.86102 10.6631 7.86102 10C7.86102 9.33698 8.12441 8.70109 8.59325 8.23225C9.06209 7.76341 9.69718 7.50002 10.3602 7.50002ZM14.736 4.58335C14.4597 4.58335 14.1948 4.6931 13.9994 4.88845C13.8041 5.0838 13.6943 5.34875 13.6943 5.62502C13.6943 5.90129 13.8041 6.16624 13.9994 6.36159C14.1948 6.55694 14.4597 6.66669 14.736 6.66669C15.0123 6.66669 15.2772 6.55694 15.4726 6.36159C15.6679 6.16624 15.7777 5.90129 15.7777 5.62502C15.7777 5.34875 15.6679 5.0838 15.4726 4.88845C15.2772 4.6931 15.0123 4.58335 14.736 4.58335Z" fill="currentColor"/>
</g>
</g>
<defs>
<clipPath id="clip0_26_500">
<rect width="20" height="20" fill="white" transform="translate(0.360107)"/>
</clipPath>
<clipPath id="clip1_26_500">
<rect width="20" height="20" fill="white" transform="translate(0.360107)"/>
</clipPath>
</defs>
</svg>
