<svg width="126" height="137" viewBox="0 0 126 137" fill="none" xmlns="http://www.w3.org/2000/svg">
<path fill-rule="evenodd" clip-rule="evenodd" d="M39.7043 68.5L80.4702 109.086L106.172 83.4972C110.708 78.9811 118.062 78.9811 122.598 83.4972C127.134 88.0133 127.134 95.334 122.598 99.8501L88.7255 133.657C84.1298 138.114 76.8106 138.114 72.2149 133.657L23.2787 84.8529V113.831C23.8319 120.219 19.0745 125.837 12.6575 126.388C6.24043 126.938 0.597872 122.202 0.0446808 115.813C-0.0148936 115.152 -0.0148936 114.491 0.0446808 113.831V23.1694C-0.508511 16.7808 4.24894 11.1632 10.666 10.6124C17.083 10.0617 22.7255 14.7981 23.2787 21.1867C23.3383 21.8476 23.3383 22.5085 23.2787 23.1694V52.1471L72.2149 3.3426C76.8106 -1.1142 84.1298 -1.1142 88.7255 3.3426L122.598 37.1499C127.134 41.666 127.134 48.9867 122.598 53.5028C118.062 58.0189 110.708 58.0189 106.172 53.5028L80.4702 27.9143L39.7043 68.5ZM80.4702 56.892C74.0277 56.892 68.8106 62.0859 68.8106 68.5C68.8106 74.9141 74.0277 80.108 80.4702 80.108C86.9128 80.108 92.1298 74.9141 92.1298 68.5C92.1298 62.0859 86.9128 56.892 80.4702 56.892Z" fill="white"/>
</svg>
