<svg width="519" height="173" viewBox="0 0 519 173" fill="none" xmlns="http://www.w3.org/2000/svg">
<path d="M516.756 41.666C510.933 48.0354 501.243 57.196 487.225 64.172C438.904 88.221 399.631 56.1938 369.103 76.8317C340.245 96.3399 360.35 135.092 335.354 152.79C298.692 178.746 237.157 108.318 150.451 106.709C93.0947 105.641 42.7435 135.027 2.14795 170.465" stroke="white" stroke-width="5" stroke-miterlimit="10" stroke-dasharray="10 10"/>
<path d="M356.85 16.108C355.854 16.108 354.996 15.832 354.276 15.28C353.568 14.728 353.016 13.954 352.62 12.958C352.236 11.962 352.02 10.81 351.972 9.502C351.948 8.494 351.936 7.81 351.936 7.45L351.954 6.064C351.966 5.764 351.972 5.308 351.972 4.696C351.972 4.504 352.044 4.318 352.188 4.138C352.344 3.946 352.584 3.85 352.908 3.85C353.22 3.85 353.442 3.946 353.574 4.138C353.706 4.318 353.772 4.51 353.772 4.714L353.754 6.01C353.742 6.262 353.736 6.646 353.736 7.162C353.736 7.546 353.748 8.242 353.772 9.25C353.82 10.774 354.078 12.022 354.546 12.994C355.026 13.966 355.806 14.452 356.886 14.452C357.726 14.452 358.44 14.188 359.028 13.66C359.616 13.12 359.976 12.268 360.108 11.104C360.216 10.072 360.27 8.914 360.27 7.63L360.252 4.75C360.252 4.534 360.318 4.33 360.45 4.138C360.582 3.946 360.816 3.85 361.152 3.85C361.488 3.85 361.716 3.946 361.836 4.138C361.968 4.318 362.034 4.51 362.034 4.714L362.052 5.218C362.088 6.442 362.106 7.276 362.106 7.72C362.106 8.956 362.034 10.132 361.89 11.248C361.686 12.772 361.176 13.966 360.36 14.83C359.544 15.682 358.374 16.108 356.85 16.108ZM365.867 16.126C365.639 16.126 365.435 16.042 365.255 15.874C365.087 15.706 365.003 15.508 365.003 15.28V8.854H363.581C363.341 8.854 363.137 8.77 362.969 8.602C362.801 8.422 362.717 8.218 362.717 7.99C362.717 7.726 362.807 7.516 362.987 7.36C363.167 7.192 363.377 7.108 363.617 7.108H365.003V5.182C365.003 4.954 365.087 4.75 365.255 4.57C365.423 4.39 365.627 4.3 365.867 4.3C366.119 4.3 366.323 4.39 366.479 4.57C366.647 4.738 366.731 4.942 366.731 5.182V7.108H368.261C368.501 7.108 368.705 7.192 368.873 7.36C369.041 7.528 369.125 7.738 369.125 7.99C369.125 8.218 369.041 8.422 368.873 8.602C368.705 8.77 368.501 8.854 368.261 8.854H366.731V15.28C366.731 15.508 366.647 15.706 366.479 15.874C366.311 16.042 366.107 16.126 365.867 16.126ZM371.179 6.37C370.951 6.37 370.747 6.28 370.567 6.1C370.399 5.92 370.321 5.716 370.333 5.488L370.351 4.822C370.363 4.594 370.453 4.396 370.621 4.228C370.789 4.06 370.987 3.976 371.215 3.976C371.443 3.976 371.641 4.066 371.809 4.246C371.989 4.426 372.073 4.624 372.061 4.84L372.043 5.524C372.031 5.764 371.941 5.968 371.773 6.136C371.617 6.292 371.419 6.37 371.179 6.37ZM371.089 16.108C370.849 16.108 370.639 16.024 370.459 15.856C370.291 15.676 370.207 15.466 370.207 15.226L370.297 8.062C370.297 7.822 370.381 7.618 370.549 7.45C370.729 7.27 370.939 7.18 371.179 7.18C371.431 7.18 371.641 7.27 371.809 7.45C371.977 7.618 372.061 7.822 372.061 8.062L371.971 15.226C371.971 15.466 371.881 15.676 371.701 15.856C371.533 16.024 371.329 16.108 371.089 16.108ZM375.448 16.108C375.22 16.108 375.016 16.03 374.836 15.874C374.668 15.706 374.584 15.514 374.584 15.298V4.858C374.584 4.618 374.662 4.42 374.818 4.264C374.986 4.096 375.196 4.012 375.448 4.012C375.676 4.012 375.874 4.096 376.042 4.264C376.222 4.432 376.312 4.63 376.312 4.858V15.298C376.312 15.514 376.222 15.706 376.042 15.874C375.862 16.03 375.664 16.108 375.448 16.108ZM379.81 6.37C379.582 6.37 379.378 6.28 379.198 6.1C379.03 5.92 378.952 5.716 378.964 5.488L378.982 4.822C378.994 4.594 379.084 4.396 379.252 4.228C379.42 4.06 379.618 3.976 379.846 3.976C380.074 3.976 380.272 4.066 380.44 4.246C380.62 4.426 380.704 4.624 380.692 4.84L380.674 5.524C380.662 5.764 380.572 5.968 380.404 6.136C380.248 6.292 380.05 6.37 379.81 6.37ZM379.72 16.108C379.48 16.108 379.27 16.024 379.09 15.856C378.922 15.676 378.838 15.466 378.838 15.226L378.928 8.062C378.928 7.822 379.012 7.618 379.18 7.45C379.36 7.27 379.57 7.18 379.81 7.18C380.062 7.18 380.272 7.27 380.44 7.45C380.608 7.618 380.692 7.822 380.692 8.062L380.602 15.226C380.602 15.466 380.512 15.676 380.332 15.856C380.164 16.024 379.96 16.108 379.72 16.108ZM384.781 16.126C384.553 16.126 384.349 16.042 384.169 15.874C384.001 15.706 383.917 15.508 383.917 15.28V8.854H382.495C382.255 8.854 382.051 8.77 381.883 8.602C381.715 8.422 381.631 8.218 381.631 7.99C381.631 7.726 381.721 7.516 381.901 7.36C382.081 7.192 382.291 7.108 382.531 7.108H383.917V5.182C383.917 4.954 384.001 4.75 384.169 4.57C384.337 4.39 384.541 4.3 384.781 4.3C385.033 4.3 385.237 4.39 385.393 4.57C385.561 4.738 385.645 4.942 385.645 5.182V7.108H387.175C387.415 7.108 387.619 7.192 387.787 7.36C387.955 7.528 388.039 7.738 388.039 7.99C388.039 8.218 387.955 8.422 387.787 8.602C387.619 8.77 387.415 8.854 387.175 8.854H385.645V15.28C385.645 15.508 385.561 15.706 385.393 15.874C385.225 16.042 385.021 16.126 384.781 16.126ZM390.363 19.33C390.147 19.33 389.961 19.24 389.805 19.06C389.649 18.892 389.571 18.688 389.571 18.448C389.571 18.34 389.601 18.214 389.661 18.07L391.227 14.704L388.005 8.422C387.933 8.278 387.897 8.134 387.897 7.99C387.897 7.75 387.981 7.546 388.149 7.378C388.329 7.198 388.545 7.108 388.797 7.108C388.989 7.108 389.157 7.162 389.301 7.27C389.445 7.378 389.553 7.504 389.625 7.648L392.163 12.67L394.431 7.648C394.503 7.492 394.611 7.36 394.755 7.252C394.911 7.144 395.079 7.09 395.259 7.09C395.475 7.09 395.661 7.174 395.817 7.342C395.973 7.51 396.051 7.72 396.051 7.972C396.051 8.116 396.027 8.236 395.979 8.332L391.173 18.772C391.101 18.94 390.993 19.072 390.849 19.168C390.705 19.276 390.543 19.33 390.363 19.33ZM406.715 16.216C406.295 16.216 405.869 16.174 405.437 16.09C405.005 16.018 404.711 15.958 404.555 15.91C404.363 15.85 404.201 15.736 404.069 15.568C403.937 15.4 403.871 15.22 403.871 15.028V4.822C403.871 4.57 403.955 4.36 404.123 4.192C404.303 4.024 404.519 3.94 404.771 3.94C405.983 3.94 407.207 4.12 408.443 4.48C409.679 4.84 410.747 5.512 411.647 6.496C412.559 7.48 413.015 8.842 413.015 10.582C413.015 11.842 412.739 12.898 412.187 13.75C411.635 14.59 410.885 15.214 409.937 15.622C408.989 16.018 407.915 16.216 406.715 16.216ZM406.715 14.416C408.119 14.416 409.217 14.092 410.009 13.444C410.813 12.796 411.215 11.842 411.215 10.582C411.215 9.022 410.705 7.864 409.685 7.108C408.677 6.352 407.339 5.908 405.671 5.776V14.308C406.079 14.38 406.427 14.416 406.715 14.416ZM418.884 16.108C418.032 16.108 417.264 15.928 416.58 15.568C415.908 15.196 415.38 14.674 414.996 14.002C414.612 13.318 414.42 12.514 414.42 11.59C414.42 10.834 414.588 10.114 414.924 9.43C415.272 8.734 415.752 8.176 416.364 7.756C416.988 7.336 417.696 7.126 418.488 7.126C419.22 7.126 419.844 7.276 420.36 7.576C420.888 7.864 421.284 8.212 421.548 8.62C421.812 9.028 421.944 9.394 421.944 9.718C421.944 9.874 421.896 10.024 421.8 10.168C421.704 10.312 421.566 10.438 421.386 10.546L416.562 13.318C416.73 13.69 417.024 13.978 417.444 14.182C417.876 14.386 418.356 14.488 418.884 14.488C419.58 14.488 420.174 14.23 420.666 13.714C420.858 13.522 421.056 13.426 421.26 13.426C421.5 13.426 421.698 13.504 421.854 13.66C422.022 13.816 422.106 14.008 422.106 14.236C422.106 14.428 422.034 14.608 421.89 14.776C421.554 15.148 421.104 15.466 420.54 15.73C419.988 15.982 419.436 16.108 418.884 16.108ZM420.162 9.502C420.018 9.25 419.814 9.064 419.55 8.944C419.286 8.812 418.974 8.746 418.614 8.746C417.93 8.746 417.354 8.98 416.886 9.448C416.43 9.916 416.166 10.492 416.094 11.176C416.07 11.356 416.058 11.572 416.058 11.824L420.162 9.502ZM426.322 16.126C426.118 16.126 425.956 16.078 425.836 15.982C425.716 15.886 425.614 15.736 425.53 15.532L422.56 8.296C422.524 8.188 422.506 8.068 422.506 7.936C422.506 7.72 422.59 7.534 422.758 7.378C422.938 7.21 423.148 7.126 423.388 7.126C423.772 7.126 424.042 7.318 424.198 7.702L426.322 13.066L428.464 7.648C428.524 7.48 428.626 7.348 428.77 7.252C428.926 7.156 429.094 7.108 429.274 7.108C429.526 7.108 429.73 7.192 429.886 7.36C430.054 7.528 430.138 7.726 430.138 7.954C430.138 8.05 430.108 8.176 430.048 8.332L427.132 15.586C427.06 15.766 426.958 15.904 426.826 16C426.706 16.084 426.538 16.126 426.322 16.126ZM435.074 16.108C434.222 16.108 433.454 15.928 432.77 15.568C432.098 15.196 431.57 14.674 431.186 14.002C430.802 13.318 430.61 12.514 430.61 11.59C430.61 10.834 430.778 10.114 431.114 9.43C431.462 8.734 431.942 8.176 432.554 7.756C433.178 7.336 433.886 7.126 434.678 7.126C435.41 7.126 436.034 7.276 436.55 7.576C437.078 7.864 437.474 8.212 437.738 8.62C438.002 9.028 438.134 9.394 438.134 9.718C438.134 9.874 438.086 10.024 437.99 10.168C437.894 10.312 437.756 10.438 437.576 10.546L432.752 13.318C432.92 13.69 433.214 13.978 433.634 14.182C434.066 14.386 434.546 14.488 435.074 14.488C435.77 14.488 436.364 14.23 436.856 13.714C437.048 13.522 437.246 13.426 437.45 13.426C437.69 13.426 437.888 13.504 438.044 13.66C438.212 13.816 438.296 14.008 438.296 14.236C438.296 14.428 438.224 14.608 438.08 14.776C437.744 15.148 437.294 15.466 436.73 15.73C436.178 15.982 435.626 16.108 435.074 16.108ZM436.352 9.502C436.208 9.25 436.004 9.064 435.74 8.944C435.476 8.812 435.164 8.746 434.804 8.746C434.12 8.746 433.544 8.98 433.076 9.448C432.62 9.916 432.356 10.492 432.284 11.176C432.26 11.356 432.248 11.572 432.248 11.824L436.352 9.502ZM440.892 16.108C440.664 16.108 440.46 16.03 440.28 15.874C440.112 15.706 440.028 15.514 440.028 15.298V4.858C440.028 4.618 440.106 4.42 440.262 4.264C440.43 4.096 440.64 4.012 440.892 4.012C441.12 4.012 441.318 4.096 441.486 4.264C441.666 4.432 441.756 4.63 441.756 4.858V15.298C441.756 15.514 441.666 15.706 441.486 15.874C441.306 16.03 441.108 16.108 440.892 16.108ZM447.413 16.108C446.729 16.108 446.099 15.922 445.523 15.55C444.959 15.178 444.515 14.674 444.191 14.038C443.867 13.39 443.705 12.688 443.705 11.932C443.705 11.08 443.897 10.288 444.281 9.556C444.665 8.812 445.181 8.224 445.829 7.792C446.477 7.348 447.173 7.126 447.917 7.126C448.601 7.126 449.225 7.318 449.789 7.702C450.365 8.086 450.815 8.596 451.139 9.232C451.475 9.868 451.643 10.552 451.643 11.284C451.643 12.148 451.451 12.952 451.067 13.696C450.683 14.428 450.161 15.016 449.501 15.46C448.853 15.892 448.157 16.108 447.413 16.108ZM447.413 14.488C447.833 14.488 448.235 14.344 448.619 14.056C449.003 13.768 449.309 13.384 449.537 12.904C449.765 12.424 449.879 11.914 449.879 11.374C449.879 10.918 449.789 10.492 449.609 10.096C449.429 9.688 449.183 9.364 448.871 9.124C448.559 8.872 448.217 8.746 447.845 8.746C447.425 8.746 447.029 8.896 446.657 9.196C446.297 9.484 446.009 9.874 445.793 10.366C445.577 10.846 445.469 11.362 445.469 11.914C445.469 12.454 445.559 12.916 445.739 13.3C445.931 13.684 446.171 13.978 446.459 14.182C446.759 14.386 447.077 14.488 447.413 14.488ZM454.444 19.294C454.216 19.294 454.012 19.204 453.832 19.024C453.664 18.856 453.58 18.658 453.58 18.43V7.99C453.58 7.738 453.664 7.528 453.832 7.36C454 7.192 454.21 7.108 454.462 7.108C454.666 7.108 454.852 7.186 455.02 7.342C455.2 7.498 455.29 7.702 455.29 7.954V8.152C455.902 7.456 456.802 7.108 457.99 7.108C458.482 7.108 458.956 7.264 459.412 7.576C459.88 7.888 460.264 8.356 460.564 8.98C460.864 9.592 461.014 10.33 461.014 11.194C461.014 11.974 460.894 12.724 460.654 13.444C460.414 14.164 459.994 14.77 459.394 15.262C458.806 15.742 458.014 15.982 457.018 15.982C456.442 15.982 455.872 15.82 455.308 15.496V18.43C455.308 18.658 455.218 18.856 455.038 19.024C454.87 19.204 454.672 19.294 454.444 19.294ZM457.126 14.326C457.822 14.326 458.368 14.068 458.764 13.552C459.172 13.024 459.376 12.238 459.376 11.194C459.376 10.426 459.226 9.826 458.926 9.394C458.638 8.95 458.278 8.728 457.846 8.728C457.234 8.728 456.712 8.848 456.28 9.088C455.86 9.328 455.536 9.598 455.308 9.898V13.894C456.04 14.182 456.646 14.326 457.126 14.326ZM463.831 16.108C463.603 16.108 463.399 16.024 463.219 15.856C463.051 15.688 462.967 15.49 462.967 15.262V7.99C462.967 7.762 463.051 7.564 463.219 7.396C463.399 7.216 463.603 7.126 463.831 7.126C464.071 7.126 464.275 7.216 464.443 7.396C464.611 7.564 464.695 7.762 464.695 7.99V9.25C465.439 7.834 466.429 7.126 467.665 7.126C468.157 7.126 468.583 7.27 468.943 7.558C469.315 7.846 469.579 8.278 469.735 8.854C470.503 7.702 471.439 7.126 472.543 7.126C473.287 7.126 473.875 7.414 474.307 7.99C474.739 8.554 474.955 9.406 474.955 10.546V15.262C474.955 15.49 474.865 15.688 474.685 15.856C474.517 16.024 474.319 16.108 474.091 16.108C473.851 16.108 473.647 16.024 473.479 15.856C473.311 15.688 473.227 15.49 473.227 15.262V10.438C473.227 9.886 473.149 9.472 472.993 9.196C472.837 8.92 472.591 8.782 472.255 8.782C471.907 8.782 471.559 8.92 471.211 9.196C470.863 9.472 470.575 9.85 470.347 10.33C470.131 10.81 470.023 11.338 470.023 11.914V15.262C470.023 15.502 469.939 15.706 469.771 15.874C469.603 16.03 469.399 16.108 469.159 16.108C468.931 16.108 468.727 16.024 468.547 15.856C468.379 15.688 468.295 15.49 468.295 15.262V10.438C468.295 9.862 468.223 9.442 468.079 9.178C467.947 8.914 467.725 8.782 467.413 8.782C467.029 8.782 466.651 8.938 466.279 9.25C465.907 9.55 465.583 9.916 465.307 10.348C465.091 10.708 464.929 11.068 464.821 11.428C464.725 11.788 464.677 12.184 464.677 12.616L464.695 15.262C464.695 15.49 464.611 15.688 464.443 15.856C464.275 16.024 464.071 16.108 463.831 16.108ZM481.181 16.108C480.329 16.108 479.561 15.928 478.877 15.568C478.205 15.196 477.677 14.674 477.293 14.002C476.909 13.318 476.717 12.514 476.717 11.59C476.717 10.834 476.885 10.114 477.221 9.43C477.569 8.734 478.049 8.176 478.661 7.756C479.285 7.336 479.993 7.126 480.785 7.126C481.517 7.126 482.141 7.276 482.657 7.576C483.185 7.864 483.581 8.212 483.845 8.62C484.109 9.028 484.241 9.394 484.241 9.718C484.241 9.874 484.193 10.024 484.097 10.168C484.001 10.312 483.863 10.438 483.683 10.546L478.859 13.318C479.027 13.69 479.321 13.978 479.741 14.182C480.173 14.386 480.653 14.488 481.181 14.488C481.877 14.488 482.471 14.23 482.963 13.714C483.155 13.522 483.353 13.426 483.557 13.426C483.797 13.426 483.995 13.504 484.151 13.66C484.319 13.816 484.403 14.008 484.403 14.236C484.403 14.428 484.331 14.608 484.187 14.776C483.851 15.148 483.401 15.466 482.837 15.73C482.285 15.982 481.733 16.108 481.181 16.108ZM482.459 9.502C482.315 9.25 482.111 9.064 481.847 8.944C481.583 8.812 481.271 8.746 480.911 8.746C480.227 8.746 479.651 8.98 479.183 9.448C478.727 9.916 478.463 10.492 478.391 11.176C478.367 11.356 478.355 11.572 478.355 11.824L482.459 9.502ZM486.999 16.108C486.771 16.108 486.567 16.024 486.387 15.856C486.219 15.688 486.135 15.496 486.135 15.28V7.972C486.135 7.732 486.225 7.528 486.405 7.36C486.585 7.192 486.795 7.108 487.035 7.108C487.263 7.108 487.455 7.192 487.611 7.36C487.779 7.528 487.863 7.732 487.863 7.972V9.34C488.199 8.62 488.625 8.074 489.141 7.702C489.657 7.318 490.221 7.126 490.833 7.126C491.505 7.126 492.039 7.282 492.435 7.594C492.831 7.906 493.119 8.422 493.299 9.142C493.479 9.85 493.569 10.834 493.569 12.094L493.551 15.244C493.551 15.472 493.473 15.676 493.317 15.856C493.161 16.024 492.963 16.108 492.723 16.108C492.495 16.108 492.291 16.024 492.111 15.856C491.943 15.676 491.859 15.478 491.859 15.262V12.274C491.859 11.338 491.817 10.618 491.733 10.114C491.649 9.61 491.523 9.268 491.355 9.088C491.187 8.896 490.959 8.8 490.671 8.8C490.311 8.8 489.951 8.956 489.591 9.268C489.231 9.568 488.895 10 488.583 10.564C488.307 11.056 488.115 11.536 488.007 12.004C487.899 12.472 487.845 13.036 487.845 13.696V15.208C487.845 15.472 487.767 15.688 487.611 15.856C487.467 16.024 487.263 16.108 486.999 16.108ZM497.474 16.126C497.246 16.126 497.042 16.042 496.862 15.874C496.694 15.706 496.61 15.508 496.61 15.28V8.854H495.188C494.948 8.854 494.744 8.77 494.576 8.602C494.408 8.422 494.324 8.218 494.324 7.99C494.324 7.726 494.414 7.516 494.594 7.36C494.774 7.192 494.984 7.108 495.224 7.108H496.61V5.182C496.61 4.954 496.694 4.75 496.862 4.57C497.03 4.39 497.234 4.3 497.474 4.3C497.726 4.3 497.93 4.39 498.086 4.57C498.254 4.738 498.338 4.942 498.338 5.182V7.108H499.868C500.108 7.108 500.312 7.192 500.48 7.36C500.648 7.528 500.732 7.738 500.732 7.99C500.732 8.218 500.648 8.422 500.48 8.602C500.312 8.77 500.108 8.854 499.868 8.854H498.338V15.28C498.338 15.508 498.254 15.706 498.086 15.874C497.918 16.042 497.714 16.126 497.474 16.126Z" fill="white"/>
<path d="M395.85 35.108C394.854 35.108 393.996 34.832 393.276 34.28C392.568 33.728 392.016 32.954 391.62 31.958C391.236 30.962 391.02 29.81 390.972 28.502C390.948 27.494 390.936 26.81 390.936 26.45L390.954 25.064C390.966 24.764 390.972 24.308 390.972 23.696C390.972 23.504 391.044 23.318 391.188 23.138C391.344 22.946 391.584 22.85 391.908 22.85C392.22 22.85 392.442 22.946 392.574 23.138C392.706 23.318 392.772 23.51 392.772 23.714L392.754 25.01C392.742 25.262 392.736 25.646 392.736 26.162C392.736 26.546 392.748 27.242 392.772 28.25C392.82 29.774 393.078 31.022 393.546 31.994C394.026 32.966 394.806 33.452 395.886 33.452C396.726 33.452 397.44 33.188 398.028 32.66C398.616 32.12 398.976 31.268 399.108 30.104C399.216 29.072 399.27 27.914 399.27 26.63L399.252 23.75C399.252 23.534 399.318 23.33 399.45 23.138C399.582 22.946 399.816 22.85 400.152 22.85C400.488 22.85 400.716 22.946 400.836 23.138C400.968 23.318 401.034 23.51 401.034 23.714L401.052 24.218C401.088 25.442 401.106 26.276 401.106 26.72C401.106 27.956 401.034 29.132 400.89 30.248C400.686 31.772 400.176 32.966 399.36 33.83C398.544 34.682 397.374 35.108 395.85 35.108ZM404.165 35.108C403.937 35.108 403.733 35.024 403.553 34.856C403.385 34.688 403.301 34.496 403.301 34.28V26.972C403.301 26.732 403.391 26.528 403.571 26.36C403.751 26.192 403.961 26.108 404.201 26.108C404.429 26.108 404.621 26.192 404.777 26.36C404.945 26.528 405.029 26.732 405.029 26.972V28.34C405.365 27.62 405.791 27.074 406.307 26.702C406.823 26.318 407.387 26.126 407.999 26.126C408.671 26.126 409.205 26.282 409.601 26.594C409.997 26.906 410.285 27.422 410.465 28.142C410.645 28.85 410.735 29.834 410.735 31.094L410.717 34.244C410.717 34.472 410.639 34.676 410.483 34.856C410.327 35.024 410.129 35.108 409.889 35.108C409.661 35.108 409.457 35.024 409.277 34.856C409.109 34.676 409.025 34.478 409.025 34.262V31.274C409.025 30.338 408.983 29.618 408.899 29.114C408.815 28.61 408.689 28.268 408.521 28.088C408.353 27.896 408.125 27.8 407.837 27.8C407.477 27.8 407.117 27.956 406.757 28.268C406.397 28.568 406.061 29 405.749 29.564C405.473 30.056 405.281 30.536 405.173 31.004C405.065 31.472 405.011 32.036 405.011 32.696V34.208C405.011 34.472 404.933 34.688 404.777 34.856C404.633 35.024 404.429 35.108 404.165 35.108ZM413.938 35.108C413.71 35.108 413.506 35.03 413.326 34.874C413.158 34.706 413.074 34.514 413.074 34.298V23.858C413.074 23.618 413.152 23.42 413.308 23.264C413.476 23.096 413.686 23.012 413.938 23.012C414.166 23.012 414.364 23.096 414.532 23.264C414.712 23.432 414.802 23.63 414.802 23.858V34.298C414.802 34.514 414.712 34.706 414.532 34.874C414.352 35.03 414.154 35.108 413.938 35.108ZM421.216 35.108C420.364 35.108 419.596 34.928 418.912 34.568C418.24 34.196 417.712 33.674 417.328 33.002C416.944 32.318 416.752 31.514 416.752 30.59C416.752 29.834 416.92 29.114 417.256 28.43C417.604 27.734 418.084 27.176 418.696 26.756C419.32 26.336 420.028 26.126 420.82 26.126C421.552 26.126 422.176 26.276 422.692 26.576C423.22 26.864 423.616 27.212 423.88 27.62C424.144 28.028 424.276 28.394 424.276 28.718C424.276 28.874 424.228 29.024 424.132 29.168C424.036 29.312 423.898 29.438 423.718 29.546L418.894 32.318C419.062 32.69 419.356 32.978 419.776 33.182C420.208 33.386 420.688 33.488 421.216 33.488C421.912 33.488 422.506 33.23 422.998 32.714C423.19 32.522 423.388 32.426 423.592 32.426C423.832 32.426 424.03 32.504 424.186 32.66C424.354 32.816 424.438 33.008 424.438 33.236C424.438 33.428 424.366 33.608 424.222 33.776C423.886 34.148 423.436 34.466 422.872 34.73C422.32 34.982 421.768 35.108 421.216 35.108ZM422.494 28.502C422.35 28.25 422.146 28.064 421.882 27.944C421.618 27.812 421.306 27.746 420.946 27.746C420.262 27.746 419.686 27.98 419.218 28.448C418.762 28.916 418.498 29.492 418.426 30.176C418.402 30.356 418.39 30.572 418.39 30.824L422.494 28.502ZM431.93 35.288C431.69 35.288 431.492 35.222 431.336 35.09C431.192 34.958 431.12 34.784 431.12 34.568V34.316C430.628 34.844 429.944 35.108 429.068 35.108C428.408 35.108 427.814 34.946 427.286 34.622C426.758 34.298 426.344 33.842 426.044 33.254C425.744 32.654 425.594 31.976 425.594 31.22C425.594 30.38 425.774 29.57 426.134 28.79C426.494 27.998 426.998 27.356 427.646 26.864C428.306 26.372 429.062 26.126 429.914 26.126C430.466 26.126 430.964 26.204 431.408 26.36C431.852 26.504 432.314 26.684 432.794 26.9V34.388C432.794 34.628 432.71 34.838 432.542 35.018C432.374 35.198 432.17 35.288 431.93 35.288ZM429.194 33.434C429.542 33.434 429.878 33.362 430.202 33.218C430.538 33.074 430.814 32.9 431.03 32.696L431.084 27.998C430.736 27.854 430.358 27.782 429.95 27.782C429.434 27.782 428.978 27.944 428.582 28.268C428.186 28.58 427.88 29 427.664 29.528C427.448 30.044 427.34 30.596 427.34 31.184C427.34 31.916 427.502 32.474 427.826 32.858C428.15 33.242 428.606 33.434 429.194 33.434ZM437.903 35.108C437.207 35.108 436.601 34.958 436.085 34.658C435.581 34.346 435.191 33.992 434.915 33.596C434.651 33.188 434.519 32.858 434.519 32.606C434.519 32.366 434.603 32.168 434.771 32.012C434.939 31.844 435.137 31.76 435.365 31.76C435.569 31.76 435.737 31.814 435.869 31.922C436.013 32.03 436.115 32.174 436.175 32.354C436.307 32.726 436.523 33.02 436.823 33.236C437.123 33.452 437.495 33.56 437.939 33.56C438.407 33.56 438.773 33.446 439.037 33.218C439.301 32.99 439.433 32.732 439.433 32.444C439.433 32.168 439.319 31.952 439.091 31.796C438.875 31.628 438.431 31.442 437.759 31.238C436.775 30.938 436.067 30.584 435.635 30.176C435.203 29.756 434.987 29.21 434.987 28.538C434.987 27.83 435.269 27.254 435.833 26.81C436.397 26.354 437.183 26.126 438.191 26.126C439.127 26.126 439.853 26.33 440.369 26.738C440.897 27.146 441.161 27.692 441.161 28.376C441.161 28.748 441.083 29.036 440.927 29.24C440.771 29.432 440.549 29.528 440.261 29.528C440.009 29.528 439.805 29.45 439.649 29.294C439.493 29.138 439.415 28.97 439.415 28.79C439.415 28.73 439.427 28.658 439.451 28.574C439.487 28.478 439.505 28.406 439.505 28.358C439.505 28.142 439.397 27.968 439.181 27.836C438.977 27.704 438.659 27.638 438.227 27.638C437.687 27.638 437.285 27.716 437.021 27.872C436.769 28.028 436.643 28.238 436.643 28.502C436.643 28.778 436.775 29.006 437.039 29.186C437.303 29.354 437.777 29.546 438.461 29.762C439.457 30.074 440.147 30.416 440.531 30.788C440.927 31.16 441.125 31.682 441.125 32.354C441.125 32.81 440.987 33.254 440.711 33.686C440.447 34.106 440.069 34.448 439.577 34.712C439.097 34.976 438.539 35.108 437.903 35.108ZM443.821 35.126C443.593 35.126 443.389 35.042 443.209 34.874C443.041 34.694 442.957 34.49 442.957 34.262V23.894C442.957 23.654 443.041 23.45 443.209 23.282C443.389 23.102 443.605 23.012 443.857 23.012C444.097 23.012 444.295 23.102 444.451 23.282C444.607 23.45 444.685 23.654 444.685 23.894V27.764C445.081 27.26 445.531 26.858 446.035 26.558C446.539 26.246 447.043 26.09 447.547 26.09C448.495 26.09 449.161 26.57 449.545 27.53C449.929 28.478 450.121 29.984 450.121 32.048C450.121 33.212 450.103 33.962 450.067 34.298C450.055 34.526 449.965 34.718 449.797 34.874C449.641 35.03 449.449 35.108 449.221 35.108C448.969 35.108 448.765 35.03 448.609 34.874C448.453 34.706 448.375 34.502 448.375 34.262C448.375 34.022 448.381 33.824 448.393 33.668L448.411 32.174C448.411 30.434 448.315 29.27 448.123 28.682C447.943 28.094 447.715 27.8 447.439 27.8C447.091 27.8 446.737 27.962 446.377 28.286C446.017 28.598 445.705 28.952 445.441 29.348C445.189 29.732 445.009 30.038 444.901 30.266C444.757 30.59 444.685 31.016 444.685 31.544V34.226C444.685 34.502 444.601 34.724 444.433 34.892C444.265 35.048 444.061 35.126 443.821 35.126ZM456.355 35.108C455.503 35.108 454.735 34.928 454.051 34.568C453.379 34.196 452.851 33.674 452.467 33.002C452.083 32.318 451.891 31.514 451.891 30.59C451.891 29.834 452.059 29.114 452.395 28.43C452.743 27.734 453.223 27.176 453.835 26.756C454.459 26.336 455.167 26.126 455.959 26.126C456.691 26.126 457.315 26.276 457.831 26.576C458.359 26.864 458.755 27.212 459.019 27.62C459.283 28.028 459.415 28.394 459.415 28.718C459.415 28.874 459.367 29.024 459.271 29.168C459.175 29.312 459.037 29.438 458.857 29.546L454.033 32.318C454.201 32.69 454.495 32.978 454.915 33.182C455.347 33.386 455.827 33.488 456.355 33.488C457.051 33.488 457.645 33.23 458.137 32.714C458.329 32.522 458.527 32.426 458.731 32.426C458.971 32.426 459.169 32.504 459.325 32.66C459.493 32.816 459.577 33.008 459.577 33.236C459.577 33.428 459.505 33.608 459.361 33.776C459.025 34.148 458.575 34.466 458.011 34.73C457.459 34.982 456.907 35.108 456.355 35.108ZM457.633 28.502C457.489 28.25 457.285 28.064 457.021 27.944C456.757 27.812 456.445 27.746 456.085 27.746C455.401 27.746 454.825 27.98 454.357 28.448C453.901 28.916 453.637 29.492 453.565 30.176C453.541 30.356 453.529 30.572 453.529 30.824L457.633 28.502ZM463.955 35.09C463.343 35.09 462.791 34.934 462.299 34.622C461.819 34.298 461.435 33.83 461.147 33.218C460.871 32.606 460.733 31.874 460.733 31.022C460.733 29.99 460.895 29.108 461.219 28.376C461.543 27.644 461.993 27.092 462.569 26.72C463.145 26.336 463.811 26.144 464.567 26.144C465.167 26.144 465.809 26.282 466.493 26.558L466.583 23.768C466.595 23.528 466.685 23.324 466.853 23.156C467.033 22.976 467.243 22.886 467.483 22.886C467.711 22.886 467.909 22.976 468.077 23.156C468.257 23.324 468.341 23.54 468.329 23.804L468.077 34.28C468.065 34.52 467.975 34.718 467.807 34.874C467.639 35.03 467.435 35.108 467.195 35.108C466.967 35.108 466.769 35.042 466.601 34.91C466.445 34.778 466.367 34.604 466.367 34.388V34.064C466.055 34.352 465.689 34.598 465.269 34.802C464.849 34.994 464.411 35.09 463.955 35.09ZM464.099 33.47C464.507 33.47 464.885 33.386 465.233 33.218C465.593 33.038 465.875 32.822 466.079 32.57C466.283 32.318 466.391 32.084 466.403 31.868L466.475 28.322C466.259 28.178 465.983 28.052 465.647 27.944C465.311 27.824 464.987 27.764 464.675 27.764C463.943 27.764 463.391 28.04 463.019 28.592C462.647 29.132 462.461 29.924 462.461 30.968C462.461 31.832 462.605 32.468 462.893 32.876C463.193 33.272 463.595 33.47 464.099 33.47Z" fill="white"/>
<path d="M130.111 56.104C129.219 56.104 128.427 55.8712 127.734 55.4057C127.05 54.9402 126.52 54.3311 126.144 53.5783C125.778 52.8156 125.594 52.0084 125.594 51.1566C125.594 50.3147 125.792 49.4926 126.189 48.6904C126.585 47.8782 127.139 47.2195 127.853 46.7144C128.576 46.1993 129.403 45.9418 130.334 45.9418C131.205 45.9418 131.938 46.13 132.533 46.5064C133.137 46.8728 133.587 47.2938 133.884 47.7692C134.182 48.2446 134.33 48.621 134.33 48.8984C134.33 49.1064 134.266 49.2747 134.137 49.4035C134.008 49.5223 133.835 49.5818 133.617 49.5818C133.26 49.5818 133.023 49.4233 132.904 49.1064C132.726 48.6309 132.429 48.2347 132.013 47.9178C131.597 47.5909 131.037 47.4275 130.334 47.4275C129.601 47.4275 128.987 47.6454 128.491 48.0812C128.006 48.5071 127.649 49.0123 127.422 49.5966C127.194 50.181 127.08 50.701 127.08 51.1566C127.08 51.6915 127.194 52.2263 127.422 52.7612C127.649 53.296 127.991 53.7417 128.447 54.0983C128.912 54.445 129.467 54.6183 130.111 54.6183C130.745 54.6183 131.299 54.4598 131.775 54.1429C132.25 53.816 132.602 53.3604 132.83 52.776H132.607C132.27 52.7958 131.899 52.8553 131.493 52.9543C131.324 53.0038 131.19 53.0286 131.091 53.0286C130.893 53.0286 130.72 52.9642 130.571 52.8355C130.433 52.6968 130.363 52.5136 130.363 52.2857C130.363 51.949 130.542 51.7063 130.898 51.5578C131.067 51.4884 131.339 51.429 131.715 51.3795C132.102 51.3299 132.493 51.3052 132.889 51.3052C133.454 51.3052 134.003 51.3894 134.538 51.5578C134.855 51.6568 135.014 51.8896 135.014 52.256C135.014 52.4244 134.964 52.573 134.865 52.7017C134.766 52.8206 134.642 52.9048 134.494 52.9543C134.414 52.9741 134.355 52.984 134.315 52.984C134.038 53.9052 133.528 54.6579 132.785 55.2423C132.052 55.8168 131.161 56.104 130.111 56.104ZM137.243 56.0891C137.055 56.0891 136.886 56.0248 136.738 55.896C136.599 55.7573 136.53 55.5989 136.53 55.4206V46.8035C136.53 46.6054 136.594 46.442 136.723 46.3132C136.862 46.1746 137.035 46.1052 137.243 46.1052C137.431 46.1052 137.595 46.1746 137.733 46.3132C137.882 46.4519 137.956 46.6153 137.956 46.8035V55.4206C137.956 55.5989 137.882 55.7573 137.733 55.896C137.585 56.0248 137.421 56.0891 137.243 56.0891ZM142.626 56.0891C142.062 56.0891 141.542 55.9356 141.066 55.6286C140.601 55.3215 140.234 54.9055 139.967 54.3806C139.699 53.8457 139.566 53.2663 139.566 52.6423C139.566 51.9391 139.724 51.2854 140.041 50.6812C140.358 50.0671 140.784 49.5818 141.319 49.2252C141.854 48.8587 142.428 48.6755 143.042 48.6755C143.607 48.6755 144.122 48.834 144.587 49.1509C145.063 49.4679 145.434 49.8888 145.701 50.4138C145.979 50.9387 146.117 51.5033 146.117 52.1075C146.117 52.8206 145.959 53.4842 145.642 54.0983C145.325 54.7025 144.894 55.1878 144.35 55.5543C143.815 55.9109 143.24 56.0891 142.626 56.0891ZM142.626 54.752C142.973 54.752 143.305 54.6332 143.622 54.3954C143.938 54.1577 144.191 53.8408 144.379 53.4446C144.567 53.0484 144.662 52.6275 144.662 52.1818C144.662 51.8054 144.587 51.4538 144.439 51.1269C144.29 50.7901 144.087 50.5227 143.83 50.3246C143.572 50.1166 143.29 50.0126 142.983 50.0126C142.636 50.0126 142.309 50.1364 142.002 50.3841C141.705 50.6218 141.467 50.9437 141.289 51.3498C141.111 51.7459 141.022 52.1718 141.022 52.6275C141.022 53.0732 141.096 53.4545 141.244 53.7714C141.403 54.0884 141.601 54.3311 141.839 54.4994C142.086 54.6678 142.349 54.752 142.626 54.752ZM148.4 56.0743C148.201 56.0743 148.038 56.0099 147.909 55.8811C147.781 55.7524 147.716 55.5939 147.716 55.4057V46.7738C147.716 46.5757 147.785 46.4172 147.924 46.2984C148.063 46.1696 148.231 46.1052 148.429 46.1052C148.617 46.1052 148.781 46.1696 148.92 46.2984C149.058 46.4172 149.128 46.5757 149.128 46.7738V49.6858C149.415 49.3688 149.732 49.141 150.078 49.0024C150.425 48.8637 150.806 48.7944 151.222 48.7944C151.718 48.7944 152.168 48.9231 152.574 49.1806C152.98 49.4283 153.302 49.7997 153.54 50.2949C153.788 50.7901 153.911 51.3894 153.911 52.0926C153.911 53.3604 153.619 54.3311 153.035 55.0046C152.451 55.6682 151.653 56 150.643 56C150.366 56 150.068 55.9554 149.752 55.8663C149.444 55.7672 149.207 55.6583 149.038 55.5394V55.6286C149.038 55.7276 148.974 55.8267 148.845 55.9257C148.726 56.0248 148.578 56.0743 148.4 56.0743ZM150.539 54.6034C151.232 54.6034 151.732 54.3855 152.04 53.9497C152.356 53.5139 152.515 52.8949 152.515 52.0926C152.515 51.4785 152.396 51.013 152.158 50.696C151.921 50.3791 151.599 50.2206 151.193 50.2206C150.816 50.2206 150.47 50.29 150.153 50.4286C149.836 50.5673 149.583 50.7555 149.395 50.9932C149.217 51.2309 149.128 51.4934 149.128 51.7806V54.3509C149.633 54.5193 150.103 54.6034 150.539 54.6034ZM160.276 56.2377C160.078 56.2377 159.915 56.1832 159.786 56.0743C159.667 55.9653 159.608 55.8217 159.608 55.6434V55.4354C159.201 55.8712 158.637 56.0891 157.914 56.0891C157.369 56.0891 156.879 55.9554 156.443 55.688C156.007 55.4206 155.665 55.0442 155.418 54.5589C155.17 54.0636 155.046 53.504 155.046 52.88C155.046 52.1867 155.195 51.5181 155.492 50.8743C155.789 50.2206 156.205 49.6907 156.74 49.2846C157.285 48.8785 157.909 48.6755 158.612 48.6755C159.068 48.6755 159.479 48.7399 159.845 48.8686C160.212 48.9875 160.593 49.1361 160.989 49.3143V55.4949C160.989 55.693 160.92 55.8663 160.781 56.0149C160.643 56.1634 160.474 56.2377 160.276 56.2377ZM158.018 54.7074C158.305 54.7074 158.582 54.648 158.85 54.5292C159.127 54.4103 159.355 54.2667 159.533 54.0983L159.578 50.2206C159.291 50.1018 158.979 50.0423 158.642 50.0423C158.216 50.0423 157.84 50.1761 157.513 50.4435C157.186 50.701 156.933 51.0477 156.755 51.4835C156.577 51.9094 156.488 52.365 156.488 52.8503C156.488 53.4545 156.621 53.9151 156.889 54.232C157.156 54.549 157.533 54.7074 158.018 54.7074ZM163.78 56.0891C163.591 56.0891 163.423 56.0248 163.274 55.896C163.136 55.7573 163.066 55.5989 163.066 55.4206V46.8035C163.066 46.6054 163.131 46.442 163.26 46.3132C163.398 46.1746 163.572 46.1052 163.78 46.1052C163.968 46.1052 164.131 46.1746 164.27 46.3132C164.418 46.4519 164.493 46.6153 164.493 46.8035V55.4206C164.493 55.5989 164.418 55.7573 164.27 55.896C164.121 56.0248 163.958 56.0891 163.78 56.0891ZM175.766 56.0891C174.973 56.0891 174.245 55.9109 173.582 55.5543C172.918 55.1977 172.393 54.6827 172.007 54.0092C171.621 53.3257 171.428 52.5284 171.428 51.6172C171.428 50.6564 171.65 49.7402 172.096 48.8686C172.552 47.9871 173.136 47.2839 173.849 46.7589C174.572 46.2241 175.31 45.9567 176.063 45.9567C176.38 45.9567 176.692 46.0062 176.999 46.1052C177.316 46.2043 177.598 46.3281 177.846 46.4767C177.965 46.3578 178.113 46.2984 178.291 46.2984C178.49 46.2984 178.653 46.3677 178.782 46.5064C178.911 46.6351 178.975 46.7936 178.975 46.9818V47.9326C178.975 48.1307 178.901 48.3041 178.752 48.4526C178.613 48.6012 178.44 48.6755 178.232 48.6755C178.034 48.6755 177.866 48.6161 177.727 48.4972C177.598 48.3784 177.534 48.2397 177.534 48.0812V47.9772C177.167 47.5909 176.642 47.3978 175.959 47.3978C175.464 47.3978 174.978 47.6008 174.503 48.0069C174.028 48.4031 173.641 48.9281 173.344 49.5818C173.057 50.2355 172.913 50.914 172.913 51.6172C172.913 52.2412 173.042 52.7859 173.3 53.2515C173.557 53.7071 173.899 54.0587 174.325 54.3063C174.76 54.544 175.241 54.6629 175.766 54.6629C176.727 54.6629 177.519 54.2518 178.143 53.4297C178.232 53.3208 178.321 53.2465 178.41 53.2069C178.499 53.1574 178.603 53.1326 178.722 53.1326C178.93 53.1326 179.104 53.2019 179.242 53.3406C179.391 53.4694 179.465 53.6476 179.465 53.8754C179.465 54.0438 179.421 54.1924 179.331 54.3212C178.925 54.8956 178.41 55.3364 177.786 55.6434C177.172 55.9406 176.499 56.0891 175.766 56.0891ZM181.509 56.104C181.321 56.104 181.153 56.0347 181.004 55.896C180.866 55.7474 180.796 55.5791 180.796 55.3909V46.8332C180.796 46.6351 180.866 46.4668 181.004 46.3281C181.153 46.1795 181.331 46.1052 181.539 46.1052C181.737 46.1052 181.901 46.1795 182.029 46.3281C182.158 46.4668 182.222 46.6351 182.222 46.8332V50.0275C182.549 49.6115 182.921 49.2797 183.337 49.0321C183.753 48.7745 184.169 48.6458 184.585 48.6458C185.367 48.6458 185.917 49.042 186.234 49.8343C186.551 50.6168 186.709 51.8598 186.709 53.5635C186.709 54.5242 186.694 55.1432 186.665 55.4206C186.655 55.6088 186.58 55.7672 186.442 55.896C186.313 56.0248 186.155 56.0891 185.966 56.0891C185.758 56.0891 185.59 56.0248 185.461 55.896C185.333 55.7573 185.268 55.589 185.268 55.3909C185.268 55.1928 185.273 55.0293 185.283 54.9006L185.298 53.6675C185.298 52.2313 185.219 51.2705 185.06 50.7852C184.912 50.2999 184.723 50.0572 184.496 50.0572C184.208 50.0572 183.916 50.1909 183.619 50.4583C183.322 50.7159 183.064 51.008 182.846 51.3349C182.638 51.6519 182.49 51.9044 182.401 52.0926C182.282 52.36 182.222 52.7116 182.222 53.1475V55.3611C182.222 55.589 182.153 55.7722 182.014 55.9109C181.876 56.0396 181.707 56.104 181.509 56.104ZM193.4 56.2377C193.202 56.2377 193.038 56.1832 192.909 56.0743C192.791 55.9653 192.731 55.8217 192.731 55.6434V55.4354C192.325 55.8712 191.76 56.0891 191.037 56.0891C190.493 56.0891 190.002 55.9554 189.567 55.688C189.131 55.4206 188.789 55.0442 188.541 54.5589C188.294 54.0636 188.17 53.504 188.17 52.88C188.17 52.1867 188.319 51.5181 188.616 50.8743C188.913 50.2206 189.329 49.6907 189.864 49.2846C190.408 48.8785 191.032 48.6755 191.736 48.6755C192.191 48.6755 192.602 48.7399 192.969 48.8686C193.335 48.9875 193.717 49.1361 194.113 49.3143V55.4949C194.113 55.693 194.043 55.8663 193.905 56.0149C193.766 56.1634 193.598 56.2377 193.4 56.2377ZM191.141 54.7074C191.429 54.7074 191.706 54.648 191.973 54.5292C192.251 54.4103 192.479 54.2667 192.657 54.0983L192.701 50.2206C192.414 50.1018 192.102 50.0423 191.765 50.0423C191.339 50.0423 190.963 50.1761 190.636 50.4435C190.309 50.701 190.057 51.0477 189.879 51.4835C189.7 51.9094 189.611 52.365 189.611 52.8503C189.611 53.4545 189.745 53.9151 190.012 54.232C190.28 54.549 190.656 54.7074 191.141 54.7074ZM196.918 56.0891C196.73 56.0891 196.561 56.0198 196.413 55.8811C196.264 55.7425 196.19 55.584 196.19 55.4057V49.3886C196.19 49.1905 196.259 49.0222 196.398 48.8835C196.547 48.7448 196.72 48.6755 196.918 48.6755C197.116 48.6755 197.284 48.7448 197.423 48.8835C197.572 49.0222 197.646 49.1905 197.646 49.3886V49.8343C198.131 49.042 198.795 48.6458 199.637 48.6458C200.142 48.6458 200.503 48.7844 200.721 49.0618C200.949 49.3391 201.063 49.6709 201.063 50.0572V50.5029C201.063 50.701 200.994 50.8694 200.855 51.008C200.726 51.1368 200.563 51.2012 200.365 51.2012C200.127 51.2012 199.949 51.1319 199.83 50.9932C199.721 50.8545 199.667 50.6861 199.667 50.4881V50.2949C199.667 50.1364 199.558 50.0572 199.34 50.0572C199.161 50.0572 198.953 50.1463 198.716 50.3246C198.488 50.5029 198.3 50.6911 198.151 50.8892C197.943 51.1467 197.804 51.4042 197.735 51.6618C197.676 51.9193 197.646 52.2263 197.646 52.5829L197.631 55.4057C197.631 55.584 197.557 55.7425 197.408 55.8811C197.26 56.0198 197.096 56.0891 196.918 56.0891ZM202.984 48.0515C202.796 48.0515 202.628 47.9772 202.479 47.8286C202.341 47.6801 202.276 47.5117 202.286 47.3235L202.301 46.7738C202.311 46.5856 202.385 46.4222 202.524 46.2835C202.663 46.1449 202.826 46.0755 203.014 46.0755C203.202 46.0755 203.366 46.1498 203.504 46.2984C203.653 46.4469 203.722 46.6104 203.712 46.7887L203.698 47.3532C203.688 47.5513 203.613 47.7197 203.475 47.8584C203.346 47.9871 203.182 48.0515 202.984 48.0515ZM202.91 56.0891C202.712 56.0891 202.539 56.0198 202.39 55.8811C202.251 55.7326 202.182 55.5592 202.182 55.3611L202.256 49.4481C202.256 49.25 202.326 49.0816 202.464 48.9429C202.613 48.7944 202.786 48.7201 202.984 48.7201C203.192 48.7201 203.366 48.7944 203.504 48.9429C203.643 49.0816 203.712 49.25 203.712 49.4481L203.638 55.3611C203.638 55.5592 203.564 55.7326 203.415 55.8811C203.277 56.0198 203.108 56.0891 202.91 56.0891ZM207.087 56.104C206.899 56.104 206.731 56.0347 206.582 55.896C206.444 55.7573 206.374 55.5939 206.374 55.4057V50.1018H205.201C205.002 50.1018 204.834 50.0324 204.695 49.8938C204.557 49.7452 204.487 49.5768 204.487 49.3886C204.487 49.1707 204.562 48.9974 204.71 48.8686C204.859 48.73 205.032 48.6606 205.23 48.6606H206.374V47.0709C206.374 46.8828 206.444 46.7144 206.582 46.5658C206.721 46.4172 206.889 46.3429 207.087 46.3429C207.295 46.3429 207.464 46.4172 207.593 46.5658C207.731 46.7045 207.801 46.8728 207.801 47.0709V48.6606H209.063C209.261 48.6606 209.43 48.73 209.568 48.8686C209.707 49.0073 209.776 49.1806 209.776 49.3886C209.776 49.5768 209.707 49.7452 209.568 49.8938C209.43 50.0324 209.261 50.1018 209.063 50.1018H207.801V55.4057C207.801 55.5939 207.731 55.7573 207.593 55.896C207.454 56.0347 207.285 56.104 207.087 56.104ZM211.695 58.7485C211.517 58.7485 211.363 58.6743 211.234 58.5257C211.106 58.387 211.041 58.2186 211.041 58.0206C211.041 57.9314 211.066 57.8274 211.115 57.7086L212.408 54.9303L209.749 49.7452C209.689 49.6263 209.659 49.5075 209.659 49.3886C209.659 49.1905 209.729 49.0222 209.867 48.8835C210.016 48.7349 210.194 48.6606 210.402 48.6606C210.561 48.6606 210.699 48.7052 210.818 48.7944C210.937 48.8835 211.026 48.9875 211.086 49.1064L213.181 53.2515L215.053 49.1064C215.112 48.9776 215.201 48.8686 215.32 48.7795C215.449 48.6904 215.587 48.6458 215.736 48.6458C215.914 48.6458 216.068 48.7151 216.197 48.8538C216.325 48.9924 216.39 49.1658 216.39 49.3738C216.39 49.4926 216.37 49.5917 216.33 49.6709L212.363 58.288C212.304 58.4266 212.215 58.5356 212.096 58.6148C211.977 58.704 211.843 58.7485 211.695 58.7485Z" fill="white"/>
<path d="M146.857 72C146.649 72 146.471 71.9307 146.322 71.792C146.184 71.6434 146.114 71.4651 146.114 71.2571V62.7887C146.114 62.5807 146.184 62.4073 146.322 62.2687C146.471 62.1201 146.649 62.0458 146.857 62.0458H152.785C152.993 62.0458 153.166 62.1201 153.305 62.2687C153.444 62.4073 153.513 62.5807 153.513 62.7887C153.513 62.9967 153.444 63.1749 153.305 63.3235C153.166 63.4622 152.993 63.5315 152.785 63.5315H147.585V66.0869H152.102C152.31 66.0869 152.483 66.1562 152.622 66.2949C152.76 66.4336 152.83 66.6069 152.83 66.8149C152.83 67.0229 152.76 67.2012 152.622 67.3498C152.483 67.4884 152.31 67.5578 152.102 67.5578H147.585V70.5143H152.755C152.963 70.5143 153.137 70.5886 153.275 70.7372C153.414 70.8758 153.483 71.0492 153.483 71.2571C153.483 71.4651 153.414 71.6434 153.275 71.792C153.137 71.9307 152.963 72 152.755 72H146.857ZM160.032 72.0891C159.933 72.0891 159.834 72.0693 159.735 72.0297C159.646 71.9901 159.571 71.9356 159.512 71.8663L157.402 69.2812L154.966 71.8663C154.837 72.005 154.664 72.0743 154.446 72.0743C154.257 72.0743 154.094 72.005 153.955 71.8663C153.817 71.7177 153.747 71.5493 153.747 71.3611C153.747 71.1532 153.817 70.9798 153.955 70.8412L156.481 68.2412L154.49 65.8641C154.431 65.7947 154.381 65.7155 154.342 65.6263C154.312 65.5372 154.297 65.458 154.297 65.3886C154.297 65.1905 154.366 65.0222 154.505 64.8835C154.644 64.7349 154.807 64.6606 154.995 64.6606C155.213 64.6606 155.392 64.7399 155.53 64.8984L157.491 67.3052L159.779 64.9132C159.928 64.7646 160.101 64.6904 160.299 64.6904C160.488 64.6904 160.651 64.7646 160.79 64.9132C160.938 65.0519 161.012 65.2153 161.012 65.4035C161.012 65.4926 160.993 65.5818 160.953 65.6709C160.913 65.7601 160.864 65.8343 160.804 65.8938L158.427 68.3303L160.596 70.9303C160.696 71.0591 160.745 71.2076 160.745 71.376C160.745 71.5741 160.676 71.7425 160.537 71.8811C160.398 72.0198 160.23 72.0891 160.032 72.0891ZM162.843 74.7188C162.655 74.7188 162.487 74.6445 162.338 74.496C162.2 74.3573 162.13 74.1939 162.13 74.0057V65.3886C162.13 65.1806 162.2 65.0073 162.338 64.8686C162.477 64.73 162.65 64.6606 162.858 64.6606C163.027 64.6606 163.18 64.725 163.319 64.8538C163.467 64.9825 163.542 65.1509 163.542 65.3589V65.5223C164.047 64.9479 164.79 64.6606 165.77 64.6606C166.176 64.6606 166.568 64.7894 166.944 65.0469C167.33 65.3044 167.647 65.6907 167.895 66.2058C168.142 66.7109 168.266 67.32 168.266 68.0332C168.266 68.677 168.167 69.296 167.969 69.8903C167.771 70.4846 167.424 70.9848 166.929 71.3909C166.444 71.787 165.79 71.9851 164.968 71.9851C164.493 71.9851 164.022 71.8514 163.557 71.584V74.0057C163.557 74.1939 163.482 74.3573 163.334 74.496C163.195 74.6445 163.032 74.7188 162.843 74.7188ZM165.057 70.6183C165.632 70.6183 166.082 70.4053 166.409 69.9794C166.746 69.5436 166.914 68.8949 166.914 68.0332C166.914 67.3993 166.79 66.904 166.543 66.5475C166.305 66.181 166.008 65.9978 165.651 65.9978C165.146 65.9978 164.715 66.0968 164.359 66.2949C164.012 66.493 163.745 66.7159 163.557 66.9635V70.2617C164.161 70.4994 164.661 70.6183 165.057 70.6183ZM174.632 72.2377C174.434 72.2377 174.271 72.1832 174.142 72.0743C174.023 71.9653 173.964 71.8217 173.964 71.6434V71.4354C173.558 71.8712 172.993 72.0891 172.27 72.0891C171.725 72.0891 171.235 71.9554 170.799 71.688C170.363 71.4206 170.022 71.0442 169.774 70.5589C169.526 70.0636 169.403 69.504 169.403 68.88C169.403 68.1867 169.551 67.5181 169.848 66.8743C170.145 66.2206 170.561 65.6907 171.096 65.2846C171.641 64.8785 172.265 64.6755 172.968 64.6755C173.424 64.6755 173.835 64.7399 174.201 64.8686C174.568 64.9875 174.949 65.1361 175.345 65.3143V71.4949C175.345 71.693 175.276 71.8663 175.137 72.0149C174.999 72.1634 174.83 72.2377 174.632 72.2377ZM172.374 70.7074C172.661 70.7074 172.938 70.648 173.206 70.5292C173.483 70.4103 173.711 70.2667 173.889 70.0983L173.934 66.2206C173.647 66.1018 173.335 66.0423 172.998 66.0423C172.572 66.0423 172.196 66.1761 171.869 66.4435C171.542 66.701 171.289 67.0477 171.111 67.4835C170.933 67.9094 170.844 68.365 170.844 68.8503C170.844 69.4545 170.977 69.9151 171.245 70.232C171.512 70.549 171.889 70.7074 172.374 70.7074ZM178.136 72.0891C177.947 72.0891 177.779 72.0198 177.631 71.8811C177.492 71.7425 177.423 71.584 177.423 71.4057V65.3738C177.423 65.1757 177.497 65.0073 177.645 64.8686C177.794 64.73 177.967 64.6606 178.165 64.6606C178.354 64.6606 178.512 64.73 178.641 64.8686C178.779 65.0073 178.849 65.1757 178.849 65.3738V66.5029C179.126 65.9086 179.478 65.458 179.904 65.1509C180.33 64.834 180.795 64.6755 181.3 64.6755C181.855 64.6755 182.296 64.8043 182.622 65.0618C182.949 65.3193 183.187 65.7452 183.336 66.3395C183.484 66.9239 183.558 67.736 183.558 68.776L183.544 71.376C183.544 71.5642 183.479 71.7326 183.35 71.8811C183.222 72.0198 183.058 72.0891 182.86 72.0891C182.672 72.0891 182.504 72.0198 182.355 71.8811C182.216 71.7326 182.147 71.5691 182.147 71.3909V68.9246C182.147 68.152 182.112 67.5578 182.043 67.1418C181.974 66.7258 181.87 66.4435 181.731 66.2949C181.592 66.1364 181.404 66.0572 181.166 66.0572C180.869 66.0572 180.572 66.186 180.275 66.4435C179.978 66.6911 179.701 67.0477 179.443 67.5132C179.215 67.9193 179.057 68.3155 178.968 68.7017C178.878 69.088 178.834 69.5535 178.834 70.0983V71.3463C178.834 71.5642 178.77 71.7425 178.641 71.8811C178.522 72.0198 178.354 72.0891 178.136 72.0891ZM187.629 72.0891C187.054 72.0891 186.554 71.9653 186.128 71.7177C185.712 71.4602 185.39 71.168 185.163 70.8412C184.945 70.5044 184.836 70.232 184.836 70.024C184.836 69.8259 184.905 69.6625 185.044 69.5337C185.182 69.3951 185.346 69.3257 185.534 69.3257C185.702 69.3257 185.841 69.3703 185.95 69.4595C186.069 69.5486 186.153 69.6675 186.203 69.816C186.311 70.1231 186.49 70.3657 186.737 70.544C186.985 70.7223 187.292 70.8114 187.659 70.8114C188.045 70.8114 188.347 70.7173 188.565 70.5292C188.783 70.341 188.892 70.128 188.892 69.8903C188.892 69.6625 188.798 69.4842 188.609 69.3555C188.431 69.2168 188.065 69.0633 187.51 68.8949C186.698 68.6473 186.113 68.3551 185.757 68.0183C185.4 67.6717 185.222 67.221 185.222 66.6663C185.222 66.082 185.455 65.6065 185.92 65.2401C186.386 64.8637 187.035 64.6755 187.867 64.6755C188.639 64.6755 189.238 64.8439 189.664 65.1806C190.1 65.5174 190.318 65.9681 190.318 66.5326C190.318 66.8397 190.254 67.0774 190.125 67.2458C189.996 67.4042 189.813 67.4835 189.575 67.4835C189.367 67.4835 189.199 67.4191 189.07 67.2903C188.941 67.1616 188.877 67.0229 188.877 66.8743C188.877 66.8248 188.887 66.7654 188.907 66.696C188.936 66.6168 188.951 66.5574 188.951 66.5178C188.951 66.3395 188.862 66.1959 188.684 66.0869C188.515 65.978 188.253 65.9235 187.896 65.9235C187.451 65.9235 187.119 65.9879 186.901 66.1166C186.693 66.2454 186.589 66.4187 186.589 66.6366C186.589 66.8644 186.698 67.0526 186.916 67.2012C187.134 67.3399 187.525 67.4983 188.089 67.6766C188.911 67.9341 189.481 68.2164 189.798 68.5235C190.125 68.8305 190.288 69.2614 190.288 69.816C190.288 70.1924 190.174 70.5589 189.946 70.9154C189.729 71.2621 189.417 71.5444 189.011 71.7623C188.614 71.9802 188.154 72.0891 187.629 72.0891ZM192.603 64.0515C192.415 64.0515 192.246 63.9772 192.098 63.8286C191.959 63.6801 191.895 63.5117 191.905 63.3235L191.92 62.7738C191.929 62.5856 192.004 62.4222 192.142 62.2835C192.281 62.1449 192.445 62.0755 192.633 62.0755C192.821 62.0755 192.984 62.1498 193.123 62.2984C193.272 62.4469 193.341 62.6104 193.331 62.7887L193.316 63.3532C193.306 63.5513 193.232 63.7197 193.093 63.8584C192.965 63.9871 192.801 64.0515 192.603 64.0515ZM192.529 72.0891C192.331 72.0891 192.157 72.0198 192.009 71.8811C191.87 71.7326 191.801 71.5592 191.801 71.3611L191.875 65.4481C191.875 65.25 191.944 65.0816 192.083 64.9429C192.232 64.7944 192.405 64.7201 192.603 64.7201C192.811 64.7201 192.984 64.7944 193.123 64.9429C193.262 65.0816 193.331 65.25 193.331 65.4481L193.257 71.3611C193.257 71.5592 193.182 71.7326 193.034 71.8811C192.895 72.0198 192.727 72.0891 192.529 72.0891ZM197.999 72.0891C197.434 72.0891 196.914 71.9356 196.439 71.6286C195.973 71.3215 195.607 70.9055 195.339 70.3806C195.072 69.8457 194.938 69.2663 194.938 68.6423C194.938 67.9391 195.096 67.2854 195.413 66.6812C195.73 66.0671 196.156 65.5818 196.691 65.2252C197.226 64.8587 197.8 64.6755 198.415 64.6755C198.979 64.6755 199.494 64.834 199.96 65.1509C200.435 65.4679 200.806 65.8888 201.074 66.4138C201.351 66.9387 201.49 67.5033 201.49 68.1075C201.49 68.8206 201.331 69.4842 201.014 70.0983C200.698 70.7025 200.267 71.1878 199.722 71.5543C199.187 71.9109 198.613 72.0891 197.999 72.0891ZM197.999 70.752C198.345 70.752 198.677 70.6332 198.994 70.3954C199.311 70.1577 199.563 69.8408 199.752 69.4446C199.94 69.0484 200.034 68.6275 200.034 68.1818C200.034 67.8054 199.96 67.4538 199.811 67.1269C199.663 66.7901 199.459 66.5227 199.202 66.3246C198.944 66.1166 198.662 66.0126 198.355 66.0126C198.008 66.0126 197.682 66.1364 197.375 66.3841C197.077 66.6218 196.84 66.9437 196.661 67.3498C196.483 67.7459 196.394 68.1718 196.394 68.6275C196.394 69.0732 196.468 69.4545 196.617 69.7714C196.775 70.0884 196.973 70.3311 197.211 70.4994C197.459 70.6678 197.721 70.752 197.999 70.752ZM203.802 72.0891C203.614 72.0891 203.445 72.0198 203.297 71.8811C203.158 71.7425 203.089 71.584 203.089 71.4057V65.3738C203.089 65.1757 203.163 65.0073 203.311 64.8686C203.46 64.73 203.633 64.6606 203.831 64.6606C204.02 64.6606 204.178 64.73 204.307 64.8686C204.445 65.0073 204.515 65.1757 204.515 65.3738V66.5029C204.792 65.9086 205.144 65.458 205.57 65.1509C205.996 64.834 206.461 64.6755 206.966 64.6755C207.521 64.6755 207.962 64.8043 208.289 65.0618C208.615 65.3193 208.853 65.7452 209.002 66.3395C209.15 66.9239 209.225 67.736 209.225 68.776L209.21 71.376C209.21 71.5642 209.145 71.7326 209.017 71.8811C208.888 72.0198 208.724 72.0891 208.526 72.0891C208.338 72.0891 208.17 72.0198 208.021 71.8811C207.882 71.7326 207.813 71.5691 207.813 71.3909V68.9246C207.813 68.152 207.778 67.5578 207.709 67.1418C207.64 66.7258 207.536 66.4435 207.397 66.2949C207.258 66.1364 207.07 66.0572 206.833 66.0572C206.535 66.0572 206.238 66.186 205.941 66.4435C205.644 66.6911 205.367 67.0477 205.109 67.5132C204.881 67.9193 204.723 68.3155 204.634 68.7017C204.545 69.088 204.5 69.5535 204.5 70.0983V71.3463C204.5 71.5642 204.436 71.7425 204.307 71.8811C204.188 72.0198 204.02 72.0891 203.802 72.0891Z" fill="white"/>
<path d="M365.144 93.9839C374.723 93.9839 382.489 86.2161 382.489 76.634C382.489 67.052 374.723 59.2842 365.144 59.2842C355.565 59.2842 347.799 67.052 347.799 76.634C347.799 86.2161 355.565 93.9839 365.144 93.9839Z" fill="#FEEC97" stroke="white" stroke-width="3" stroke-miterlimit="10"/>
<path d="M163.704 125.444C173.283 125.444 181.049 117.676 181.049 108.094C181.049 98.512 173.283 90.7441 163.704 90.7441C154.125 90.7441 146.359 98.512 146.359 108.094C146.359 117.676 154.125 125.444 163.704 125.444Z" fill="#FEEC97" stroke="white" stroke-width="3" stroke-miterlimit="10"/>
</svg>
