<svg width="519" height="230" viewBox="0 0 519 230" fill="none" xmlns="http://www.w3.org/2000/svg">
<path d="M2.27197 1.76367C20.3945 31.4699 80.9452 122.171 182.267 136.8C235.066 144.422 314.152 133.582 324.765 99.2913C329.287 84.6756 322.071 63.5542 307.89 56.1562C293.657 48.7319 271.702 54.7583 262.891 67.4092C244.118 94.3637 278.333 160.976 322.888 194.942C392.329 247.88 485.438 220.42 501.007 215.571" stroke="white" stroke-width="5" stroke-miterlimit="10" stroke-dasharray="10 10"/>
<path d="M54.4617 48.1783C54.115 48.1783 53.7634 48.1436 53.4068 48.0743C53.0503 48.0149 52.8076 47.9653 52.6788 47.9257C52.5204 47.8762 52.3867 47.7821 52.2777 47.6434C52.1688 47.5048 52.1143 47.3562 52.1143 47.1977V38.7738C52.1143 38.5658 52.1836 38.3925 52.3223 38.2538C52.4708 38.1151 52.6491 38.0458 52.8571 38.0458C53.8575 38.0458 54.8678 38.1944 55.888 38.4915C56.9081 38.7887 57.7897 39.3433 58.5325 40.1555C59.2853 40.9677 59.6616 42.0919 59.6616 43.528C59.6616 44.568 59.4338 45.4396 58.9782 46.1429C58.5226 46.8362 57.9036 47.3512 57.1211 47.688C56.3386 48.0149 55.4521 48.1783 54.4617 48.1783ZM54.4617 46.6926C55.6205 46.6926 56.5268 46.4252 57.1805 45.8903C57.8441 45.3555 58.1759 44.568 58.1759 43.528C58.1759 42.2404 57.755 41.2846 56.9131 40.6606C56.0811 40.0366 54.9767 39.6702 53.6 39.5612V46.6034C53.9367 46.6629 54.224 46.6926 54.4617 46.6926ZM66.1204 48.0831C65.8355 48.0831 65.6495 47.9486 65.5625 47.6795L64.7079 45.2105L62.2864 45.7447L61.5148 47.6914C61.4673 47.8022 61.3961 47.8932 61.3012 47.9644C61.2141 48.0356 61.1033 48.0712 60.9688 48.0712C60.8105 48.0712 60.6721 48.0158 60.5534 47.905C60.4347 47.7943 60.3753 47.6637 60.3753 47.5133C60.3753 47.4105 60.403 47.2918 60.4584 47.1572L60.9332 45.9702C60.8857 45.9544 60.8501 45.9386 60.8264 45.9227C60.6206 45.8199 60.5177 45.6458 60.5177 45.4005C60.5177 45.258 60.5573 45.1354 60.6364 45.0325C60.7235 44.9296 60.8343 44.8624 60.9688 44.8307L61.408 44.7357L63.1648 40.2726C63.2122 40.1539 63.2874 40.0629 63.3903 39.9996C63.4932 39.9363 63.6039 39.9047 63.7226 39.9047C63.8493 39.9047 63.96 39.9363 64.055 39.9996C64.15 40.0629 64.2212 40.1618 64.2687 40.2964L66.6308 47.1454C66.6387 47.1612 66.6545 47.2087 66.6783 47.2878C66.702 47.359 66.7139 47.4342 66.7139 47.5133C66.7139 47.6637 66.6585 47.7982 66.5477 47.9169C66.4369 48.0277 66.2945 48.0831 66.1204 48.0831ZM64.3161 44.1066L63.6752 42.1956L62.7849 44.439L64.3161 44.1066ZM70.1233 48.0712C69.5377 48.0712 69.0114 47.909 68.5446 47.5845C68.0777 47.2522 67.7097 46.8011 67.4406 46.2314C67.1795 45.6616 67.0489 45.0246 67.0489 44.3203C67.0489 43.5211 67.2112 42.7891 67.5356 42.1243C67.8601 41.4596 68.2913 40.9373 68.8294 40.5575C69.3755 40.1698 69.961 39.9759 70.5862 39.9759C71.1718 39.9759 71.698 40.1381 72.1649 40.4625C72.6397 40.787 73.0077 41.2341 73.2688 41.8039C73.5379 42.3736 73.6724 43.0146 73.6724 43.7268C73.6724 44.534 73.5102 45.2699 73.1857 45.9346C72.8613 46.5914 72.426 47.1137 71.88 47.5015C71.3419 47.8813 70.7563 48.0712 70.1233 48.0712ZM70.1233 46.9436C70.5506 46.9436 70.9423 46.809 71.2984 46.54C71.6624 46.2709 71.9512 45.8951 72.1649 45.4123C72.3786 44.9296 72.4854 44.3836 72.4854 43.7743C72.4854 43.2203 72.3904 42.7416 72.2005 42.338C72.0185 41.9344 71.7732 41.6298 71.4646 41.424C71.1639 41.2104 70.8473 41.1035 70.515 41.1035C70.1035 41.1035 69.7236 41.242 69.3755 41.519C69.0273 41.7959 68.7503 42.1797 68.5446 42.6704C68.3388 43.1531 68.2359 43.7031 68.2359 44.3203C68.2359 44.8742 68.323 45.349 68.4971 45.7447C68.6712 46.1404 68.9007 46.4411 69.1855 46.6468C69.4783 46.8447 69.7909 46.9436 70.1233 46.9436ZM79.8583 48.0831C79.6922 48.0831 79.5497 48.0277 79.431 47.9169C79.3202 47.7982 79.2648 47.6558 79.2648 47.4896V40.6406C79.2648 40.4744 79.3202 40.3359 79.431 40.2251C79.5497 40.1064 79.6922 40.0471 79.8583 40.0471H84.5945C84.7606 40.0471 84.8991 40.1064 85.0099 40.2251C85.1207 40.3359 85.1761 40.4744 85.1761 40.6406C85.1761 40.7989 85.1207 40.9373 85.0099 41.056C84.8991 41.1747 84.7606 41.2341 84.5945 41.2341H80.4518V43.2757H83.6093C83.7754 43.2757 83.9139 43.3351 84.0247 43.4538C84.1355 43.5725 84.1909 43.7149 84.1909 43.8811C84.1909 44.0394 84.1355 44.1779 84.0247 44.2966C83.9139 44.4073 83.7754 44.4627 83.6093 44.4627H80.4518V47.4896C80.4518 47.6558 80.3925 47.7982 80.2738 47.9169C80.163 48.0277 80.0245 48.0831 79.8583 48.0831ZM88.168 48.0712C87.7169 48.0712 87.3015 47.9486 86.9216 47.7032C86.5497 47.4579 86.2569 47.1256 86.0433 46.7062C85.8296 46.2788 85.7228 45.8159 85.7228 45.3174C85.7228 44.7555 85.8494 44.2333 86.1026 43.7505C86.3558 43.2599 86.6961 42.8722 87.1234 42.5873C87.5507 42.2945 88.0097 42.1481 88.5003 42.1481C88.9514 42.1481 89.3629 42.2747 89.7348 42.5279C90.1147 42.7812 90.4114 43.1175 90.6251 43.5369C90.8467 43.9563 90.9574 44.4073 90.9574 44.8901C90.9574 45.4598 90.8308 45.99 90.5776 46.4806C90.3244 46.9634 89.9801 47.3511 89.5449 47.6439C89.1176 47.9288 88.6586 48.0712 88.168 48.0712ZM88.168 47.0029C88.445 47.0029 88.7101 46.908 88.9633 46.718C89.2165 46.5281 89.4183 46.2749 89.5686 45.9584C89.719 45.6418 89.7942 45.3055 89.7942 44.9494C89.7942 44.6487 89.7348 44.3678 89.6161 44.1066C89.4974 43.8376 89.3352 43.6239 89.1295 43.4657C88.9237 43.2995 88.6982 43.2164 88.4529 43.2164C88.1759 43.2164 87.9148 43.3153 87.6694 43.5131C87.432 43.7031 87.2421 43.9602 87.0997 44.2847C86.9572 44.6012 86.886 44.9415 86.886 45.3055C86.886 45.6616 86.9454 45.9663 87.0641 46.2195C87.1907 46.4727 87.349 46.6666 87.5389 46.8011C87.7367 46.9357 87.9464 47.0029 88.168 47.0029ZM92.8163 48.0712C92.6659 48.0712 92.5314 48.0158 92.4127 47.905C92.294 47.7943 92.2347 47.6676 92.2347 47.5252V42.7178C92.2347 42.5596 92.2901 42.4251 92.4009 42.3143C92.5196 42.2035 92.658 42.1481 92.8163 42.1481C92.9746 42.1481 93.1091 42.2035 93.2199 42.3143C93.3386 42.4251 93.3979 42.5596 93.3979 42.7178V43.0739C93.7857 42.4409 94.3159 42.1243 94.9885 42.1243C95.3921 42.1243 95.6809 42.2351 95.855 42.4567C96.037 42.6783 96.128 42.9434 96.128 43.252V43.6081C96.128 43.7664 96.0726 43.9009 95.9619 44.0117C95.859 44.1146 95.7284 44.166 95.5701 44.166C95.3802 44.166 95.2378 44.1106 95.1428 43.9998C95.0558 43.889 95.0123 43.7545 95.0123 43.5962V43.4419C95.0123 43.3153 94.9252 43.252 94.7511 43.252C94.6087 43.252 94.4425 43.3232 94.2526 43.4657C94.0706 43.6081 93.9202 43.7585 93.8015 43.9167C93.6353 44.1225 93.5245 44.3282 93.4692 44.534C93.4217 44.7397 93.3979 44.985 93.3979 45.2699L93.3861 47.5252C93.3861 47.6676 93.3267 47.7943 93.208 47.905C93.0893 48.0158 92.9587 48.0712 92.8163 48.0712ZM97.5918 48.0712C97.4415 48.0712 97.307 48.0158 97.1883 47.905C97.0775 47.7943 97.0221 47.6637 97.0221 47.5133V42.7178C97.0221 42.5675 97.0775 42.4369 97.1883 42.3261C97.307 42.2074 97.4415 42.1481 97.5918 42.1481C97.7501 42.1481 97.8846 42.2074 97.9954 42.3261C98.1062 42.4369 98.1616 42.5675 98.1616 42.7178V43.5487C98.6522 42.615 99.3051 42.1481 100.12 42.1481C100.445 42.1481 100.726 42.243 100.963 42.433C101.208 42.6229 101.382 42.9078 101.485 43.2876C101.992 42.5279 102.609 42.1481 103.337 42.1481C103.828 42.1481 104.215 42.338 104.5 42.7178C104.785 43.0898 104.928 43.6516 104.928 44.4034V47.5133C104.928 47.6637 104.868 47.7943 104.749 47.905C104.639 48.0158 104.508 48.0712 104.358 48.0712C104.199 48.0712 104.065 48.0158 103.954 47.905C103.843 47.7943 103.788 47.6637 103.788 47.5133V44.3322C103.788 43.9682 103.737 43.6951 103.634 43.5131C103.531 43.3311 103.369 43.2401 103.147 43.2401C102.918 43.2401 102.688 43.3311 102.459 43.5131C102.229 43.6951 102.039 43.9444 101.889 44.2609C101.746 44.5775 101.675 44.9257 101.675 45.3055V47.5133C101.675 47.6716 101.62 47.8061 101.509 47.9169C101.398 48.0198 101.264 48.0712 101.105 48.0712C100.955 48.0712 100.82 48.0158 100.702 47.905C100.591 47.7943 100.536 47.6637 100.536 47.5133V44.3322C100.536 43.9523 100.488 43.6754 100.393 43.5013C100.306 43.3272 100.16 43.2401 99.954 43.2401C99.7007 43.2401 99.4515 43.343 99.2062 43.5487C98.9608 43.7466 98.7472 43.9879 98.5652 44.2728C98.4227 44.5102 98.3159 44.7476 98.2447 44.985C98.1814 45.2224 98.1497 45.4836 98.1497 45.7684L98.1616 47.5133C98.1616 47.6637 98.1062 47.7943 97.9954 47.905C97.8846 48.0158 97.7501 48.0712 97.5918 48.0712ZM110.268 48.1899C110.11 48.1899 109.979 48.1464 109.876 48.0594C109.781 47.9723 109.734 47.8576 109.734 47.7151V47.5489C109.409 47.8971 108.958 48.0712 108.38 48.0712C107.945 48.0712 107.554 47.9644 107.205 47.7507C106.857 47.5371 106.584 47.2364 106.386 46.8486C106.188 46.4529 106.09 46.0058 106.09 45.5073C106.09 44.9534 106.208 44.4192 106.446 43.9048C106.683 43.3826 107.015 42.9592 107.443 42.6348C107.878 42.3103 108.377 42.1481 108.938 42.1481C109.302 42.1481 109.631 42.1995 109.924 42.3024C110.216 42.3974 110.521 42.5161 110.838 42.6585V47.5964C110.838 47.7547 110.782 47.8932 110.671 48.0119C110.561 48.1306 110.426 48.1899 110.268 48.1899ZM108.464 46.9673C108.693 46.9673 108.915 46.9198 109.128 46.8249C109.35 46.7299 109.532 46.6152 109.674 46.4806L109.71 43.3826C109.48 43.2876 109.231 43.2401 108.962 43.2401C108.622 43.2401 108.321 43.347 108.06 43.5606C107.799 43.7664 107.597 44.0433 107.455 44.3915C107.312 44.7318 107.241 45.0958 107.241 45.4836C107.241 45.9663 107.348 46.3342 107.561 46.5875C107.775 46.8407 108.076 46.9673 108.464 46.9673ZM113.53 48.0831C113.379 48.0831 113.245 48.0277 113.126 47.9169C113.015 47.8061 112.96 47.6756 112.96 47.5252V43.2876H112.022C111.864 43.2876 111.73 43.2322 111.619 43.1214C111.508 43.0027 111.453 42.8682 111.453 42.7178C111.453 42.5438 111.512 42.4053 111.631 42.3024C111.749 42.1916 111.888 42.1362 112.046 42.1362H112.96V40.8661C112.96 40.7158 113.015 40.5812 113.126 40.4625C113.237 40.3438 113.372 40.2845 113.53 40.2845C113.696 40.2845 113.831 40.3438 113.933 40.4625C114.044 40.5733 114.1 40.7079 114.1 40.8661V42.1362H115.109C115.267 42.1362 115.401 42.1916 115.512 42.3024C115.623 42.4132 115.678 42.5517 115.678 42.7178C115.678 42.8682 115.623 43.0027 115.512 43.1214C115.401 43.2322 115.267 43.2876 115.109 43.2876H114.1V47.5252C114.1 47.6756 114.044 47.8061 113.933 47.9169C113.823 48.0277 113.688 48.0831 113.53 48.0831ZM117.033 41.6495C116.883 41.6495 116.748 41.5902 116.629 41.4715C116.519 41.3528 116.467 41.2183 116.475 41.0679L116.487 40.6287C116.495 40.4784 116.554 40.3478 116.665 40.237C116.776 40.1262 116.906 40.0708 117.057 40.0708C117.207 40.0708 117.338 40.1302 117.448 40.2489C117.567 40.3676 117.622 40.4982 117.615 40.6406L117.603 41.0917C117.595 41.2499 117.535 41.3845 117.425 41.4952C117.322 41.5981 117.191 41.6495 117.033 41.6495ZM116.974 48.0712C116.815 48.0712 116.677 48.0158 116.558 47.905C116.447 47.7863 116.392 47.6479 116.392 47.4896L116.451 42.7653C116.451 42.6071 116.507 42.4725 116.618 42.3617C116.736 42.243 116.875 42.1837 117.033 42.1837C117.199 42.1837 117.338 42.243 117.448 42.3617C117.559 42.4725 117.615 42.6071 117.615 42.7653L117.555 47.4896C117.555 47.6479 117.496 47.7863 117.377 47.905C117.266 48.0158 117.132 48.0712 116.974 48.0712ZM121.344 48.0712C120.893 48.0712 120.477 47.9486 120.097 47.7032C119.725 47.4579 119.433 47.1256 119.219 46.7062C119.005 46.2788 118.898 45.8159 118.898 45.3174C118.898 44.7555 119.025 44.2333 119.278 43.7505C119.532 43.2599 119.872 42.8722 120.299 42.5873C120.726 42.2945 121.185 42.1481 121.676 42.1481C122.127 42.1481 122.539 42.2747 122.911 42.5279C123.29 42.7812 123.587 43.1175 123.801 43.5369C124.022 43.9563 124.133 44.4073 124.133 44.8901C124.133 45.4598 124.007 45.99 123.753 46.4806C123.5 46.9634 123.156 47.3511 122.721 47.6439C122.293 47.9288 121.834 48.0712 121.344 48.0712ZM121.344 47.0029C121.621 47.0029 121.886 46.908 122.139 46.718C122.392 46.5281 122.594 46.2749 122.744 45.9584C122.895 45.6418 122.97 45.3055 122.97 44.9494C122.97 44.6487 122.911 44.3678 122.792 44.1066C122.673 43.8376 122.511 43.6239 122.305 43.4657C122.099 43.2995 121.874 43.2164 121.629 43.2164C121.352 43.2164 121.09 43.3153 120.845 43.5131C120.608 43.7031 120.418 43.9602 120.275 44.2847C120.133 44.6012 120.062 44.9415 120.062 45.3055C120.062 45.6616 120.121 45.9663 120.24 46.2195C120.366 46.4727 120.525 46.6666 120.715 46.8011C120.912 46.9357 121.122 47.0029 121.344 47.0029ZM125.98 48.0712C125.83 48.0712 125.695 48.0158 125.577 47.905C125.466 47.7943 125.41 47.6676 125.41 47.5252V42.706C125.41 42.5477 125.47 42.4132 125.588 42.3024C125.707 42.1916 125.846 42.1362 126.004 42.1362C126.154 42.1362 126.281 42.1916 126.384 42.3024C126.495 42.4132 126.55 42.5477 126.55 42.706V43.6081C126.771 43.1333 127.052 42.7732 127.393 42.5279C127.733 42.2747 128.105 42.1481 128.508 42.1481C128.952 42.1481 129.304 42.251 129.565 42.4567C129.826 42.6625 130.016 43.0027 130.135 43.4775C130.253 43.9444 130.313 44.5933 130.313 45.4242L130.301 47.5015C130.301 47.6518 130.249 47.7863 130.147 47.905C130.044 48.0158 129.913 48.0712 129.755 48.0712C129.604 48.0712 129.47 48.0158 129.351 47.905C129.24 47.7863 129.185 47.6558 129.185 47.5133V45.5429C129.185 44.9257 129.157 44.4509 129.102 44.1185C129.047 43.7861 128.963 43.5606 128.853 43.4419C128.742 43.3153 128.592 43.252 128.402 43.252C128.164 43.252 127.927 43.3549 127.689 43.5606C127.452 43.7585 127.23 44.0433 127.025 44.4153C126.843 44.7397 126.716 45.0562 126.645 45.3649C126.574 45.6735 126.538 46.0454 126.538 46.4806V47.4777C126.538 47.6518 126.487 47.7943 126.384 47.905C126.289 48.0158 126.154 48.0712 125.98 48.0712Z" fill="white"/>
<path d="M379.011 148.089C378.16 148.089 377.417 147.901 376.783 147.525C376.159 147.148 375.718 146.688 375.461 146.143C375.352 145.905 375.297 145.712 375.297 145.563C375.297 145.355 375.371 145.182 375.52 145.043C375.669 144.895 375.847 144.821 376.055 144.821C376.233 144.821 376.387 144.87 376.515 144.969C376.644 145.068 376.738 145.202 376.798 145.37C376.956 145.796 377.248 146.123 377.674 146.351C378.1 146.579 378.556 146.693 379.041 146.693C379.655 146.693 380.16 146.549 380.557 146.262C380.963 145.965 381.166 145.603 381.166 145.177C381.166 144.85 381.002 144.553 380.675 144.286C380.358 144.018 379.814 143.776 379.041 143.558C378.041 143.28 377.253 142.924 376.679 142.488C376.104 142.042 375.817 141.433 375.817 140.661C375.817 140.136 375.956 139.67 376.233 139.264C376.52 138.848 376.926 138.526 377.451 138.298C377.976 138.071 378.59 137.957 379.294 137.957C380.304 137.957 381.096 138.155 381.671 138.551C382.255 138.947 382.547 139.477 382.547 140.141C382.547 140.359 382.478 140.542 382.339 140.69C382.201 140.839 382.027 140.913 381.819 140.913C381.641 140.913 381.488 140.854 381.359 140.735C381.23 140.616 381.156 140.467 381.136 140.289C381.096 140.012 380.913 139.784 380.586 139.606C380.259 139.418 379.829 139.324 379.294 139.324C378.63 139.324 378.125 139.437 377.778 139.665C377.432 139.883 377.258 140.18 377.258 140.557C377.258 140.903 377.437 141.195 377.793 141.433C378.15 141.671 378.734 141.909 379.546 142.146C380.547 142.434 381.304 142.82 381.819 143.305C382.334 143.791 382.592 144.39 382.592 145.103C382.592 145.658 382.429 146.163 382.102 146.618C381.775 147.074 381.334 147.435 380.779 147.703C380.235 147.96 379.645 148.089 379.011 148.089ZM386.186 148.134C385.651 148.134 385.225 148.02 384.908 147.792C384.591 147.554 384.353 147.128 384.195 146.514C384.037 145.9 383.957 145.019 383.957 143.87C383.957 143.483 383.972 143.058 384.002 142.592C384.032 142.127 384.071 141.735 384.121 141.418C384.16 141.171 384.235 140.983 384.344 140.854C384.452 140.725 384.611 140.661 384.819 140.661C385.017 140.661 385.185 140.72 385.324 140.839C385.463 140.958 385.532 141.131 385.532 141.359L385.502 141.775C385.403 142.617 385.354 143.424 385.354 144.197C385.354 145.207 385.438 145.895 385.606 146.262C385.785 146.618 386.027 146.797 386.334 146.797C386.691 146.797 387.057 146.702 387.434 146.514C387.81 146.316 388.078 146.128 388.236 145.95C388.296 145.89 388.325 145.766 388.325 145.578L388.355 141.344C388.355 141.146 388.424 140.983 388.563 140.854C388.712 140.725 388.875 140.661 389.053 140.661C389.241 140.661 389.405 140.725 389.543 140.854C389.692 140.983 389.766 141.146 389.766 141.344V147.376C389.766 147.564 389.692 147.733 389.543 147.881C389.405 148.02 389.241 148.089 389.053 148.089C388.855 148.089 388.677 148.03 388.518 147.911C388.37 147.782 388.296 147.624 388.296 147.435V147.272C387.919 147.539 387.568 147.752 387.241 147.911C386.924 148.059 386.572 148.134 386.186 148.134ZM393.979 148.089C393.405 148.089 392.905 147.965 392.479 147.718C392.063 147.46 391.741 147.168 391.513 146.841C391.295 146.504 391.186 146.232 391.186 146.024C391.186 145.826 391.256 145.662 391.394 145.534C391.533 145.395 391.696 145.326 391.885 145.326C392.053 145.326 392.192 145.37 392.301 145.459C392.419 145.549 392.504 145.667 392.553 145.816C392.662 146.123 392.84 146.366 393.088 146.544C393.336 146.722 393.643 146.811 394.009 146.811C394.395 146.811 394.698 146.717 394.915 146.529C395.133 146.341 395.242 146.128 395.242 145.89C395.242 145.662 395.148 145.484 394.96 145.355C394.782 145.217 394.415 145.063 393.861 144.895C393.048 144.647 392.464 144.355 392.107 144.018C391.751 143.672 391.573 143.221 391.573 142.666C391.573 142.082 391.805 141.607 392.271 141.24C392.736 140.864 393.385 140.675 394.217 140.675C394.99 140.675 395.589 140.844 396.015 141.181C396.451 141.517 396.669 141.968 396.669 142.533C396.669 142.84 396.604 143.077 396.475 143.246C396.347 143.404 396.163 143.483 395.926 143.483C395.718 143.483 395.549 143.419 395.421 143.29C395.292 143.162 395.227 143.023 395.227 142.874C395.227 142.825 395.237 142.765 395.257 142.696C395.287 142.617 395.302 142.557 395.302 142.518C395.302 142.339 395.213 142.196 395.034 142.087C394.866 141.978 394.603 141.923 394.247 141.923C393.801 141.923 393.469 141.988 393.251 142.117C393.043 142.245 392.939 142.419 392.939 142.637C392.939 142.864 393.048 143.053 393.266 143.201C393.484 143.34 393.875 143.498 394.44 143.677C395.262 143.934 395.832 144.216 396.149 144.523C396.475 144.831 396.639 145.261 396.639 145.816C396.639 146.192 396.525 146.559 396.297 146.915C396.079 147.262 395.767 147.544 395.361 147.762C394.965 147.98 394.504 148.089 393.979 148.089ZM398.975 148.083C398.825 148.083 398.69 148.028 398.571 147.917C398.461 147.806 398.405 147.676 398.405 147.525V143.288H397.467C397.309 143.288 397.175 143.232 397.064 143.121C396.953 143.003 396.898 142.868 396.898 142.718C396.898 142.544 396.957 142.405 397.076 142.302C397.194 142.192 397.333 142.136 397.491 142.136H398.405V140.866C398.405 140.716 398.461 140.581 398.571 140.463C398.682 140.344 398.817 140.284 398.975 140.284C399.141 140.284 399.276 140.344 399.379 140.463C399.489 140.573 399.545 140.708 399.545 140.866V142.136H400.554C400.712 142.136 400.846 142.192 400.957 142.302C401.068 142.413 401.123 142.552 401.123 142.718C401.123 142.868 401.068 143.003 400.957 143.121C400.846 143.232 400.712 143.288 400.554 143.288H399.545V147.525C399.545 147.676 399.489 147.806 399.379 147.917C399.268 148.028 399.133 148.083 398.975 148.083ZM405.346 148.19C405.187 148.19 405.057 148.146 404.954 148.059C404.859 147.972 404.812 147.858 404.812 147.715V147.549C404.487 147.897 404.036 148.071 403.458 148.071C403.023 148.071 402.631 147.964 402.283 147.751C401.935 147.537 401.662 147.236 401.464 146.849C401.266 146.453 401.168 146.006 401.168 145.507C401.168 144.953 401.286 144.419 401.524 143.905C401.761 143.383 402.093 142.959 402.521 142.635C402.956 142.31 403.454 142.148 404.016 142.148C404.38 142.148 404.709 142.2 405.002 142.302C405.294 142.397 405.599 142.516 405.916 142.658V147.596C405.916 147.755 405.86 147.893 405.749 148.012C405.639 148.131 405.504 148.19 405.346 148.19ZM403.542 146.967C403.771 146.967 403.993 146.92 404.206 146.825C404.428 146.73 404.61 146.615 404.752 146.481L404.788 143.383C404.558 143.288 404.309 143.24 404.04 143.24C403.7 143.24 403.399 143.347 403.138 143.561C402.877 143.766 402.675 144.043 402.533 144.392C402.39 144.732 402.319 145.096 402.319 145.484C402.319 145.966 402.426 146.334 402.639 146.587C402.853 146.841 403.154 146.967 403.542 146.967ZM408.216 141.65C408.066 141.65 407.931 141.59 407.812 141.471C407.702 141.353 407.65 141.218 407.658 141.068L407.67 140.629C407.678 140.478 407.737 140.348 407.848 140.237C407.959 140.126 408.089 140.071 408.24 140.071C408.39 140.071 408.521 140.13 408.632 140.249C408.75 140.368 408.806 140.498 408.798 140.641L408.786 141.092C408.778 141.25 408.719 141.384 408.608 141.495C408.505 141.598 408.374 141.65 408.216 141.65ZM408.157 148.071C407.998 148.071 407.86 148.016 407.741 147.905C407.63 147.786 407.575 147.648 407.575 147.49L407.634 142.765C407.634 142.607 407.69 142.473 407.801 142.362C407.919 142.243 408.058 142.184 408.216 142.184C408.382 142.184 408.521 142.243 408.632 142.362C408.742 142.473 408.798 142.607 408.798 142.765L408.738 147.49C408.738 147.648 408.679 147.786 408.56 147.905C408.45 148.016 408.315 148.071 408.157 148.071ZM411.031 148.071C410.881 148.071 410.746 148.016 410.628 147.905C410.517 147.794 410.461 147.668 410.461 147.525V142.706C410.461 142.548 410.521 142.413 410.639 142.302C410.758 142.192 410.897 142.136 411.055 142.136C411.205 142.136 411.332 142.192 411.435 142.302C411.546 142.413 411.601 142.548 411.601 142.706V143.608C411.823 143.133 412.103 142.773 412.444 142.528C412.784 142.275 413.156 142.148 413.56 142.148C414.003 142.148 414.355 142.251 414.616 142.457C414.877 142.662 415.067 143.003 415.186 143.478C415.304 143.944 415.364 144.593 415.364 145.424L415.352 147.501C415.352 147.652 415.3 147.786 415.198 147.905C415.095 148.016 414.964 148.071 414.806 148.071C414.656 148.071 414.521 148.016 414.402 147.905C414.291 147.786 414.236 147.656 414.236 147.513V145.543C414.236 144.926 414.208 144.451 414.153 144.119C414.098 143.786 414.015 143.561 413.904 143.442C413.793 143.315 413.643 143.252 413.453 143.252C413.215 143.252 412.978 143.355 412.74 143.561C412.503 143.758 412.282 144.043 412.076 144.415C411.894 144.74 411.767 145.056 411.696 145.365C411.625 145.673 411.589 146.045 411.589 146.481V147.478C411.589 147.652 411.538 147.794 411.435 147.905C411.34 148.016 411.205 148.071 411.031 148.071ZM420.705 148.19C420.547 148.19 420.416 148.146 420.313 148.059C420.218 147.972 420.171 147.858 420.171 147.715V147.549C419.846 147.897 419.395 148.071 418.818 148.071C418.382 148.071 417.991 147.964 417.642 147.751C417.294 147.537 417.021 147.236 416.823 146.849C416.626 146.453 416.527 146.006 416.527 145.507C416.527 144.953 416.645 144.419 416.883 143.905C417.12 143.383 417.453 142.959 417.88 142.635C418.315 142.31 418.814 142.148 419.375 142.148C419.739 142.148 420.068 142.2 420.361 142.302C420.653 142.397 420.958 142.516 421.275 142.658V147.596C421.275 147.755 421.219 147.893 421.108 148.012C420.998 148.131 420.863 148.19 420.705 148.19ZM418.901 146.967C419.13 146.967 419.352 146.92 419.565 146.825C419.787 146.73 419.969 146.615 420.111 146.481L420.147 143.383C419.918 143.288 419.668 143.24 419.399 143.24C419.059 143.24 418.758 143.347 418.497 143.561C418.236 143.766 418.034 144.043 417.892 144.392C417.749 144.732 417.678 145.096 417.678 145.484C417.678 145.966 417.785 146.334 417.999 146.587C418.212 146.841 418.513 146.967 418.901 146.967ZM423.48 148.059C423.322 148.059 423.191 148.008 423.089 147.905C422.986 147.802 422.934 147.676 422.934 147.525V140.629C422.934 140.47 422.99 140.344 423.1 140.249C423.211 140.146 423.346 140.095 423.504 140.095C423.654 140.095 423.785 140.146 423.896 140.249C424.006 140.344 424.062 140.47 424.062 140.629V142.955C424.291 142.702 424.545 142.52 424.822 142.409C425.099 142.298 425.403 142.243 425.736 142.243C426.131 142.243 426.491 142.346 426.816 142.552C427.14 142.75 427.397 143.046 427.587 143.442C427.785 143.838 427.884 144.316 427.884 144.878C427.884 145.891 427.651 146.667 427.184 147.205C426.717 147.735 426.08 148 425.273 148C425.051 148 424.814 147.964 424.56 147.893C424.315 147.814 424.125 147.727 423.991 147.632V147.703C423.991 147.782 423.939 147.862 423.836 147.941C423.741 148.02 423.623 148.059 423.48 148.059ZM425.19 146.884C425.743 146.884 426.143 146.71 426.388 146.362C426.642 146.014 426.768 145.519 426.768 144.878C426.768 144.388 426.673 144.016 426.483 143.762C426.293 143.509 426.036 143.383 425.712 143.383C425.411 143.383 425.134 143.438 424.881 143.549C424.628 143.66 424.426 143.81 424.276 144C424.133 144.19 424.062 144.399 424.062 144.629V146.682C424.465 146.817 424.841 146.884 425.19 146.884ZM429.74 148.071C429.59 148.071 429.455 148.02 429.337 147.917C429.226 147.806 429.171 147.68 429.171 147.537V140.652C429.171 140.494 429.222 140.364 429.325 140.261C429.436 140.15 429.574 140.095 429.74 140.095C429.891 140.095 430.021 140.15 430.132 140.261C430.251 140.372 430.31 140.502 430.31 140.652V147.537C430.31 147.68 430.251 147.806 430.132 147.917C430.013 148.02 429.883 148.071 429.74 148.071ZM434.54 148.071C433.978 148.071 433.471 147.953 433.02 147.715C432.577 147.47 432.229 147.126 431.976 146.682C431.723 146.231 431.596 145.701 431.596 145.092C431.596 144.593 431.707 144.119 431.928 143.667C432.158 143.208 432.474 142.841 432.878 142.564C433.289 142.287 433.756 142.148 434.279 142.148C434.761 142.148 435.173 142.247 435.513 142.445C435.861 142.635 436.122 142.864 436.296 143.133C436.471 143.402 436.558 143.644 436.558 143.857C436.558 143.96 436.526 144.059 436.463 144.154C436.399 144.249 436.308 144.332 436.19 144.403L433.009 146.231C433.119 146.477 433.313 146.667 433.59 146.801C433.875 146.936 434.192 147.003 434.54 147.003C434.999 147.003 435.39 146.833 435.715 146.493C435.841 146.366 435.972 146.303 436.107 146.303C436.265 146.303 436.395 146.354 436.498 146.457C436.609 146.56 436.664 146.686 436.664 146.837C436.664 146.963 436.617 147.082 436.522 147.193C436.3 147.438 436.004 147.648 435.632 147.822C435.268 147.988 434.904 148.071 434.54 148.071ZM435.383 143.715C435.288 143.549 435.153 143.426 434.979 143.347C434.805 143.26 434.599 143.216 434.362 143.216C433.911 143.216 433.531 143.371 433.222 143.679C432.921 143.988 432.747 144.368 432.7 144.819C432.684 144.938 432.676 145.08 432.676 145.246L435.383 143.715ZM443.972 148.071C443.695 148.071 443.513 147.937 443.426 147.668L441.361 140.89C441.321 140.747 441.302 140.621 441.302 140.51C441.302 140.36 441.357 140.237 441.468 140.142C441.579 140.039 441.713 139.988 441.871 139.988C442.164 139.988 442.354 140.126 442.441 140.403L443.996 145.519L445.658 140.391C445.745 140.122 445.935 139.988 446.228 139.988C446.512 139.988 446.694 140.126 446.774 140.403L448.186 145.531L450.085 140.273C450.188 139.996 450.378 139.857 450.655 139.857C450.813 139.857 450.948 139.909 451.059 140.011C451.169 140.106 451.225 140.229 451.225 140.379C451.225 140.514 451.205 140.641 451.166 140.759L448.661 147.691C448.621 147.81 448.554 147.905 448.459 147.976C448.364 148.04 448.253 148.071 448.127 148.071C447.818 148.071 447.628 147.929 447.557 147.644L446.168 142.635L444.542 147.668C444.495 147.818 444.423 147.925 444.328 147.988C444.241 148.044 444.123 148.071 443.972 148.071ZM455.306 148.19C455.148 148.19 455.018 148.146 454.915 148.059C454.82 147.972 454.772 147.858 454.772 147.715V147.549C454.448 147.897 453.997 148.071 453.419 148.071C452.984 148.071 452.592 147.964 452.244 147.751C451.896 147.537 451.623 147.236 451.425 146.849C451.227 146.453 451.128 146.006 451.128 145.507C451.128 144.953 451.247 144.419 451.484 143.905C451.722 143.383 452.054 142.959 452.481 142.635C452.917 142.31 453.415 142.148 453.977 142.148C454.341 142.148 454.669 142.2 454.962 142.302C455.255 142.397 455.56 142.516 455.876 142.658V147.596C455.876 147.755 455.821 147.893 455.71 148.012C455.599 148.131 455.465 148.19 455.306 148.19ZM453.502 146.967C453.732 146.967 453.953 146.92 454.167 146.825C454.388 146.73 454.57 146.615 454.713 146.481L454.749 143.383C454.519 143.288 454.27 143.24 454.001 143.24C453.66 143.24 453.36 143.347 453.099 143.561C452.837 143.766 452.636 144.043 452.493 144.392C452.351 144.732 452.28 145.096 452.28 145.484C452.28 145.966 452.386 146.334 452.6 146.587C452.814 146.841 453.114 146.967 453.502 146.967ZM459.566 150.065C459.107 150.065 458.64 150.01 458.165 149.899C458.038 149.868 457.931 149.8 457.844 149.697C457.765 149.595 457.726 149.476 457.726 149.341C457.726 149.183 457.781 149.049 457.892 148.938C458.011 148.827 458.145 148.772 458.295 148.772C458.39 148.772 458.517 148.791 458.675 148.831C458.707 148.839 458.806 148.855 458.972 148.878C459.138 148.91 459.332 148.926 459.554 148.926C460.369 148.926 460.808 148.518 460.871 147.703L460.895 147.418C460.76 147.6 460.582 147.739 460.361 147.834C460.139 147.921 459.902 147.964 459.649 147.964C459.229 147.964 458.834 147.862 458.462 147.656C458.098 147.442 457.805 147.137 457.583 146.742C457.362 146.338 457.251 145.867 457.251 145.329C457.251 144.767 457.374 144.241 457.619 143.751C457.872 143.26 458.212 142.868 458.64 142.575C459.075 142.283 459.554 142.136 460.076 142.136C460.369 142.136 460.697 142.207 461.061 142.35C461.124 142.128 461.306 142.018 461.607 142.018C461.773 142.018 461.908 142.065 462.011 142.16C462.122 142.247 462.173 142.393 462.165 142.599L462.046 147.608C462.031 148.423 461.797 149.037 461.346 149.448C460.895 149.86 460.301 150.065 459.566 150.065ZM459.577 146.849C460.013 146.849 460.353 146.694 460.598 146.386C460.844 146.069 460.966 145.582 460.966 144.926V143.489C460.855 143.426 460.721 143.375 460.563 143.335C460.412 143.296 460.266 143.276 460.123 143.276C459.799 143.276 459.498 143.363 459.221 143.537C458.952 143.703 458.735 143.937 458.568 144.237C458.41 144.538 458.331 144.874 458.331 145.246C458.331 145.729 458.45 146.117 458.687 146.409C458.932 146.702 459.229 146.849 459.577 146.849ZM466.069 150.065C465.61 150.065 465.143 150.01 464.668 149.899C464.541 149.868 464.434 149.8 464.347 149.697C464.268 149.595 464.229 149.476 464.229 149.341C464.229 149.183 464.284 149.049 464.395 148.938C464.514 148.827 464.648 148.772 464.798 148.772C464.893 148.772 465.02 148.791 465.178 148.831C465.21 148.839 465.309 148.855 465.475 148.878C465.641 148.91 465.835 148.926 466.057 148.926C466.872 148.926 467.311 148.518 467.374 147.703L467.398 147.418C467.263 147.6 467.085 147.739 466.864 147.834C466.642 147.921 466.405 147.964 466.152 147.964C465.732 147.964 465.337 147.862 464.965 147.656C464.601 147.442 464.308 147.137 464.086 146.742C463.865 146.338 463.754 145.867 463.754 145.329C463.754 144.767 463.877 144.241 464.122 143.751C464.375 143.26 464.715 142.868 465.143 142.575C465.578 142.283 466.057 142.136 466.579 142.136C466.872 142.136 467.2 142.207 467.564 142.35C467.627 142.128 467.809 142.018 468.11 142.018C468.276 142.018 468.411 142.065 468.514 142.16C468.625 142.247 468.676 142.393 468.668 142.599L468.549 147.608C468.534 148.423 468.3 149.037 467.849 149.448C467.398 149.86 466.804 150.065 466.069 150.065ZM466.08 146.849C466.516 146.849 466.856 146.694 467.101 146.386C467.347 146.069 467.469 145.582 467.469 144.926V143.489C467.358 143.426 467.224 143.375 467.066 143.335C466.915 143.296 466.769 143.276 466.626 143.276C466.302 143.276 466.001 143.363 465.724 143.537C465.455 143.703 465.238 143.937 465.071 144.237C464.913 144.538 464.834 144.874 464.834 145.246C464.834 145.729 464.953 146.117 465.19 146.409C465.435 146.702 465.732 146.849 466.08 146.849ZM471.183 141.65C471.032 141.65 470.898 141.59 470.779 141.471C470.668 141.353 470.617 141.218 470.625 141.068L470.637 140.629C470.645 140.478 470.704 140.348 470.815 140.237C470.926 140.126 471.056 140.071 471.206 140.071C471.357 140.071 471.487 140.13 471.598 140.249C471.717 140.368 471.772 140.498 471.764 140.641L471.752 141.092C471.745 141.25 471.685 141.384 471.574 141.495C471.472 141.598 471.341 141.65 471.183 141.65ZM471.123 148.071C470.965 148.071 470.827 148.016 470.708 147.905C470.597 147.786 470.542 147.648 470.542 147.49L470.601 142.765C470.601 142.607 470.656 142.473 470.767 142.362C470.886 142.243 471.024 142.184 471.183 142.184C471.349 142.184 471.487 142.243 471.598 142.362C471.709 142.473 471.764 142.607 471.764 142.765L471.705 147.49C471.705 147.648 471.646 147.786 471.527 147.905C471.416 148.016 471.282 148.071 471.123 148.071ZM473.998 148.071C473.847 148.071 473.713 148.016 473.594 147.905C473.483 147.794 473.428 147.668 473.428 147.525V142.706C473.428 142.548 473.487 142.413 473.606 142.302C473.725 142.192 473.863 142.136 474.022 142.136C474.172 142.136 474.299 142.192 474.401 142.302C474.512 142.413 474.568 142.548 474.568 142.706V143.608C474.789 143.133 475.07 142.773 475.41 142.528C475.751 142.275 476.123 142.148 476.526 142.148C476.969 142.148 477.321 142.251 477.583 142.457C477.844 142.662 478.034 143.003 478.152 143.478C478.271 143.944 478.33 144.593 478.33 145.424L478.319 147.501C478.319 147.652 478.267 147.786 478.164 147.905C478.061 148.016 477.931 148.071 477.773 148.071C477.622 148.071 477.488 148.016 477.369 147.905C477.258 147.786 477.203 147.656 477.203 147.513V145.543C477.203 144.926 477.175 144.451 477.12 144.119C477.064 143.786 476.981 143.561 476.87 143.442C476.76 143.315 476.609 143.252 476.419 143.252C476.182 143.252 475.945 143.355 475.707 143.561C475.47 143.758 475.248 144.043 475.042 144.415C474.86 144.74 474.734 145.056 474.663 145.365C474.591 145.673 474.556 146.045 474.556 146.481V147.478C474.556 147.652 474.504 147.794 474.401 147.905C474.306 148.016 474.172 148.071 473.998 148.071ZM481.903 150.065C481.444 150.065 480.977 150.01 480.502 149.899C480.376 149.868 480.269 149.8 480.182 149.697C480.103 149.595 480.063 149.476 480.063 149.341C480.063 149.183 480.118 149.049 480.229 148.938C480.348 148.827 480.482 148.772 480.633 148.772C480.728 148.772 480.854 148.791 481.013 148.831C481.044 148.839 481.143 148.855 481.309 148.878C481.476 148.91 481.669 148.926 481.891 148.926C482.706 148.926 483.145 148.518 483.209 147.703L483.232 147.418C483.098 147.6 482.92 147.739 482.698 147.834C482.477 147.921 482.239 147.964 481.986 147.964C481.567 147.964 481.171 147.862 480.799 147.656C480.435 147.442 480.142 147.137 479.921 146.742C479.699 146.338 479.588 145.867 479.588 145.329C479.588 144.767 479.711 144.241 479.956 143.751C480.209 143.26 480.55 142.868 480.977 142.575C481.412 142.283 481.891 142.136 482.413 142.136C482.706 142.136 483.034 142.207 483.399 142.35C483.462 142.128 483.644 142.018 483.945 142.018C484.111 142.018 484.245 142.065 484.348 142.16C484.459 142.247 484.51 142.393 484.502 142.599L484.384 147.608C484.368 148.423 484.134 149.037 483.683 149.448C483.232 149.86 482.639 150.065 481.903 150.065ZM481.915 146.849C482.35 146.849 482.69 146.694 482.936 146.386C483.181 146.069 483.304 145.582 483.304 144.926V143.489C483.193 143.426 483.058 143.375 482.9 143.335C482.75 143.296 482.603 143.276 482.461 143.276C482.136 143.276 481.836 143.363 481.559 143.537C481.29 143.703 481.072 143.937 480.906 144.237C480.748 144.538 480.668 144.874 480.668 145.246C480.668 145.729 480.787 146.117 481.025 146.409C481.27 146.702 481.567 146.849 481.915 146.849Z" fill="white"/>
<path d="M429.021 164.089C428.832 164.089 428.664 164.02 428.515 163.881C428.377 163.742 428.307 163.584 428.307 163.406V158.027H427.624C427.446 158.027 427.287 157.958 427.149 157.819C427.01 157.681 426.941 157.522 426.941 157.344C426.941 157.156 427.01 156.992 427.149 156.854C427.287 156.715 427.441 156.646 427.609 156.646H428.322C428.362 155.705 428.614 155.046 429.08 154.67C429.555 154.284 430.313 154.09 431.353 154.09C431.63 154.09 431.843 154.14 431.992 154.239C432.141 154.338 432.215 154.516 432.215 154.774C432.215 154.972 432.15 155.14 432.022 155.279C431.903 155.408 431.734 155.472 431.517 155.472C431.071 155.472 430.729 155.502 430.491 155.561C430.264 155.611 430.09 155.72 429.971 155.888C429.853 156.056 429.778 156.309 429.749 156.646L431.264 156.661C431.422 156.661 431.571 156.73 431.71 156.869C431.858 157.007 431.933 157.166 431.933 157.344C431.933 157.522 431.863 157.681 431.725 157.819C431.596 157.958 431.442 158.027 431.264 158.027H429.734V163.406C429.734 163.584 429.659 163.742 429.511 163.881C429.372 164.02 429.209 164.089 429.021 164.089ZM434.67 164.071C434.219 164.071 433.803 163.949 433.423 163.703C433.051 163.458 432.759 163.126 432.545 162.706C432.331 162.279 432.224 161.816 432.224 161.317C432.224 160.756 432.351 160.233 432.604 159.751C432.858 159.26 433.198 158.872 433.625 158.587C434.052 158.294 434.511 158.148 435.002 158.148C435.453 158.148 435.865 158.275 436.237 158.528C436.616 158.781 436.913 159.117 437.127 159.537C437.348 159.956 437.459 160.407 437.459 160.89C437.459 161.46 437.333 161.99 437.079 162.481C436.826 162.963 436.482 163.351 436.047 163.644C435.619 163.929 435.16 164.071 434.67 164.071ZM434.67 163.003C434.947 163.003 435.212 162.908 435.465 162.718C435.718 162.528 435.92 162.275 436.07 161.958C436.221 161.642 436.296 161.306 436.296 160.949C436.296 160.649 436.237 160.368 436.118 160.107C435.999 159.838 435.837 159.624 435.631 159.466C435.425 159.299 435.2 159.216 434.955 159.216C434.678 159.216 434.416 159.315 434.171 159.513C433.934 159.703 433.744 159.96 433.601 160.285C433.459 160.601 433.388 160.941 433.388 161.306C433.388 161.662 433.447 161.966 433.566 162.219C433.692 162.473 433.851 162.667 434.041 162.801C434.238 162.936 434.448 163.003 434.67 163.003ZM439.318 164.071C439.168 164.071 439.033 164.016 438.914 163.905C438.796 163.794 438.736 163.668 438.736 163.525V158.718C438.736 158.56 438.792 158.425 438.903 158.314C439.021 158.203 439.16 158.148 439.318 158.148C439.476 158.148 439.611 158.203 439.722 158.314C439.84 158.425 439.9 158.56 439.9 158.718V159.074C440.287 158.441 440.818 158.124 441.49 158.124C441.894 158.124 442.183 158.235 442.357 158.457C442.539 158.678 442.63 158.943 442.63 159.252V159.608C442.63 159.766 442.574 159.901 442.464 160.012C442.361 160.115 442.23 160.166 442.072 160.166C441.882 160.166 441.739 160.111 441.645 160C441.557 159.889 441.514 159.754 441.514 159.596V159.442C441.514 159.315 441.427 159.252 441.253 159.252C441.11 159.252 440.944 159.323 440.754 159.466C440.572 159.608 440.422 159.758 440.303 159.917C440.137 160.122 440.026 160.328 439.971 160.534C439.923 160.74 439.9 160.985 439.9 161.27L439.888 163.525C439.888 163.668 439.828 163.794 439.71 163.905C439.591 164.016 439.46 164.071 439.318 164.071ZM451.007 164.083C450.295 164.083 449.662 163.897 449.108 163.525C448.562 163.153 448.139 162.667 447.838 162.065C447.545 161.456 447.399 160.811 447.399 160.13C447.399 159.458 447.557 158.801 447.873 158.16C448.19 157.511 448.633 156.985 449.203 156.581C449.781 156.17 450.441 155.964 451.185 155.964C451.882 155.964 452.467 156.114 452.942 156.415C453.425 156.708 453.785 157.044 454.022 157.424C454.26 157.804 454.378 158.105 454.378 158.326C454.378 158.492 454.327 158.627 454.224 158.73C454.121 158.825 453.983 158.872 453.808 158.872C453.524 158.872 453.334 158.746 453.239 158.492C453.096 158.112 452.859 157.796 452.527 157.543C452.194 157.282 451.747 157.151 451.185 157.151C450.6 157.151 450.109 157.325 449.713 157.673C449.326 158.014 449.041 158.417 448.859 158.884C448.677 159.351 448.586 159.766 448.586 160.13C448.586 160.558 448.677 160.985 448.859 161.412C449.041 161.84 449.314 162.196 449.678 162.481C450.05 162.758 450.493 162.896 451.007 162.896C451.514 162.896 451.957 162.769 452.337 162.516C452.716 162.255 452.997 161.891 453.179 161.424H453.001C452.732 161.44 452.436 161.488 452.111 161.567C451.977 161.606 451.87 161.626 451.791 161.626C451.632 161.626 451.494 161.575 451.375 161.472C451.264 161.361 451.209 161.215 451.209 161.032C451.209 160.763 451.351 160.57 451.636 160.451C451.771 160.395 451.988 160.348 452.289 160.308C452.598 160.269 452.91 160.249 453.227 160.249C453.678 160.249 454.117 160.316 454.544 160.451C454.798 160.53 454.924 160.716 454.924 161.009C454.924 161.143 454.885 161.262 454.806 161.365C454.726 161.46 454.628 161.527 454.509 161.567C454.445 161.582 454.398 161.59 454.366 161.59C454.145 162.326 453.737 162.928 453.144 163.395C452.558 163.854 451.846 164.083 451.007 164.083ZM458.201 164.071C457.75 164.071 457.335 163.949 456.955 163.703C456.583 163.458 456.29 163.126 456.076 162.706C455.863 162.279 455.756 161.816 455.756 161.317C455.756 160.756 455.882 160.233 456.136 159.751C456.389 159.26 456.729 158.872 457.156 158.587C457.584 158.294 458.043 158.148 458.533 158.148C458.984 158.148 459.396 158.275 459.768 158.528C460.148 158.781 460.444 159.117 460.658 159.537C460.88 159.956 460.99 160.407 460.99 160.89C460.99 161.46 460.864 161.99 460.611 162.481C460.357 162.963 460.013 163.351 459.578 163.644C459.151 163.929 458.692 164.071 458.201 164.071ZM458.201 163.003C458.478 163.003 458.743 162.908 458.996 162.718C459.25 162.528 459.451 162.275 459.602 161.958C459.752 161.642 459.827 161.306 459.827 160.949C459.827 160.649 459.768 160.368 459.649 160.107C459.53 159.838 459.368 159.624 459.162 159.466C458.957 159.299 458.731 159.216 458.486 159.216C458.209 159.216 457.948 159.315 457.702 159.513C457.465 159.703 457.275 159.96 457.133 160.285C456.99 160.601 456.919 160.941 456.919 161.306C456.919 161.662 456.978 161.966 457.097 162.219C457.224 162.473 457.382 162.667 457.572 162.801C457.77 162.936 457.979 163.003 458.201 163.003ZM464.333 164.071C463.882 164.071 463.467 163.949 463.087 163.703C462.715 163.458 462.422 163.126 462.208 162.706C461.995 162.279 461.888 161.816 461.888 161.317C461.888 160.756 462.014 160.233 462.268 159.751C462.521 159.26 462.861 158.872 463.289 158.587C463.716 158.294 464.175 158.148 464.665 158.148C465.117 158.148 465.528 158.275 465.9 158.528C466.28 158.781 466.577 159.117 466.79 159.537C467.012 159.956 467.123 160.407 467.123 160.89C467.123 161.46 466.996 161.99 466.743 162.481C466.489 162.963 466.145 163.351 465.71 163.644C465.283 163.929 464.824 164.071 464.333 164.071ZM464.333 163.003C464.61 163.003 464.875 162.908 465.128 162.718C465.382 162.528 465.583 162.275 465.734 161.958C465.884 161.642 465.959 161.306 465.959 160.949C465.959 160.649 465.9 160.368 465.781 160.107C465.663 159.838 465.5 159.624 465.295 159.466C465.089 159.299 464.863 159.216 464.618 159.216C464.341 159.216 464.08 159.315 463.835 159.513C463.597 159.703 463.407 159.96 463.265 160.285C463.122 160.601 463.051 160.941 463.051 161.306C463.051 161.662 463.11 161.966 463.229 162.219C463.356 162.473 463.514 162.667 463.704 162.801C463.902 162.936 464.112 163.003 464.333 163.003ZM470.145 164.059C469.741 164.059 469.377 163.956 469.053 163.751C468.736 163.537 468.483 163.228 468.293 162.825C468.111 162.421 468.02 161.939 468.02 161.377C468.02 160.696 468.127 160.115 468.34 159.632C468.554 159.149 468.851 158.785 469.231 158.54C469.611 158.287 470.05 158.16 470.548 158.16C470.944 158.16 471.367 158.251 471.818 158.433L471.878 156.593C471.886 156.435 471.945 156.3 472.056 156.19C472.174 156.071 472.313 156.011 472.471 156.011C472.622 156.011 472.752 156.071 472.863 156.19C472.982 156.3 473.037 156.443 473.029 156.617L472.863 163.525C472.855 163.683 472.796 163.814 472.685 163.917C472.574 164.02 472.44 164.071 472.281 164.071C472.131 164.071 472 164.028 471.89 163.941C471.787 163.854 471.735 163.739 471.735 163.596V163.383C471.529 163.573 471.288 163.735 471.011 163.869C470.734 163.996 470.445 164.059 470.145 164.059ZM470.24 162.991C470.509 162.991 470.758 162.936 470.987 162.825C471.225 162.706 471.411 162.564 471.545 162.398C471.68 162.231 471.751 162.077 471.759 161.935L471.806 159.596C471.664 159.501 471.482 159.418 471.26 159.347C471.039 159.268 470.825 159.228 470.619 159.228C470.137 159.228 469.773 159.41 469.527 159.774C469.282 160.13 469.159 160.653 469.159 161.341C469.159 161.911 469.254 162.33 469.444 162.599C469.642 162.86 469.907 162.991 470.24 162.991Z" fill="white"/>
<path d="M315.115 200.221C324.694 200.221 332.46 192.454 332.46 182.871C332.46 173.289 324.694 165.521 315.115 165.521C305.536 165.521 297.77 173.289 297.77 182.871C297.77 192.454 305.536 200.221 315.115 200.221Z" fill="#FEEC97" stroke="white" stroke-width="3" stroke-miterlimit="10"/>
<path d="M91.9973 114.386C101.577 114.386 109.342 106.619 109.342 97.0365C109.342 87.4544 101.577 79.6865 91.9973 79.6865C82.4181 79.6865 74.6526 87.4544 74.6526 97.0365C74.6526 106.619 82.4181 114.386 91.9973 114.386Z" fill="#FEEC97" stroke="white" stroke-width="3" stroke-miterlimit="10"/>
</svg>
