<svg width="458" height="200" viewBox="0 0 458 200" fill="none" xmlns="http://www.w3.org/2000/svg">
<path d="M0.394043 51.2153C33.4005 52.2044 81.6994 59.1056 120.392 92.4779C160.228 126.835 159.608 163.135 194.258 174.265C234.265 187.118 259.032 146.426 315.148 140.672C345.834 137.525 392.986 144.101 456.007 197.505" stroke="white" stroke-width="5" stroke-miterlimit="10" stroke-dasharray="10 10"/>
<path d="M68.25 16.108C68.01 16.108 67.8 16.024 67.62 15.856C67.44 15.688 67.35 15.478 67.35 15.226V4.948C67.35 4.612 67.392 4.372 67.476 4.228C67.56 4.072 67.716 3.97 67.944 3.922C68.184 3.862 68.568 3.832 69.096 3.832C71.328 3.832 72.996 4.162 74.1 4.822C75.216 5.482 75.774 6.436 75.774 7.684C75.774 8.692 75.42 9.52 74.712 10.168C74.004 10.816 73.146 11.29 72.138 11.59C71.13 11.89 70.128 12.058 69.132 12.094V15.226C69.132 15.478 69.048 15.688 68.88 15.856C68.712 16.024 68.502 16.108 68.25 16.108ZM69.132 10.33C70.308 10.258 71.412 10.024 72.444 9.628C73.476 9.22 73.992 8.572 73.992 7.684C73.992 7.024 73.59 6.514 72.786 6.154C71.994 5.794 70.86 5.614 69.384 5.614H69.132V10.33ZM78.0912 16.108C77.8632 16.108 77.6592 16.024 77.4792 15.856C77.2992 15.688 77.2092 15.496 77.2092 15.28V7.99C77.2092 7.75 77.2932 7.546 77.4612 7.378C77.6412 7.21 77.8512 7.126 78.0912 7.126C78.3312 7.126 78.5352 7.21 78.7032 7.378C78.8832 7.546 78.9732 7.75 78.9732 7.99V8.53C79.5612 7.57 80.3652 7.09 81.3852 7.09C81.9972 7.09 82.4352 7.258 82.6992 7.594C82.9752 7.93 83.1132 8.332 83.1132 8.8V9.34C83.1132 9.58 83.0292 9.784 82.8612 9.952C82.7052 10.108 82.5072 10.186 82.2672 10.186C81.9792 10.186 81.7632 10.102 81.6192 9.934C81.4872 9.766 81.4212 9.562 81.4212 9.322V9.088C81.4212 8.896 81.2892 8.8 81.0252 8.8C80.8092 8.8 80.5572 8.908 80.2692 9.124C79.9932 9.34 79.7652 9.568 79.5852 9.808C79.3332 10.12 79.1652 10.432 79.0812 10.744C79.0092 11.056 78.9732 11.428 78.9732 11.86L78.9552 15.28C78.9552 15.496 78.8652 15.688 78.6852 15.856C78.5052 16.024 78.3072 16.108 78.0912 16.108ZM87.8121 16.108C86.9601 16.108 86.1921 15.928 85.5081 15.568C84.8361 15.196 84.3081 14.674 83.9241 14.002C83.5401 13.318 83.3481 12.514 83.3481 11.59C83.3481 10.834 83.5161 10.114 83.8521 9.43C84.2001 8.734 84.6801 8.176 85.2921 7.756C85.9161 7.336 86.6241 7.126 87.4161 7.126C88.1481 7.126 88.7721 7.276 89.2881 7.576C89.8161 7.864 90.2121 8.212 90.4761 8.62C90.7401 9.028 90.8721 9.394 90.8721 9.718C90.8721 9.874 90.8241 10.024 90.7281 10.168C90.6321 10.312 90.4941 10.438 90.3141 10.546L85.4901 13.318C85.6581 13.69 85.9521 13.978 86.3721 14.182C86.8041 14.386 87.2841 14.488 87.8121 14.488C88.5081 14.488 89.1021 14.23 89.5941 13.714C89.7861 13.522 89.9841 13.426 90.1881 13.426C90.4281 13.426 90.6261 13.504 90.7821 13.66C90.9501 13.816 91.0341 14.008 91.0341 14.236C91.0341 14.428 90.9621 14.608 90.8181 14.776C90.4821 15.148 90.0321 15.466 89.4681 15.73C88.9161 15.982 88.3641 16.108 87.8121 16.108ZM89.0901 9.502C88.9461 9.25 88.7421 9.064 88.4781 8.944C88.2141 8.812 87.9021 8.746 87.5421 8.746C86.8581 8.746 86.2821 8.98 85.8141 9.448C85.3581 9.916 85.0941 10.492 85.0221 11.176C84.9981 11.356 84.9861 11.572 84.9861 11.824L89.0901 9.502ZM95.3579 16.108C94.6619 16.108 94.0559 15.958 93.5399 15.658C93.0359 15.346 92.6459 14.992 92.3699 14.596C92.1059 14.188 91.9739 13.858 91.9739 13.606C91.9739 13.366 92.0579 13.168 92.2259 13.012C92.3939 12.844 92.5919 12.76 92.8199 12.76C93.0239 12.76 93.1919 12.814 93.3239 12.922C93.4679 13.03 93.5699 13.174 93.6299 13.354C93.7619 13.726 93.9779 14.02 94.2779 14.236C94.5779 14.452 94.9499 14.56 95.3939 14.56C95.8619 14.56 96.2279 14.446 96.4919 14.218C96.7559 13.99 96.8879 13.732 96.8879 13.444C96.8879 13.168 96.7739 12.952 96.5459 12.796C96.3299 12.628 95.8859 12.442 95.2139 12.238C94.2299 11.938 93.5219 11.584 93.0899 11.176C92.6579 10.756 92.4419 10.21 92.4419 9.538C92.4419 8.83 92.7239 8.254 93.2879 7.81C93.8519 7.354 94.6379 7.126 95.6459 7.126C96.5819 7.126 97.3079 7.33 97.8239 7.738C98.3519 8.146 98.6159 8.692 98.6159 9.376C98.6159 9.748 98.5379 10.036 98.3819 10.24C98.2259 10.432 98.0039 10.528 97.7159 10.528C97.4639 10.528 97.2599 10.45 97.1039 10.294C96.9479 10.138 96.8699 9.97 96.8699 9.79C96.8699 9.73 96.8819 9.658 96.9059 9.574C96.9419 9.478 96.9599 9.406 96.9599 9.358C96.9599 9.142 96.8519 8.968 96.6359 8.836C96.4319 8.704 96.1139 8.638 95.6819 8.638C95.1419 8.638 94.7399 8.716 94.4759 8.872C94.2239 9.028 94.0979 9.238 94.0979 9.502C94.0979 9.778 94.2299 10.006 94.4939 10.186C94.7579 10.354 95.2319 10.546 95.9159 10.762C96.9119 11.074 97.6019 11.416 97.9859 11.788C98.3819 12.16 98.5799 12.682 98.5799 13.354C98.5799 13.81 98.4419 14.254 98.1659 14.686C97.9019 15.106 97.5239 15.448 97.0319 15.712C96.5519 15.976 95.9939 16.108 95.3579 16.108ZM106.172 16.288C105.932 16.288 105.734 16.222 105.578 16.09C105.434 15.958 105.362 15.784 105.362 15.568V15.316C104.87 15.844 104.186 16.108 103.31 16.108C102.65 16.108 102.056 15.946 101.528 15.622C101 15.298 100.586 14.842 100.286 14.254C99.9863 13.654 99.8363 12.976 99.8363 12.22C99.8363 11.38 100.016 10.57 100.376 9.79C100.736 8.998 101.24 8.356 101.888 7.864C102.548 7.372 103.304 7.126 104.156 7.126C104.708 7.126 105.206 7.204 105.65 7.36C106.094 7.504 106.556 7.684 107.036 7.9V15.388C107.036 15.628 106.952 15.838 106.784 16.018C106.616 16.198 106.412 16.288 106.172 16.288ZM103.436 14.434C103.784 14.434 104.12 14.362 104.444 14.218C104.78 14.074 105.056 13.9 105.272 13.696L105.326 8.998C104.978 8.854 104.6 8.782 104.192 8.782C103.676 8.782 103.22 8.944 102.824 9.268C102.428 9.58 102.122 10 101.906 10.528C101.69 11.044 101.582 11.596 101.582 12.184C101.582 12.916 101.744 13.474 102.068 13.858C102.392 14.242 102.848 14.434 103.436 14.434ZM110.417 16.108C110.189 16.108 109.985 16.03 109.805 15.874C109.637 15.706 109.553 15.514 109.553 15.298V4.858C109.553 4.618 109.631 4.42 109.787 4.264C109.955 4.096 110.165 4.012 110.417 4.012C110.645 4.012 110.843 4.096 111.011 4.264C111.191 4.432 111.281 4.63 111.281 4.858V15.298C111.281 15.514 111.191 15.706 111.011 15.874C110.831 16.03 110.633 16.108 110.417 16.108ZM117.695 16.108C116.843 16.108 116.075 15.928 115.391 15.568C114.719 15.196 114.191 14.674 113.807 14.002C113.423 13.318 113.231 12.514 113.231 11.59C113.231 10.834 113.399 10.114 113.735 9.43C114.083 8.734 114.563 8.176 115.175 7.756C115.799 7.336 116.507 7.126 117.299 7.126C118.031 7.126 118.655 7.276 119.171 7.576C119.699 7.864 120.095 8.212 120.359 8.62C120.623 9.028 120.755 9.394 120.755 9.718C120.755 9.874 120.707 10.024 120.611 10.168C120.515 10.312 120.377 10.438 120.197 10.546L115.373 13.318C115.541 13.69 115.835 13.978 116.255 14.182C116.687 14.386 117.167 14.488 117.695 14.488C118.391 14.488 118.985 14.23 119.477 13.714C119.669 13.522 119.867 13.426 120.071 13.426C120.311 13.426 120.509 13.504 120.665 13.66C120.833 13.816 120.917 14.008 120.917 14.236C120.917 14.428 120.845 14.608 120.701 14.776C120.365 15.148 119.915 15.466 119.351 15.73C118.799 15.982 118.247 16.108 117.695 16.108ZM118.973 9.502C118.829 9.25 118.625 9.064 118.361 8.944C118.097 8.812 117.785 8.746 117.425 8.746C116.741 8.746 116.165 8.98 115.697 9.448C115.241 9.916 114.977 10.492 114.905 11.176C114.881 11.356 114.869 11.572 114.869 11.824L118.973 9.502ZM132.395 16.18C131.783 16.18 131.189 16.036 130.613 15.748C130.049 15.46 129.581 15.058 129.209 14.542C128.849 14.014 128.669 13.414 128.669 12.742C128.669 11.89 128.885 11.194 129.317 10.654C129.749 10.114 130.337 9.628 131.081 9.196C130.421 8.344 130.091 7.522 130.091 6.73C130.091 6.262 130.223 5.818 130.487 5.398C130.751 4.978 131.099 4.642 131.531 4.39C131.963 4.138 132.419 4.012 132.899 4.012C133.379 4.012 133.835 4.138 134.267 4.39C134.699 4.642 135.047 4.978 135.311 5.398C135.575 5.806 135.707 6.238 135.707 6.694C135.707 7.354 135.551 7.918 135.239 8.386C134.927 8.842 134.441 9.268 133.781 9.664L135.365 11.59L135.509 11.14C135.617 10.816 135.725 10.6 135.833 10.492C135.941 10.372 136.127 10.312 136.391 10.312C136.631 10.312 136.829 10.396 136.985 10.564C137.153 10.72 137.237 10.918 137.237 11.158C137.237 11.362 137.171 11.644 137.039 12.004C136.919 12.364 136.775 12.712 136.607 13.048L137.993 14.74C138.053 14.8 138.101 14.884 138.137 14.992C138.173 15.088 138.191 15.178 138.191 15.262C138.191 15.49 138.107 15.688 137.939 15.856C137.783 16.024 137.585 16.108 137.345 16.108C137.081 16.108 136.865 16.006 136.697 15.802L135.653 14.542C135.233 15.046 134.747 15.448 134.195 15.748C133.643 16.036 133.043 16.18 132.395 16.18ZM132.629 8.368C133.241 8.044 133.625 7.762 133.781 7.522C133.949 7.27 134.033 7.006 134.033 6.73C134.033 6.466 133.913 6.232 133.673 6.028C133.445 5.812 133.187 5.704 132.899 5.704C132.635 5.704 132.383 5.806 132.143 6.01C131.903 6.214 131.783 6.454 131.783 6.73C131.783 6.97 131.867 7.24 132.035 7.54C132.203 7.828 132.401 8.104 132.629 8.368ZM132.395 14.47C132.815 14.47 133.205 14.356 133.565 14.128C133.937 13.9 134.261 13.594 134.537 13.21L132.269 10.492C131.645 10.84 131.171 11.182 130.847 11.518C130.523 11.842 130.361 12.25 130.361 12.742C130.361 13.114 130.469 13.432 130.685 13.696C130.901 13.948 131.165 14.14 131.477 14.272C131.789 14.404 132.095 14.47 132.395 14.47ZM150.187 16.108C149.947 16.108 149.737 16.024 149.557 15.856C149.377 15.676 149.287 15.466 149.287 15.226V5.74H146.461C146.221 5.74 146.011 5.65 145.831 5.47C145.663 5.29 145.579 5.08 145.579 4.84C145.579 4.588 145.663 4.378 145.831 4.21C146.011 4.042 146.221 3.958 146.461 3.958H153.913C154.165 3.958 154.375 4.042 154.543 4.21C154.711 4.378 154.795 4.588 154.795 4.84C154.795 5.092 154.711 5.308 154.543 5.488C154.375 5.656 154.165 5.74 153.913 5.74H151.069V15.226C151.069 15.466 150.979 15.676 150.799 15.856C150.631 16.024 150.427 16.108 150.187 16.108ZM157.861 16.108C157.177 16.108 156.547 15.922 155.971 15.55C155.407 15.178 154.963 14.674 154.639 14.038C154.315 13.39 154.153 12.688 154.153 11.932C154.153 11.08 154.345 10.288 154.729 9.556C155.113 8.812 155.629 8.224 156.277 7.792C156.925 7.348 157.621 7.126 158.365 7.126C159.049 7.126 159.673 7.318 160.237 7.702C160.813 8.086 161.263 8.596 161.587 9.232C161.923 9.868 162.091 10.552 162.091 11.284C162.091 12.148 161.899 12.952 161.515 13.696C161.131 14.428 160.609 15.016 159.949 15.46C159.301 15.892 158.605 16.108 157.861 16.108ZM157.861 14.488C158.281 14.488 158.683 14.344 159.067 14.056C159.451 13.768 159.757 13.384 159.985 12.904C160.213 12.424 160.327 11.914 160.327 11.374C160.327 10.918 160.237 10.492 160.057 10.096C159.877 9.688 159.631 9.364 159.319 9.124C159.007 8.872 158.665 8.746 158.293 8.746C157.873 8.746 157.477 8.896 157.105 9.196C156.745 9.484 156.457 9.874 156.241 10.366C156.025 10.846 155.917 11.362 155.917 11.914C155.917 12.454 156.007 12.916 156.187 13.3C156.379 13.684 156.619 13.978 156.907 14.182C157.207 14.386 157.525 14.488 157.861 14.488ZM164.928 16.108C164.712 16.108 164.514 16.024 164.334 15.856C164.154 15.676 164.064 15.472 164.064 15.244L164.028 4.858C164.028 4.63 164.112 4.432 164.28 4.264C164.46 4.096 164.67 4.012 164.91 4.012C165.162 4.012 165.366 4.102 165.522 4.282C165.69 4.45 165.774 4.654 165.774 4.894L165.792 10.726C166.296 10.294 166.884 9.736 167.556 9.052C168.228 8.368 168.798 7.744 169.266 7.18C169.458 6.94 169.692 6.82 169.968 6.82C170.208 6.82 170.406 6.898 170.562 7.054C170.73 7.21 170.814 7.408 170.814 7.648C170.814 7.852 170.754 8.026 170.634 8.17C170.322 8.59 169.926 9.052 169.446 9.556C168.978 10.06 168.546 10.498 168.15 10.87L171.12 14.596C171.276 14.776 171.354 14.962 171.354 15.154C171.354 15.406 171.27 15.622 171.102 15.802C170.946 15.97 170.742 16.054 170.49 16.054C170.202 16.054 169.974 15.952 169.806 15.748C168.87 14.488 167.982 13.336 167.142 12.292L166.854 11.914C166.602 12.106 166.254 12.346 165.81 12.634V15.244C165.81 15.472 165.726 15.676 165.558 15.856C165.39 16.024 165.18 16.108 164.928 16.108ZM176.423 16.108C175.571 16.108 174.803 15.928 174.119 15.568C173.447 15.196 172.919 14.674 172.535 14.002C172.151 13.318 171.959 12.514 171.959 11.59C171.959 10.834 172.127 10.114 172.463 9.43C172.811 8.734 173.291 8.176 173.903 7.756C174.527 7.336 175.235 7.126 176.027 7.126C176.759 7.126 177.383 7.276 177.899 7.576C178.427 7.864 178.823 8.212 179.087 8.62C179.351 9.028 179.483 9.394 179.483 9.718C179.483 9.874 179.435 10.024 179.339 10.168C179.243 10.312 179.105 10.438 178.925 10.546L174.101 13.318C174.269 13.69 174.563 13.978 174.983 14.182C175.415 14.386 175.895 14.488 176.423 14.488C177.119 14.488 177.713 14.23 178.205 13.714C178.397 13.522 178.595 13.426 178.799 13.426C179.039 13.426 179.237 13.504 179.393 13.66C179.561 13.816 179.645 14.008 179.645 14.236C179.645 14.428 179.573 14.608 179.429 14.776C179.093 15.148 178.643 15.466 178.079 15.73C177.527 15.982 176.975 16.108 176.423 16.108ZM177.701 9.502C177.557 9.25 177.353 9.064 177.089 8.944C176.825 8.812 176.513 8.746 176.153 8.746C175.469 8.746 174.893 8.98 174.425 9.448C173.969 9.916 173.705 10.492 173.633 11.176C173.609 11.356 173.597 11.572 173.597 11.824L177.701 9.502ZM182.241 16.108C182.013 16.108 181.809 16.024 181.629 15.856C181.461 15.688 181.377 15.496 181.377 15.28V7.972C181.377 7.732 181.467 7.528 181.647 7.36C181.827 7.192 182.037 7.108 182.277 7.108C182.505 7.108 182.697 7.192 182.853 7.36C183.021 7.528 183.105 7.732 183.105 7.972V9.34C183.441 8.62 183.867 8.074 184.383 7.702C184.899 7.318 185.463 7.126 186.075 7.126C186.747 7.126 187.281 7.282 187.677 7.594C188.073 7.906 188.361 8.422 188.541 9.142C188.721 9.85 188.811 10.834 188.811 12.094L188.793 15.244C188.793 15.472 188.715 15.676 188.559 15.856C188.403 16.024 188.205 16.108 187.965 16.108C187.737 16.108 187.533 16.024 187.353 15.856C187.185 15.676 187.101 15.478 187.101 15.262V12.274C187.101 11.338 187.059 10.618 186.975 10.114C186.891 9.61 186.765 9.268 186.597 9.088C186.429 8.896 186.201 8.8 185.913 8.8C185.553 8.8 185.193 8.956 184.833 9.268C184.473 9.568 184.137 10 183.825 10.564C183.549 11.056 183.357 11.536 183.249 12.004C183.141 12.472 183.087 13.036 183.087 13.696V15.208C183.087 15.472 183.009 15.688 182.853 15.856C182.709 16.024 182.505 16.108 182.241 16.108Z" fill="white"/>
<path d="M108.232 35.09C108.004 35.102 107.8 35.018 107.62 34.838C107.44 34.658 107.35 34.454 107.35 34.226V23.732C107.35 23.492 107.434 23.288 107.602 23.12C107.782 22.94 107.998 22.85 108.25 22.85C108.49 22.85 108.694 22.94 108.862 23.12C109.042 23.288 109.132 23.492 109.132 23.732V33.272L114.028 32.948C114.28 32.936 114.49 33.014 114.658 33.182C114.826 33.338 114.91 33.548 114.91 33.812C114.91 34.028 114.826 34.232 114.658 34.424C114.502 34.604 114.316 34.7 114.1 34.712L108.232 35.09ZM122.249 35.288C122.009 35.288 121.811 35.222 121.655 35.09C121.511 34.958 121.439 34.784 121.439 34.568V34.316C120.947 34.844 120.263 35.108 119.387 35.108C118.727 35.108 118.133 34.946 117.605 34.622C117.077 34.298 116.663 33.842 116.363 33.254C116.063 32.654 115.913 31.976 115.913 31.22C115.913 30.38 116.093 29.57 116.453 28.79C116.813 27.998 117.317 27.356 117.965 26.864C118.625 26.372 119.381 26.126 120.233 26.126C120.785 26.126 121.283 26.204 121.727 26.36C122.171 26.504 122.633 26.684 123.113 26.9V34.388C123.113 34.628 123.029 34.838 122.861 35.018C122.693 35.198 122.489 35.288 122.249 35.288ZM119.513 33.434C119.861 33.434 120.197 33.362 120.521 33.218C120.857 33.074 121.133 32.9 121.349 32.696L121.403 27.998C121.055 27.854 120.677 27.782 120.269 27.782C119.753 27.782 119.297 27.944 118.901 28.268C118.505 28.58 118.199 29 117.983 29.528C117.767 30.044 117.659 30.596 117.659 31.184C117.659 31.916 117.821 32.474 118.145 32.858C118.469 33.242 118.925 33.434 119.513 33.434ZM128.095 35.162C127.447 35.162 126.931 35.024 126.547 34.748C126.163 34.46 125.875 33.944 125.683 33.2C125.491 32.456 125.395 31.388 125.395 29.996C125.395 29.528 125.413 29.012 125.449 28.448C125.485 27.884 125.533 27.41 125.593 27.026C125.641 26.726 125.731 26.498 125.863 26.342C125.995 26.186 126.187 26.108 126.439 26.108C126.679 26.108 126.883 26.18 127.051 26.324C127.219 26.468 127.303 26.678 127.303 26.954L127.267 27.458C127.147 28.478 127.087 29.456 127.087 30.392C127.087 31.616 127.189 32.45 127.393 32.894C127.609 33.326 127.903 33.542 128.275 33.542C128.707 33.542 129.151 33.428 129.607 33.2C130.063 32.96 130.387 32.732 130.579 32.516C130.651 32.444 130.687 32.294 130.687 32.066L130.723 26.936C130.723 26.696 130.807 26.498 130.975 26.342C131.155 26.186 131.353 26.108 131.569 26.108C131.797 26.108 131.995 26.186 132.163 26.342C132.343 26.498 132.433 26.696 132.433 26.936V34.244C132.433 34.472 132.343 34.676 132.163 34.856C131.995 35.024 131.797 35.108 131.569 35.108C131.329 35.108 131.113 35.036 130.921 34.892C130.741 34.736 130.651 34.544 130.651 34.316V34.118C130.195 34.442 129.769 34.7 129.373 34.892C128.989 35.072 128.563 35.162 128.095 35.162ZM135.81 35.108C135.582 35.108 135.378 35.024 135.198 34.856C135.03 34.688 134.946 34.496 134.946 34.28V26.972C134.946 26.732 135.036 26.528 135.216 26.36C135.396 26.192 135.606 26.108 135.846 26.108C136.074 26.108 136.266 26.192 136.422 26.36C136.59 26.528 136.674 26.732 136.674 26.972V28.34C137.01 27.62 137.436 27.074 137.952 26.702C138.468 26.318 139.032 26.126 139.644 26.126C140.316 26.126 140.85 26.282 141.246 26.594C141.642 26.906 141.93 27.422 142.11 28.142C142.29 28.85 142.38 29.834 142.38 31.094L142.362 34.244C142.362 34.472 142.284 34.676 142.128 34.856C141.972 35.024 141.774 35.108 141.534 35.108C141.306 35.108 141.102 35.024 140.922 34.856C140.754 34.676 140.67 34.478 140.67 34.262V31.274C140.67 30.338 140.628 29.618 140.544 29.114C140.46 28.61 140.334 28.268 140.166 28.088C139.998 27.896 139.77 27.8 139.482 27.8C139.122 27.8 138.762 27.956 138.402 28.268C138.042 28.568 137.706 29 137.394 29.564C137.118 30.056 136.926 30.536 136.818 31.004C136.71 31.472 136.656 32.036 136.656 32.696V34.208C136.656 34.472 136.578 34.688 136.422 34.856C136.278 35.024 136.074 35.108 135.81 35.108ZM148.067 35.108C147.347 35.108 146.687 34.934 146.087 34.586C145.487 34.238 145.013 33.764 144.665 33.164C144.317 32.552 144.143 31.886 144.143 31.166C144.143 30.35 144.335 29.552 144.719 28.772C145.103 27.992 145.607 27.356 146.231 26.864C146.855 26.372 147.515 26.126 148.211 26.126C148.847 26.126 149.357 26.228 149.741 26.432C150.137 26.624 150.521 26.936 150.893 27.368C151.073 27.56 151.163 27.77 151.163 27.998C151.163 28.226 151.079 28.424 150.911 28.592C150.743 28.748 150.539 28.826 150.299 28.826C150.143 28.826 150.017 28.802 149.921 28.754C149.837 28.706 149.735 28.61 149.615 28.466C149.411 28.238 149.207 28.064 149.003 27.944C148.811 27.824 148.553 27.764 148.229 27.764C147.857 27.764 147.479 27.926 147.095 28.25C146.723 28.574 146.417 29 146.177 29.528C145.949 30.044 145.835 30.578 145.835 31.13C145.835 31.61 145.937 32.03 146.141 32.39C146.357 32.738 146.633 33.008 146.969 33.2C147.305 33.38 147.659 33.47 148.031 33.47C148.511 33.47 148.901 33.38 149.201 33.2C149.513 33.02 149.789 32.774 150.029 32.462C150.257 32.162 150.515 32.012 150.803 32.012C151.031 32.012 151.229 32.096 151.397 32.264C151.565 32.42 151.649 32.6 151.649 32.804C151.649 33.044 151.583 33.248 151.451 33.416C151.103 33.884 150.629 34.286 150.029 34.622C149.429 34.946 148.775 35.108 148.067 35.108ZM154.038 35.126C153.81 35.126 153.606 35.042 153.426 34.874C153.258 34.694 153.174 34.49 153.174 34.262V23.894C153.174 23.654 153.258 23.45 153.426 23.282C153.606 23.102 153.822 23.012 154.074 23.012C154.314 23.012 154.512 23.102 154.668 23.282C154.824 23.45 154.902 23.654 154.902 23.894V27.764C155.298 27.26 155.748 26.858 156.252 26.558C156.756 26.246 157.26 26.09 157.764 26.09C158.712 26.09 159.378 26.57 159.762 27.53C160.146 28.478 160.338 29.984 160.338 32.048C160.338 33.212 160.32 33.962 160.284 34.298C160.272 34.526 160.182 34.718 160.014 34.874C159.858 35.03 159.666 35.108 159.438 35.108C159.186 35.108 158.982 35.03 158.826 34.874C158.67 34.706 158.592 34.502 158.592 34.262C158.592 34.022 158.598 33.824 158.61 33.668L158.628 32.174C158.628 30.434 158.532 29.27 158.34 28.682C158.16 28.094 157.932 27.8 157.656 27.8C157.308 27.8 156.954 27.962 156.594 28.286C156.234 28.598 155.922 28.952 155.658 29.348C155.406 29.732 155.226 30.038 155.118 30.266C154.974 30.59 154.902 31.016 154.902 31.544V34.226C154.902 34.502 154.818 34.724 154.65 34.892C154.482 35.048 154.278 35.126 154.038 35.126Z" fill="white"/>
<path d="M262.194 81.108C261.774 81.108 261.498 80.904 261.366 80.496L258.234 70.218C258.174 70.002 258.144 69.81 258.144 69.642C258.144 69.414 258.228 69.228 258.396 69.084C258.564 68.928 258.768 68.85 259.008 68.85C259.452 68.85 259.74 69.06 259.872 69.48L262.23 77.238L264.75 69.462C264.882 69.054 265.17 68.85 265.614 68.85C266.046 68.85 266.322 69.06 266.442 69.48L268.584 77.256L271.464 69.282C271.62 68.862 271.908 68.652 272.328 68.652C272.568 68.652 272.772 68.73 272.94 68.886C273.108 69.03 273.192 69.216 273.192 69.444C273.192 69.648 273.162 69.84 273.102 70.02L269.304 80.532C269.244 80.712 269.142 80.856 268.998 80.964C268.854 81.06 268.686 81.108 268.494 81.108C268.026 81.108 267.738 80.892 267.63 80.46L265.524 72.864L263.058 80.496C262.986 80.724 262.878 80.886 262.734 80.982C262.602 81.066 262.422 81.108 262.194 81.108ZM277.509 81.108C276.657 81.108 275.889 80.928 275.205 80.568C274.533 80.196 274.005 79.674 273.621 79.002C273.237 78.318 273.045 77.514 273.045 76.59C273.045 75.834 273.213 75.114 273.549 74.43C273.897 73.734 274.377 73.176 274.989 72.756C275.613 72.336 276.321 72.126 277.113 72.126C277.845 72.126 278.469 72.276 278.985 72.576C279.513 72.864 279.909 73.212 280.173 73.62C280.437 74.028 280.569 74.394 280.569 74.718C280.569 74.874 280.521 75.024 280.425 75.168C280.329 75.312 280.191 75.438 280.011 75.546L275.187 78.318C275.355 78.69 275.649 78.978 276.069 79.182C276.501 79.386 276.981 79.488 277.509 79.488C278.205 79.488 278.799 79.23 279.291 78.714C279.483 78.522 279.681 78.426 279.885 78.426C280.125 78.426 280.323 78.504 280.479 78.66C280.647 78.816 280.731 79.008 280.731 79.236C280.731 79.428 280.659 79.608 280.515 79.776C280.179 80.148 279.729 80.466 279.165 80.73C278.613 80.982 278.061 81.108 277.509 81.108ZM278.787 74.502C278.643 74.25 278.439 74.064 278.175 73.944C277.911 73.812 277.599 73.746 277.239 73.746C276.555 73.746 275.979 73.98 275.511 74.448C275.055 74.916 274.791 75.492 274.719 76.176C274.695 76.356 274.683 76.572 274.683 76.824L278.787 74.502ZM283.291 81.09C283.051 81.09 282.853 81.012 282.697 80.856C282.541 80.7 282.463 80.508 282.463 80.28V69.822C282.463 69.582 282.547 69.39 282.715 69.246C282.883 69.09 283.087 69.012 283.327 69.012C283.555 69.012 283.753 69.09 283.921 69.246C284.089 69.39 284.173 69.582 284.173 69.822V73.35C284.521 72.966 284.905 72.69 285.325 72.522C285.745 72.354 286.207 72.27 286.711 72.27C287.311 72.27 287.857 72.426 288.349 72.738C288.841 73.038 289.231 73.488 289.519 74.088C289.819 74.688 289.969 75.414 289.969 76.266C289.969 77.802 289.615 78.978 288.907 79.794C288.199 80.598 287.233 81 286.009 81C285.673 81 285.313 80.946 284.929 80.838C284.557 80.718 284.269 80.586 284.065 80.442V80.55C284.065 80.67 283.987 80.79 283.831 80.91C283.687 81.03 283.507 81.09 283.291 81.09ZM285.883 79.308C286.723 79.308 287.329 79.044 287.701 78.516C288.085 77.988 288.277 77.238 288.277 76.266C288.277 75.522 288.133 74.958 287.845 74.574C287.557 74.19 287.167 73.998 286.675 73.998C286.219 73.998 285.799 74.082 285.415 74.25C285.031 74.418 284.725 74.646 284.497 74.934C284.281 75.222 284.173 75.54 284.173 75.888V79.002C284.785 79.206 285.355 79.308 285.883 79.308ZM294.512 81.108C293.816 81.108 293.21 80.958 292.694 80.658C292.19 80.346 291.8 79.992 291.524 79.596C291.26 79.188 291.128 78.858 291.128 78.606C291.128 78.366 291.212 78.168 291.38 78.012C291.548 77.844 291.746 77.76 291.974 77.76C292.178 77.76 292.346 77.814 292.478 77.922C292.622 78.03 292.724 78.174 292.784 78.354C292.916 78.726 293.132 79.02 293.432 79.236C293.732 79.452 294.104 79.56 294.548 79.56C295.016 79.56 295.382 79.446 295.646 79.218C295.91 78.99 296.042 78.732 296.042 78.444C296.042 78.168 295.928 77.952 295.7 77.796C295.484 77.628 295.04 77.442 294.368 77.238C293.384 76.938 292.676 76.584 292.244 76.176C291.812 75.756 291.596 75.21 291.596 74.538C291.596 73.83 291.878 73.254 292.442 72.81C293.006 72.354 293.792 72.126 294.8 72.126C295.736 72.126 296.462 72.33 296.978 72.738C297.506 73.146 297.77 73.692 297.77 74.376C297.77 74.748 297.692 75.036 297.536 75.24C297.38 75.432 297.158 75.528 296.87 75.528C296.618 75.528 296.414 75.45 296.258 75.294C296.102 75.138 296.024 74.97 296.024 74.79C296.024 74.73 296.036 74.658 296.06 74.574C296.096 74.478 296.114 74.406 296.114 74.358C296.114 74.142 296.006 73.968 295.79 73.836C295.586 73.704 295.268 73.638 294.836 73.638C294.296 73.638 293.894 73.716 293.63 73.872C293.378 74.028 293.252 74.238 293.252 74.502C293.252 74.778 293.384 75.006 293.648 75.186C293.912 75.354 294.386 75.546 295.07 75.762C296.066 76.074 296.756 76.416 297.14 76.788C297.536 77.16 297.734 77.682 297.734 78.354C297.734 78.81 297.596 79.254 297.32 79.686C297.056 80.106 296.678 80.448 296.186 80.712C295.706 80.976 295.148 81.108 294.512 81.108ZM300.539 71.37C300.311 71.37 300.107 71.28 299.927 71.1C299.759 70.92 299.681 70.716 299.693 70.488L299.711 69.822C299.723 69.594 299.813 69.396 299.981 69.228C300.149 69.06 300.347 68.976 300.575 68.976C300.803 68.976 301.001 69.066 301.169 69.246C301.349 69.426 301.433 69.624 301.421 69.84L301.403 70.524C301.391 70.764 301.301 70.968 301.133 71.136C300.977 71.292 300.779 71.37 300.539 71.37ZM300.449 81.108C300.209 81.108 299.999 81.024 299.819 80.856C299.651 80.676 299.567 80.466 299.567 80.226L299.657 73.062C299.657 72.822 299.741 72.618 299.909 72.45C300.089 72.27 300.299 72.18 300.539 72.18C300.791 72.18 301.001 72.27 301.169 72.45C301.337 72.618 301.421 72.822 301.421 73.062L301.331 80.226C301.331 80.466 301.241 80.676 301.061 80.856C300.893 81.024 300.689 81.108 300.449 81.108ZM305.51 81.126C305.282 81.126 305.078 81.042 304.898 80.874C304.73 80.706 304.646 80.508 304.646 80.28V73.854H303.224C302.984 73.854 302.78 73.77 302.612 73.602C302.444 73.422 302.36 73.218 302.36 72.99C302.36 72.726 302.45 72.516 302.63 72.36C302.81 72.192 303.02 72.108 303.26 72.108H304.646V70.182C304.646 69.954 304.73 69.75 304.898 69.57C305.066 69.39 305.27 69.3 305.51 69.3C305.762 69.3 305.966 69.39 306.122 69.57C306.29 69.738 306.374 69.942 306.374 70.182V72.108H307.904C308.144 72.108 308.348 72.192 308.516 72.36C308.684 72.528 308.768 72.738 308.768 72.99C308.768 73.218 308.684 73.422 308.516 73.602C308.348 73.77 308.144 73.854 307.904 73.854H306.374V80.28C306.374 80.508 306.29 80.706 306.122 80.874C305.954 81.042 305.75 81.126 305.51 81.126ZM313.298 81.108C312.446 81.108 311.678 80.928 310.994 80.568C310.322 80.196 309.794 79.674 309.41 79.002C309.026 78.318 308.834 77.514 308.834 76.59C308.834 75.834 309.002 75.114 309.338 74.43C309.686 73.734 310.166 73.176 310.778 72.756C311.402 72.336 312.11 72.126 312.902 72.126C313.634 72.126 314.258 72.276 314.774 72.576C315.302 72.864 315.698 73.212 315.962 73.62C316.226 74.028 316.358 74.394 316.358 74.718C316.358 74.874 316.31 75.024 316.214 75.168C316.118 75.312 315.98 75.438 315.8 75.546L310.976 78.318C311.144 78.69 311.438 78.978 311.858 79.182C312.29 79.386 312.77 79.488 313.298 79.488C313.994 79.488 314.588 79.23 315.08 78.714C315.272 78.522 315.47 78.426 315.674 78.426C315.914 78.426 316.112 78.504 316.268 78.66C316.436 78.816 316.52 79.008 316.52 79.236C316.52 79.428 316.448 79.608 316.304 79.776C315.968 80.148 315.518 80.466 314.954 80.73C314.402 80.982 313.85 81.108 313.298 81.108ZM314.576 74.502C314.432 74.25 314.228 74.064 313.964 73.944C313.7 73.812 313.388 73.746 313.028 73.746C312.344 73.746 311.768 73.98 311.3 74.448C310.844 74.916 310.58 75.492 310.508 76.176C310.484 76.356 310.472 76.572 310.472 76.824L314.576 74.502ZM327.998 81.18C327.386 81.18 326.792 81.036 326.216 80.748C325.652 80.46 325.184 80.058 324.812 79.542C324.452 79.014 324.272 78.414 324.272 77.742C324.272 76.89 324.488 76.194 324.92 75.654C325.352 75.114 325.94 74.628 326.684 74.196C326.024 73.344 325.694 72.522 325.694 71.73C325.694 71.262 325.826 70.818 326.09 70.398C326.354 69.978 326.702 69.642 327.134 69.39C327.566 69.138 328.022 69.012 328.502 69.012C328.982 69.012 329.438 69.138 329.87 69.39C330.302 69.642 330.65 69.978 330.914 70.398C331.178 70.806 331.31 71.238 331.31 71.694C331.31 72.354 331.154 72.918 330.842 73.386C330.53 73.842 330.044 74.268 329.384 74.664L330.968 76.59L331.112 76.14C331.22 75.816 331.328 75.6 331.436 75.492C331.544 75.372 331.73 75.312 331.994 75.312C332.234 75.312 332.432 75.396 332.588 75.564C332.756 75.72 332.84 75.918 332.84 76.158C332.84 76.362 332.774 76.644 332.642 77.004C332.522 77.364 332.378 77.712 332.21 78.048L333.596 79.74C333.656 79.8 333.704 79.884 333.74 79.992C333.776 80.088 333.794 80.178 333.794 80.262C333.794 80.49 333.71 80.688 333.542 80.856C333.386 81.024 333.188 81.108 332.948 81.108C332.684 81.108 332.468 81.006 332.3 80.802L331.256 79.542C330.836 80.046 330.35 80.448 329.798 80.748C329.246 81.036 328.646 81.18 327.998 81.18ZM328.232 73.368C328.844 73.044 329.228 72.762 329.384 72.522C329.552 72.27 329.636 72.006 329.636 71.73C329.636 71.466 329.516 71.232 329.276 71.028C329.048 70.812 328.79 70.704 328.502 70.704C328.238 70.704 327.986 70.806 327.746 71.01C327.506 71.214 327.386 71.454 327.386 71.73C327.386 71.97 327.47 72.24 327.638 72.54C327.806 72.828 328.004 73.104 328.232 73.368ZM327.998 79.47C328.418 79.47 328.808 79.356 329.168 79.128C329.54 78.9 329.864 78.594 330.14 78.21L327.872 75.492C327.248 75.84 326.774 76.182 326.45 76.518C326.126 76.842 325.964 77.25 325.964 77.742C325.964 78.114 326.072 78.432 326.288 78.696C326.504 78.948 326.768 79.14 327.08 79.272C327.392 79.404 327.698 79.47 327.998 79.47ZM347.05 81.108C346.09 81.108 345.208 80.892 344.404 80.46C343.6 80.028 342.964 79.404 342.496 78.588C342.028 77.76 341.794 76.794 341.794 75.69C341.794 74.526 342.064 73.416 342.604 72.36C343.156 71.292 343.864 70.44 344.728 69.804C345.604 69.156 346.498 68.832 347.41 68.832C347.794 68.832 348.172 68.892 348.544 69.012C348.928 69.132 349.27 69.282 349.57 69.462C349.714 69.318 349.894 69.246 350.11 69.246C350.35 69.246 350.548 69.33 350.704 69.498C350.86 69.654 350.938 69.846 350.938 70.074V71.226C350.938 71.466 350.848 71.676 350.668 71.856C350.5 72.036 350.29 72.126 350.038 72.126C349.798 72.126 349.594 72.054 349.426 71.91C349.27 71.766 349.192 71.598 349.192 71.406V71.28C348.748 70.812 348.112 70.578 347.284 70.578C346.684 70.578 346.096 70.824 345.52 71.316C344.944 71.796 344.476 72.432 344.116 73.224C343.768 74.016 343.594 74.838 343.594 75.69C343.594 76.446 343.75 77.106 344.062 77.67C344.374 78.222 344.788 78.648 345.304 78.948C345.832 79.236 346.414 79.38 347.05 79.38C348.214 79.38 349.174 78.882 349.93 77.886C350.038 77.754 350.146 77.664 350.254 77.616C350.362 77.556 350.488 77.526 350.632 77.526C350.884 77.526 351.094 77.61 351.262 77.778C351.442 77.934 351.532 78.15 351.532 78.426C351.532 78.63 351.478 78.81 351.37 78.966C350.878 79.662 350.254 80.196 349.498 80.568C348.754 80.928 347.938 81.108 347.05 81.108ZM356.277 81.108C355.593 81.108 354.963 80.922 354.387 80.55C353.823 80.178 353.379 79.674 353.055 79.038C352.731 78.39 352.569 77.688 352.569 76.932C352.569 76.08 352.761 75.288 353.145 74.556C353.529 73.812 354.045 73.224 354.693 72.792C355.341 72.348 356.037 72.126 356.781 72.126C357.465 72.126 358.089 72.318 358.653 72.702C359.229 73.086 359.679 73.596 360.003 74.232C360.339 74.868 360.507 75.552 360.507 76.284C360.507 77.148 360.315 77.952 359.931 78.696C359.547 79.428 359.025 80.016 358.365 80.46C357.717 80.892 357.021 81.108 356.277 81.108ZM356.277 79.488C356.697 79.488 357.099 79.344 357.483 79.056C357.867 78.768 358.173 78.384 358.401 77.904C358.629 77.424 358.743 76.914 358.743 76.374C358.743 75.918 358.653 75.492 358.473 75.096C358.293 74.688 358.047 74.364 357.735 74.124C357.423 73.872 357.081 73.746 356.709 73.746C356.289 73.746 355.893 73.896 355.521 74.196C355.161 74.484 354.873 74.874 354.657 75.366C354.441 75.846 354.333 76.362 354.333 76.914C354.333 77.454 354.423 77.916 354.603 78.3C354.795 78.684 355.035 78.978 355.323 79.182C355.623 79.386 355.941 79.488 356.277 79.488ZM363.308 81.108C363.08 81.108 362.876 81.024 362.696 80.856C362.528 80.688 362.444 80.49 362.444 80.262V72.99C362.444 72.762 362.528 72.564 362.696 72.396C362.876 72.216 363.08 72.126 363.308 72.126C363.548 72.126 363.752 72.216 363.92 72.396C364.088 72.564 364.172 72.762 364.172 72.99V74.25C364.916 72.834 365.906 72.126 367.142 72.126C367.634 72.126 368.06 72.27 368.42 72.558C368.792 72.846 369.056 73.278 369.212 73.854C369.98 72.702 370.916 72.126 372.02 72.126C372.764 72.126 373.352 72.414 373.784 72.99C374.216 73.554 374.432 74.406 374.432 75.546V80.262C374.432 80.49 374.342 80.688 374.162 80.856C373.994 81.024 373.796 81.108 373.568 81.108C373.328 81.108 373.124 81.024 372.956 80.856C372.788 80.688 372.704 80.49 372.704 80.262V75.438C372.704 74.886 372.626 74.472 372.47 74.196C372.314 73.92 372.068 73.782 371.732 73.782C371.384 73.782 371.036 73.92 370.688 74.196C370.34 74.472 370.052 74.85 369.824 75.33C369.608 75.81 369.5 76.338 369.5 76.914V80.262C369.5 80.502 369.416 80.706 369.248 80.874C369.08 81.03 368.876 81.108 368.636 81.108C368.408 81.108 368.204 81.024 368.024 80.856C367.856 80.688 367.772 80.49 367.772 80.262V75.438C367.772 74.862 367.7 74.442 367.556 74.178C367.424 73.914 367.202 73.782 366.89 73.782C366.506 73.782 366.128 73.938 365.756 74.25C365.384 74.55 365.06 74.916 364.784 75.348C364.568 75.708 364.406 76.068 364.298 76.428C364.202 76.788 364.154 77.184 364.154 77.616L364.172 80.262C364.172 80.49 364.088 80.688 363.92 80.856C363.752 81.024 363.548 81.108 363.308 81.108ZM377.634 81.108C377.406 81.108 377.202 81.024 377.022 80.856C376.854 80.688 376.77 80.49 376.77 80.262V72.99C376.77 72.762 376.854 72.564 377.022 72.396C377.202 72.216 377.406 72.126 377.634 72.126C377.874 72.126 378.078 72.216 378.246 72.396C378.414 72.564 378.498 72.762 378.498 72.99V74.25C379.242 72.834 380.232 72.126 381.468 72.126C381.96 72.126 382.386 72.27 382.746 72.558C383.118 72.846 383.382 73.278 383.538 73.854C384.306 72.702 385.242 72.126 386.346 72.126C387.09 72.126 387.678 72.414 388.11 72.99C388.542 73.554 388.758 74.406 388.758 75.546V80.262C388.758 80.49 388.668 80.688 388.488 80.856C388.32 81.024 388.122 81.108 387.894 81.108C387.654 81.108 387.45 81.024 387.282 80.856C387.114 80.688 387.03 80.49 387.03 80.262V75.438C387.03 74.886 386.952 74.472 386.796 74.196C386.64 73.92 386.394 73.782 386.058 73.782C385.71 73.782 385.362 73.92 385.014 74.196C384.666 74.472 384.378 74.85 384.15 75.33C383.934 75.81 383.826 76.338 383.826 76.914V80.262C383.826 80.502 383.742 80.706 383.574 80.874C383.406 81.03 383.202 81.108 382.962 81.108C382.734 81.108 382.53 81.024 382.35 80.856C382.182 80.688 382.098 80.49 382.098 80.262V75.438C382.098 74.862 382.026 74.442 381.882 74.178C381.75 73.914 381.528 73.782 381.216 73.782C380.832 73.782 380.454 73.938 380.082 74.25C379.71 74.55 379.386 74.916 379.11 75.348C378.894 75.708 378.732 76.068 378.624 76.428C378.528 76.788 378.48 77.184 378.48 77.616L378.498 80.262C378.498 80.49 378.414 80.688 378.246 80.856C378.078 81.024 377.874 81.108 377.634 81.108ZM393.562 81.162C392.914 81.162 392.398 81.024 392.014 80.748C391.63 80.46 391.342 79.944 391.15 79.2C390.958 78.456 390.862 77.388 390.862 75.996C390.862 75.528 390.88 75.012 390.916 74.448C390.952 73.884 391 73.41 391.06 73.026C391.108 72.726 391.198 72.498 391.33 72.342C391.462 72.186 391.654 72.108 391.906 72.108C392.146 72.108 392.35 72.18 392.518 72.324C392.686 72.468 392.77 72.678 392.77 72.954L392.734 73.458C392.614 74.478 392.554 75.456 392.554 76.392C392.554 77.616 392.656 78.45 392.86 78.894C393.076 79.326 393.37 79.542 393.742 79.542C394.174 79.542 394.618 79.428 395.074 79.2C395.53 78.96 395.854 78.732 396.046 78.516C396.118 78.444 396.154 78.294 396.154 78.066L396.19 72.936C396.19 72.696 396.274 72.498 396.442 72.342C396.622 72.186 396.82 72.108 397.036 72.108C397.264 72.108 397.462 72.186 397.63 72.342C397.81 72.498 397.9 72.696 397.9 72.936V80.244C397.9 80.472 397.81 80.676 397.63 80.856C397.462 81.024 397.264 81.108 397.036 81.108C396.796 81.108 396.58 81.036 396.388 80.892C396.208 80.736 396.118 80.544 396.118 80.316V80.118C395.662 80.442 395.236 80.7 394.84 80.892C394.456 81.072 394.03 81.162 393.562 81.162ZM401.276 81.108C401.048 81.108 400.844 81.024 400.664 80.856C400.496 80.688 400.412 80.496 400.412 80.28V72.972C400.412 72.732 400.502 72.528 400.682 72.36C400.862 72.192 401.072 72.108 401.312 72.108C401.54 72.108 401.732 72.192 401.888 72.36C402.056 72.528 402.14 72.732 402.14 72.972V74.34C402.476 73.62 402.902 73.074 403.418 72.702C403.934 72.318 404.498 72.126 405.11 72.126C405.782 72.126 406.316 72.282 406.712 72.594C407.108 72.906 407.396 73.422 407.576 74.142C407.756 74.85 407.846 75.834 407.846 77.094L407.828 80.244C407.828 80.472 407.75 80.676 407.594 80.856C407.438 81.024 407.24 81.108 407 81.108C406.772 81.108 406.568 81.024 406.388 80.856C406.22 80.676 406.136 80.478 406.136 80.262V77.274C406.136 76.338 406.094 75.618 406.01 75.114C405.926 74.61 405.8 74.268 405.632 74.088C405.464 73.896 405.236 73.8 404.948 73.8C404.588 73.8 404.228 73.956 403.868 74.268C403.508 74.568 403.172 75 402.86 75.564C402.584 76.056 402.392 76.536 402.284 77.004C402.176 77.472 402.122 78.036 402.122 78.696V80.208C402.122 80.472 402.044 80.688 401.888 80.856C401.744 81.024 401.54 81.108 401.276 81.108ZM411.158 71.37C410.93 71.37 410.726 71.28 410.546 71.1C410.378 70.92 410.3 70.716 410.312 70.488L410.33 69.822C410.342 69.594 410.432 69.396 410.6 69.228C410.768 69.06 410.966 68.976 411.194 68.976C411.422 68.976 411.62 69.066 411.788 69.246C411.968 69.426 412.052 69.624 412.04 69.84L412.022 70.524C412.01 70.764 411.92 70.968 411.752 71.136C411.596 71.292 411.398 71.37 411.158 71.37ZM411.068 81.108C410.828 81.108 410.618 81.024 410.438 80.856C410.27 80.676 410.186 80.466 410.186 80.226L410.276 73.062C410.276 72.822 410.36 72.618 410.528 72.45C410.708 72.27 410.918 72.18 411.158 72.18C411.41 72.18 411.62 72.27 411.788 72.45C411.956 72.618 412.04 72.822 412.04 73.062L411.95 80.226C411.95 80.466 411.86 80.676 411.68 80.856C411.512 81.024 411.308 81.108 411.068 81.108ZM416.129 81.126C415.901 81.126 415.697 81.042 415.517 80.874C415.349 80.706 415.265 80.508 415.265 80.28V73.854H413.843C413.603 73.854 413.399 73.77 413.231 73.602C413.063 73.422 412.979 73.218 412.979 72.99C412.979 72.726 413.069 72.516 413.249 72.36C413.429 72.192 413.639 72.108 413.879 72.108H415.265V70.182C415.265 69.954 415.349 69.75 415.517 69.57C415.685 69.39 415.889 69.3 416.129 69.3C416.381 69.3 416.585 69.39 416.741 69.57C416.909 69.738 416.993 69.942 416.993 70.182V72.108H418.523C418.763 72.108 418.967 72.192 419.135 72.36C419.303 72.528 419.387 72.738 419.387 72.99C419.387 73.218 419.303 73.422 419.135 73.602C418.967 73.77 418.763 73.854 418.523 73.854H416.993V80.28C416.993 80.508 416.909 80.706 416.741 80.874C416.573 81.042 416.369 81.126 416.129 81.126ZM421.711 84.33C421.495 84.33 421.309 84.24 421.153 84.06C420.997 83.892 420.919 83.688 420.919 83.448C420.919 83.34 420.949 83.214 421.009 83.07L422.575 79.704L419.353 73.422C419.281 73.278 419.245 73.134 419.245 72.99C419.245 72.75 419.329 72.546 419.497 72.378C419.677 72.198 419.893 72.108 420.145 72.108C420.337 72.108 420.505 72.162 420.649 72.27C420.793 72.378 420.901 72.504 420.973 72.648L423.511 77.67L425.779 72.648C425.851 72.492 425.959 72.36 426.103 72.252C426.259 72.144 426.427 72.09 426.607 72.09C426.823 72.09 427.009 72.174 427.165 72.342C427.321 72.51 427.399 72.72 427.399 72.972C427.399 73.116 427.375 73.236 427.327 73.332L422.521 83.772C422.449 83.94 422.341 84.072 422.197 84.168C422.053 84.276 421.891 84.33 421.711 84.33Z" fill="white"/>
<path d="M324.232 100.09C324.004 100.102 323.8 100.018 323.62 99.838C323.44 99.658 323.35 99.454 323.35 99.226V88.732C323.35 88.492 323.434 88.288 323.602 88.12C323.782 87.94 323.998 87.85 324.25 87.85C324.49 87.85 324.694 87.94 324.862 88.12C325.042 88.288 325.132 88.492 325.132 88.732V98.272L330.028 97.948C330.28 97.936 330.49 98.014 330.658 98.182C330.826 98.338 330.91 98.548 330.91 98.812C330.91 99.028 330.826 99.232 330.658 99.424C330.502 99.604 330.316 99.7 330.1 99.712L324.232 100.09ZM338.249 100.288C338.009 100.288 337.811 100.222 337.655 100.09C337.511 99.958 337.439 99.784 337.439 99.568V99.316C336.947 99.844 336.263 100.108 335.387 100.108C334.727 100.108 334.133 99.946 333.605 99.622C333.077 99.298 332.663 98.842 332.363 98.254C332.063 97.654 331.913 96.976 331.913 96.22C331.913 95.38 332.093 94.57 332.453 93.79C332.813 92.998 333.317 92.356 333.965 91.864C334.625 91.372 335.381 91.126 336.233 91.126C336.785 91.126 337.283 91.204 337.727 91.36C338.171 91.504 338.633 91.684 339.113 91.9V99.388C339.113 99.628 339.029 99.838 338.861 100.018C338.693 100.198 338.489 100.288 338.249 100.288ZM335.513 98.434C335.861 98.434 336.197 98.362 336.521 98.218C336.857 98.074 337.133 97.9 337.349 97.696L337.403 92.998C337.055 92.854 336.677 92.782 336.269 92.782C335.753 92.782 335.297 92.944 334.901 93.268C334.505 93.58 334.199 94 333.983 94.528C333.767 95.044 333.659 95.596 333.659 96.184C333.659 96.916 333.821 97.474 334.145 97.858C334.469 98.242 334.925 98.434 335.513 98.434ZM344.095 100.162C343.447 100.162 342.931 100.024 342.547 99.748C342.163 99.46 341.875 98.944 341.683 98.2C341.491 97.456 341.395 96.388 341.395 94.996C341.395 94.528 341.413 94.012 341.449 93.448C341.485 92.884 341.533 92.41 341.593 92.026C341.641 91.726 341.731 91.498 341.863 91.342C341.995 91.186 342.187 91.108 342.439 91.108C342.679 91.108 342.883 91.18 343.051 91.324C343.219 91.468 343.303 91.678 343.303 91.954L343.267 92.458C343.147 93.478 343.087 94.456 343.087 95.392C343.087 96.616 343.189 97.45 343.393 97.894C343.609 98.326 343.903 98.542 344.275 98.542C344.707 98.542 345.151 98.428 345.607 98.2C346.063 97.96 346.387 97.732 346.579 97.516C346.651 97.444 346.687 97.294 346.687 97.066L346.723 91.936C346.723 91.696 346.807 91.498 346.975 91.342C347.155 91.186 347.353 91.108 347.569 91.108C347.797 91.108 347.995 91.186 348.163 91.342C348.343 91.498 348.433 91.696 348.433 91.936V99.244C348.433 99.472 348.343 99.676 348.163 99.856C347.995 100.024 347.797 100.108 347.569 100.108C347.329 100.108 347.113 100.036 346.921 99.892C346.741 99.736 346.651 99.544 346.651 99.316V99.118C346.195 99.442 345.769 99.7 345.373 99.892C344.989 100.072 344.563 100.162 344.095 100.162ZM351.81 100.108C351.582 100.108 351.378 100.024 351.198 99.856C351.03 99.688 350.946 99.496 350.946 99.28V91.972C350.946 91.732 351.036 91.528 351.216 91.36C351.396 91.192 351.606 91.108 351.846 91.108C352.074 91.108 352.266 91.192 352.422 91.36C352.59 91.528 352.674 91.732 352.674 91.972V93.34C353.01 92.62 353.436 92.074 353.952 91.702C354.468 91.318 355.032 91.126 355.644 91.126C356.316 91.126 356.85 91.282 357.246 91.594C357.642 91.906 357.93 92.422 358.11 93.142C358.29 93.85 358.38 94.834 358.38 96.094L358.362 99.244C358.362 99.472 358.284 99.676 358.128 99.856C357.972 100.024 357.774 100.108 357.534 100.108C357.306 100.108 357.102 100.024 356.922 99.856C356.754 99.676 356.67 99.478 356.67 99.262V96.274C356.67 95.338 356.628 94.618 356.544 94.114C356.46 93.61 356.334 93.268 356.166 93.088C355.998 92.896 355.77 92.8 355.482 92.8C355.122 92.8 354.762 92.956 354.402 93.268C354.042 93.568 353.706 94 353.394 94.564C353.118 95.056 352.926 95.536 352.818 96.004C352.71 96.472 352.656 97.036 352.656 97.696V99.208C352.656 99.472 352.578 99.688 352.422 99.856C352.278 100.024 352.074 100.108 351.81 100.108ZM364.067 100.108C363.347 100.108 362.687 99.934 362.087 99.586C361.487 99.238 361.013 98.764 360.665 98.164C360.317 97.552 360.143 96.886 360.143 96.166C360.143 95.35 360.335 94.552 360.719 93.772C361.103 92.992 361.607 92.356 362.231 91.864C362.855 91.372 363.515 91.126 364.211 91.126C364.847 91.126 365.357 91.228 365.741 91.432C366.137 91.624 366.521 91.936 366.893 92.368C367.073 92.56 367.163 92.77 367.163 92.998C367.163 93.226 367.079 93.424 366.911 93.592C366.743 93.748 366.539 93.826 366.299 93.826C366.143 93.826 366.017 93.802 365.921 93.754C365.837 93.706 365.735 93.61 365.615 93.466C365.411 93.238 365.207 93.064 365.003 92.944C364.811 92.824 364.553 92.764 364.229 92.764C363.857 92.764 363.479 92.926 363.095 93.25C362.723 93.574 362.417 94 362.177 94.528C361.949 95.044 361.835 95.578 361.835 96.13C361.835 96.61 361.937 97.03 362.141 97.39C362.357 97.738 362.633 98.008 362.969 98.2C363.305 98.38 363.659 98.47 364.031 98.47C364.511 98.47 364.901 98.38 365.201 98.2C365.513 98.02 365.789 97.774 366.029 97.462C366.257 97.162 366.515 97.012 366.803 97.012C367.031 97.012 367.229 97.096 367.397 97.264C367.565 97.42 367.649 97.6 367.649 97.804C367.649 98.044 367.583 98.248 367.451 98.416C367.103 98.884 366.629 99.286 366.029 99.622C365.429 99.946 364.775 100.108 364.067 100.108ZM370.038 100.126C369.81 100.126 369.606 100.042 369.426 99.874C369.258 99.694 369.174 99.49 369.174 99.262V88.894C369.174 88.654 369.258 88.45 369.426 88.282C369.606 88.102 369.822 88.012 370.074 88.012C370.314 88.012 370.512 88.102 370.668 88.282C370.824 88.45 370.902 88.654 370.902 88.894V92.764C371.298 92.26 371.748 91.858 372.252 91.558C372.756 91.246 373.26 91.09 373.764 91.09C374.712 91.09 375.378 91.57 375.762 92.53C376.146 93.478 376.338 94.984 376.338 97.048C376.338 98.212 376.32 98.962 376.284 99.298C376.272 99.526 376.182 99.718 376.014 99.874C375.858 100.03 375.666 100.108 375.438 100.108C375.186 100.108 374.982 100.03 374.826 99.874C374.67 99.706 374.592 99.502 374.592 99.262C374.592 99.022 374.598 98.824 374.61 98.668L374.628 97.174C374.628 95.434 374.532 94.27 374.34 93.682C374.16 93.094 373.932 92.8 373.656 92.8C373.308 92.8 372.954 92.962 372.594 93.286C372.234 93.598 371.922 93.952 371.658 94.348C371.406 94.732 371.226 95.038 371.118 95.266C370.974 95.59 370.902 96.016 370.902 96.544V99.226C370.902 99.502 370.818 99.724 370.65 99.892C370.482 100.048 370.278 100.126 370.038 100.126Z" fill="white"/>
<path d="M109.34 96.8955C118.919 96.8955 126.685 89.1277 126.685 79.5457C126.685 69.9636 118.919 62.1958 109.34 62.1958C99.7609 62.1958 91.9954 69.9636 91.9954 79.5457C91.9954 89.1277 99.7609 96.8955 109.34 96.8955Z" fill="#FEEC97" stroke="white" stroke-width="3" stroke-miterlimit="10"/>
<path d="M293.554 159.056C303.133 159.056 310.899 151.288 310.899 141.706C310.899 132.124 303.133 124.356 293.554 124.356C283.975 124.356 276.209 132.124 276.209 141.706C276.209 151.288 283.975 159.056 293.554 159.056Z" fill="#FEEC97" stroke="white" stroke-width="3" stroke-miterlimit="10"/>
</svg>
