<svg width="16" height="16" viewBox="0 0 16 16" fill="none" xmlns="http://www.w3.org/2000/svg">
<path d="M14.698 2.2964C13.9389 1.28675 12.8674 0.701566 11.6815 0.646188C10.7956 0.604859 9.97095 0.883254 9.23443 1.47342C8.86202 1.77197 8.52137 2.14145 8.21654 2.57681C7.94558 2.11362 7.63298 1.71413 7.28324 1.38295C6.5912 0.726626 5.79195 0.371911 4.90472 0.332273C3.71877 0.276894 2.60798 0.761808 1.77766 1.69807C0.95686 2.6225 0.475976 3.91581 0.423443 5.33885C0.369879 6.80395 0.80479 8.16762 1.79135 9.62995C2.67376 10.9381 3.96328 12.2835 5.45561 13.8437C5.96458 14.3761 6.54253 14.979 7.14225 15.6211C7.30014 15.7916 7.5079 15.89 7.72615 15.9005C7.9444 15.911 8.15871 15.8312 8.3282 15.6764C8.97181 15.0914 9.59274 14.5448 10.1404 14.0605C11.7422 12.6452 13.1246 11.423 14.1016 10.2024C15.1925 8.83641 15.7253 7.5176 15.7804 6.05404C15.8329 4.631 15.4481 3.29847 14.6982 2.30124L14.698 2.2964Z" fill="#BE1E2D"/>
</svg>
