<svg width="19" height="18" viewBox="0 0 19 18" fill="none" xmlns="http://www.w3.org/2000/svg">
<path d="M9.64202 3.59677L9.27588 3.00957C8.97859 2.53276 8.63515 2.12403 8.25204 1.78521L8.25176 1.78497C7.49794 1.1173 6.62726 0.750086 5.64864 0.686224L5.64775 0.686165C4.32532 0.597492 3.0803 1.04442 2.13345 1.94409L2.13323 1.9443C1.19536 2.83438 0.614099 4.11118 0.517147 5.55184L9.64202 3.59677ZM9.64202 3.59677L10.0846 3.06478M9.64202 3.59677L10.0846 3.06478M10.0846 3.06478C10.4445 2.63213 10.8398 2.27187 11.2647 1.98583C12.0987 1.42473 13.0131 1.17731 13.9911 1.24284C15.2577 1.32778 16.3882 1.88855 17.2004 2.82885L17.2004 2.82944M10.0846 3.06478L17.2004 2.82944M1.98979 9.95951L1.98981 9.95954C3.00759 11.3712 4.51845 12.8457 6.31989 14.6039L6.33176 14.6155L6.33184 14.6155C6.3877 14.6701 6.44427 14.7253 6.50152 14.7812C7.07118 15.3373 7.70741 15.9583 8.36502 16.6154L8.36662 16.617C8.46935 16.7207 8.60792 16.7839 8.75751 16.7941C8.90479 16.8042 9.05062 16.76 9.16698 16.6706L9.16793 16.6699C9.88366 16.1225 10.5768 15.6072 11.2015 15.1428C11.2863 15.0798 11.3698 15.0177 11.452 14.9566L11.4521 14.9565C13.4775 13.4514 15.1754 12.1867 16.3775 10.9214C17.7006 9.52549 18.3272 8.20556 18.4263 6.7506L1.98979 9.95951ZM1.98979 9.95951C0.865155 8.39992 0.4198 7.0085 0.517133 5.55204L1.98979 9.95951ZM17.2004 2.82944L17.3068 2.96158M17.2004 2.82944L17.3068 2.96158M17.3068 2.96158C18.1172 3.96843 18.5232 5.31013 18.4263 6.75047L17.3068 2.96158Z" fill="#C93F27" stroke="black"/>
</svg>
