<svg width="21" height="20" viewBox="0 0 21 20" fill="currentColor" xmlns="http://www.w3.org/2000/svg">
<g clip-path="url(#clip0_26_519)">
<path d="M19.2936 6.27917V14.1667C19.2937 14.8044 19.05 15.4179 18.6125 15.8819C18.1751 16.3458 17.5769 16.6251 16.9403 16.6625L16.7936 16.6667H5.12695C4.48927 16.6667 3.87569 16.4231 3.41173 15.9856C2.94778 15.5481 2.66853 14.9499 2.63111 14.3133L2.62695 14.1667V6.27917L10.4978 11.5267L10.5945 11.5817C10.7084 11.6373 10.8335 11.6663 10.9603 11.6663C11.0871 11.6663 11.2122 11.6373 11.3261 11.5817L11.4228 11.5267L19.2936 6.27917Z" fill="currentColor"/>
<path d="M16.7936 3.33331C17.6936 3.33331 18.4828 3.80831 18.9228 4.52248L10.9603 9.83081L2.9978 4.52248C3.20674 4.18312 3.49381 3.89865 3.83505 3.6928C4.1763 3.48695 4.56182 3.36569 4.95946 3.33915L5.12696 3.33331H16.7936Z" fill="currentColor"/>
</g>
<defs>
<clipPath id="clip0_26_519">
<rect width="20" height="20" fill="white" transform="translate(0.960205)"/>
</clipPath>
</defs>
</svg>
