<svg width="198" height="122" viewBox="0 0 198 122" fill="none" xmlns="http://www.w3.org/2000/svg">
<path d="M194.583 85.6717L151.828 11.5849C142.458 -3.86203 119.595 -4.02842 110.544 12.2366L65.6508 89.2769C57.2664 103.407 67.6221 121.141 84.4049 121.141H174.372C191.307 121.141 203.967 102.907 194.597 85.6578" fill="#00B897"/>
<path d="M132.893 91.4264L130.255 86.8229C127.784 82.5521 122.357 73.3588 122.357 73.3588L86.1811 10.6006C76.811 -3.36258 54.6004 -4.51347 45.2303 13.0688L3.12738 85.8522C-5.59027 101.133 4.76541 121.003 23.6861 121.169H173.996C150.8 121.336 143.401 109.342 132.879 91.4403" fill="#76FCB2"/>
<mask id="mask0_534_70" style="mask-type:luminance" maskUnits="userSpaceOnUse" x="62" y="32" width="113" height="90">
<path d="M65.4839 89.4441C57.0994 103.574 67.4551 121.308 84.2379 121.308H174.038C150.689 121.142 143.443 109.314 132.921 91.4131L130.283 86.8095C127.812 82.5387 122.385 73.3455 122.385 73.3455L99.0357 32.2739L65.4839 89.4441Z" fill="white"/>
</mask>
<g mask="url(#mask0_534_70)">
<path d="M71.1385 -5.69976L28.1094 110.618L159.974 159.29L203.003 42.9718L71.1385 -5.69976Z" fill="url(#paint0_linear_534_70)"/>
</g>
<defs>
<linearGradient id="paint0_linear_534_70" x1="57.7883" y1="53.7449" x2="161.695" y2="92.1827" gradientUnits="userSpaceOnUse">
<stop stop-color="#53E57A"/>
<stop offset="1" stop-color="#00A977"/>
</linearGradient>
</defs>
</svg>
