<svg width="125" height="165" viewBox="0 0 125 165" fill="none" xmlns="http://www.w3.org/2000/svg">
<g clip-path="url(#clip0_381_2467)">
<path d="M75.5377 48.7005C75.2928 48.809 75.1077 48.9283 74.7703 49.1724C71.7388 51.3639 70.3835 53.8157 69.159 54.9928C66.1547 57.8786 59.7106 57.1571 55.9226 54.9657C54.3987 54.0869 51.6991 52.0365 49.816 48.8198C48.8146 47.1057 48.5315 45.8906 47.775 45.8581C46.3708 45.7984 44.8796 49.8884 44.4442 53.1051C44.2537 54.51 43.6931 58.7248 45.9082 62.7823C46.6702 64.1763 48.3846 66.9862 57.2723 70.7073C65.9914 74.358 70.3509 76.186 74.3131 75.8009C85.0187 74.7702 90.9565 65.6355 91.9253 64.1384C92.8233 62.7551 95.3487 58.7302 94.8099 54.1032C94.6412 52.682 94.3037 52.1938 94.1622 52.0094C92.3226 49.6226 88.4584 52.6223 83.0702 50.7997C80.0006 49.7636 77.878 47.6427 75.5377 48.695V48.7005Z" fill="#754D25" stroke="#231F20" stroke-width="1.5" stroke-miterlimit="10"/>
<path d="M43.1561 91.9629C43.1445 91.9442 43.1333 91.9261 43.1226 91.9087C43.1716 91.7323 43.2362 91.4993 43.3123 91.224C43.4896 90.5822 43.729 89.7099 43.9776 88.7885C44.4686 86.9688 45.0127 84.8943 45.1655 84.0702C45.3273 83.212 45.4136 81.6072 45.4619 80.2863C45.4867 79.6105 45.5021 78.9844 45.5113 78.5276C45.516 78.299 45.5191 78.1125 45.521 77.9829L45.5231 77.8329L45.5236 77.7934L45.5237 77.7831L45.5237 77.7804L45.5237 77.7796L45.5237 77.7794C45.5237 77.7794 45.5237 77.7793 44.6238 77.7697L45.5237 77.7793L45.5365 76.5881L44.5994 76.8435C44.7033 76.5809 44.8288 76.2722 44.9803 75.9098C45.2967 75.1564 45.4901 73.9887 45.6206 72.7681C45.7548 71.5139 45.8328 70.0901 45.8777 68.7575C45.9227 67.4226 45.9349 66.1674 45.9358 65.2466C45.9359 65.1773 45.9359 65.1099 45.9358 65.0444L61.2987 70.7129L66.5468 73.2044L66.5606 73.3526C66.5983 73.7562 66.6503 74.3086 66.7072 74.9038C66.8205 76.0899 66.9548 77.4584 67.0349 78.15C67.0906 78.6304 67.3009 79.2063 67.5266 79.7319C67.7626 80.2814 68.0568 80.868 68.3393 81.399C68.6229 81.9319 68.9006 82.4197 69.107 82.7737C69.2103 82.951 69.2962 83.0954 69.3566 83.1959C69.3867 83.2462 69.4106 83.2856 69.427 83.3126L69.4414 83.3363L73.0182 89.844L73.0522 89.9058L73.0953 89.9615L75.5141 93.0852C75.276 93.2808 74.9817 93.5157 74.6491 93.7668C73.7438 94.4503 72.6041 95.2164 71.5608 95.6611C70.5275 96.1004 68.1503 96.5985 65.855 96.9938C64.7308 97.1874 63.6612 97.3507 62.8411 97.4654C62.4309 97.5228 62.0857 97.5676 61.8291 97.5979C61.7005 97.6131 61.5973 97.6243 61.521 97.6315C61.4487 97.6383 61.4209 97.6395 61.4209 97.6397C61.4209 97.6398 61.4223 97.6398 61.4251 97.6398C61.3438 97.6398 61.1153 97.6216 60.6972 97.5834C60.6261 97.5769 60.5509 97.5699 60.472 97.5626C60.1163 97.5299 59.684 97.49 59.1999 97.4502C58.0167 97.3531 56.5047 97.2547 54.9538 97.2547C53.568 97.2547 51.6621 96.8633 49.8488 96.3286C48.0373 95.7944 46.4391 95.1536 45.6692 94.7154C44.9788 94.3182 44.3014 93.5749 43.7682 92.86C43.5096 92.5134 43.3003 92.1944 43.1561 91.9629Z" fill="#FDF7BE" stroke="black" stroke-width="1.8"/>
<path d="M95.2726 57.7211C95.2726 58.9199 94.2113 62.2017 92.5676 64.7349C90.9239 67.2735 87.5876 70.4576 86.7005 71.3418C85.8133 72.226 80.1748 75.1281 79.0536 75.8007C77.9325 76.4679 74.8955 76.8964 71.8096 76.8964C68.7236 76.8964 62.9926 74.3198 61.9802 73.9184C60.9625 73.517 57.12 71.2984 55.2913 70.1918C53.468 69.0798 49.5929 66.4653 48.0309 65.2177C46.4743 63.9755 45.0483 56.6525 44.7163 54.2657C44.466 52.4974 46.3763 47.7673 48.205 44.4638C48.8418 43.303 49.4732 42.3158 49.9956 41.6974C51.9985 39.2998 59.297 37.884 59.297 37.884C57.7568 41.7733 56.1077 47.035 55.2804 53.4195C54.4096 60.1458 54.7361 65.9174 55.2967 70.1973C51.8733 68.7598 45.0755 65.3316 40.0901 58.0194C33.3903 48.185 34.3428 37.7375 34.8652 31.9822C35.5728 24.2253 36.645 12.4814 45.8974 5.3646C58.35 -4.2095 75.3527 2.50594 82.9886 5.52734C90.7443 8.59213 92.5458 11.6244 93.1935 13.5229C94.5541 17.5153 91.8927 19.6851 90.9838 26.1944C89.498 36.8805 94.8535 44.0787 92.9214 45.2883C91.9689 45.885 89.449 44.914 82.2321 37.1354L85.084 39.0394C85.084 39.0394 89.2258 41.7028 91.1035 44.9032C92.9812 48.0982 93.15 49.2102 94.0752 51.2389C94.3419 51.8139 94.5487 52.492 94.7174 53.1917C95.1365 54.9546 95.2726 56.864 95.2726 57.7211Z" fill="#FDF7BE" stroke="#231F20" stroke-width="1.8" stroke-miterlimit="10"/>
<path d="M113.173 161.843L31.518 161.854H31.5178H2.11935C0.79723 155.385 0.993691 146.19 4.03212 135.676C6.82314 126.023 9.50846 121.552 12.1679 117.123C12.5086 116.556 12.8489 115.989 13.189 115.413C13.5413 114.82 14.237 114.029 15.244 113.084C18.3457 110.198 23.8216 106.392 28.572 103.281C30.9376 101.732 33.1066 100.366 34.6844 99.3875C35.4731 98.8982 36.1137 98.5059 36.5568 98.2362C36.7783 98.1013 36.9505 97.997 37.067 97.9266L37.1994 97.8468L37.2248 97.8315L37.255 97.8153C37.2879 97.7974 37.3338 97.772 37.3891 97.7403C37.499 97.6775 37.6499 97.5877 37.812 97.4808C37.9718 97.3754 38.1553 97.2448 38.3245 97.0996C38.4815 96.9649 38.6838 96.7695 38.8238 96.526L38.8366 96.5038L38.8481 96.4809C38.882 96.4133 38.937 96.2966 38.9702 96.1458C38.9752 96.1388 38.9806 96.1313 38.9866 96.1234C39.067 96.0151 39.196 95.8617 39.3705 95.6686C39.7159 95.2864 40.1851 94.8085 40.6653 94.3343C41.058 93.9465 41.4515 93.5676 41.7791 93.2553C41.7973 93.2796 41.8154 93.3037 41.8335 93.3275C42.1432 93.7353 42.5248 94.1824 42.9143 94.6088C43.6662 95.4318 44.5504 96.2896 45.058 96.62C45.5897 96.9661 47.0268 97.5668 49.2726 98.1058C51.5534 98.6532 54.7363 99.1534 58.8064 99.2553C66.7125 99.4532 72.8192 97.4352 77.0323 94.1462L77.0801 94.1677C77.4107 94.3164 77.8518 94.5154 78.2946 94.7163C78.738 94.9174 79.1809 95.1195 79.5158 95.275C79.6838 95.353 79.821 95.4175 79.9162 95.4636C79.9537 95.4818 79.9811 95.4953 79.9997 95.5048C80.0192 95.5172 80.0355 95.5266 80.0455 95.5323C80.0699 95.5461 80.0923 95.5575 80.1067 95.5647C80.1373 95.5801 80.1722 95.5965 80.2061 95.6121C80.2759 95.6442 80.3705 95.6862 80.4834 95.7356L80.4857 95.7366C81.1471 96.0238 82.5838 96.6308 83.8496 97.1638C84.4837 97.4307 85.0768 97.6799 85.5112 97.8623L86.0295 98.0797L86.1719 98.1394L86.2079 98.1545L86.2092 98.155L96.1538 102.723L101.441 106.068L106.158 110.475L106.158 110.475L109.739 113.822L114.077 120.807L117.79 129.436L120.601 138.804L122.571 153.952L122.573 153.963L123.496 161.843H113.173H113.173Z" fill="#EE2A7D" stroke="black" stroke-width="1.8"/>
<path d="M59.8125 151.775L59.8126 151.775L59.6771 150.604C59.2001 150.455 58.5406 150.226 57.924 149.893C57.1708 149.485 56.24 148.794 56.0051 147.675L56.0046 147.672C55.785 146.61 56.2443 145.54 56.7634 144.787C57.0357 144.392 57.3575 144.034 57.693 143.75C58.0126 143.479 58.3985 143.228 58.8102 143.115L57.7065 133.578C57.7065 133.578 57.7064 133.578 57.7064 133.577C57.5221 132.008 58.0687 130.434 59.2007 129.326L59.2012 129.325C59.6427 128.894 60.1539 128.428 60.6778 128.026C61.1893 127.633 61.7678 127.258 62.3408 127.062C63.2204 126.759 65.1796 126.388 66.9416 126.085C68.7003 125.782 70.3747 125.53 70.8695 125.455L70.9023 125.45L70.9098 125.449L70.9098 125.449C70.9811 125.439 71.027 125.431 71.0718 125.422L71.0839 125.419L71.0839 125.419C71.3658 125.363 72.1575 125.212 73.0215 125.105L73.5168 125.044L73.8311 125.431C76.4854 128.705 77.7037 131.168 78.2501 132.861C78.5236 133.708 78.6283 134.362 78.6604 134.825C78.6764 135.057 78.6742 135.239 78.6661 135.374C78.662 135.442 78.6565 135.497 78.6511 135.54C78.6484 135.562 78.6457 135.58 78.6433 135.595L78.6398 135.616L78.6383 135.625L78.6375 135.629L78.6372 135.631C78.6371 135.631 78.637 135.632 78.5894 135.623L78.637 135.632C78.3813 136.977 77.746 138.141 77.0531 139.001C76.7054 139.433 76.3332 139.802 75.9693 140.087C75.6184 140.361 75.2246 140.598 74.8318 140.705L74.8283 140.705C72.2416 141.396 69.6564 142.085 67.0714 142.774L67.0586 142.778L67.0526 142.779C64.9609 143.337 62.8693 143.894 60.7771 144.453L61.3238 149.177C62.4185 149.388 63.7697 149.45 65.3074 149.384C67.2191 149.302 69.3572 149.026 71.5396 148.641C75.9043 147.871 80.3811 146.678 83.4631 145.79L83.4646 145.789C83.7377 145.711 84.0464 145.526 84.4215 145.197C84.797 144.868 85.1799 144.45 85.6241 143.958L85.6244 143.957C87.3148 142.086 87.8064 140.062 88.3749 137.534C88.8372 135.477 89.505 132.349 88.8125 128.343L88.8123 128.342C88.5223 126.656 88.1203 124.498 86.6354 122.138C86.0119 121.149 84.7273 119.129 82.4862 117.884L59.8125 151.775ZM59.8125 151.775L59.8142 151.788M59.8125 151.775L59.8142 151.788M59.8142 151.788L61.1267 161.864L57.1286 161.922L53.0015 161.982L52.0379 135.81L52.0373 135.794L52.0361 135.777C52.0234 135.606 52.0043 135.442 51.979 135.278L51.9776 135.269L51.9761 135.26C51.9666 135.205 51.9394 135.071 51.899 134.872C51.6181 133.485 50.6992 128.946 50.6669 126.318L50.6669 126.318C50.6444 124.5 50.6441 122.296 51.9573 120.708L51.9586 120.706C52.391 120.181 52.8723 119.824 54.0408 119.492C55.2706 119.142 57.16 118.848 60.3596 118.434L60.3605 118.434M59.8142 151.788L60.3605 118.434M60.3605 118.434C67.1073 117.553 70.653 117.306 73.8058 117.155M60.3605 118.434L73.8058 117.155M73.8058 117.155C79.8627 116.871 81.1306 117.13 82.4861 117.883L73.8058 117.155ZM59.0274 144.991L59.447 148.617C59.2231 148.528 58.9961 148.426 58.78 148.309C58.1394 147.963 57.8319 147.613 57.767 147.306C57.6934 146.947 57.8438 146.391 58.2452 145.809C58.4335 145.536 58.6502 145.298 58.8571 145.123C58.9193 145.07 58.9762 145.027 59.0274 144.991Z" fill="#FFCA30" stroke="black" stroke-width="1.8"/>
<path d="M29.2264 151.1C30.1198 155.414 30.6347 159.179 30.6415 161.854H2.11935C0.79723 155.385 0.99369 146.189 4.03212 135.676C6.82314 126.023 9.50846 121.552 12.1679 117.123C12.5086 116.556 12.8489 115.989 13.189 115.412C13.4678 114.944 13.9616 114.35 14.6546 113.655C15.3175 114.24 16.0566 115.146 16.8488 116.36C17.7589 117.755 18.7037 119.5 19.6543 121.507C21.5553 125.521 23.4531 130.523 25.1253 135.729C26.7968 140.933 28.2368 146.32 29.2264 151.1Z" fill="#CD1C6A" stroke="black" stroke-width="1.8"/>
<path d="M122.577 153.947L123.504 161.848H114.154C115.351 146.698 115.144 127.927 109.43 113.517L109.745 113.81L114.082 120.796L117.796 129.425L120.606 138.793L122.577 153.947Z" fill="#CD1C6A" stroke="black" stroke-width="1.8"/>
<path d="M80.8442 94.9002C80.6537 95.1281 80.4414 95.3559 80.2183 95.5783C78.7052 97.0863 72.9742 100.58 72.9742 100.58C72.9742 100.58 67.3955 102.229 62.8564 102.587C58.3118 102.945 52.7931 102.679 48.9669 101.968C45.6687 101.355 41.8317 100.146 38.0491 96.0719C38.0817 96.0068 38.1035 95.9472 38.1035 95.8875C38.1035 95.4264 41.9732 91.8354 41.9732 91.8354C42.2943 92.7522 44.7543 95.3396 45.5544 95.8604C46.3545 96.3811 50.8174 98.1495 58.8343 98.3502C66.8513 98.5509 72.8817 96.4245 76.9037 93.0939C76.9037 93.0939 80.4251 94.6724 80.485 94.7375C80.4958 94.7484 80.6265 94.808 80.8496 94.9057L80.8442 94.9002Z" fill="#CD1C6A"/>
<path d="M58.7527 32.5137C60.0861 34.5262 60.4889 34.9818 63.2374 34.9113C65.9859 34.8354 68.8324 34.5099 68.8324 34.3038C68.8324 34.0976 65.1641 32.1123 65.1641 32.1123C65.1641 32.1123 64.0973 33.0019 63.6075 33.2243C63.1176 33.4467 60.8372 34.038 60.8372 34.038L58.7527 32.5137Z" fill="#FEEC97"/>
<path d="M77.5078 30.8486L74.1606 33.3222L81.8782 32.1125L77.5078 30.8486Z" fill="#FEEC97"/>
<path d="M72.4845 39.0719C72.4246 38.9038 72.3593 38.7356 72.3376 38.5566C72.3212 38.4047 72.1199 38.3776 72.0709 38.5295C72.0001 38.7519 72.109 39.0123 72.1743 39.2347C72.2505 39.5059 72.3485 39.7717 72.4355 40.0375C72.6151 40.5745 72.8002 41.1061 72.9744 41.6431C73.3118 42.6846 73.6166 43.7369 73.8887 44.7947C74.1554 45.8579 74.3894 46.9265 74.5854 48.0005C74.7867 49.1017 74.852 50.2462 75.2276 51.304C75.2983 51.5101 75.663 51.5481 75.6957 51.2931C75.8099 50.409 75.6739 49.5736 75.5324 48.7003C75.3909 47.8269 75.233 46.959 75.0371 46.102C74.6398 44.3607 74.1445 42.6466 73.5241 40.9759C73.3553 40.5202 73.1812 40.0592 72.9744 39.6198C72.8709 39.3974 72.7784 39.1696 72.6587 38.958C72.5553 38.7736 72.4628 38.5457 72.2614 38.4481C72.207 38.5186 72.1525 38.5946 72.1035 38.6651C72.2178 38.8007 72.2995 38.9634 72.3811 39.1207C72.4083 39.175 72.4954 39.1316 72.4791 39.0773L72.4845 39.0719Z" fill="#1E1E1E" stroke="#231F20" stroke-width="1.5" stroke-miterlimit="10"/>
<path d="M60.7338 37.4283C58.5296 37.5965 56.3199 38.2257 54.2789 39.0502C52.2651 39.8639 50.3494 40.9922 48.9071 42.6412C47.2525 44.5398 46.311 46.9645 45.4456 49.2915C44.9884 50.5283 44.6129 51.7976 44.4441 53.1049C44.2809 54.3363 44.2645 55.5784 44.3897 56.8152C44.6673 59.5708 45.5435 62.3427 47.0947 64.6535C47.3124 64.9735 47.7587 64.6806 47.5954 64.3443C46.5722 62.1908 45.6687 59.9451 45.3204 57.5692C44.9612 55.1391 45.1734 52.736 45.9354 50.4035C46.3218 49.221 46.779 48.0602 47.2797 46.9265C47.7532 45.847 48.2921 44.7784 48.9887 43.8237C50.2459 42.1096 52.0257 40.8837 53.9469 40.0049C56.1512 38.996 58.535 38.5512 60.7774 37.6562C60.8917 37.6128 60.8808 37.4229 60.7393 37.4283H60.7338Z" fill="#1E1E1E" stroke="#231F20" stroke-width="1.5" stroke-miterlimit="10"/>
<path d="M47.4811 64.5665C48.7329 66.0203 50.2242 67.2245 51.759 68.3636C53.2884 69.5027 54.8885 70.5605 56.5322 71.5369C58.1758 72.5133 59.8739 73.4029 61.6155 74.2057C63.4334 75.0356 65.2893 75.8059 67.2051 76.3809C69.1699 76.9722 71.2217 77.3573 73.2845 77.3031C75.3418 77.2488 77.3446 76.7118 79.2495 75.9578C82.7655 74.5746 86.1018 72.6381 88.8612 70.0506C91.528 67.5554 93.6289 64.4038 94.6738 60.8942C94.8045 60.4602 94.848 59.9937 94.9079 59.5489C94.9623 59.1638 94.4235 59.0119 94.3092 59.4025C94.184 59.8256 94.0098 60.2324 93.8847 60.6501C93.754 61.084 93.6125 61.5126 93.4493 61.9357C93.139 62.7493 92.7635 63.5413 92.339 64.3007C91.479 65.8521 90.4069 67.2733 89.1823 68.5589C86.6515 71.206 83.4948 73.2185 80.1476 74.6885C78.3406 75.4805 76.4466 76.1639 74.4764 76.3918C72.479 76.625 70.4706 76.3863 68.5331 75.8927C66.6173 75.4099 64.7614 74.6993 62.949 73.9128C61.24 73.1696 59.5637 72.3451 57.9309 71.4447C54.6436 69.6384 51.6284 67.4523 48.6458 65.1958C48.2975 64.93 47.9274 64.6859 47.5682 64.4418C47.4975 64.3929 47.4322 64.5014 47.4811 64.5557V64.5665Z" fill="#1E1E1E" stroke="#231F20" stroke-width="1.5" stroke-miterlimit="10"/>
<path d="M48.1234 44.8976C50.6106 53.2241 58.2792 57.9379 64.8648 56.5818C69.5726 55.6108 72.3973 51.8137 73.7199 49.4921C74.2641 48.5319 75.4669 48.1577 76.4738 48.6187C78.6073 49.5951 81.4102 50.5932 84.7901 51.1248C88.5564 51.7215 91.7784 51.5425 94.0806 51.2333C90.5701 43.1292 87.4515 40.7371 85.1493 40.1621C84.322 39.9559 82.6131 39.7335 80.632 38.5347C78.7543 37.3956 78.6291 36.5874 76.8004 35.7412C75.1567 34.9763 73.6491 34.8841 72.3048 34.8027C72.0109 34.7865 70.1386 34.678 68.1467 35.0631C62.5027 36.148 62.3557 39.8963 57.022 41.1385C54.3878 41.7514 52.3958 41.312 49.963 43.0967C49.0921 43.7368 48.4935 44.4202 48.1179 44.903L48.1234 44.8976Z" fill="#A77D52" stroke="#231F20" stroke-width="1.5" stroke-miterlimit="10"/>
<path d="M82.2429 37.1301V36.9511C82.2429 36.9511 82.2266 36.9403 82.2266 36.9511V37.1301C82.2266 37.1301 82.2429 37.141 82.2429 37.1301Z" fill="#1E1E1E" stroke="#231F20" stroke-width="1.5" stroke-miterlimit="10"/>
<path d="M79.7285 37.0867C80.6374 37.1843 81.5191 37.3091 82.3681 37.6617C83.2117 38.0143 83.9955 38.4862 84.7465 39.0015C86.2705 40.0484 87.7672 41.2147 88.97 42.625C91.2668 45.321 92.6165 48.7709 93.7268 52.0907C94.0697 53.1213 94.3745 54.1682 94.5758 55.2368C94.7827 56.3163 94.8153 57.4174 95.0657 58.486C95.1147 58.6922 95.3868 58.6434 95.4467 58.4752C95.7895 57.488 95.6916 56.4573 95.5229 55.4429C95.3596 54.4394 95.1038 53.4576 94.8044 52.4866C94.233 50.6532 93.5472 48.8414 92.7471 47.0948C91.9852 45.424 91.0708 43.8184 89.9007 42.3918C88.6597 40.8838 87.1304 39.7013 85.5085 38.6272C84.6159 38.036 83.6907 37.4827 82.6838 37.1138C81.7531 36.7775 80.6591 36.5497 79.7012 36.9023C79.5978 36.9402 79.6305 37.0704 79.7285 37.0813V37.0867Z" fill="#1E1E1E" stroke="#231F20" stroke-width="1.5" stroke-miterlimit="10"/>
<path d="M44.7708 64.4852C44.6565 64.6696 44.6075 64.7672 44.6075 64.9842C44.6075 65.212 44.6239 65.4399 44.6347 65.6677C44.662 66.1233 44.6783 66.579 44.6892 67.0347C44.7164 67.946 44.7055 68.8627 44.6511 69.774C44.5422 71.6183 44.281 73.4572 43.8565 75.2526C43.617 76.2616 43.3285 77.2597 42.9911 78.2361C42.904 78.4856 43.1435 78.6755 43.3557 78.6917C43.7041 78.7189 44.0088 78.5127 44.2701 78.312C44.3408 78.2578 44.564 78.1493 44.5966 78.0733C44.613 78.0354 44.6239 78.0788 44.6239 78.0625L44.5422 78.0408C44.5041 78.0679 44.5259 78.2632 44.5259 78.3174C44.466 79.4728 44.3517 80.6282 44.2048 81.7728C43.9054 84.0348 43.47 86.2696 42.8659 88.472C42.6972 89.0903 42.5121 89.7033 42.3162 90.3163C42.1148 90.9509 41.8699 91.553 41.7883 92.2148C41.7502 92.5348 42.1366 92.7139 42.3216 92.4264C42.6754 91.8785 42.855 91.2818 43.0509 90.6688C43.236 90.0939 43.4102 89.5135 43.5734 88.9276C43.9109 87.7288 44.1993 86.5137 44.4388 85.2933C44.6783 84.0728 44.8797 82.836 45.0157 81.5992C45.0865 80.9646 45.1409 80.3245 45.1899 79.6898C45.2117 79.4078 45.228 79.1203 45.2443 78.8382C45.2606 78.5507 45.3096 78.2415 45.2661 77.954C45.1899 77.4387 44.7055 77.1946 44.2483 77.4333C43.9653 77.5797 43.6768 77.992 43.334 77.9649C43.4537 78.1167 43.5789 78.2686 43.6986 78.4205C44.8905 74.8784 45.4566 71.1301 45.3368 67.3927C45.3205 66.8665 45.2824 66.3403 45.2334 65.8142C45.2062 65.5646 45.1844 65.3097 45.1409 65.0602C45.0974 64.7944 45.0375 64.6588 44.8416 64.4743C44.8198 64.4526 44.7817 64.4581 44.7654 64.4852H44.7708Z" fill="#1E1E1E"/>
<path d="M67.1016 72.6222C66.9438 73.3274 67.0417 74.0976 67.1125 74.8137C67.1887 75.5514 67.303 76.2891 67.4499 77.0214C67.7384 78.4643 68.152 79.8801 68.7017 81.247C69.8664 84.1382 71.6461 86.6552 73.4204 89.1992C73.9375 89.9424 74.4545 90.6801 74.9716 91.4232C75.2328 91.7921 75.4886 92.1664 75.7499 92.5352C76.0274 92.9312 76.2887 93.3543 76.6207 93.7123C76.9581 94.0703 77.4425 93.593 77.2466 93.2024C77.0615 92.8336 76.8003 92.5027 76.5608 92.1664C76.3213 91.8246 76.0873 91.4883 75.8478 91.1466C75.3961 90.5011 74.9389 89.8501 74.4872 89.2046C73.6 87.9353 72.6966 86.6823 71.8475 85.3859C70.2311 82.9232 69.0065 80.2598 68.3207 77.3903C68.1302 76.5983 67.9887 75.8009 67.8744 74.9981C67.7656 74.2115 67.771 73.3762 67.5588 72.6113C67.4935 72.3835 67.1506 72.3944 67.0961 72.6222H67.1016Z" fill="#1E1E1E"/>
<path d="M41.6738 91.8461C41.7881 92.3615 42.0711 92.8496 42.3814 93.2728C42.7025 93.7121 43.0671 94.1244 43.459 94.5041C44.2536 95.2689 45.168 95.9199 46.1313 96.4623C48.3301 97.6882 50.8119 98.2686 53.2938 98.5399C56.0205 98.8382 58.8017 98.8762 61.5447 98.7894C64.2225 98.708 66.9166 98.4151 69.4964 97.6665C70.8026 97.2868 72.0761 96.7932 73.2844 96.1694C73.8776 95.8656 74.4491 95.5239 75.0043 95.155C75.5812 94.7645 76.1799 94.3576 76.6261 93.826C76.8928 93.506 76.5282 92.9907 76.1472 93.2402C75.6574 93.5602 75.2165 93.9454 74.7376 94.2817C74.2586 94.618 73.7579 94.9272 73.2463 95.2147C72.234 95.7788 71.1672 96.2345 70.0733 96.6033C67.635 97.4224 65.0824 97.7913 62.5244 97.9323C59.8793 98.0788 57.2015 98.0625 54.5619 97.8727C52.0855 97.6937 49.5874 97.2706 47.3178 96.2399C46.2293 95.7463 45.1952 95.1225 44.2863 94.3414C43.8345 93.9562 43.4155 93.5385 43.029 93.0937C42.6372 92.6435 42.2943 92.1553 41.8698 91.7322C41.7827 91.6454 41.6575 91.7431 41.6847 91.8461H41.6738Z" fill="#1E1E1E"/>
<path d="M80.4469 95.9411C80.6797 95.6524 80.8709 95.339 80.8979 95.015C80.898 95.0142 80.898 95.0133 80.8981 95.0125C80.9176 94.7711 80.8457 94.5237 80.6319 94.2764C80.5197 94.1467 80.3922 94.0255 80.2536 93.9128L79.723 94.6073M80.4469 95.9411L77.9998 93.8032M80.4469 95.9411L79.7828 95.3938M80.4469 95.9411L80.4462 95.942L79.7828 95.3938M79.723 94.6073L80.2407 93.9024C80.0531 93.7513 79.8454 93.6156 79.6275 93.4948L79.2005 94.2764M79.723 94.6073C79.5597 94.4825 79.3801 94.3741 79.2005 94.2764M79.723 94.6073C79.7357 94.6166 79.7505 94.6271 79.7667 94.6385C79.8358 94.6873 79.9305 94.7542 79.9947 94.8274C79.9947 94.8274 79.9947 94.8274 79.9947 94.8274C80.0382 94.8771 80.0678 94.9297 80.0658 94.9816C80.0616 95.0886 79.9353 95.2259 79.8448 95.3244C79.8206 95.3508 79.7989 95.3744 79.7828 95.3938M79.2005 94.2764L79.6259 93.4939C79.291 93.3084 78.9321 93.1582 78.585 93.0419C78.4705 93.0046 78.356 92.9704 78.242 92.9388M79.2005 94.2764C78.9107 94.1181 78.6065 93.9944 78.2942 93.8936M78.242 92.9388C78.1835 92.9225 78.1251 92.907 78.0669 92.8921C77.796 92.8305 77.5275 92.8023 77.2541 92.8023C77.293 92.8378 77.3295 92.8805 77.3609 92.931C77.4503 93.0753 77.4556 93.2143 77.4423 93.3013C77.4279 93.395 77.366 93.5357 77.2331 93.6269C77.4408 93.6682 77.648 93.7137 77.8532 93.7665C77.902 93.7773 77.9509 93.7896 77.9998 93.8032M78.242 92.9388L77.9998 93.8032M78.242 92.9388L78.0003 93.8034M77.9998 93.8032L78.0003 93.8034M78.0003 93.8034C78.0984 93.8309 78.1967 93.861 78.2942 93.8936M78.0003 93.8034L78.2942 93.8936M78.2942 93.8936L58.3214 102.624C58.3215 102.624 58.3216 102.624 58.3216 102.624C60.329 102.597 62.3326 102.423 64.3318 102.166C64.3326 102.166 64.3334 102.165 64.3342 102.165C64.6472 102.125 64.9601 102.083 65.2729 102.039C68.7346 101.553 72.2274 100.748 75.3034 99.0368L75.7063 99.7659M79.7828 95.3938C79.6577 95.5457 79.527 95.6976 79.391 95.8495C79.3588 95.8851 79.3264 95.9205 79.2938 95.9557C79.2935 95.9561 79.2931 95.9565 79.2927 95.9569C78.2087 97.1293 76.9324 98.1031 75.5485 98.898M75.5485 98.898C75.4673 98.9448 75.3858 98.991 75.304 99.0365L75.7063 99.7659M75.5485 98.898L75.9638 99.6211C75.8783 99.67 75.7925 99.7183 75.7063 99.7659M75.5485 98.898L75.9648 99.6205L65.3859 102.84C68.9615 102.34 72.5268 101.52 75.7063 99.7659M76.9597 92.8129C76.9579 92.8131 76.956 92.8132 76.9541 92.8133L76.9194 93.0067L76.8221 93.5495L76.9207 93.0218L76.9597 92.8129Z" fill="#1E1E1E" stroke="black" stroke-width="1.8"/>
<path d="M37.7552 95.9144C35.2299 97.4603 32.797 99.1636 30.3424 100.818C27.8824 102.472 25.4169 104.111 22.9623 105.771C18.63 108.694 14.2705 111.683 11.1083 115.909C8.09312 119.934 6.15011 124.615 4.5772 129.35C3.7336 131.895 2.96075 134.466 2.25321 137.048C1.50758 139.787 0.876239 142.559 0.495258 145.369C-0.272148 151.005 -0.141526 156.738 0.865354 162.331C0.990533 163.02 1.15381 163.682 1.37696 164.343C1.49125 164.691 2.08449 164.631 2.04095 164.235C1.88856 162.835 1.59466 161.463 1.39873 160.069C1.20824 158.691 1.07217 157.308 0.985091 155.925C0.81637 153.131 0.865354 150.321 1.13204 147.533C1.66541 142.011 3.1839 136.646 4.833 131.368C6.3025 126.665 8.03869 121.979 10.7709 117.851C12.1642 115.746 13.8296 113.853 15.7182 112.171C17.6721 110.436 19.811 108.922 21.9663 107.447C26.734 104.181 31.5289 100.954 36.2803 97.6556C36.879 97.2433 37.4613 96.8148 38.0437 96.3809C38.3267 96.1693 38.06 95.7191 37.7498 95.9089L37.7552 95.9144Z" fill="#1E1E1E"/>
<mask id="path-22-inside-1_381_2467" fill="white">
<path d="M16.8067 117.493C17.5196 118.29 18.1401 119.207 18.7225 120.102C19.3103 121.003 19.8164 121.946 20.2845 122.912C21.2533 124.93 22.0207 127.051 22.7282 129.172C24.2195 133.663 25.2536 138.312 25.8087 143.009C25.9611 144.311 26.0808 145.624 26.1734 146.931C26.2713 148.282 26.4128 149.622 26.5489 150.967C26.5707 151.195 26.8809 151.179 26.9027 150.956C27.0115 149.747 27.0823 148.548 27.0442 147.333C27.0006 146.128 26.9027 144.924 26.772 143.725C26.5162 141.322 26.1407 138.93 25.6291 136.571C24.644 131.987 23.2398 127.42 21.226 123.172C20.709 122.071 20.1158 121.003 19.4354 119.994C19.098 119.5 18.7388 119.017 18.3469 118.567C17.9387 118.095 17.4652 117.699 16.9917 117.292C16.8611 117.178 16.6924 117.357 16.8067 117.482V117.493Z"/>
</mask>
<path d="M16.8067 117.493C17.5196 118.29 18.1401 119.207 18.7225 120.102C19.3103 121.003 19.8164 121.946 20.2845 122.912C21.2533 124.93 22.0207 127.051 22.7282 129.172C24.2195 133.663 25.2536 138.312 25.8087 143.009C25.9611 144.311 26.0808 145.624 26.1734 146.931C26.2713 148.282 26.4128 149.622 26.5489 150.967C26.5707 151.195 26.8809 151.179 26.9027 150.956C27.0115 149.747 27.0823 148.548 27.0442 147.333C27.0006 146.128 26.9027 144.924 26.772 143.725C26.5162 141.322 26.1407 138.93 25.6291 136.571C24.644 131.987 23.2398 127.42 21.226 123.172C20.709 122.071 20.1158 121.003 19.4354 119.994C19.098 119.5 18.7388 119.017 18.3469 118.567C17.9387 118.095 17.4652 117.699 16.9917 117.292C16.8611 117.178 16.6924 117.357 16.8067 117.482V117.493Z" fill="#1E1E1E"/>
<path d="M16.8067 117.493H15.0067V118.18L15.4648 118.693L16.8067 117.493ZM18.7225 120.102L17.2137 121.084L17.2152 121.086L18.7225 120.102ZM20.2845 122.912L21.9072 122.133L21.9042 122.127L20.2845 122.912ZM22.7282 129.172L24.4365 128.605L24.4357 128.602L22.7282 129.172ZM25.8087 143.009L27.5965 142.8L27.5963 142.798L25.8087 143.009ZM26.1734 146.931L24.3778 147.058L24.3781 147.061L26.1734 146.931ZM26.5489 150.967L28.3408 150.796L28.3398 150.786L26.5489 150.967ZM26.9027 150.956L28.6942 151.132L28.6954 151.118L26.9027 150.956ZM27.0442 147.333L28.8433 147.276L28.843 147.268L27.0442 147.333ZM26.772 143.725L24.9822 143.916L24.9826 143.92L26.772 143.725ZM25.6291 136.571L23.8693 136.949L23.87 136.952L25.6291 136.571ZM21.226 123.172L19.5967 123.937L19.5996 123.943L21.226 123.172ZM19.4354 119.994L20.9279 118.987L20.9214 118.978L19.4354 119.994ZM18.3469 118.567L16.9855 119.745L16.9892 119.749L18.3469 118.567ZM16.9917 117.292L15.8086 118.649L15.8187 118.657L16.9917 117.292ZM16.8067 117.482H18.6067V116.782L18.1339 116.266L16.8067 117.482ZM15.4648 118.693C16.0784 119.379 16.6349 120.194 17.2137 121.084L20.2312 119.12C19.6452 118.22 18.9609 117.202 18.1485 116.293L15.4648 118.693ZM17.2152 121.086C17.7478 121.902 18.2171 122.774 18.6648 123.697L21.9042 122.127C21.4158 121.119 20.8727 120.103 20.2297 119.118L17.2152 121.086ZM18.6618 123.691C19.5812 125.606 20.3205 127.642 21.0207 129.741L24.4357 128.602C23.7208 126.459 22.9253 124.254 21.9072 122.133L18.6618 123.691ZM21.0199 129.739C22.4727 134.114 23.4803 138.644 24.0211 143.221L27.5963 142.798C27.0268 137.98 25.9662 133.212 24.4365 128.605L21.0199 129.739ZM24.0209 143.219C24.1697 144.49 24.287 145.775 24.3779 147.058L27.9689 146.804C27.8746 145.473 27.7524 144.132 27.5965 142.8L24.0209 143.219ZM24.3781 147.061C24.4784 148.444 24.6232 149.815 24.758 151.148L28.3398 150.786C28.2024 149.428 28.0643 148.12 27.9686 146.801L24.3781 147.061ZM24.7571 151.138C24.8035 151.624 25.0286 152.118 25.4588 152.476C25.8684 152.817 26.3588 152.947 26.7992 152.929C27.7018 152.892 28.5883 152.212 28.6941 151.132L25.1112 150.781C25.1952 149.923 25.9157 149.362 26.6524 149.332C27.0097 149.317 27.4172 149.422 27.7618 149.709C28.127 150.013 28.3052 150.424 28.3407 150.796L24.7571 151.138ZM28.6954 151.118C28.8072 149.875 28.8846 148.595 28.8433 147.276L25.2451 147.389C25.2799 148.5 25.2158 149.618 25.1099 150.795L28.6954 151.118ZM28.843 147.268C28.7975 146.01 28.6956 144.761 28.5615 143.53L24.9826 143.92C25.1098 145.087 25.2037 146.247 25.2453 147.398L28.843 147.268ZM28.5619 143.535C28.2998 141.073 27.9145 138.617 27.3882 136.189L23.87 136.952C24.3669 139.244 24.7326 141.572 24.9822 143.916L28.5619 143.535ZM27.3889 136.192C26.3825 131.51 24.9398 126.804 22.8525 122.401L19.5996 123.943C21.5398 128.036 22.9055 132.464 23.8693 136.949L27.3889 136.192ZM22.8554 122.407C22.3039 121.233 21.6661 120.082 20.9278 118.987L17.943 121C18.5655 121.923 19.1141 122.91 19.5967 123.937L22.8554 122.407ZM20.9214 118.978C20.5579 118.446 20.1558 117.904 19.7047 117.385L16.9892 119.749C17.3217 120.131 17.6381 120.554 17.9495 121.009L20.9214 118.978ZM19.7083 117.389C19.1937 116.794 18.603 116.303 18.1647 115.927L15.8187 118.657C16.3274 119.095 16.6837 119.396 16.9855 119.745L19.7083 117.389ZM18.1748 115.936C17.799 115.608 17.2898 115.417 16.7414 115.463C16.2265 115.506 15.8005 115.747 15.5082 116.052C14.9082 116.677 14.6871 117.833 15.4794 118.698L18.1339 116.266C18.8119 117.006 18.618 118.01 18.1064 118.544C17.8584 118.802 17.492 119.012 17.0418 119.05C16.5582 119.09 16.1191 118.92 15.8086 118.649L18.1748 115.936ZM15.0067 117.482V117.493H18.6067V117.482H15.0067Z" fill="black" mask="url(#path-22-inside-1_381_2467)"/>
<path d="M80.7898 94.9272C82.1123 95.73 83.5274 96.3375 84.9262 96.983C86.3086 97.6177 87.7019 98.2306 89.0952 98.8436C91.7838 100.037 94.516 101.171 97.0359 102.695C99.4579 104.165 101.673 105.933 103.856 107.723C106.038 109.519 108.264 111.293 110.076 113.473C113.516 117.612 115.557 122.744 117.576 127.664C118.697 130.397 119.742 133.164 120.466 136.033C121.201 138.952 121.615 141.941 121.974 144.924C122.339 147.956 122.687 150.989 123.041 154.015C123.22 155.561 123.4 157.107 123.585 158.659C123.759 160.129 123.993 161.604 124.091 163.08C124.124 163.541 124.129 164.132 123.748 164.457C123.443 164.718 123.852 165.108 124.156 164.962C125.348 164.387 124.973 162.792 124.853 161.756C124.668 160.188 124.483 158.615 124.303 157.048C123.933 153.907 123.569 150.766 123.198 147.625C122.839 144.571 122.502 141.512 121.925 138.485C121.353 135.496 120.466 132.6 119.378 129.757C118.349 127.083 117.239 124.425 116.052 121.816C114.937 119.359 113.696 116.939 112.145 114.721C110.506 112.378 108.503 110.419 106.316 108.591C104.084 106.731 101.847 104.859 99.4524 103.205C97.0196 101.523 94.3908 100.211 91.675 99.0497C88.8231 97.8347 85.9711 96.5762 83.0702 95.4805C82.3355 95.2038 81.6171 94.9434 80.8606 94.7373C80.7517 94.7048 80.6973 94.8621 80.7898 94.9163V94.9272Z" fill="#1E1E1E"/>
<mask id="path-25-inside-2_381_2467" fill="white">
<path d="M105.575 109.427C105.782 110.029 106.354 110.522 106.713 111.048C107.088 111.591 107.415 112.171 107.682 112.773C108.237 114.026 108.585 115.372 108.846 116.712C109.135 118.214 109.32 119.733 109.521 121.246C109.761 123.036 110 124.832 110.24 126.622C110.517 128.672 110.789 130.712 111.247 132.73C111.306 133.007 111.753 132.931 111.742 132.649C111.655 130.766 111.421 128.911 111.17 127.045C110.926 125.217 110.675 123.384 110.43 121.556C110.027 118.605 109.761 115.524 108.52 112.779C108.199 112.068 107.818 111.374 107.344 110.756C106.931 110.219 106.359 109.47 105.646 109.356C105.608 109.351 105.565 109.383 105.581 109.427H105.575Z"/>
</mask>
<path d="M105.575 109.427C105.782 110.029 106.354 110.522 106.713 111.048C107.088 111.591 107.415 112.171 107.682 112.773C108.237 114.026 108.585 115.372 108.846 116.712C109.135 118.214 109.32 119.733 109.521 121.246C109.761 123.036 110 124.832 110.24 126.622C110.517 128.672 110.789 130.712 111.247 132.73C111.306 133.007 111.753 132.931 111.742 132.649C111.655 130.766 111.421 128.911 111.17 127.045C110.926 125.217 110.675 123.384 110.43 121.556C110.027 118.605 109.761 115.524 108.52 112.779C108.199 112.068 107.818 111.374 107.344 110.756C106.931 110.219 106.359 109.47 105.646 109.356C105.608 109.351 105.565 109.383 105.581 109.427H105.575Z" fill="#1E1E1E"/>
<path d="M105.575 109.427V107.627H103.054L103.873 110.011L105.575 109.427ZM106.713 111.048L105.226 112.063L105.233 112.073L106.713 111.048ZM107.682 112.773L106.036 113.502L106.036 113.503L107.682 112.773ZM108.846 116.712L110.614 116.372L110.613 116.367L108.846 116.712ZM109.521 121.246L107.737 121.484L107.737 121.485L109.521 121.246ZM110.24 126.622L108.456 126.861L108.456 126.863L110.24 126.622ZM111.247 132.73L113.006 132.349L113.004 132.341L113.002 132.332L111.247 132.73ZM111.742 132.649L113.541 132.579L113.54 132.565L111.742 132.649ZM111.17 127.045L109.386 127.284L109.386 127.284L111.17 127.045ZM110.43 121.556L112.214 121.317L112.214 121.312L110.43 121.556ZM108.52 112.779L106.88 113.52L106.88 113.52L108.52 112.779ZM107.344 110.756L108.773 109.661L108.77 109.657L107.344 110.756ZM105.646 109.356L105.93 107.579L105.915 107.576L105.9 107.574L105.646 109.356ZM105.581 109.427V111.227H108.181L107.266 108.793L105.581 109.427ZM103.873 110.011C104.084 110.625 104.449 111.103 104.687 111.397C105 111.784 105.099 111.877 105.226 112.063L108.2 110.034C108.062 109.832 107.917 109.652 107.799 109.51C107.658 109.34 107.59 109.262 107.487 109.135C107.298 108.9 107.274 108.83 107.278 108.842L103.873 110.011ZM105.233 112.073C105.545 112.524 105.816 113.005 106.036 113.502L109.328 112.044C109.014 111.337 108.632 110.658 108.193 110.024L105.233 112.073ZM106.036 113.503C106.514 114.582 106.831 115.78 107.08 117.056L110.613 116.367C110.339 114.963 109.96 113.471 109.327 112.044L106.036 113.503ZM107.079 117.051C107.355 118.489 107.532 119.941 107.737 121.484L111.306 121.009C111.108 119.525 110.915 117.939 110.614 116.372L107.079 117.051ZM107.737 121.485C107.857 122.38 107.977 123.276 108.096 124.173C108.216 125.069 108.336 125.965 108.456 126.861L112.024 126.383C111.904 125.488 111.784 124.592 111.665 123.696C111.545 122.8 111.425 121.903 111.305 121.008L107.737 121.485ZM108.456 126.863C108.731 128.897 109.013 131.018 109.491 133.128L113.002 132.332C112.566 130.406 112.303 128.447 112.023 126.381L108.456 126.863ZM109.487 133.111C109.614 133.696 109.984 134.178 110.488 134.453C110.948 134.705 111.429 134.739 111.817 134.674C112.539 134.553 113.591 133.891 113.541 132.579L109.943 132.718C109.904 131.688 110.738 131.205 111.224 131.123C111.495 131.078 111.854 131.097 112.214 131.294C112.617 131.514 112.909 131.902 113.006 132.349L109.487 133.111ZM113.54 132.565C113.449 130.597 113.205 128.673 112.954 126.806L109.386 127.284C109.637 129.15 109.861 130.936 109.944 132.732L113.54 132.565ZM112.954 126.806C112.832 125.891 112.708 124.974 112.584 124.059C112.46 123.143 112.337 122.229 112.214 121.317L108.646 121.795C108.769 122.71 108.893 123.626 109.017 124.542C109.14 125.457 109.264 126.371 109.386 127.284L112.954 126.806ZM112.214 121.312C111.831 118.506 111.537 115.084 110.16 112.037L106.88 113.52C107.984 115.963 108.224 118.704 108.647 121.799L112.214 121.312ZM110.16 112.038C109.803 111.246 109.356 110.422 108.773 109.661L105.915 111.85C106.28 112.326 106.595 112.89 106.88 113.52L110.16 112.038ZM108.77 109.657C108.58 109.41 108.249 108.972 107.845 108.59C107.451 108.217 106.808 107.719 105.93 107.579L105.362 111.134C105.198 111.107 105.197 111.04 105.37 111.204C105.534 111.359 105.695 111.564 105.918 111.854L108.77 109.657ZM105.9 107.574C105.327 107.492 104.76 107.683 104.356 108.066C103.881 108.515 103.603 109.281 103.896 110.06L107.266 108.793C107.543 109.529 107.278 110.256 106.831 110.68C106.453 111.037 105.928 111.214 105.392 111.138L105.9 107.574ZM105.581 107.627H105.575V111.227H105.581V107.627Z" fill="black" mask="url(#path-25-inside-2_381_2467)"/>
<mask id="path-27-inside-3_381_2467" fill="white">
<path d="M48.5861 80.7153C48.4391 81.1059 48.4881 81.5941 48.5425 82.0009C48.597 82.4186 48.6786 82.8363 48.7983 83.2431C48.9725 83.8343 49.2827 84.8921 50.1154 84.4961C50.491 84.3171 50.8175 83.9754 51.1332 83.7096C51.4217 83.4709 51.7428 83.14 52.1238 83.0641C52.4993 82.9881 52.5428 83.3516 52.6408 83.6228C52.7388 83.9049 52.8857 84.1164 53.1796 84.2141C53.2721 84.2466 53.4082 84.2086 53.4681 84.1273C53.7511 83.7801 54.0831 83.3624 54.5784 83.5143C54.992 83.6391 55.3458 83.7801 55.7866 83.7855C56.6357 83.7855 57.4248 83.4275 57.9092 82.7278C58.0616 82.5054 57.7296 82.3101 57.55 82.4674C56.9404 83.0098 56.0642 83.319 55.2532 83.1075C54.8287 82.999 54.4695 82.7766 54.0178 82.9122C53.5987 83.0424 53.2885 83.3787 53.0272 83.715C53.1252 83.6879 53.2232 83.6608 53.3157 83.6282C53.1633 83.5794 53.1034 83.1671 53.049 83.0315C52.9347 82.782 52.7497 82.5759 52.4721 82.5108C51.819 82.3643 51.2312 82.9285 50.7794 83.3028C50.6216 83.4329 50.4692 83.5631 50.3114 83.6933C50.1862 83.7964 49.9848 84.0242 49.8052 84.0459C49.5004 84.0784 49.3263 83.2485 49.2555 83.0315C49.1358 82.6518 49.0432 82.2667 48.9834 81.8707C48.9235 81.4856 48.929 81.0625 48.7983 80.6936C48.7602 80.5797 48.6133 80.596 48.5697 80.699L48.5861 80.7153Z"/>
</mask>
<path d="M48.5861 80.7153C48.4391 81.1059 48.4881 81.5941 48.5425 82.0009C48.597 82.4186 48.6786 82.8363 48.7983 83.2431C48.9725 83.8343 49.2827 84.8921 50.1154 84.4961C50.491 84.3171 50.8175 83.9754 51.1332 83.7096C51.4217 83.4709 51.7428 83.14 52.1238 83.0641C52.4993 82.9881 52.5428 83.3516 52.6408 83.6228C52.7388 83.9049 52.8857 84.1164 53.1796 84.2141C53.2721 84.2466 53.4082 84.2086 53.4681 84.1273C53.7511 83.7801 54.0831 83.3624 54.5784 83.5143C54.992 83.6391 55.3458 83.7801 55.7866 83.7855C56.6357 83.7855 57.4248 83.4275 57.9092 82.7278C58.0616 82.5054 57.7296 82.3101 57.55 82.4674C56.9404 83.0098 56.0642 83.319 55.2532 83.1075C54.8287 82.999 54.4695 82.7766 54.0178 82.9122C53.5987 83.0424 53.2885 83.3787 53.0272 83.715C53.1252 83.6879 53.2232 83.6608 53.3157 83.6282C53.1633 83.5794 53.1034 83.1671 53.049 83.0315C52.9347 82.782 52.7497 82.5759 52.4721 82.5108C51.819 82.3643 51.2312 82.9285 50.7794 83.3028C50.6216 83.4329 50.4692 83.5631 50.3114 83.6933C50.1862 83.7964 49.9848 84.0242 49.8052 84.0459C49.5004 84.0784 49.3263 83.2485 49.2555 83.0315C49.1358 82.6518 49.0432 82.2667 48.9834 81.8707C48.9235 81.4856 48.929 81.0625 48.7983 80.6936C48.7602 80.5797 48.6133 80.596 48.5697 80.699L48.5861 80.7153Z" fill="#1E1E1E"/>
<path d="M48.5861 80.7153L50.2708 81.3492L50.6802 80.2611L49.8567 79.4404L48.5861 80.7153ZM48.5425 82.0009L50.3275 81.7683L50.3266 81.7622L48.5425 82.0009ZM48.7983 83.2431L47.0716 83.7513L47.0717 83.7517L48.7983 83.2431ZM50.1154 84.4961L50.8884 86.1217L50.8899 86.121L50.1154 84.4961ZM51.1332 83.7096L49.9857 82.3228L49.9798 82.3277L49.9738 82.3327L51.1332 83.7096ZM52.1238 83.0641L52.4756 84.8294L52.4805 84.8284L52.1238 83.0641ZM52.6408 83.6228L54.3412 83.0322L54.3375 83.0217L54.3337 83.0113L52.6408 83.6228ZM53.1796 84.2141L53.7769 82.516L53.7621 82.5108L53.7471 82.5059L53.1796 84.2141ZM53.4681 84.1273L52.0729 82.9899L52.0447 83.0245L52.0182 83.0605L53.4681 84.1273ZM54.5784 83.5143L54.0506 85.2352L54.0586 85.2376L54.5784 83.5143ZM55.7866 83.7855L55.7645 85.5854L55.7755 85.5855H55.7866V83.7855ZM57.9092 82.7278L59.3892 83.7523L59.3941 83.7452L57.9092 82.7278ZM57.55 82.4674L56.3641 81.1133L56.3587 81.118L56.3534 81.1227L57.55 82.4674ZM55.2532 83.1075L55.7076 81.3657L55.6989 81.3635L55.2532 83.1075ZM54.0178 82.9122L53.5002 81.1882L53.492 81.1907L53.4838 81.1932L54.0178 82.9122ZM53.0272 83.715L51.6057 82.6108L48.2752 86.8983L53.5075 85.4498L53.0272 83.715ZM53.3157 83.6282L53.913 85.3262L58.9668 83.5485L53.8648 81.914L53.3157 83.6282ZM53.049 83.0315L54.7195 82.3611L54.7034 82.3211L54.6855 82.2819L53.049 83.0315ZM52.4721 82.5108L52.883 80.7583L52.8745 80.7563L52.8659 80.7544L52.4721 82.5108ZM50.7794 83.3028L51.9248 84.6913L51.9279 84.6888L50.7794 83.3028ZM50.3114 83.6933L51.4555 85.0829L51.4567 85.0819L50.3114 83.6933ZM49.8052 84.0459L49.9963 85.8357L50.0087 85.8344L50.0211 85.8329L49.8052 84.0459ZM49.2555 83.0315L47.5388 83.5729L47.5415 83.5812L47.5442 83.5896L49.2555 83.0315ZM48.9834 81.8707L50.7632 81.6016L50.762 81.5942L48.9834 81.8707ZM48.7983 80.6936L47.0913 81.2645L47.0963 81.2795L47.1016 81.2945L48.7983 80.6936ZM48.5697 80.699L46.9116 79.9985L46.4392 81.1169L47.2991 81.9739L48.5697 80.699ZM46.9014 80.0814C46.5719 80.957 46.7116 81.8894 46.7584 82.2396L50.3266 81.7622C50.3012 81.5718 50.2891 81.4448 50.2888 81.3465C50.2885 81.2433 50.3029 81.2638 50.2708 81.3492L46.9014 80.0814ZM46.7576 82.2335C46.8218 82.7261 46.9205 83.2381 47.0716 83.7513L50.5251 82.7349C50.4367 82.4344 50.3721 82.1111 50.3274 81.7683L46.7576 82.2335ZM47.0717 83.7517C47.1372 83.9742 47.331 84.6979 47.7382 85.2762C47.9602 85.5914 48.3531 86.0246 48.9821 86.2473C49.6652 86.4892 50.3387 86.3831 50.8884 86.1217L49.3424 82.8706C49.4758 82.8071 49.7982 82.7173 50.1836 82.8537C50.5148 82.971 50.6631 83.1771 50.6816 83.2034C50.7038 83.2349 50.6857 83.2174 50.6442 83.1074C50.6051 83.004 50.5708 82.8901 50.525 82.7345L47.0717 83.7517ZM50.8899 86.121C51.2819 85.9342 51.5942 85.6902 51.8039 85.5141C51.9122 85.4233 52.0141 85.3323 52.0927 85.2621C52.1786 85.1854 52.2375 85.1328 52.2926 85.0865L49.9738 82.3327C49.871 82.4192 49.7708 82.509 49.6949 82.5768C49.6118 82.6511 49.5494 82.7065 49.4896 82.7567C49.3633 82.8627 49.3245 82.8791 49.3409 82.8713L50.8899 86.121ZM52.2807 85.0964C52.3312 85.0546 52.3789 85.0138 52.4189 84.9793C52.4651 84.9394 52.491 84.9167 52.5285 84.8845C52.5962 84.8264 52.6376 84.7928 52.6686 84.7697C52.699 84.7471 52.6985 84.7505 52.6731 84.7636C52.6463 84.7774 52.5785 84.8089 52.4756 84.8293L51.7719 81.2988C51.1988 81.413 50.7695 81.6954 50.519 81.8819C50.3179 82.0316 50.0037 82.3079 49.9857 82.3228L52.2807 85.0964ZM52.4805 84.8284C52.287 84.8675 51.9491 84.8831 51.5796 84.7084C51.2225 84.5395 51.0309 84.2842 50.9483 84.1483C50.8748 84.0274 50.8502 83.9388 50.8642 83.9807C50.87 83.998 50.8741 84.0114 50.8896 84.0603C50.9018 84.0989 50.9224 84.1638 50.9479 84.2343L54.3337 83.0113C54.3347 83.014 54.3326 83.0082 54.3221 82.9753C54.315 82.9527 54.2967 82.8938 54.2788 82.8401C54.2453 82.74 54.168 82.5144 54.0245 82.2782C53.8717 82.027 53.5928 81.6782 53.1188 81.454C52.6325 81.224 52.1483 81.2227 51.767 81.2998L52.4805 84.8284ZM50.9404 84.2134C51.1407 84.7899 51.59 85.5827 52.6121 85.9223L53.7471 82.5059C53.9073 82.5591 54.0754 82.6663 54.2054 82.8185C54.3167 82.9488 54.348 83.0518 54.3412 83.0322L50.9404 84.2134ZM52.5823 85.9121C53.065 86.0818 53.5196 86.0356 53.8436 85.9403C54.168 85.845 54.5963 85.6311 54.9179 85.194L52.0182 83.0605C52.2799 82.7048 52.6103 82.5506 52.8285 82.4864C53.0465 82.4224 53.3868 82.3788 53.7769 82.516L52.5823 85.9121ZM54.8632 85.2646C54.9436 85.1661 54.9814 85.12 55.0167 85.0816C55.0498 85.0456 55.039 85.0632 54.9901 85.0982C54.9373 85.1359 54.8133 85.213 54.6238 85.2549C54.4195 85.3 54.2177 85.2864 54.0506 85.2352L55.1061 81.7934C54.1877 81.5118 53.4052 81.8061 52.8971 82.1691C52.4812 82.4663 52.1712 82.8693 52.0729 82.9899L54.8632 85.2646ZM54.0586 85.2376C54.2983 85.3099 54.9952 85.5759 55.7645 85.5854L55.8088 81.9857C55.7811 81.9853 55.7357 81.9817 55.6316 81.9543C55.5753 81.9394 55.5105 81.92 55.4191 81.8913C55.3395 81.8663 55.2144 81.826 55.0982 81.791L54.0586 85.2376ZM55.7866 85.5855C57.1425 85.5855 58.5236 85.0028 59.3892 83.7523L56.4292 81.7033C56.3261 81.8522 56.1288 81.9855 55.7866 81.9855V85.5855ZM59.3941 83.7452C59.6937 83.308 59.8444 82.7199 59.6825 82.1096C59.5337 81.5487 59.1749 81.17 58.8448 80.9523C58.2444 80.5565 57.1981 80.3828 56.3641 81.1133L58.736 83.8215C58.0815 84.3946 57.2911 84.2399 56.8634 83.958C56.6197 83.7974 56.3266 83.4993 56.2028 83.0327C56.0659 82.5166 56.201 82.0363 56.4244 81.7103L59.3941 83.7452ZM56.3534 81.1227C56.2355 81.2277 56.0939 81.306 55.9612 81.3457C55.8316 81.3845 55.7483 81.3764 55.7076 81.3658L54.7989 84.8492C56.3285 85.2482 57.8045 84.6505 58.7466 83.8121L56.3534 81.1227ZM55.6989 81.3635C55.6683 81.3557 55.6275 81.3429 55.5216 81.3071C55.4366 81.2783 55.2745 81.2223 55.1018 81.177C54.7171 81.0763 54.1539 80.992 53.5002 81.1882L54.5353 84.6362C54.4481 84.6624 54.359 84.6718 54.2815 84.6692C54.2113 84.6669 54.1734 84.6553 54.1896 84.6596C54.2163 84.6665 54.2518 84.6779 54.3676 84.7171C54.4626 84.7493 54.6259 84.805 54.8076 84.8514L55.6989 81.3635ZM53.4838 81.1932C52.4901 81.5019 51.8866 82.2491 51.6057 82.6108L54.4487 84.8192C54.4982 84.7555 54.539 84.7062 54.5745 84.6664C54.61 84.6268 54.6345 84.6033 54.6492 84.5905C54.6793 84.5641 54.6457 84.602 54.5518 84.6312L53.4838 81.1932ZM53.5075 85.4498C53.594 85.4258 53.7524 85.3827 53.913 85.3262L52.7184 81.9302C52.6939 81.9388 52.6564 81.95 52.547 81.9803L53.5075 85.4498ZM53.8648 81.914C54.1836 82.0161 54.4021 82.1888 54.5309 82.3167C54.6577 82.4426 54.7331 82.5597 54.7706 82.6239C54.8105 82.692 54.8334 82.7448 54.8432 82.7686C54.8488 82.7822 54.8526 82.7924 54.8548 82.7984C54.857 82.8045 54.8581 82.808 54.8581 82.8081C54.8582 82.8083 54.8576 82.8064 54.8562 82.8018C54.8549 82.7973 54.853 82.791 54.8506 82.7824C54.8452 82.7629 54.8401 82.7439 54.831 82.7099C54.8237 82.6824 54.8111 82.6352 54.797 82.5873C54.7846 82.5451 54.7586 82.4587 54.7195 82.3611L51.3785 83.702C51.3426 83.6125 51.3272 83.5424 51.3534 83.6404C51.3654 83.6852 51.3954 83.8003 51.4331 83.9167C51.4673 84.0226 51.5381 84.2279 51.6641 84.443C51.7593 84.6056 52.0826 85.1233 52.7665 85.3424L53.8648 81.914ZM54.6855 82.2819C54.4307 81.7256 53.8844 80.9932 52.883 80.7583L52.0611 84.2632C51.8596 84.216 51.6944 84.1142 51.5793 84.0044C51.4738 83.9038 51.4276 83.8141 51.4125 83.7811L54.6855 82.2819ZM52.8659 80.7544C51.9 80.5378 51.1023 80.8837 50.6302 81.1644C50.1881 81.4273 49.7704 81.8012 49.631 81.9167L51.9279 84.6888C51.9911 84.6364 52.0621 84.5762 52.1138 84.5327C52.1712 84.4844 52.2207 84.4432 52.2682 84.4052C52.3658 84.327 52.429 84.2831 52.4703 84.2586C52.5119 84.2338 52.4949 84.2508 52.4283 84.2673C52.3504 84.2866 52.2243 84.2999 52.0782 84.2672L52.8659 80.7544ZM49.6341 81.9142C49.5483 81.9849 49.4649 82.055 49.3883 82.1193C49.3098 82.1851 49.238 82.2453 49.166 82.3047L51.4567 85.0819C51.5425 85.0111 51.6259 84.9411 51.7026 84.8768C51.7811 84.8109 51.8528 84.7507 51.9248 84.6913L49.6341 81.9142ZM49.1673 82.3037C49.1203 82.3424 49.0799 82.3784 49.0535 82.4023C49.0278 82.4256 48.9998 82.4515 48.9852 82.4649C48.9669 82.4818 48.9556 82.492 48.9464 82.5002C48.9376 82.5081 48.9351 82.5101 48.9371 82.5085C48.9389 82.507 48.9493 82.4985 48.9669 82.4859C48.9842 82.4736 49.0148 82.4528 49.0576 82.4287C49.0998 82.4049 49.1638 82.3721 49.2475 82.3411C49.3312 82.31 49.4469 82.2761 49.5893 82.2589L50.0211 85.8329C50.3849 85.789 50.6637 85.656 50.8274 85.5636C50.9986 85.4669 51.1339 85.3627 51.2203 85.2918C51.3086 85.2193 51.385 85.1489 51.4243 85.1127C51.4833 85.0583 51.473 85.0685 51.4555 85.0829L49.1673 82.3037ZM49.6141 82.2561C50.0178 82.213 50.3643 82.325 50.6083 82.4683C50.8298 82.5984 50.9592 82.7473 51.0152 82.8185C51.1184 82.9496 51.1423 83.0362 51.1182 82.9746C51.1037 82.9378 51.084 82.8779 51.0581 82.7881C51.0452 82.7432 51.0349 82.7056 51.0205 82.6542C51.01 82.6168 50.9895 82.5432 50.9668 82.4735L47.5442 83.5896C47.5392 83.5742 47.5396 83.5739 47.5534 83.6233C47.5633 83.6587 47.5806 83.7213 47.5987 83.7842C47.6349 83.91 47.691 84.0963 47.767 84.2899C47.8334 84.4589 47.9624 84.7604 48.1861 85.0448C48.3796 85.2906 48.988 85.9434 49.9963 85.8357L49.6141 82.2561ZM50.9722 82.4902C50.8776 82.1903 50.8077 81.8963 50.7632 81.6016L47.2036 82.1398C47.2788 82.637 47.3939 83.1133 47.5388 83.5729L50.9722 82.4902ZM50.762 81.5942C50.7386 81.4437 50.7418 81.3924 50.7062 81.0753C50.6795 80.838 50.6306 80.4753 50.4951 80.0927L47.1016 81.2945C47.0967 81.2808 47.1104 81.3141 47.1286 81.4768C47.1383 81.5631 47.144 81.6304 47.1565 81.7551C47.1673 81.8632 47.182 82.0011 47.2047 82.1472L50.762 81.5942ZM50.5054 80.1227C50.2109 79.2423 49.3833 78.7716 48.5822 78.8179C47.871 78.8591 47.2082 79.2966 46.9116 79.9985L50.2278 81.3995C49.9749 81.9984 49.4073 82.3763 48.79 82.4119C48.0827 82.4528 47.3476 82.031 47.0913 81.2645L50.5054 80.1227ZM47.2991 81.9739L47.3154 81.9902L49.8567 79.4404L49.8404 79.4241L47.2991 81.9739Z" fill="black" mask="url(#path-27-inside-3_381_2467)"/>
<path d="M75.0861 37.7972C76.8658 36.9619 77.9053 35.9583 77.7312 35.2749C77.6985 35.1555 77.5624 34.765 76.1691 34.369C73.3172 33.5662 70.5524 34.2605 70.2095 34.3473C68.6529 34.7541 65.5343 35.877 65.5778 36.8642C65.6159 37.6942 67.8637 38.2637 70.9334 38.3505C71.0531 38.4319 71.2 38.5349 71.3579 38.6597C71.3579 38.6597 71.63 38.8604 71.8586 39.1099C72.7076 40.0321 73.2029 41.9957 73.2029 41.9957C73.6601 43.7858 73.6982 44.453 73.8234 44.4421C74.0247 44.4204 74.1826 42.7606 74.1826 41.3394C74.1826 40.1894 74.0846 39.2564 73.9975 38.6272C74.3567 38.3505 74.716 38.0739 75.0806 37.7918L75.0861 37.7972Z" fill="#544842" stroke="#231F20" stroke-width="1.8" stroke-miterlimit="10"/>
<path d="M56.6138 19.5547C51.5032 20.4714 48.2703 23.1728 48.5969 25.7548C48.9234 28.3368 52.7223 31.624 56.9403 31.624C61.1584 31.624 64.2116 32.4702 65.7846 29.4434C67.3575 26.4166 68.0051 23.5254 66.7642 22.2886C65.5233 21.0518 65.4634 20.4985 63.085 20.0266C60.7066 19.5547 56.6138 19.5547 56.6138 19.5547Z" fill="#FEEC97"/>
<path d="M77.6441 17.7271C72.5335 18.6438 69.3006 21.3451 69.6271 23.9272C69.9537 26.5092 73.7526 29.7964 77.9706 29.7964C82.1886 29.7964 85.2419 30.6426 86.8148 27.6158C88.3877 24.5889 89.0354 21.6977 87.7945 20.461C86.5536 19.2242 86.4937 18.6709 84.1153 18.199C81.7369 17.7271 77.6441 17.7271 77.6441 17.7271Z" fill="#FEEC97"/>
<path d="M57.7458 24.6432C55.1388 24.9632 52.129 24.2635 51.0459 23.9977C50.6759 26.5418 51.8623 28.8146 54.7687 29.5849C57.6805 30.3551 63.7925 29.4058 64.7722 27.6049C65.7518 25.7986 65.447 23.5854 64.0973 22.5928C64.413 23.6397 59.6779 24.4045 57.7403 24.6432H57.7458Z" fill="#FFF5EC"/>
<path d="M72.3047 22.4351C72.3047 23.6773 72.234 28.6949 79.4835 28.6949C86.733 28.6949 86.8582 23.341 86.8582 23.341L86.265 21.6377C86.265 21.6377 80.0114 23.3627 78.2045 23.341C76.403 23.3247 76.0438 23.3681 75.0859 23.0589C74.128 22.7497 72.3047 22.4351 72.3047 22.4351Z" fill="#FFF5EC"/>
<path d="M51.269 26.227C53.1848 25.1909 54.6108 24.5942 55.6122 25.4133C56.6137 26.227 57.1035 29.2484 55.8136 29.384C54.5237 29.5196 53.8053 29.5196 52.9617 28.7873C52.1181 28.055 51.269 26.7369 51.269 26.2324V26.227Z" fill="#1E1E1E"/>
<path d="M72.5659 25.0442C73.3388 24.0678 75.9077 23.1348 77.0778 24.4964C78.248 25.8579 77.6439 27.8378 76.8111 28.1958C75.592 28.2718 73.2354 27.2465 72.5659 25.0442Z" fill="#1E1E1E"/>
<path d="M49.585 22.4437C49.6505 22.3594 49.7418 22.2988 49.8427 22.2693C50.0696 22.2027 50.3469 22.2933 50.4633 22.5758C50.5398 22.7584 50.6852 22.9167 50.8742 23.0598C51.0632 23.203 51.2821 23.321 51.4915 23.4294C51.9381 23.6598 52.4134 23.8286 52.9031 23.956L49.585 22.4437ZM49.585 22.4437L49.3421 22.2017L49.49 22.8693C49.608 23.4015 49.9681 23.8046 50.3822 24.1104C50.7965 24.4164 51.2845 24.6394 51.6938 24.8065C52.651 25.2025 53.6709 25.3792 54.6888 25.4234C56.5914 25.5151 58.492 25.1388 60.3349 24.774C60.6985 24.702 61.0597 24.6305 61.4184 24.5631L61.4186 24.563C62.05 24.4437 62.6806 24.3245 63.311 24.2108L63.3124 24.2105C63.5108 24.1732 63.7148 24.1388 63.9215 24.104C64.349 24.032 64.7876 23.9581 65.2104 23.8528L65.3791 23.8621L65.378 23.8076C65.5376 23.7533 65.6529 23.6473 65.7155 23.5119C65.7819 23.3685 65.7819 23.2088 65.7398 23.0703C65.6853 22.8909 65.5471 22.7183 65.3499 22.6482L65.3488 22.5908L65.1366 22.6157C65.1006 22.6169 65.0634 22.6213 65.0252 22.6293C64.3358 22.7161 63.6413 22.8599 62.959 23.0012C62.6167 23.072 62.2775 23.1423 61.9435 23.2043L61.9426 23.2045L61.9423 23.2046C60.8919 23.4053 59.8421 23.6059 58.7923 23.801C56.8267 24.1646 54.8204 24.4535 52.9032 23.956L49.585 22.4437Z" fill="#1E1E1E" stroke="black" stroke-width="0.4"/>
<path d="M65.5757 23.4615C65.5968 23.3778 65.6033 23.2931 65.5965 23.2086C65.5818 23.0251 65.5062 22.8564 65.4114 22.7104C65.2244 22.4221 64.9303 22.1739 64.731 22.0101C64.2141 21.579 63.6217 21.2288 63.0171 20.9469L63.0169 20.9468C61.7668 20.3653 60.4076 20.0562 59.0399 19.99L59.0399 19.99C57.6669 19.9237 56.2796 20.1004 54.9606 20.4634L54.9599 20.4636C54.308 20.6453 53.6724 20.8766 53.0586 21.1576C52.3672 21.4694 51.6715 21.8391 51.1069 22.3961L51.1066 22.3965C50.043 23.4507 49.7875 25.0446 50.1843 26.4287L50.1843 26.4287L50.1844 26.4292C50.5898 27.8289 51.6746 28.9186 52.9159 29.5873L52.9164 29.5876C54.3564 30.3582 55.9941 30.5713 57.5703 30.5822L57.5703 30.5822C59.1982 30.5931 60.9679 30.5348 62.5407 29.94C64.0301 29.3785 65.4155 28.2667 65.8683 26.6443L65.8685 26.6437C66.0657 25.9288 66.0764 25.1008 65.889 24.3314C65.8159 24.031 65.712 23.7373 65.5757 23.4615ZM63.3965 22.4152C63.504 22.4747 63.6102 22.5366 63.7154 22.6003C63.7057 22.6251 63.6977 22.651 63.6919 22.6779C63.6597 22.8265 63.6977 22.9803 63.8029 23.1163C64.143 23.5575 64.4401 23.9953 64.5977 24.497C64.7519 24.9887 64.7924 25.5198 64.7007 26.0226C64.4976 27.1209 63.7025 27.9562 62.7036 28.4801L62.703 28.4805C61.5064 29.1134 60.1005 29.2331 58.7176 29.2873L58.7173 29.2873C57.2634 29.3468 55.7972 29.3179 54.4347 28.8635C53.361 28.505 52.3553 27.8401 51.7659 26.8869C51.2078 25.9804 51.0777 24.7723 51.586 23.8442L51.5863 23.8438C51.8564 23.3478 52.3046 22.9654 52.8329 22.6562C53.3611 22.347 53.9555 22.1189 54.5037 21.9241C55.5866 21.5394 56.7162 21.2996 57.855 21.2356L57.8553 21.2356C59.1506 21.1609 60.449 21.2997 61.6869 21.6826C62.2828 21.8682 62.8472 22.1123 63.3965 22.4152Z" fill="#1E1E1E" stroke="black" stroke-width="0.4"/>
<path d="M51.2256 26.612C51.7481 26.3083 52.2379 26.0371 52.8257 25.8743C53.4625 25.7007 54.1701 25.5055 54.7959 25.8092C55.3783 26.0913 55.7593 26.6337 55.9226 27.2521C56.0369 27.6752 56.1185 28.375 55.7375 28.7004C55.6613 28.7655 55.5579 28.7927 55.4872 28.8686C55.3783 28.9825 55.3076 29.1615 55.3511 29.3188C55.4708 29.7148 55.9443 29.6551 56.2056 29.4707C56.7009 29.129 56.9022 28.4943 56.9077 27.9139C56.9294 26.5686 56.026 25.1963 54.649 24.9359C53.8979 24.7949 53.1033 25.039 52.4012 25.2993C51.8297 25.5109 51.1549 25.8689 51.095 26.5415C51.0895 26.6066 51.1712 26.6337 51.2147 26.6066L51.2256 26.612Z" fill="#1E1E1E"/>
<path d="M71.0453 20.9519C71.1108 20.8676 71.2021 20.8071 71.3029 20.7776C71.5298 20.711 71.8071 20.8016 71.9235 21.0841C72 21.2667 72.1454 21.425 72.3344 21.5681C72.5234 21.7113 72.7423 21.8293 72.9517 21.9377C73.3984 22.1681 73.8736 22.3369 74.3633 22.4643L71.0453 20.9519ZM71.0453 20.9519L70.8022 20.7095L70.9502 21.3776C71.0682 21.9098 71.4283 22.3129 71.8424 22.6187C72.2567 22.9247 72.7447 23.1477 73.154 23.3148C74.1113 23.7108 75.1311 23.8875 76.149 23.9317C78.0516 24.0234 79.9522 23.6471 81.7952 23.2823C82.1587 23.2103 82.52 23.1388 82.8786 23.0714L82.8788 23.0713C83.5103 22.952 84.1408 22.8328 84.7712 22.7191L84.7726 22.7188C84.971 22.6815 85.175 22.6471 85.3817 22.6123C85.8092 22.5403 86.2478 22.4664 86.6706 22.3611L86.8393 22.3704L86.8382 22.3159C86.9978 22.2616 87.1131 22.1556 87.1757 22.0202C87.2421 21.8768 87.2421 21.7171 87.2 21.5786C87.1455 21.3992 87.0073 21.2266 86.8101 21.1565L86.809 21.0991L86.5968 21.124C86.5608 21.1252 86.5237 21.1296 86.4854 21.1376C85.796 21.2244 85.1015 21.3682 84.4192 21.5095C84.0769 21.5803 83.7377 21.6506 83.4038 21.7126L83.4028 21.7128L83.4019 21.713C82.3517 21.9137 81.3022 22.1142 80.2527 22.3093C78.2871 22.6729 76.2807 22.9618 74.3634 22.4643L71.0453 20.9519Z" fill="#1E1E1E" stroke="black" stroke-width="0.4"/>
<path d="M87.0413 21.9698C87.0624 21.8861 87.0689 21.8014 87.0621 21.7169C87.0474 21.5334 86.9718 21.3647 86.877 21.2187C86.69 20.9304 86.3958 20.6822 86.1966 20.5184C85.6796 20.0873 85.0873 19.7371 84.4827 19.4552L84.4825 19.4551C83.2323 18.8736 81.8732 18.5645 80.5055 18.4983L80.5055 18.4983C79.1324 18.432 77.7451 18.6087 76.4261 18.9717L76.4255 18.9719C75.7736 19.1536 75.1379 19.3849 74.5242 19.6659C73.8328 19.9777 73.1371 20.3474 72.5725 20.9044L72.5721 20.9048C71.5086 21.959 71.2531 23.5529 71.6499 24.937L71.6499 24.937L71.65 24.9375C72.0553 26.3372 73.1402 27.4269 74.3815 28.0956L74.382 28.0959C75.822 28.8665 77.4597 29.0796 79.0358 29.0905L79.0359 29.0905C80.6638 29.1014 82.4334 29.0431 84.0063 28.4483C85.4957 27.8868 86.8811 26.775 87.3339 25.1526L87.334 25.152C87.5312 24.4371 87.5419 23.6091 87.3546 22.8397C87.2815 22.5393 87.1776 22.2456 87.0413 21.9698ZM84.8621 20.9235C84.9696 20.9831 85.0758 21.0449 85.181 21.1086C85.1712 21.1334 85.1633 21.1593 85.1575 21.1862C85.1253 21.3348 85.1633 21.4886 85.2684 21.6246C85.6085 22.0658 85.9057 22.5036 86.0633 23.0053C86.2175 23.497 86.2579 24.0281 86.1663 24.531C85.9631 25.6292 85.1681 26.4645 84.1692 26.9884L84.1686 26.9888C82.972 27.6217 81.5661 27.7414 80.1832 27.7956L80.1829 27.7956C78.7289 27.8551 77.2628 27.8262 75.9003 27.3718C74.8266 27.0133 73.8208 26.3484 73.2315 25.3952C72.6734 24.4887 72.5433 23.2806 73.0516 22.3525L73.0519 22.3521C73.3219 21.8561 73.7702 21.4737 74.2984 21.1645C74.8267 20.8553 75.4211 20.6272 75.9692 20.4324C77.0521 20.0478 78.1818 19.8079 79.3206 19.7439L79.3209 19.7439C80.6161 19.6692 81.9145 19.808 83.1524 20.1909C83.7483 20.3765 84.3128 20.6206 84.8621 20.9235Z" fill="#1E1E1E" stroke="black" stroke-width="0.4"/>
<path d="M72.6858 25.1203C73.2083 24.8166 73.6981 24.5454 74.2859 24.3826C74.9227 24.209 75.6303 24.0138 76.2562 24.3175C76.8385 24.5996 77.2195 25.142 77.3828 25.7604C77.4971 26.1835 77.5787 26.8833 77.1977 27.2087C77.1215 27.2738 77.0181 27.301 76.9474 27.3769C76.8385 27.4908 76.7678 27.6698 76.8113 27.8271C76.931 28.2231 77.4045 28.1634 77.6658 27.979C78.1611 27.6373 78.3624 27.0026 78.3679 26.4222C78.3897 25.0769 77.4862 23.7046 76.1092 23.4442C75.3581 23.3032 74.5635 23.5473 73.8614 23.8076C73.2899 24.0192 72.6151 24.3772 72.5552 25.0498C72.5497 25.1149 72.6314 25.142 72.6749 25.1149L72.6858 25.1203Z" fill="#1E1E1E"/>
<path d="M59.1338 16.322C59.825 16.6854 60.7502 17 61.6592 16.6854C62.6497 16.3437 62.8946 15.5083 63.5423 15.6548C64.3042 15.8229 64.7832 17.1627 65.224 18.3887C65.6105 19.4627 65.7792 20.4011 65.8663 21.0304" stroke="#010101" stroke-miterlimit="10"/>
<path d="M73.2354 15.9315C73.0613 16.1105 72.4571 16.6909 71.5156 16.6909C70.427 16.6909 69.6705 15.9207 69.5127 15.7471" stroke="#010101" stroke-miterlimit="10"/>
<path d="M70.6339 23.1731C70.4162 22.7337 70.0842 21.9526 69.9535 20.9111C69.8229 19.8425 69.9644 18.9963 70.0733 18.5298" stroke="#010101" stroke-miterlimit="10"/>
<path d="M67.2268 23.0645C67.3465 23.7913 67.4663 24.5236 67.586 25.2505L67.2268 23.0645Z" fill="#FDF7BE"/>
<path d="M67.2268 23.0645C67.3465 23.7913 67.4663 24.5236 67.586 25.2505" stroke="#010101" stroke-miterlimit="10"/>
<path d="M56.2275 47.0838C56.4019 47.0838 56.5432 46.943 56.5432 46.7692C56.5432 46.5954 56.4019 46.4546 56.2275 46.4546C56.0532 46.4546 55.9119 46.5954 55.9119 46.7692C55.9119 46.943 56.0532 47.0838 56.2275 47.0838Z" fill="#010101" stroke="#231F20" stroke-width="1.5" stroke-miterlimit="10"/>
<path d="M60.9897 45.6571C61.1641 45.6571 61.3054 45.5162 61.3054 45.3424C61.3054 45.1687 61.1641 45.0278 60.9897 45.0278C60.8154 45.0278 60.6741 45.1687 60.6741 45.3424C60.6741 45.5162 60.8154 45.6571 60.9897 45.6571Z" fill="#010101" stroke="#231F20" stroke-width="1.5" stroke-miterlimit="10"/>
<path d="M64.99 43.9159C65.1643 43.9159 65.3057 43.775 65.3057 43.6012C65.3057 43.4275 65.1643 43.2866 64.99 43.2866C64.8156 43.2866 64.6743 43.4275 64.6743 43.6012C64.6743 43.775 64.8156 43.9159 64.99 43.9159Z" fill="#010101" stroke="#231F20" stroke-width="1.5" stroke-miterlimit="10"/>
<path d="M67.1345 48.0057C67.3089 48.0057 67.4502 47.8648 67.4502 47.6911C67.4502 47.5173 67.3089 47.3765 67.1345 47.3765C66.9602 47.3765 66.8188 47.5173 66.8188 47.6911C66.8188 47.8648 66.9602 48.0057 67.1345 48.0057Z" fill="#010101" stroke="#231F20" stroke-width="1.5" stroke-miterlimit="10"/>
<path d="M59.0195 49.2586C59.1939 49.2586 59.3352 49.1178 59.3352 48.944C59.3352 48.7703 59.1939 48.6294 59.0195 48.6294C58.8452 48.6294 58.7039 48.7703 58.7039 48.944C58.7039 49.1178 58.8452 49.2586 59.0195 49.2586Z" fill="#010101" stroke="#231F20" stroke-width="1.5" stroke-miterlimit="10"/>
<path d="M63.0742 47.8758C63.2486 47.8758 63.3899 47.735 63.3899 47.5612C63.3899 47.3874 63.2486 47.2466 63.0742 47.2466C62.8999 47.2466 62.7585 47.3874 62.7585 47.5612C62.7585 47.735 62.8999 47.8758 63.0742 47.8758Z" fill="#010101" stroke="#231F20" stroke-width="1.5" stroke-miterlimit="10"/>
<path d="M81.2852 42.679C81.4595 42.679 81.6008 42.5382 81.6008 42.3644C81.6008 42.1907 81.4595 42.0498 81.2852 42.0498C81.1108 42.0498 80.9695 42.1907 80.9695 42.3644C80.9695 42.5382 81.1108 42.679 81.2852 42.679Z" fill="#010101" stroke="#231F20" stroke-width="1.5" stroke-miterlimit="10"/>
<path d="M51.8843 48.9388C52.0586 48.9388 52.1999 48.7979 52.1999 48.6242C52.1999 48.4504 52.0586 48.3096 51.8843 48.3096C51.7099 48.3096 51.5686 48.4504 51.5686 48.6242C51.5686 48.7979 51.7099 48.9388 51.8843 48.9388Z" fill="#010101" stroke="#231F20" stroke-width="1.5" stroke-miterlimit="10"/>
<path d="M82.2432 46.4163C82.4175 46.4163 82.5588 46.2755 82.5588 46.1017C82.5588 45.928 82.4175 45.7871 82.2432 45.7871C82.0688 45.7871 81.9275 45.928 81.9275 46.1017C81.9275 46.2755 82.0688 46.4163 82.2432 46.4163Z" fill="#010101" stroke="#231F20" stroke-width="1.5" stroke-miterlimit="10"/>
<path d="M88.6055 46.14C88.7798 46.14 88.9211 45.9991 88.9211 45.8254C88.9211 45.6516 88.7798 45.5107 88.6055 45.5107C88.4311 45.5107 88.2898 45.6516 88.2898 45.8254C88.2898 45.9991 88.4311 46.14 88.6055 46.14Z" fill="#010101" stroke="#231F20" stroke-width="1.5" stroke-miterlimit="10"/>
<path d="M78.2537 44.1327C78.428 44.1327 78.5693 43.9918 78.5693 43.818C78.5693 43.6443 78.428 43.5034 78.2537 43.5034C78.0793 43.5034 77.938 43.6443 77.938 43.818C77.938 43.9918 78.0793 44.1327 78.2537 44.1327Z" fill="#010101" stroke="#231F20" stroke-width="1.5" stroke-miterlimit="10"/>
<path d="M84.5127 43.9486C84.687 43.9486 84.8284 43.8077 84.8284 43.634C84.8284 43.4602 84.687 43.3193 84.5127 43.3193C84.3384 43.3193 84.197 43.4602 84.197 43.634C84.197 43.8077 84.3384 43.9486 84.5127 43.9486Z" fill="#010101" stroke="#231F20" stroke-width="1.5" stroke-miterlimit="10"/>
<path d="M92.3389 42.5871C91.4354 40.5692 89.7918 39.5765 88.6597 38.9201C85.9547 37.3471 84.9261 38.139 82.2374 36.9511C78.58 35.34 79.4508 33.4252 76.2615 32.1884C72.8816 30.8812 69.0773 31.9715 66.5791 32.6278C61.7624 33.8971 62.3992 35.4594 55.3075 38.2204C51.2528 39.7989 50.2132 39.8369 47.8239 41.2038C46.2946 42.0772 45.1843 42.9776 44.5366 43.5472C44.0468 44.6483 43.3447 46.3082 42.599 48.3695C41.5214 51.3638 40.1717 55.1283 40.8574 55.508C41.4615 55.8389 43.4699 53.4847 44.689 51.7272C47.5028 47.6752 46.3272 46.5089 48.1995 44.4693C50.8228 41.6107 54.7143 42.1531 60.0317 39.7013C61.2018 39.1642 61.893 38.8117 62.7965 38.1824C64.5109 36.9836 64.8375 36.1211 67.4554 35.4539C68.7289 35.1285 72.3918 34.125 76.2234 35.5136C78.2807 36.2568 77.8344 36.7612 81.2959 38.535C83.941 39.8911 84.8281 39.9182 86.4282 40.7373C88.2243 41.6595 90.5918 43.417 92.7362 47.1002C92.9104 46.2919 93.1771 44.4856 92.328 42.5871H92.3389Z" fill="#C19672" stroke="#231F20" stroke-width="1.8" stroke-miterlimit="10"/>
<path d="M96.9653 23.39C90.5757 23.0157 86.3305 17.5967 86.3305 17.5967C85.5522 16.6041 84.4092 15.1503 83.6527 13.5718C82.869 11.9391 84.0718 10.5992 83.2609 8.78749C82.635 7.38257 81.7859 7.21983 81.9438 6.68824C82.3302 5.38638 87.6041 5.701 91.5989 5.93967C91.7132 5.94509 91.8602 5.95594 92.0561 5.97764C93.3079 6.08613 95.5992 6.31938 97.0089 8.06062C97.2048 8.30472 97.564 8.76037 97.7871 9.44927C98.5056 11.6896 96.6388 12.9209 97.0089 15.606C97.1612 16.7234 97.6348 17.5859 97.8688 18.0144C98.892 19.8913 100.209 20.5042 100.035 21.6434C99.9424 22.2455 99.4961 22.6469 99.3383 22.7825C98.5437 23.4877 97.4606 23.4226 96.9653 23.3955V23.39Z" fill="#E6AA68" stroke="#231F20" stroke-width="1.8" stroke-miterlimit="10"/>
<path d="M50.9808 4.08456C49.9576 1.60018 39.3663 1.12283 34.2285 7.07884C32.7427 8.80381 32.0243 10.6969 31.6542 12.2049C30.6092 15.5084 31.3058 15.9803 30.4731 17.8029C28.6335 21.817 24.1924 21.8658 24.2359 24.0464C24.274 25.8473 27.3327 27.198 28.9329 27.6428C31.8229 28.4402 34.2666 27.4421 35.0503 27.0841C35.0721 26.4711 35.268 23.1026 38.0928 20.5748C41.2984 17.7107 45.2606 18.2857 45.7777 18.3671C45.7015 17.2117 45.6961 15.4487 46.1913 13.42C47.6227 7.55619 51.672 5.77698 50.9808 4.08999V4.08456Z" fill="#E6AA68" stroke="#231F20" stroke-width="1.8" stroke-miterlimit="10"/>
<path d="M95.2725 57.7265C95.2725 58.9253 94.2166 62.2071 92.5729 64.7403C90.9293 67.2735 87.593 70.4631 86.7058 71.3472C85.8187 72.2314 80.1747 75.1335 79.059 75.8061C77.9378 76.4733 74.9008 76.9018 71.8149 76.9018C68.7289 76.9018 62.9979 74.3252 61.9856 73.9238C60.9678 73.5224 57.1199 71.3038 55.2966 70.1973C53.4734 69.0853 49.5982 66.4707 48.0362 65.2231C46.4796 63.9809 45.0537 56.6579 44.7217 54.2766C44.4713 52.5028 46.3817 47.7781 48.2104 44.4692C51.095 52.5787 61.1474 58.4317 66.7478 56.1317C72.3483 53.8209 74.607 47.6968 74.607 47.6968C85.2908 52.9313 91.5389 51.3094 93.1934 51.0274C93.754 51.738 94.2656 52.4594 94.7173 53.1917C95.1364 54.9546 95.2725 56.8695 95.2725 57.7265Z" fill="#754D25" stroke="#231F20" stroke-width="1.8" stroke-miterlimit="10"/>
<path d="M76.4195 54.1955C75.7718 54.7759 75.6466 55.7035 75.8153 56.5171C75.9949 57.3904 76.6263 58.1173 77.4209 58.497C78.3189 58.931 79.3258 58.9852 80.3055 58.9527C80.9042 58.9364 81.5028 58.893 82.1015 58.9147C82.5859 58.931 83.2227 58.9581 83.6309 59.2564C84.0228 59.5439 83.6962 60.0972 83.4731 60.3956C83.2009 60.7644 82.8254 61.0411 82.4281 61.2581C81.5627 61.73 80.4579 61.6812 79.6905 62.3267C78.9503 62.9505 78.8469 64.0299 79.6578 64.6375C80.0878 64.9575 81.2579 65.3426 80.5449 66.0153C80.1531 66.3841 79.5163 66.2919 79.0319 66.216C78.357 66.1075 77.6821 65.9882 77.0073 65.8688C76.3487 65.7495 75.6847 65.6301 75.0262 65.5C74.3458 65.3698 73.6274 65.1365 72.9308 65.1582C72.5661 65.1691 72.4083 65.7007 72.7566 65.8688C73.3226 66.14 73.9703 66.2106 74.5853 66.3299C75.2058 66.4492 75.8317 66.5686 76.4576 66.6825C77.0617 66.791 77.6713 66.8995 78.2754 66.9971C78.8469 67.0893 79.4401 67.2141 80.0225 67.1381C80.5232 67.073 80.9858 66.8723 81.3069 66.4709C81.6008 66.0966 81.7478 65.5922 81.5682 65.1311C81.4103 64.7243 81.062 64.4639 80.6973 64.2578C80.4415 64.1113 79.9952 63.9486 79.9408 63.6123C79.8755 63.2108 80.3218 62.8854 80.6375 62.7498C81.1055 62.5545 81.6226 62.4894 82.1015 62.3158C83.0213 61.9795 83.8921 61.3774 84.3439 60.4878C84.5779 60.0267 84.7031 59.4626 84.4146 58.9906C84.1697 58.5947 83.6962 58.3994 83.2554 58.3017C82.0798 58.036 80.8824 58.2367 79.6905 58.2258C78.6509 58.215 77.4155 58.0197 76.7841 57.0921C76.2181 56.2567 76.2616 55.2098 76.5991 54.2985C76.6426 54.1846 76.4848 54.1304 76.414 54.1955H76.4195Z" fill="#1E1E1E" stroke="#231F20" stroke-width="1.8" stroke-miterlimit="10"/>
</g>
<defs>
<clipPath id="clip0_381_2467">
<rect width="125" height="165" fill="white"/>
</clipPath>
</defs>
</svg>
