<svg width="33" height="29" viewBox="0 0 33 29" fill="none" xmlns="http://www.w3.org/2000/svg">
<path d="M24.5869 3.53467C25.6686 3.53467 26.706 3.90711 27.4708 4.57007C28.2356 5.23302 28.6653 6.13218 28.6653 7.06974V9.59496C28.6653 9.98853 28.6653 10.1853 28.5606 10.3291C28.5064 10.4038 28.4335 10.4671 28.3472 10.5141C28.1814 10.6048 27.9543 10.6048 27.5003 10.6048H20.5086M24.5869 3.53467C23.5053 3.53467 22.4679 3.90711 21.7031 4.57007C20.9383 5.23302 20.5086 6.13218 20.5086 7.06974V10.6048M24.5869 3.53467H9.6329C7.06896 3.53467 5.78835 3.53467 4.99171 4.22519C4.19507 4.9157 4.19507 6.02572 4.19507 8.2481V24.7451L8.27344 23.5667L12.3518 24.7451L16.4302 23.5667L20.5086 24.7451V10.6048" stroke="black" stroke-width="2"/>
<path d="M9.63281 8.24805H15.0706M10.9923 12.9615H9.63281M9.63281 17.6749H13.7112" stroke="black" stroke-width="2" stroke-linecap="round"/>
</svg>
