<svg width="172" height="22" viewBox="0 0 172 22" fill="none" xmlns="http://www.w3.org/2000/svg">
<g clip-path="url(#clip0_26_524)">
<path d="M60.0471 7.3848C60.2913 7.50294 60.63 7.74209 60.8349 7.63663C60.859 7.62453 60.8932 7.59802 60.963 7.54443C61.0543 7.47412 61.1418 7.39806 61.2249 7.31507C61.2655 7.27474 61.3048 7.23324 61.3435 7.19002C61.8737 6.59474 62.1388 5.80642 62.1388 4.82504C62.1388 4.22515 61.9689 3.66906 61.6289 3.15561C61.289 2.64216 60.8463 2.21515 60.3008 1.874C59.756 1.53343 59.1357 1.24241 58.4406 1.00153C57.7455 0.760657 57.0478 0.586049 56.3482 0.477135C55.648 0.367645 54.9675 0.313477 54.3079 0.313477C52.8675 0.313477 51.5249 0.520355 50.2792 0.933536C49.0342 1.34729 47.949 1.93796 47.0237 2.70555C46.0989 3.4737 45.3715 4.44125 44.8412 5.60876C44.311 6.77684 44.0459 8.07862 44.0459 9.51409C44.0459 11.0591 44.4258 12.3839 45.1863 13.488C45.8617 14.4694 46.7953 15.3418 47.9858 16.1048C48.1336 16.1999 48.2858 16.2927 48.4418 16.3843C48.5915 16.4754 48.7367 16.5209 48.8769 16.5209C49.0317 16.5209 49.156 16.4742 49.2492 16.3803L50.4213 17.145C50.3915 17.364 50.3769 17.5783 50.3769 17.7881C50.3769 17.8244 50.3769 17.8613 50.3781 17.897C50.4042 18.9959 50.8291 19.9479 51.6523 20.753C52.5022 21.5845 53.6223 22 55.0125 22C56.1929 21.955 57.2482 21.7003 58.178 21.237C59.1084 20.7737 59.8588 20.16 60.4283 19.397C60.9985 18.6335 61.431 17.7725 61.7266 16.8136C62.0215 15.8547 62.1687 14.8301 62.1687 13.7398V9.40518C62.1687 9.05078 61.979 8.87387 61.5985 8.87387C61.452 8.87387 61.3448 8.924 61.3308 8.92976C61.1234 9.01447 59.5803 8.93956 55.8611 8.59495C55.8719 9.07556 55.8256 10.2955 54.9098 11.4186C54.5438 11.867 53.8855 12.6743 53.0071 12.6864C51.6898 12.7049 50.3534 10.9288 50.4067 9.28647C50.4536 7.83313 51.594 6.34407 53.0071 6.00177C54.8977 5.54422 57.3833 7.11396 58.9055 7.21192C59.2676 7.23497 59.6203 7.17792 60.0471 7.3848Z" fill="#FFED97"/>
<path d="M7.02477 10.6695C7.00384 9.15219 6.98228 7.63432 6.96135 6.11702C9.23002 5.29815 11.4847 6.15447 12.0987 7.55767C12.5947 8.69118 11.9496 10.0218 11.0839 10.7847C10.0463 11.6987 8.47528 11.9897 7.02477 11.5339C7.13069 12.5902 7.23597 13.647 7.34189 14.7033C7.86641 14.935 11.4644 16.4673 14.5722 14.9338C18.4075 13.0414 19.0601 7.68157 16.9823 4.38823C13.9634 -0.39764 5.46771 -0.364216 2.26797 2.3713C1.8684 2.71303 0.824446 3.71803 0.618952 5.19499C0.280903 7.62625 2.47283 9.4968 3.09249 9.97798C4.55948 11.1178 6.17679 11.4319 7.02477 11.5339C6.87382 12.5256 6.81611 14.0366 7.46874 15.683C7.63871 16.1111 7.83533 16.4955 8.03955 16.8355C7.98564 16.9583 7.16303 18.7447 5.12205 19.0829C3.48191 19.3544 1.83225 18.562 1.18977 17.4694C0.875185 16.9341 0.880893 16.4621 0.872648 15.7982C0.858695 14.6832 0.805419 13.0541 0.618952 10.9576C1.02043 11.2475 1.61344 11.5869 2.39482 11.7644C4.75166 12.2992 6.73239 10.885 7.02477 10.6695Z" fill="#FFED97"/>
<path d="M22.0564 2.71707C22.8441 1.61065 24.2648 1.02286 25.6716 1.21879C26.9667 1.39916 28.0607 2.21861 28.5256 3.35096C28.61 6.52041 28.695 9.68986 28.7793 12.8593C28.8821 13.0512 29.3869 13.9438 30.3649 14.1271C31.7197 14.3812 32.8182 13.0558 33.0287 12.8017C33.8919 11.7598 33.9325 10.5825 33.9167 9.22885C33.897 7.51504 33.7835 5.24629 33.4093 2.5442C33.5888 2.34999 34.6701 1.21648 36.4536 1.16116C37.5896 1.12601 38.9506 1.5294 39.6883 2.48657C40.1138 3.03921 40.1893 3.59127 40.2591 4.44586C40.5115 7.55423 40.6383 9.10783 40.0688 11.1305C39.8462 11.9206 39.4555 13.0362 38.7369 14.3C39.0331 15.0681 39.3286 15.8369 39.6248 16.605C38.9652 17.1744 35.6805 19.8932 30.9992 19.6016C30.6567 19.5803 25.2295 19.1792 23.5151 15.9711C23.0851 15.1661 22.9456 14.2907 22.7541 13.0898C22.4693 11.3017 22.5866 10.0247 22.6272 9.05597C22.6887 7.59169 22.6342 5.45548 22.0564 2.71707Z" fill="#FFED97"/>
<path d="M1.32049 2.70555C2.20081 1.84692 3.31834 1.21303 4.67371 0.803879C6.02908 0.394732 7.51193 0.190735 9.12163 0.190735C11.892 0.190735 14.1524 0.938148 15.9029 2.43298C17.6534 3.9278 18.528 5.88825 18.528 8.31489C18.528 9.55962 18.3232 10.6776 17.9128 11.6682C17.5025 12.6588 16.9602 13.4517 16.2854 14.047C15.6105 14.6423 14.8653 15.0964 14.0503 15.4098C13.2353 15.7233 12.3924 15.8801 11.5222 15.8801C10.7922 15.8801 10.1472 15.7982 9.58716 15.6346C9.31698 15.562 9.18188 15.3937 9.18188 15.1304C9.18188 14.9938 9.23199 14.8716 9.3322 14.7621C9.43241 14.6526 9.55735 14.5985 9.70703 14.5985C9.7971 14.5985 10.0045 14.6371 10.3299 14.7143C10.6546 14.7915 11.0523 14.8301 11.5229 14.8301C12.2732 14.8301 12.9905 14.6959 13.6755 14.4279C14.3604 14.1599 14.9807 13.7692 15.5357 13.2558C16.0907 12.7423 16.5334 12.0606 16.8632 11.2112C17.193 10.3618 17.3585 9.39596 17.3585 8.31489C17.3585 6.23401 16.6057 4.53691 15.1006 3.22361C13.5956 1.9103 11.6028 1.25394 9.12226 1.25394C8.16203 1.25394 7.22716 1.34269 6.31702 1.5196C5.40689 1.69651 4.55955 1.96044 3.77436 2.31023C2.98917 2.66002 2.35937 3.13256 1.88433 3.72784C1.40928 4.32312 1.17144 4.99792 1.17144 5.75225C1.17144 6.27953 1.29892 6.82237 1.55389 7.38135C1.80885 7.94032 2.16402 8.46703 2.61877 8.96261C3.07416 9.45762 3.65893 9.88521 4.37435 10.2442C5.08977 10.6032 5.86227 10.828 6.69249 10.919V8.23364C6.69249 8.09707 6.75275 7.9749 6.87262 7.86541C6.99249 7.75649 7.12758 7.70175 7.2779 7.70175C7.44787 7.70175 7.58804 7.75419 7.69776 7.85849C7.80749 7.9628 7.86267 8.08785 7.86267 8.23306V10.9455C8.19247 10.9363 8.50769 10.9161 8.80768 10.8845C9.10768 10.8528 9.44002 10.7848 9.80534 10.6799C10.1707 10.575 10.4827 10.4367 10.7427 10.2644C11.0028 10.0921 11.2229 9.85121 11.403 9.54176C11.5831 9.23288 11.6732 8.87387 11.6732 8.46472C11.6732 7.81931 11.4284 7.2903 10.9381 6.87654C10.4478 6.46278 9.8231 6.25648 9.06265 6.25648C8.61234 6.25648 8.22228 6.30892 7.89248 6.41323C7.56267 6.51753 7.30263 6.6201 7.11236 6.7198C6.92209 6.81949 6.78256 6.86963 6.69249 6.86963C6.52252 6.86963 6.38235 6.8241 6.27263 6.73305C6.1629 6.642 6.10773 6.51926 6.10773 6.36482C6.10773 6.16486 6.19271 6.01503 6.36269 5.91476C7.1631 5.433 8.06308 5.19212 9.06328 5.19212C10.2335 5.19212 11.1563 5.51944 11.8311 6.1735C12.5059 6.82756 12.844 7.59111 12.844 8.46357C12.844 8.94533 12.7615 9.37925 12.5966 9.76535C12.4317 10.1514 12.2066 10.4695 11.9218 10.7196C11.637 10.9697 11.3294 11.1807 10.999 11.3535C10.6692 11.5264 10.3039 11.6578 9.90365 11.7488C9.50344 11.8399 9.14383 11.9033 8.82354 11.9396C8.50325 11.9759 8.18359 11.9984 7.8633 12.0076V13.1526C7.8633 14.8336 8.06816 15.9561 8.47851 16.5197C8.55843 16.62 8.59838 16.7243 8.59838 16.8332C8.59838 16.9698 8.52354 17.183 8.37323 17.474C8.22291 17.765 7.99839 18.0849 7.6984 18.4352C7.3984 18.785 6.9557 19.0893 6.37093 19.3486C5.78553 19.6073 5.12846 19.737 4.39782 19.737C3.75787 19.737 3.19022 19.6552 2.69488 19.4915C2.19954 19.3279 1.80251 19.1169 1.50251 18.8576C1.20252 18.5989 0.955164 18.2917 0.759819 17.9373C0.564473 17.5829 0.430014 17.2378 0.35454 16.9012C0.2797 16.5653 0.242279 16.2149 0.242279 15.8518V10.9173C0.242279 10.7629 0.299995 10.6355 0.414793 10.5358C0.52959 10.4361 0.66722 10.386 0.827048 10.386C0.997024 10.386 1.13719 10.4361 1.24691 10.5358C1.35664 10.6361 1.41182 10.7629 1.41182 10.9173V15.8518C1.41182 16.4062 1.50188 16.8764 1.682 17.2625C1.86213 17.6486 2.10441 17.9396 2.40948 18.135C2.71454 18.3303 3.02722 18.4692 3.34688 18.5505C3.66717 18.6323 4.01727 18.6732 4.39718 18.6732C5.16715 18.6732 5.80963 18.494 6.32527 18.135C6.84027 17.776 7.18783 17.3691 7.36796 16.915C6.91765 16.1429 6.69313 14.8883 6.69313 13.1526V11.9805C4.84305 11.7805 3.26506 11.0787 1.9598 9.87426C0.654535 8.66987 0 7.29721 0 5.75225C0 4.58013 0.440162 3.56418 1.32049 2.70555Z" fill="black"/>
<path d="M21.5585 2.56266C22.5485 1.26318 23.8189 0.613159 25.369 0.613159C26.699 0.613159 27.7119 0.979086 28.407 1.71036C29.1021 2.44164 29.4497 3.45298 29.4497 4.74324V12.0906C29.4497 12.7083 29.5575 13.1745 29.7725 13.488C29.9875 13.8015 30.3751 13.9583 30.9351 13.9583C31.3651 13.9583 31.7399 13.7808 32.0602 13.4269C32.3805 13.0725 32.6279 12.6069 32.8029 12.0295C32.978 11.4521 33.108 10.8891 33.193 10.3393C33.278 9.78957 33.3357 9.22829 33.3655 8.65606C33.3655 8.51949 33.4156 8.40597 33.5158 8.31549C33.616 8.22444 33.7359 8.17892 33.8761 8.17892C34.0562 8.17892 34.1989 8.22675 34.3035 8.32183C34.4088 8.41749 34.4608 8.53793 34.4608 8.68315C34.5211 10.3186 34.6409 11.4458 34.8211 12.0635C35.201 13.3082 35.9614 13.9398 37.1012 13.9583C37.3314 13.9583 37.5388 13.9421 37.724 13.9104C37.9092 13.8787 38.1293 13.79 38.3842 13.6448C38.6392 13.4996 38.8517 13.3019 39.0216 13.0518C39.1916 12.8017 39.3394 12.4387 39.4643 11.9615C39.5893 11.4844 39.6521 10.9231 39.6521 10.2782V4.71673C39.6521 2.69001 38.662 1.67694 36.6813 1.67694C36.2113 1.67694 35.7788 1.75186 35.3836 1.90168C34.9885 2.05151 34.6987 2.20134 34.5135 2.35175C34.3283 2.50215 34.1259 2.69462 33.9059 2.93089C34.2959 4.0304 34.4913 5.13913 34.4913 6.25708C34.4913 6.42074 34.4335 6.54982 34.3188 6.64548C34.204 6.74114 34.0663 6.7884 33.9065 6.7884C33.7264 6.7884 33.5837 6.74057 33.479 6.64548C33.3737 6.54982 33.3217 6.42074 33.3217 6.25708C33.3217 5.19388 33.1169 4.12145 32.7065 3.04038C32.6666 2.96777 32.6463 2.90381 32.6463 2.84964C32.6463 2.76781 32.6913 2.6635 32.7814 2.53615C33.7613 1.25454 35.0614 0.614312 36.6819 0.614312C38.0221 0.614312 39.047 0.982544 39.7574 1.71843C40.4677 2.45432 40.8222 3.46336 40.8222 4.74439V10.2788C40.8222 11.7327 40.5273 12.887 39.9368 13.741C39.347 14.595 38.4014 15.022 37.1012 15.022C36.101 15.022 35.3234 14.7673 34.7684 14.2585C34.2135 13.7497 33.8856 13.091 33.786 12.2819C33.6357 13.0541 33.2957 13.7041 32.7661 14.2314C32.2359 14.7587 31.6258 15.022 30.9357 15.022C30.0655 15.022 29.4078 14.7518 28.9626 14.2112C28.5174 13.6707 28.2947 12.9642 28.2947 12.0917V4.74439C28.2947 3.70827 28.0569 2.93838 27.5819 2.43415C27.1068 1.92992 26.3692 1.67752 25.369 1.67752C24.899 1.67752 24.469 1.75935 24.079 1.92301C23.6889 2.08666 23.4086 2.24341 23.2386 2.39324C23.0686 2.54306 22.8885 2.7315 22.6982 2.95913C23.0883 3.95894 23.2836 5.54885 23.2836 7.73001C23.2836 8.02102 23.2785 8.70447 23.2684 9.78151C23.2583 10.8585 23.2532 11.674 23.2532 12.2283C23.2532 13.019 23.3559 13.7485 23.5608 14.4164C23.7656 15.0843 24.0384 15.6502 24.3783 16.1135C24.7183 16.5768 25.1261 16.9883 25.6011 17.3473C26.0762 17.7063 26.5639 17.9927 27.0637 18.2059C27.5635 18.4197 28.0988 18.5966 28.6689 18.7378C29.2391 18.8784 29.7694 18.9741 30.259 19.0242C30.7493 19.0743 31.2389 19.0991 31.7292 19.0991C32.619 19.0991 33.4746 19.0034 34.2947 18.8127C35.1147 18.622 35.7775 18.4128 36.2824 18.1857C36.7872 17.9587 37.28 17.6769 37.7601 17.3404C38.2403 17.0044 38.5504 16.7675 38.6906 16.6315C38.8307 16.495 38.9804 16.3405 39.1409 16.1682C39.281 16.0138 39.4409 15.9366 39.621 15.9366C39.8011 15.9366 39.9387 15.9867 40.0333 16.0864C40.1284 16.1867 40.176 16.3048 40.176 16.4408C40.176 16.5226 40.136 16.6362 40.0561 16.7814C39.2259 17.7443 38.0785 18.5488 36.6128 19.1942C35.1477 19.8396 33.5196 20.1617 31.7298 20.1617C28.7191 20.1617 26.3591 19.4691 24.6485 18.0832C22.938 16.6972 22.083 14.746 22.083 12.2289C22.083 11.6653 22.0881 10.843 22.0982 9.76191C22.1084 8.68084 22.1135 8.00373 22.1135 7.73059C22.1135 5.65892 21.9086 4.10474 21.4982 3.06862C21.4583 2.99601 21.438 2.93204 21.438 2.87787C21.438 2.77818 21.4779 2.6733 21.5579 2.56439L21.5585 2.56266Z" fill="black"/>
<path d="M86.6225 15.1845C86.3922 15.0122 86.0326 14.6123 85.5423 13.9853C85.3223 13.7035 85.1326 13.4016 84.9722 13.0789C84.8834 12.8996 84.8054 12.7521 84.7381 12.6374C84.6842 12.5458 84.6373 12.4749 84.5973 12.4248C84.5073 12.3107 84.3722 12.2542 84.192 12.2542C84.0386 12.2542 83.9098 12.2951 83.8052 12.377L82.8728 11.3887C83.0859 11.1553 83.2597 10.8965 83.3942 10.613C83.6263 10.1255 83.7424 9.56365 83.7424 8.92803C83.7424 8.1011 83.6472 7.28799 83.457 6.48814C83.2673 5.68828 82.9623 4.91379 82.5418 4.16407C82.1219 3.41435 81.6069 2.75568 80.9967 2.18748C80.3866 1.61987 79.6312 1.16519 78.7312 0.824622C77.8313 0.483474 76.8361 0.313477 75.7459 0.313477C74.1254 0.313477 72.7402 0.51805 71.5903 0.92662C70.4398 1.33577 69.4498 1.98522 68.6196 2.87612C68.3494 3.185 68.2149 3.39821 68.2149 3.51692C68.2149 3.59818 68.2593 3.83041 68.3494 4.2119C68.4394 4.59338 68.527 5.08436 68.612 5.68367C68.6969 6.28356 68.7394 6.88345 68.7394 7.48334C68.7394 9.08247 68.4299 10.6436 67.8096 12.1655C67.1894 13.6874 66.4143 14.7304 65.4839 15.294C65.3241 15.4029 65.2441 15.5435 65.2441 15.7164C65.2441 16.0345 65.2993 16.3682 65.409 16.7185C65.5194 17.0683 65.6945 17.4227 65.9342 17.7817C66.1746 18.1402 66.4644 18.4652 66.8044 18.7562C67.1443 19.0472 67.5718 19.2829 68.0868 19.465C68.6024 19.6465 69.1599 19.7376 69.7599 19.7376C71.14 19.7376 72.2056 19.4033 72.9552 18.7355C73.7055 18.0676 74.1856 17.1934 74.3956 16.1117H77.6213C78.1509 18.5292 79.6966 19.7376 82.257 19.7376C83.0669 19.7376 83.7944 19.5947 84.4394 19.3083C85.0851 19.0219 85.5848 18.6628 85.94 18.2312C86.2952 17.7996 86.5647 17.3611 86.7499 16.9162C86.9351 16.4707 87.0277 16.0524 87.0277 15.6617C87.0277 15.562 86.8926 15.4029 86.6225 15.1845ZM74.3207 7.03328C74.7806 6.36078 75.3507 6.02482 76.0307 6.02482C76.4309 6.02482 76.8013 6.12221 77.1412 6.31756C77.3879 6.45932 77.5769 6.5498 77.7082 6.58841V7.4309C77.6898 7.42917 77.6708 7.4286 77.6511 7.4286C77.3511 7.4286 77.1862 7.57843 77.1558 7.87866C77.126 8.17832 77.0657 8.51024 76.9763 8.87387C76.8862 9.23691 76.7588 9.61206 76.5932 9.99815C76.4283 10.3843 76.2133 10.7047 75.9482 10.9594C75.6831 11.2135 75.3907 11.3408 75.071 11.3408C74.7514 11.3408 74.5009 11.2636 74.2903 11.1092C74.0804 10.9548 73.9332 10.7502 73.8482 10.4955C73.7632 10.2413 73.7055 10.0166 73.6757 9.82124C73.6453 9.62531 73.6307 9.42362 73.6307 9.21444C73.6307 8.43302 73.8603 7.70578 74.3207 7.03328Z" fill="#FFED97"/>
<path d="M61.5985 8.87387C61.5008 8.87387 61.4114 8.89231 61.3308 8.92976C61.2788 8.95339 61.2306 8.98451 61.1862 9.02369C61.0714 9.12339 61.0137 9.25074 61.0137 9.40518V13.7398C61.0137 14.4579 60.9414 15.1574 60.7962 15.8392C60.6509 16.5209 60.4188 17.1726 60.0985 17.795C59.7782 18.4174 59.3907 18.9608 58.9359 19.4241C58.4806 19.8874 57.9154 20.2556 57.2406 20.5282C56.5652 20.8008 55.8231 20.9368 55.0125 20.9368C54.0225 20.9368 53.1923 20.6279 52.5225 20.0102C51.8521 19.3924 51.5172 18.679 51.5172 17.8699C51.5172 17.6976 51.5274 17.5656 51.547 17.4746C53.0971 17.3928 54.2679 16.9681 55.0576 16.2005C55.8478 15.4323 56.243 14.3397 56.243 12.9221V8.28723C56.243 8.14201 56.1852 8.01696 56.0704 7.91266C55.9556 7.80836 55.8079 7.75592 55.6277 7.75592C55.5529 7.75592 55.4838 7.76859 55.421 7.79337C55.3582 7.81815 55.303 7.85619 55.2529 7.90574C55.1527 8.00601 55.0924 8.12415 55.0728 8.26015C54.8527 10.7957 54.1176 12.0635 52.8675 12.0635C52.4071 12.0635 51.9847 11.8451 51.5997 11.4088C51.2147 10.9726 51.0219 10.4004 51.0219 9.69158C51.0219 9.11878 51.1424 8.60533 51.3821 8.15123C51.6219 7.69656 51.9251 7.34446 52.2897 7.09494C52.6551 6.84484 53.0299 6.65641 53.4149 6.52905C53.7872 6.40573 54.1474 6.34292 54.4963 6.33888C54.5083 6.33831 54.5204 6.33831 54.5324 6.33831C55.2827 6.33831 56.0476 6.47661 56.8277 6.75379C57.6078 7.03098 58.2433 7.42399 58.7336 7.93283C58.8433 8.06018 58.9981 8.12415 59.1985 8.12415C59.7643 8.10686 60.2571 7.9772 60.6763 7.73575C60.8761 7.62107 61.0587 7.48046 61.2249 7.31507C61.2655 7.27474 61.3048 7.23324 61.3435 7.19002C61.8737 6.59474 62.1388 5.80642 62.1388 4.82504C62.1388 4.22515 61.9689 3.66906 61.6289 3.15561C61.289 2.64216 60.8463 2.21515 60.3008 1.874C59.756 1.53343 59.1357 1.24241 58.4406 1.00153C57.7455 0.760657 57.0478 0.586049 56.3482 0.477135C55.648 0.367645 54.9675 0.313477 54.3079 0.313477C52.8675 0.313477 51.5249 0.520355 50.2792 0.933536C49.0342 1.34729 47.949 1.93796 47.0237 2.70555C46.0989 3.4737 45.3715 4.44125 44.8412 5.60876C44.311 6.77684 44.0459 8.07862 44.0459 9.51409C44.0459 11.0591 44.4258 12.3839 45.1863 13.488C45.8617 14.4694 46.7953 15.3418 47.9858 16.1048C48.1336 16.1999 48.2858 16.2927 48.4418 16.3843C48.5915 16.4754 48.7367 16.5209 48.8769 16.5209C49.0317 16.5209 49.156 16.4742 49.2492 16.3803C49.253 16.3768 49.2562 16.3739 49.2593 16.3705C49.3545 16.2708 49.4021 16.148 49.4021 16.0028C49.4021 15.8121 49.2968 15.6617 49.0868 15.5528C47.9465 14.8803 47.0167 14.0401 46.2962 13.031C45.5763 12.0226 45.2161 10.8499 45.2161 9.51409C45.2161 8.41458 45.3962 7.40612 45.7564 6.48814C46.1161 5.57015 46.5936 4.80026 47.1892 4.1779C47.7841 3.55496 48.4792 3.02825 49.2746 2.59663C50.0693 2.16501 50.8893 1.85152 51.7348 1.65617C52.5796 1.46082 53.4377 1.36285 54.3079 1.36285C54.9777 1.36285 55.6804 1.42855 56.4155 1.56051C57.1506 1.69247 57.8685 1.88783 58.5681 2.14657C59.2683 2.40589 59.8461 2.76893 60.3008 3.23744C60.7562 3.70536 60.9839 4.23437 60.9839 4.82504C60.9839 5.47968 60.826 5.99082 60.5114 6.35848C60.1962 6.72671 59.8283 6.95145 59.4084 7.03328C58.8484 6.47892 58.1184 6.0473 57.2178 5.73842C56.3178 5.42954 55.4229 5.2751 54.5324 5.2751C53.7923 5.2751 53.0724 5.44107 52.3722 5.77242C51.672 6.10434 51.0771 6.6178 50.5868 7.31277C50.0972 8.00832 49.8517 8.80068 49.8517 9.69158C49.8517 10.5825 50.1295 11.3656 50.6845 12.0698C51.2394 12.7746 51.9669 13.1267 52.8675 13.1267C53.2576 13.1267 53.6724 13.0086 54.1125 12.7723C54.5527 12.536 54.873 12.1949 55.0728 11.75V12.9221C55.0728 14.1582 54.7601 15.0393 54.1354 15.5666C53.51 16.0933 52.4623 16.3843 50.9921 16.439C50.8722 16.439 50.7568 16.4823 50.6471 16.5681C50.5367 16.6546 50.4771 16.7525 50.4669 16.8615C50.4492 16.9571 50.4333 17.0516 50.4213 17.145C50.3915 17.364 50.3769 17.5783 50.3769 17.7881C50.3769 17.8244 50.3769 17.8613 50.3781 17.897C50.4042 18.9959 50.8291 19.9479 51.6523 20.753C52.5022 21.5845 53.6223 22 55.0125 22C56.1929 21.955 57.2482 21.7003 58.178 21.237C59.1084 20.7737 59.8588 20.16 60.4283 19.397C60.9985 18.6335 61.431 17.7725 61.7266 16.8136C62.0215 15.8547 62.1687 14.8301 62.1687 13.7398V9.40518C62.1687 9.05078 61.979 8.87387 61.5985 8.87387Z" fill="black"/>
<path d="M86.6225 15.1845C86.3922 15.0122 86.0326 14.6123 85.5423 13.9853C85.3223 13.7035 85.1326 13.4016 84.9722 13.0789C84.8834 12.8996 84.8054 12.7521 84.7381 12.6374C84.6842 12.5458 84.6373 12.4749 84.5973 12.4248C84.5073 12.3107 84.3722 12.2542 84.192 12.2542C84.0386 12.2542 83.9098 12.2951 83.8052 12.377C83.7937 12.385 83.783 12.3943 83.7722 12.4041C83.6618 12.5037 83.6073 12.6311 83.6073 12.7855C83.6073 13.1036 83.8274 13.6061 84.2675 14.2919C84.707 14.9782 85.2271 15.5389 85.8271 15.9752C85.6774 16.7934 85.2772 17.4475 84.6271 17.9385C83.977 18.4289 83.1868 18.6744 82.257 18.6744C81.6665 18.6744 81.1439 18.5655 80.6891 18.3471C80.2338 18.1292 79.8862 17.8745 79.6465 17.5841C79.4067 17.2931 79.2088 16.9796 79.0541 16.643C78.8987 16.3071 78.801 16.0478 78.7611 15.8662C78.7211 15.6847 78.7014 15.5712 78.7014 15.5257C78.6913 15.4075 78.626 15.2986 78.5061 15.1984C78.3862 15.0987 78.2562 15.0485 78.116 15.0485H73.9002C73.7506 15.0485 73.6205 15.0987 73.5102 15.1984C73.4005 15.2986 73.3351 15.4168 73.3155 15.5528C73.2952 15.698 73.2603 15.8662 73.2102 16.057C73.1601 16.2477 73.0529 16.5094 72.888 16.8407C72.7231 17.1726 72.5227 17.4636 72.288 17.7132C72.0527 17.9633 71.7178 18.1857 71.2827 18.3811C70.8477 18.5764 70.3599 18.6744 69.8195 18.6744C68.9094 18.6744 68.1547 18.4358 67.5547 17.9587C66.9547 17.4815 66.5843 16.8298 66.4441 16.0028C67.2445 15.43 67.9143 14.6417 68.4547 13.6378C68.995 12.6334 69.3724 11.618 69.5874 10.5911C69.8024 9.56423 69.9096 8.52811 69.9096 7.48334C69.9096 6.7924 69.8601 6.05882 69.7599 5.28202C69.6597 4.50464 69.5551 3.9618 69.4447 3.65292C70.7049 2.1264 72.8055 1.36285 75.7459 1.36285C77.1558 1.36285 78.3862 1.71725 79.4365 2.42606C80.4868 3.13486 81.272 4.05515 81.7921 5.18636C82.3115 6.31756 82.5722 7.56517 82.5722 8.92803C82.5722 9.64606 82.3845 10.2275 82.0096 10.673C81.6342 11.1184 81.2168 11.3408 80.7564 11.3408C80.4164 11.3408 80.1018 11.2412 79.8114 11.0412C79.5215 10.8412 79.2887 10.6096 79.1137 10.3456C78.9691 10.1278 78.8346 9.87426 78.711 9.58497C78.6843 9.52447 78.6589 9.46223 78.6336 9.39826C78.489 9.03061 78.3888 8.7396 78.3336 8.5258C78.279 8.31258 78.2264 8.09649 78.1763 7.87866C78.111 7.59917 77.9556 7.4505 77.7082 7.4309C77.6898 7.42917 77.6708 7.4286 77.6511 7.4286C77.3511 7.4286 77.1862 7.57843 77.1558 7.87866C77.126 8.17832 77.0657 8.51024 76.9763 8.87387C76.8862 9.23691 76.7588 9.61206 76.5932 9.99815C76.4283 10.3843 76.2133 10.7047 75.9482 10.9594C75.6831 11.2135 75.3907 11.3408 75.071 11.3408C74.7514 11.3408 74.5009 11.2636 74.2903 11.1092C74.0804 10.9548 73.9332 10.7502 73.8482 10.4955C73.7632 10.2413 73.7055 10.0166 73.6757 9.82124C73.6453 9.62531 73.6307 9.42362 73.6307 9.21444C73.6307 8.43302 73.8603 7.70578 74.3207 7.03328C74.7806 6.36078 75.3507 6.02482 76.0307 6.02482C76.4309 6.02482 76.8013 6.12221 77.1412 6.31756C77.3879 6.45932 77.5769 6.5498 77.7082 6.58841C77.7577 6.60339 77.7989 6.61088 77.8313 6.61088C78.1814 6.61088 78.3564 6.44722 78.3564 6.1199C78.3564 6.06228 78.3456 6.00523 78.3234 5.94875C78.2429 5.73842 78.0107 5.53673 77.6289 5.3431C77.1437 5.09761 76.611 4.97487 76.0307 4.97487C75.3209 4.97487 74.6854 5.19788 74.1254 5.64333C73.5654 6.08821 73.148 6.62874 72.8728 7.26494C72.5975 7.90113 72.4605 8.55116 72.4605 9.21444C72.4605 10.1774 72.685 10.9317 73.1353 11.4768C73.6453 12.086 74.2903 12.3902 75.071 12.3902C75.281 12.3902 75.5011 12.3539 75.7307 12.2813C75.9609 12.2087 76.2108 12.0883 76.481 11.92C76.7511 11.7523 76.9985 11.4884 77.2237 11.1294C77.4488 10.7703 77.6112 10.3456 77.7114 9.85524C78.1611 11.5454 79.1765 12.3902 80.7564 12.3902C81.5365 12.3902 82.2291 12.0698 82.8348 11.4296C82.8475 11.4163 82.8601 11.4025 82.8728 11.3887C83.0859 11.1553 83.2597 10.8965 83.3942 10.613C83.6263 10.1255 83.7424 9.56365 83.7424 8.92803C83.7424 8.1011 83.6472 7.28799 83.457 6.48814C83.2673 5.68828 82.9623 4.91379 82.5418 4.16407C82.1219 3.41435 81.6069 2.75568 80.9967 2.18748C80.3866 1.61987 79.6312 1.16519 78.7312 0.824622C77.8313 0.483474 76.8361 0.313477 75.7459 0.313477C74.1254 0.313477 72.7402 0.51805 71.5903 0.92662C70.4398 1.33577 69.4498 1.98522 68.6196 2.87612C68.3494 3.185 68.2149 3.39821 68.2149 3.51692C68.2149 3.59818 68.2593 3.83041 68.3494 4.2119C68.4394 4.59338 68.527 5.08436 68.612 5.68367C68.6969 6.28356 68.7394 6.88345 68.7394 7.48334C68.7394 9.08247 68.4299 10.6436 67.8096 12.1655C67.1894 13.6874 66.4143 14.7304 65.4839 15.294C65.3241 15.4029 65.2441 15.5435 65.2441 15.7164C65.2441 16.0345 65.2993 16.3682 65.409 16.7185C65.5194 17.0683 65.6945 17.4227 65.9342 17.7817C66.1746 18.1402 66.4644 18.4652 66.8044 18.7562C67.1443 19.0472 67.5718 19.2829 68.0868 19.465C68.6024 19.6465 69.1599 19.7376 69.7599 19.7376C71.14 19.7376 72.2056 19.4033 72.9552 18.7355C73.7055 18.0676 74.1856 17.1934 74.3956 16.1117H77.6213C78.1509 18.5292 79.6966 19.7376 82.257 19.7376C83.0669 19.7376 83.7944 19.5947 84.4394 19.3083C85.0851 19.0219 85.5848 18.6628 85.94 18.2312C86.2952 17.7996 86.5647 17.3611 86.7499 16.9162C86.9351 16.4707 87.0277 16.0524 87.0277 15.6617C87.0277 15.562 86.8926 15.4029 86.6225 15.1845Z" fill="black"/>
<path d="M106.861 10.5301C106.221 9.67085 105.496 9.11014 104.685 8.84622C105.175 8.49181 105.555 8.00833 105.825 7.39461C106.096 6.78147 106.231 6.11992 106.231 5.41111C106.231 4.70231 106.056 4.07072 105.706 3.43511C105.355 2.79891 104.855 2.2238 104.205 1.71035C103.555 1.1969 102.71 0.783718 101.67 0.470231C100.63 0.156744 99.4742 0 98.2044 0C94.6336 0 91.8481 1.04016 89.8477 3.12104C89.7481 3.21209 89.698 3.34406 89.698 3.51693C89.698 3.62585 89.7278 3.74859 89.7881 3.88459C90.0678 4.55709 90.2555 5.26359 90.3506 6.00409C90.4451 6.74516 90.4927 7.95589 90.4927 9.63685C90.4927 9.78264 90.5479 9.90712 90.6582 10.012C90.768 10.1163 90.9081 10.1687 91.0781 10.1687C91.1384 10.1687 91.1961 10.1595 91.2519 10.1422V11.9408C90.6062 12.759 90.2828 13.6546 90.2828 14.6261C90.2828 16.3797 91.073 17.7679 92.6536 18.7902C94.2334 19.8125 96.2992 20.3237 98.8494 20.3237C101.4 20.3237 103.67 19.7013 105.33 18.456C106.991 17.2113 107.821 15.562 107.821 13.5082C107.821 12.3816 107.5 11.3887 106.861 10.5301ZM97.3235 12.2888C97.3203 12.2237 97.319 12.1574 97.319 12.0906V11.1098L98.2494 10.7698C98.2729 10.798 98.3008 10.8251 98.3319 10.8499C98.4568 10.9502 98.5894 11.0003 98.7296 11.0003C98.8095 11.0003 98.9217 10.9726 99.067 10.9185C99.2116 10.8637 99.3441 10.8366 99.4647 10.8366C99.7716 10.8366 100.042 10.9605 100.277 11.2089C100.317 11.2515 100.356 11.2976 100.394 11.3478C100.654 11.6883 100.785 12.0952 100.785 12.5677C100.785 12.7677 100.762 12.9677 100.717 13.1676C100.672 13.3676 100.594 13.5831 100.485 13.8148C100.375 14.0464 100.197 14.2354 99.9517 14.3806C99.7069 14.5259 99.4145 14.5985 99.0746 14.5985C98.7143 14.5985 98.4093 14.5143 98.1594 14.3466C97.9089 14.1784 97.7294 13.9536 97.619 13.6718C97.5093 13.3901 97.4313 13.1244 97.3862 12.8743C97.352 12.6853 97.3311 12.4905 97.3235 12.2888ZM98.6617 5.88192C98.727 6.02253 98.7594 6.21096 98.7594 6.44723C98.7594 7.28339 98.2793 7.9242 97.319 8.36907C97.319 7.84237 97.3438 7.39 97.3939 7.01312C97.444 6.63567 97.5017 6.35618 97.5664 6.17466C97.6317 5.99314 97.7141 5.85195 97.8144 5.75226C97.9139 5.65199 97.9938 5.59552 98.0541 5.58169C98.1144 5.56786 98.1841 5.56152 98.264 5.56152C98.3344 5.56152 98.4017 5.57938 98.467 5.61568C98.5317 5.65199 98.597 5.74073 98.6617 5.88192Z" fill="#FFED97"/>
<path d="M128.361 14.7143L129.035 15.9671C129.097 15.9452 129.162 15.9343 129.229 15.9343C129.409 15.9343 129.547 15.9844 129.641 16.0847C129.736 16.1844 129.784 16.3025 129.784 16.4391C129.784 16.5209 129.744 16.6344 129.664 16.7796C129.625 16.8252 129.585 16.8701 129.545 16.9145C129.322 17.1317 129.099 17.3484 128.876 17.5657C128.153 18.1892 127.268 18.7315 126.221 19.1925C124.756 19.8373 123.128 20.16 121.338 20.16C118.327 20.16 115.967 19.4673 114.256 18.0814C112.547 16.6955 111.691 14.7443 111.691 12.2266C111.691 11.6636 111.696 10.8413 111.706 9.75961C111.716 8.67854 111.721 8.00143 111.721 7.72886C111.721 5.65661 111.516 4.10301 111.106 3.06689C111.066 2.99428 111.046 2.93031 111.046 2.87615C111.046 2.77588 111.086 2.67157 111.166 2.56266C112.156 1.26318 113.426 0.613159 114.976 0.613159C116.307 0.613159 117.319 0.979086 118.014 1.71036C118.709 2.44222 119.057 3.45298 119.057 4.74324V12.0906C119.057 12.7083 119.165 13.174 119.38 13.488C119.595 13.8015 119.982 13.9583 120.542 13.9583C120.972 13.9583 121.348 13.7808 121.668 13.4264C121.988 13.072 122.235 12.6064 122.41 12.0289C122.585 11.4521 122.715 10.8885 122.8 10.3388C122.885 9.789 122.943 9.22829 122.973 8.65549C122.973 8.51949 123.023 8.40539 123.123 8.31492C123.223 8.22387 123.343 8.17834 123.483 8.17834C123.523 8.17834 123.562 8.18065 123.598 8.18641V6.78263C123.57 6.78609 123.542 6.78782 123.513 6.78782C123.333 6.78782 123.19 6.74057 123.086 6.64491C122.98 6.54925 122.928 6.42016 122.928 6.25651C122.928 5.1933 122.723 4.12087 122.313 3.0398C122.273 2.96662 122.253 2.90323 122.253 2.84848C122.253 2.76723 122.298 2.66235 122.388 2.535C123.368 1.25396 124.668 0.613159 126.289 0.613159C127.629 0.613159 128.654 0.981391 129.364 1.71728C130.074 2.45317 130.429 3.4622 130.429 4.74324V10.2777C130.429 11.7316 130.134 12.8858 129.544 13.7399C129.242 14.1761 128.848 14.5011 128.361 14.7143Z" fill="#FFED97"/>
<path d="M151.912 15.7165C151.912 16.9612 151.475 17.9426 150.599 18.6606C149.724 19.3786 148.647 19.7376 147.366 19.7376H140.87C140.7 19.7376 140.563 19.6875 140.458 19.5878C140.353 19.4875 140.3 19.3607 140.3 19.2057C140.3 19.0605 140.353 18.9355 140.458 18.8312C140.461 18.8277 140.464 18.8248 140.467 18.8219L139.562 18.4987C139.401 18.7292 139.21 18.947 138.987 19.1516C138.562 19.5423 138.085 19.7376 137.554 19.7376C136.044 19.7376 135.29 18.7787 135.29 16.8615V9.51414C135.29 8.54198 135.232 7.70813 135.117 7.01315C135.028 6.47665 134.938 6.04906 134.846 5.72924C134.819 5.63416 134.792 5.54887 134.764 5.4728C134.645 5.14087 134.584 4.934 134.584 4.85274C134.584 4.71617 134.637 4.59573 134.742 4.49143C134.847 4.38655 134.974 4.33468 135.125 4.33468C135.139 4.33468 135.154 4.33468 135.168 4.33583L135.234 3.26802C135.13 3.34293 134.993 3.38039 134.824 3.38039C134.655 3.38039 134.519 3.33256 134.419 3.23748C134.319 3.14182 134.269 3.02138 134.269 2.87616C134.269 2.74881 134.299 2.6445 134.359 2.56267C134.602 2.26013 134.866 1.99332 135.15 1.76224C136.068 1.01425 137.2 0.640259 138.545 0.640259C139.725 0.640259 140.7 0.999271 141.47 1.71729C142.24 2.43532 142.626 3.38961 142.626 4.58017V12.0359C142.626 12.4629 142.706 12.7562 142.866 12.9152C143.025 13.0743 143.325 13.1538 143.766 13.1538C144.476 13.1538 145.001 13.1469 145.341 13.1331C145.681 13.1198 146.086 13.0835 146.556 13.0242C147.026 12.9654 147.411 12.8651 147.711 12.7245C148.011 12.5833 148.281 12.3903 148.522 12.1454C148.642 12.0359 148.787 11.9817 148.957 11.9817C149.167 11.9817 149.412 12.0451 149.692 12.1724C150.492 12.5539 151.062 13.0674 151.402 13.7128C151.742 14.3576 151.912 15.0255 151.912 15.7165Z" fill="#FFED97"/>
<path d="M172 15.7165C172 16.9612 171.562 17.9426 170.687 18.6606C169.812 19.3786 168.734 19.7376 167.454 19.7376H160.958C160.788 19.7376 160.651 19.6875 160.546 19.5878C160.44 19.4875 160.388 19.3607 160.388 19.2057C160.388 19.0605 160.44 18.9355 160.546 18.8312C160.551 18.8265 160.555 18.8219 160.56 18.8173L159.654 18.4935C159.492 18.7263 159.299 18.9453 159.076 19.1516C158.651 19.5423 158.173 19.7376 157.643 19.7376C156.133 19.7376 155.377 18.7787 155.377 16.8615V9.51414C155.377 8.54198 155.32 7.70813 155.205 7.01315C155.116 6.47665 155.026 6.04849 154.934 5.72866C154.907 5.63416 154.879 5.54887 154.852 5.4728C154.732 5.14087 154.672 4.934 154.672 4.85274C154.672 4.71617 154.725 4.59573 154.83 4.49143C154.935 4.38655 155.062 4.33468 155.212 4.33468C155.233 4.33468 155.254 4.33526 155.273 4.33641L155.34 3.25361C155.234 3.33832 155.091 3.38039 154.912 3.38039C154.734 3.38039 154.607 3.33256 154.507 3.23748C154.407 3.14182 154.357 3.02138 154.357 2.87616C154.357 2.74881 154.387 2.6445 154.447 2.56267C154.691 2.25956 154.955 1.99275 155.239 1.76167C156.157 1.01425 157.289 0.640259 158.633 0.640259C159.813 0.640259 160.788 0.999271 161.559 1.71729C162.329 2.43532 162.714 3.38961 162.714 4.58017V12.0359C162.714 12.4629 162.793 12.7562 162.953 12.9152C163.114 13.0743 163.414 13.1538 163.854 13.1538C164.564 13.1538 165.089 13.1469 165.429 13.1331C165.769 13.1198 166.174 13.0835 166.644 13.0242C167.115 12.9654 167.499 12.8651 167.799 12.7245C168.099 12.5833 168.37 12.3903 168.609 12.1454C168.729 12.0359 168.875 11.9817 169.045 11.9817C169.254 11.9817 169.5 12.0451 169.78 12.1724C170.58 12.5539 171.15 13.0674 171.49 13.7128C171.83 14.3576 172 15.0255 172 15.7165Z" fill="#FFED97"/>
<path d="M106.861 10.5301C106.221 9.67085 105.496 9.11014 104.685 8.84622C105.175 8.49181 105.555 8.00833 105.825 7.39461C106.096 6.78147 106.231 6.11992 106.231 5.41111C106.231 4.70231 106.056 4.07072 105.706 3.43511C105.355 2.79891 104.855 2.2238 104.205 1.71035C103.555 1.1969 102.71 0.783718 101.67 0.470231C100.63 0.156744 99.4742 0 98.2044 0C94.6336 0 91.8481 1.04016 89.8477 3.12104C89.7481 3.21209 89.698 3.34406 89.698 3.51693C89.698 3.62585 89.7278 3.74859 89.7881 3.88459C90.0678 4.55709 90.2555 5.26359 90.3506 6.00409C90.4451 6.74516 90.4927 7.95589 90.4927 9.63685C90.4927 9.78264 90.5479 9.90712 90.6582 10.012C90.768 10.1163 90.9081 10.1687 91.0781 10.1687C91.1384 10.1687 91.1961 10.1595 91.2519 10.1422C91.3343 10.1157 91.4111 10.0702 91.4834 10.0051C91.6033 9.89617 91.6629 9.77342 91.6629 9.63685V8.90096C91.6629 6.51984 91.4282 4.73458 90.9582 3.54402C92.7182 1.89014 95.1334 1.06321 98.2044 1.06321C99.3042 1.06321 100.302 1.18998 101.197 1.44469C102.092 1.6994 102.815 2.03536 103.365 2.45315C103.915 2.87152 104.335 3.33484 104.625 3.84368C104.915 4.35252 105.061 4.87519 105.061 5.41111C105.061 6.77455 104.57 7.81932 103.59 8.54656C103.42 8.67391 103.335 8.82374 103.335 8.99605C103.335 9.23231 103.47 9.38733 103.74 9.45994C103.88 9.50489 104.048 9.57807 104.242 9.67776C104.438 9.77803 104.683 9.94112 104.978 10.1687C105.273 10.3958 105.538 10.6522 105.773 10.9386C106.008 11.225 106.213 11.5956 106.388 12.0497C106.563 12.5038 106.651 12.9901 106.651 13.5082C106.651 15.2439 105.938 16.6367 104.513 17.6861C103.087 18.7355 101.2 19.2604 98.8494 19.2604C98.1594 19.2604 97.4865 19.2172 96.8313 19.1308C96.1761 19.0443 95.519 18.8882 94.8588 18.6606C94.1986 18.4335 93.6208 18.1517 93.1261 17.8158C92.6307 17.4792 92.228 17.0361 91.9178 16.4863C91.6083 15.9366 91.4529 15.3165 91.4529 14.6261C91.4529 14.1715 91.5481 13.7375 91.7383 13.3244C91.7656 13.2644 91.7942 13.2051 91.8246 13.1474C91.9984 12.808 92.2096 12.5084 92.4569 12.2485L92.4582 12.2473C92.7481 11.9431 93.1134 11.6451 93.5535 11.3547C93.9937 11.0637 94.4085 10.8228 94.7986 10.6321C95.1886 10.4413 95.6389 10.2367 96.1488 10.0189V12.0906C96.1488 12.4721 96.1913 12.8472 96.2763 13.2149C96.3613 13.5831 96.5015 13.9623 96.6962 14.3536C96.8915 14.7443 97.1941 15.0601 97.6038 15.3009C98.0141 15.5412 98.5044 15.6617 99.0746 15.6617C99.9346 15.6617 100.63 15.3759 101.159 14.8031C101.69 14.2308 101.955 13.4857 101.955 12.5677C101.955 11.7223 101.695 11.0452 101.175 10.5364C100.949 10.3157 100.713 10.1428 100.469 10.0178C100.446 10.0057 100.423 9.99413 100.4 9.98376C100.102 9.84373 99.7906 9.77342 99.4653 9.77342C99.015 9.77342 98.6826 9.84373 98.4676 9.98434C98.2526 10.1255 98.1448 10.2869 98.1448 10.4684C98.1448 10.5842 98.1803 10.6851 98.2501 10.7698C98.2735 10.798 98.3015 10.8251 98.3325 10.8499C98.4575 10.9502 98.59 11.0003 98.7302 11.0003C98.8101 11.0003 98.9224 10.9726 99.0676 10.9185C99.2122 10.8637 99.3448 10.8366 99.4653 10.8366C99.7723 10.8366 100.043 10.9605 100.278 11.2089C100.318 11.2515 100.357 11.2976 100.395 11.3478C100.655 11.6883 100.785 12.0952 100.785 12.5677C100.785 12.7677 100.763 12.9677 100.718 13.1676C100.673 13.3676 100.595 13.5831 100.485 13.8148C100.375 14.0464 100.198 14.2354 99.9524 14.3806C99.7076 14.5259 99.4152 14.5985 99.0752 14.5985C98.715 14.5985 98.4099 14.5143 98.16 14.3466C97.9095 14.1784 97.73 13.9536 97.6196 13.6718C97.5099 13.3901 97.4319 13.1244 97.3869 12.8743C97.3526 12.6853 97.3317 12.4905 97.3241 12.2888C97.3209 12.2237 97.3197 12.1574 97.3197 12.0906V9.54177C98.1397 9.10554 98.7702 8.64395 99.2097 8.15816C99.6498 7.67179 99.8699 7.09265 99.8699 6.42015C99.8699 5.81104 99.7304 5.3385 99.4501 5.00254C99.1697 4.666 98.7746 4.49831 98.2647 4.49831C97.8949 4.49831 97.5772 4.57553 97.312 4.72997C97.0469 4.88441 96.8421 5.08207 96.6968 5.32294C96.5522 5.56382 96.4368 5.88595 96.3518 6.29049C96.2668 6.69503 96.2123 7.08573 96.1869 7.46261C96.1622 7.84006 96.1495 8.30107 96.1495 8.84622C94.6197 9.41902 93.3893 10.0621 92.4576 10.7761C91.9762 11.1455 91.5747 11.5333 91.2525 11.9408C90.6069 12.759 90.2834 13.6546 90.2834 14.6261C90.2834 16.3797 91.0737 17.7679 92.6542 18.7902C94.2341 19.8125 96.2998 20.3237 98.8501 20.3237C101.4 20.3237 103.671 19.7013 105.331 18.456C106.991 17.2113 107.821 15.562 107.821 13.5082C107.821 12.3816 107.501 11.3887 106.861 10.5301H106.861ZM97.3939 7.01312C97.444 6.63567 97.5017 6.35618 97.5664 6.17466C97.6317 5.99314 97.7141 5.85195 97.8144 5.75226C97.9139 5.65199 97.9938 5.59552 98.0541 5.58169C98.1144 5.56786 98.1841 5.56152 98.264 5.56152C98.3344 5.56152 98.4017 5.57938 98.467 5.61568C98.5317 5.65199 98.597 5.74073 98.6617 5.88192C98.727 6.02253 98.7594 6.21096 98.7594 6.44723C98.7594 7.28339 98.2793 7.9242 97.319 8.36907C97.319 7.84237 97.3438 7.39 97.3939 7.01312Z" fill="black"/>
<path d="M118.57 14.2101C119.014 14.7506 119.672 15.0215 120.542 15.0215C121.232 15.0215 121.843 14.7575 122.373 14.2308C122.903 13.7036 123.243 13.0541 123.393 12.2813C123.493 13.0904 123.821 13.7491 124.376 14.2579C124.931 14.7668 125.708 15.0215 126.708 15.0215C126.87 15.0215 127.025 15.0151 127.175 15.0019C127.618 14.9633 128.014 14.867 128.361 14.7143C128.848 14.5011 129.242 14.1761 129.544 13.7399C130.134 12.8858 130.429 11.7316 130.429 10.2777V4.74324C130.429 3.4622 130.074 2.45317 129.364 1.71728C128.654 0.981391 127.629 0.613159 126.289 0.613159C124.668 0.613159 123.368 1.25396 122.388 2.535C122.298 2.66235 122.253 2.76723 122.253 2.84848C122.253 2.90323 122.273 2.96662 122.313 3.0398C122.723 4.12087 122.928 5.1933 122.928 6.25651C122.928 6.42016 122.98 6.54925 123.086 6.64491C123.19 6.74057 123.333 6.78782 123.513 6.78782C123.542 6.78782 123.57 6.78609 123.598 6.78263C123.722 6.7688 123.832 6.72328 123.925 6.64491C124.041 6.54925 124.098 6.42016 124.098 6.25651C124.098 5.97875 124.086 5.70214 124.062 5.42553C123.989 4.5888 123.806 3.75668 123.513 2.93031C123.733 2.69405 123.936 2.501 124.121 2.35117C124.305 2.20134 124.596 2.05151 124.991 1.90111C125.386 1.75128 125.819 1.67636 126.289 1.67636C128.269 1.67636 129.259 2.68944 129.259 4.71615V10.2777C129.259 10.9231 129.197 11.4838 129.072 11.9609C128.946 12.4381 128.799 12.8017 128.629 13.0518C128.459 13.3013 128.246 13.499 127.991 13.6442C127.936 13.6753 127.884 13.7036 127.832 13.7301C127.643 13.8251 127.477 13.8857 127.331 13.9104C127.247 13.9248 127.158 13.9358 127.065 13.9439C126.953 13.9537 126.834 13.9583 126.708 13.9583C125.568 13.9398 124.808 13.3082 124.428 12.0635C124.276 11.5403 124.166 10.6534 124.1 9.40175C124.088 9.17413 124.077 8.9344 124.068 8.68257C124.068 8.53735 124.015 8.41692 123.91 8.32183C123.829 8.2475 123.725 8.20197 123.598 8.18641C123.562 8.18065 123.523 8.17834 123.483 8.17834C123.343 8.17834 123.223 8.22387 123.123 8.31492C123.023 8.40539 122.973 8.51949 122.973 8.65549C122.943 9.22829 122.885 9.789 122.8 10.3388C122.715 10.8885 122.585 11.4521 122.41 12.0289C122.235 12.6064 121.988 13.072 121.668 13.4264C121.348 13.7808 120.972 13.9583 120.542 13.9583C119.982 13.9583 119.595 13.8015 119.38 13.488C119.165 13.174 119.057 12.7083 119.057 12.0906V4.74324C119.057 3.45298 118.709 2.44222 118.014 1.71036C117.319 0.979086 116.307 0.613159 114.976 0.613159C113.426 0.613159 112.156 1.26318 111.166 2.56266C111.086 2.67157 111.046 2.77588 111.046 2.87615C111.046 2.93031 111.066 2.99428 111.106 3.06689C111.516 4.10301 111.721 5.65661 111.721 7.72886C111.721 8.00143 111.716 8.67854 111.706 9.75961C111.696 10.8413 111.691 11.6636 111.691 12.2266C111.691 14.7443 112.547 16.6955 114.256 18.0814C115.967 19.4673 118.327 20.16 121.338 20.16C123.128 20.16 124.756 19.8373 126.221 19.1925C127.268 18.7315 128.153 18.1892 128.876 17.5657C129.117 17.3576 129.34 17.141 129.545 16.9145C129.585 16.8701 129.625 16.8252 129.664 16.7796C129.744 16.6344 129.784 16.5209 129.784 16.4391C129.784 16.3025 129.736 16.1844 129.641 16.0847C129.547 15.9844 129.409 15.9343 129.229 15.9343C129.162 15.9343 129.097 15.9452 129.035 15.9671C128.931 16.0034 128.836 16.0703 128.749 16.1665C128.589 16.3388 128.439 16.4932 128.298 16.6298C128.257 16.6702 128.201 16.7191 128.13 16.7768C127.96 16.9145 127.707 17.1018 127.369 17.3386C126.889 17.6746 126.396 17.9564 125.891 18.1834C125.386 18.411 124.723 18.6197 123.903 18.8104C123.083 19.0017 122.228 19.0968 121.338 19.0968C120.847 19.0968 120.357 19.072 119.868 19.0219C119.377 18.9718 118.847 18.8767 118.277 18.7355C117.707 18.5949 117.172 18.4174 116.672 18.2042C116.172 17.9904 115.684 17.7045 115.209 17.3455C114.734 16.9865 114.326 16.5751 113.986 16.1118C113.646 15.6484 113.374 15.0826 113.169 14.4147C112.964 13.7468 112.861 13.0172 112.861 12.2266C112.861 11.6728 112.866 10.8568 112.876 9.78036C112.886 8.70332 112.892 8.01929 112.892 7.72886C112.892 5.5477 112.696 3.95722 112.306 2.95797C112.496 2.73035 112.676 2.54191 112.847 2.39208C113.016 2.24226 113.296 2.08551 113.686 1.92185C114.076 1.75819 114.506 1.67636 114.976 1.67636C115.976 1.67636 116.714 1.92877 117.189 2.433C117.665 2.93723 117.902 3.70769 117.902 4.74324V12.0906C117.902 12.9631 118.125 13.6696 118.57 14.2101Z" fill="black"/>
<path d="M140.082 16.1319C139.987 16.0276 139.865 15.9752 139.715 15.9752C139.375 15.9752 139.18 16.1118 139.13 16.3843C139.077 16.6471 139.017 16.8863 138.95 17.1035C138.822 17.5271 138.669 17.8648 138.492 18.1166C138.232 18.4889 137.919 18.6744 137.554 18.6744C137.405 18.6744 137.287 18.6629 137.202 18.6404C137.117 18.6174 137.007 18.5563 136.872 18.456C136.737 18.3563 136.635 18.1725 136.564 17.904C136.495 17.636 136.46 17.2885 136.46 16.8615V9.51414C136.46 8.40541 136.377 7.41769 136.212 6.54926C136.047 5.68198 135.869 5.04349 135.68 4.63434C135.594 4.44475 135.423 4.34563 135.168 4.33583C135.154 4.33468 135.139 4.33468 135.125 4.33468C134.974 4.33468 134.847 4.38655 134.742 4.49143C134.637 4.59573 134.584 4.71617 134.584 4.85274C134.584 4.934 134.645 5.14087 134.764 5.4728C134.792 5.54887 134.819 5.63416 134.846 5.72924C134.938 6.04906 135.028 6.47665 135.117 7.01315C135.232 7.70813 135.29 8.54198 135.29 9.51414V16.8615C135.29 18.7787 136.044 19.7376 137.554 19.7376C138.085 19.7376 138.562 19.5423 138.987 19.1516C139.21 18.947 139.401 18.7292 139.562 18.4987C139.709 18.2883 139.829 18.0676 139.925 17.836C139.972 17.7207 140.014 17.6072 140.05 17.4965C140.167 17.1392 140.225 16.8056 140.225 16.4933C140.225 16.3573 140.178 16.2368 140.082 16.1319ZM140.082 16.1319C139.987 16.0276 139.865 15.9752 139.715 15.9752C139.375 15.9752 139.18 16.1118 139.13 16.3843C139.077 16.6471 139.017 16.8863 138.95 17.1035L140.05 17.4965C140.167 17.1392 140.225 16.8056 140.225 16.4933C140.225 16.3573 140.178 16.2368 140.082 16.1319ZM140.082 16.1319C139.987 16.0276 139.865 15.9752 139.715 15.9752C139.375 15.9752 139.18 16.1118 139.13 16.3843C139.077 16.6471 139.017 16.8863 138.95 17.1035L140.05 17.4965C140.167 17.1392 140.225 16.8056 140.225 16.4933C140.225 16.3573 140.178 16.2368 140.082 16.1319ZM151.402 13.7128C151.062 13.0674 150.492 12.5539 149.692 12.1724C149.412 12.0451 149.167 11.9817 148.957 11.9817C148.787 11.9817 148.642 12.0359 148.522 12.1454C148.281 12.3903 148.011 12.5833 147.711 12.7245C147.411 12.8651 147.026 12.9654 146.556 13.0242C146.086 13.0835 145.681 13.1198 145.341 13.1331C145.001 13.1469 144.476 13.1538 143.766 13.1538C143.325 13.1538 143.025 13.0743 142.866 12.9152C142.706 12.7562 142.626 12.4629 142.626 12.0359V4.58017C142.626 3.38961 142.24 2.43532 141.47 1.71729C140.7 0.999271 139.725 0.640259 138.545 0.640259C137.2 0.640259 136.068 1.01425 135.15 1.76224C134.866 1.99332 134.602 2.26013 134.359 2.56267C134.299 2.6445 134.269 2.74881 134.269 2.87616C134.269 3.02138 134.319 3.14182 134.419 3.23748C134.519 3.33256 134.654 3.38039 134.824 3.38039C134.994 3.38039 135.13 3.34293 135.234 3.26802C135.265 3.24497 135.294 3.21904 135.319 3.18965C136.06 2.19905 137.135 1.70404 138.545 1.70404C138.905 1.70404 139.247 1.7559 139.573 1.86021C139.897 1.96509 140.205 2.12414 140.495 2.33735C140.785 2.55115 141.018 2.8508 141.193 3.23748C141.368 3.62357 141.456 4.07075 141.456 4.58017V11.9817C141.456 12.781 141.655 13.3515 142.056 13.692C142.456 14.0332 143.056 14.2032 143.856 14.2032C145.466 14.2032 146.611 14.1283 147.291 13.9784C147.971 13.8286 148.576 13.5445 149.106 13.1267C149.587 13.3446 149.979 13.6742 150.284 14.115C150.589 14.5553 150.742 15.0895 150.742 15.7165C150.742 16.0346 150.692 16.348 150.592 16.6569C150.492 16.9658 150.327 17.2816 150.096 17.6043C149.867 17.927 149.517 18.1857 149.047 18.3811C148.576 18.5765 148.016 18.6744 147.366 18.6744H140.87C140.705 18.6744 140.571 18.724 140.467 18.8219C140.464 18.8248 140.461 18.8277 140.458 18.8312C140.353 18.9355 140.3 19.0605 140.3 19.2057C140.3 19.3607 140.353 19.4875 140.458 19.5878C140.563 19.6875 140.7 19.7376 140.87 19.7376H147.366C148.647 19.7376 149.724 19.3786 150.599 18.6606C151.475 17.9426 151.912 16.9612 151.912 15.7165C151.912 15.0255 151.742 14.3576 151.402 13.7128ZM140.082 16.1319C139.987 16.0276 139.865 15.9752 139.715 15.9752C139.375 15.9752 139.18 16.1118 139.13 16.3843C139.077 16.6471 139.017 16.8863 138.95 17.1035L140.05 17.4965C140.167 17.1392 140.225 16.8056 140.225 16.4933C140.225 16.3573 140.178 16.2368 140.082 16.1319ZM140.082 16.1319C139.987 16.0276 139.865 15.9752 139.715 15.9752C139.375 15.9752 139.18 16.1118 139.13 16.3843C139.077 16.6471 139.017 16.8863 138.95 17.1035L140.05 17.4965C140.167 17.1392 140.225 16.8056 140.225 16.4933C140.225 16.3573 140.178 16.2368 140.082 16.1319Z" fill="black"/>
<path d="M160.171 16.1319C160.076 16.0276 159.953 15.9752 159.803 15.9752C159.463 15.9752 159.268 16.1118 159.218 16.3843C159.166 16.6448 159.107 16.8828 159.041 17.0983C158.913 17.5213 158.761 17.8596 158.584 18.112C158.323 18.4871 158.01 18.6744 157.643 18.6744C157.492 18.6744 157.375 18.6629 157.29 18.6404C157.205 18.6174 157.095 18.5563 156.96 18.456C156.825 18.3563 156.722 18.1725 156.653 17.904C156.582 17.636 156.547 17.2885 156.547 16.8615V9.51414C156.547 8.40541 156.465 7.41769 156.3 6.54926C156.135 5.68198 155.958 5.04349 155.767 4.63434C155.684 4.44936 155.52 4.35024 155.273 4.33641C155.254 4.33526 155.233 4.33468 155.212 4.33468C155.062 4.33468 154.935 4.38655 154.83 4.49143C154.725 4.59573 154.672 4.71617 154.672 4.85274C154.672 4.934 154.732 5.14087 154.852 5.4728C154.879 5.54887 154.907 5.63416 154.934 5.72866C155.026 6.04849 155.116 6.47665 155.205 7.01315C155.32 7.70813 155.377 8.54198 155.377 9.51414V16.8615C155.377 18.7787 156.133 19.7376 157.643 19.7376C158.173 19.7376 158.651 19.5423 159.076 19.1516C159.299 18.9453 159.492 18.7263 159.654 18.4935C159.799 18.2849 159.919 18.0659 160.013 17.836C160.061 17.7184 160.104 17.6037 160.14 17.4908C160.256 17.1358 160.313 16.8039 160.313 16.4933C160.313 16.3573 160.265 16.2368 160.171 16.1319ZM160.171 16.1319C160.076 16.0276 159.953 15.9752 159.803 15.9752C159.463 15.9752 159.268 16.1118 159.218 16.3843C159.166 16.6448 159.107 16.8828 159.041 17.0983L160.14 17.4908C160.256 17.1358 160.313 16.8039 160.313 16.4933C160.313 16.3573 160.265 16.2368 160.171 16.1319ZM160.171 16.1319C160.076 16.0276 159.953 15.9752 159.803 15.9752C159.463 15.9752 159.268 16.1118 159.218 16.3843C159.166 16.6448 159.107 16.8828 159.041 17.0983L160.14 17.4908C160.256 17.1358 160.313 16.8039 160.313 16.4933C160.313 16.3573 160.265 16.2368 160.171 16.1319ZM171.49 13.7128C171.15 13.0674 170.58 12.5539 169.78 12.1724C169.5 12.0451 169.254 11.9817 169.045 11.9817C168.875 11.9817 168.729 12.0359 168.609 12.1454C168.37 12.3903 168.099 12.5833 167.799 12.7245C167.499 12.8651 167.115 12.9654 166.644 13.0242C166.174 13.0835 165.769 13.1198 165.429 13.1331C165.089 13.1469 164.564 13.1538 163.854 13.1538C163.414 13.1538 163.114 13.0743 162.953 12.9152C162.793 12.7562 162.714 12.4629 162.714 12.0359V4.58017C162.714 3.38961 162.329 2.43532 161.559 1.71729C160.788 0.999271 159.813 0.640259 158.633 0.640259C157.289 0.640259 156.157 1.01425 155.239 1.76167C154.955 1.99275 154.691 2.25956 154.447 2.56267C154.387 2.6445 154.357 2.74881 154.357 2.87616C154.357 3.02138 154.407 3.14182 154.507 3.23748C154.607 3.33256 154.742 3.38039 154.912 3.38039C155.091 3.38039 155.234 3.33832 155.34 3.25361H155.34C155.365 3.23402 155.387 3.21327 155.407 3.18965C156.147 2.19905 157.223 1.70404 158.633 1.70404C158.993 1.70404 159.336 1.7559 159.66 1.86021C159.986 1.96509 160.293 2.12414 160.583 2.33735C160.873 2.55115 161.106 2.8508 161.281 3.23748C161.456 3.62357 161.543 4.07075 161.543 4.58017V11.9817C161.543 12.781 161.743 13.3515 162.143 13.692C162.544 14.0332 163.144 14.2032 163.944 14.2032C165.554 14.2032 166.699 14.1283 167.379 13.9784C168.06 13.8286 168.665 13.5445 169.195 13.1267C169.675 13.3446 170.068 13.6742 170.373 14.115C170.677 14.5553 170.83 15.0895 170.83 15.7165C170.83 16.0346 170.78 16.348 170.68 16.6569C170.58 16.9658 170.415 17.2816 170.185 17.6043C169.955 17.927 169.605 18.1857 169.135 18.3811C168.665 18.5765 168.105 18.6744 167.454 18.6744H160.958C160.796 18.6744 160.664 18.7222 160.56 18.8173C160.555 18.8219 160.551 18.8265 160.546 18.8312C160.44 18.9355 160.388 19.0605 160.388 19.2057C160.388 19.3607 160.44 19.4875 160.546 19.5878C160.651 19.6875 160.788 19.7376 160.958 19.7376H167.454C168.734 19.7376 169.812 19.3786 170.687 18.6606C171.562 17.9426 172 16.9612 172 15.7165C172 15.0255 171.83 14.3576 171.49 13.7128ZM159.803 15.9752C159.463 15.9752 159.268 16.1118 159.218 16.3843C159.166 16.6448 159.107 16.8828 159.041 17.0983L160.14 17.4908C160.256 17.1358 160.313 16.8039 160.313 16.4933C160.313 16.3573 160.265 16.2368 160.171 16.1319C160.076 16.0276 159.953 15.9752 159.803 15.9752ZM160.171 16.1319C160.076 16.0276 159.953 15.9752 159.803 15.9752C159.463 15.9752 159.268 16.1118 159.218 16.3843C159.166 16.6448 159.107 16.8828 159.041 17.0983L160.14 17.4908C160.256 17.1358 160.313 16.8039 160.313 16.4933C160.313 16.3573 160.265 16.2368 160.171 16.1319ZM160.171 16.1319C160.076 16.0276 159.953 15.9752 159.803 15.9752C159.463 15.9752 159.268 16.1118 159.218 16.3843C159.166 16.6448 159.107 16.8828 159.041 17.0983L160.14 17.4908C160.256 17.1358 160.313 16.8039 160.313 16.4933C160.313 16.3573 160.265 16.2368 160.171 16.1319Z" fill="black"/>
</g>
<defs>
<clipPath id="clip0_26_524">
<rect width="172" height="22" fill="white"/>
</clipPath>
</defs>
</svg>
