<svg width="601" height="654" viewBox="0 0 601 654" fill="none" xmlns="http://www.w3.org/2000/svg">
<g clip-path="url(#clip0_382_2608)">
<path d="M223.983 -66.1294L224.816 -66.6825L223.983 -66.1292C246.994 -31.4819 255.167 -4.84995 261.473 15.698L261.712 16.4757C268.046 37.1065 272.702 51.8608 289.36 62.0849L289.883 61.2326L289.36 62.0849C314.728 77.652 343.81 67.9638 370.169 58.1412C371.622 57.5998 373.066 57.058 374.502 56.5195C386.176 52.1403 397.251 47.9858 407.313 46.1431C418.586 44.0786 428.363 44.9603 436.166 51.5135C441.707 56.1682 444.548 62.2436 445.555 70.9032C446.568 79.6143 445.715 90.8542 443.908 105.742C443.151 111.982 442.228 118.851 441.21 126.421C437.381 154.909 432.215 193.342 429.513 245.714C428.064 273.814 427.015 295.037 427.341 311.655C427.667 328.271 429.366 340.386 433.472 350.239L433.472 350.239C448.175 385.463 473.541 399.589 500.336 413.435C501.416 413.994 502.499 414.552 503.584 415.11C529.401 428.412 556.226 442.234 576.589 474.865C600.407 513.035 602.453 556.256 598.277 590.549C594.101 624.835 583.717 650.08 582.815 652.183L582.814 652.185C546.824 736.397 468.19 764.69 455.376 769.062L455.17 769.132L455.012 769.281C407.495 814.188 327.969 874.06 228.995 875.953C97.2539 878.48 -38.429 777.699 -129.41 640.134C-220.376 502.592 -266.402 328.647 -219.207 185.266C-175.95 53.8768 -60.8933 -32.2702 0.82988 -78.4636C46.5484 -112.673 79.8541 -128.67 104.368 -135.176C128.846 -141.674 144.582 -138.716 155.217 -134.94C185.358 -124.234 203.785 -96.5564 223.983 -66.1294Z" fill="#97FFAE" stroke="black" stroke-width="2"/>
<mask id="mask0_382_2608" style="mask-type:alpha" maskUnits="userSpaceOnUse" x="-239" y="-115" width="819" height="992">
<path d="M-5.75002 -55.7573C83.514 -122.579 124.597 -118.475 145.688 -110.984C175.438 -100.411 193.575 -73.0922 213.221 -43.4848C258.819 25.203 244.89 61.7777 276.661 81.2859C325.201 111.085 388.206 44.4172 419.913 71.0588C442.476 90.0173 420.438 132.051 413.774 261.283C410.947 316.126 409.694 343.931 417.56 362.813C445.942 430.836 515.33 417.387 557.026 484.234C603.8 559.224 564.969 653.889 563.166 658.095C527.902 740.64 450.879 768.356 438.332 772.638C391.954 816.487 314.188 875.101 217.314 876.955C-40.5526 881.902 -312.911 482.444 -220.628 201.966C-178.343 73.475 -65.9031 -10.7197 -5.75002 -55.7573Z" fill="black"/>
</mask>
<g mask="url(#mask0_382_2608)">
<path d="M-5.75002 -55.7573C83.514 -122.579 124.597 -118.475 145.688 -110.984C175.438 -100.411 193.575 -73.0922 213.221 -43.4848C258.819 25.203 244.89 61.7777 276.661 81.2859C325.201 111.085 388.206 44.4172 419.913 71.0588C442.476 90.0173 420.438 132.051 413.774 261.283C410.947 316.126 409.694 343.931 417.56 362.813C445.942 430.836 515.33 417.387 557.026 484.234C603.8 559.224 564.969 653.889 563.166 658.095C527.902 740.64 450.879 768.356 438.332 772.638C391.954 816.487 314.188 875.101 217.314 876.955C-40.5526 881.902 -312.911 482.444 -220.628 201.966C-178.343 73.475 -65.9031 -10.7197 -5.75002 -55.7573Z" fill="black"/>
<circle cx="95" cy="381" r="652" fill="url(#paint0_radial_382_2608)"/>
<ellipse cx="313" cy="415.5" rx="250" ry="249.5" fill="url(#paint1_radial_382_2608)"/>
<circle cx="63" cy="270" r="176" fill="url(#paint2_radial_382_2608)"/>
<ellipse cx="203.5" cy="270" rx="471.5" ry="472" fill="url(#paint3_radial_382_2608)"/>
<ellipse cx="203.5" cy="270" rx="471.5" ry="472" fill="url(#paint4_radial_382_2608)"/>
</g>
<path d="M13.6334 381.844C-3.16357 386.421 -26.4703 393.932 -52.8439 406.407C-85.6211 421.913 -104.485 430.615 -119.321 446.17C-159.282 488.062 -155.112 557.434 -149.33 653.718C-148.925 660.429 -147.451 682.781 -145.997 714.715C-144.903 738.67 -144.27 758.157 -143.914 770.506C-107.862 771.546 -71.8095 772.587 -35.757 773.627C-38.6647 744.626 -43.3285 703.325 -50.7612 653.718C-58.6961 600.758 -66.5699 559.776 -65.7653 559.625C-65.0425 559.486 -57.6017 592.354 -51.8026 624.782C-45.0315 662.628 -38.1583 712.953 -35.757 773.627C52.8795 775.083 141.52 776.54 230.157 778C279.134 684.935 273.511 574.058 215.152 492.178C144.583 393.165 30.0179 383.023 13.6334 381.848V381.844Z" fill="#FFFABC"/>
<path d="M-35.757 773.627C-71.8095 772.587 -107.862 771.546 -143.914 770.506C-144.27 758.157 -144.903 738.67 -145.997 714.715C-147.451 682.781 -148.925 660.429 -149.33 653.718C-155.112 557.434 -159.282 488.062 -119.321 446.17C-104.485 430.615 -85.6211 421.913 -52.8439 406.407C-26.4703 393.932 -3.16357 386.421 13.6334 381.844V381.848C30.0179 383.023 144.583 393.165 215.152 492.178C273.511 574.058 279.134 684.935 230.157 778C141.52 776.54 52.8795 775.083 -35.757 773.627ZM-35.757 773.627C-38.6647 744.626 -43.3285 703.325 -50.7612 653.718C-58.6961 600.758 -66.5699 559.776 -65.7653 559.625C-65.0425 559.486 -57.6017 592.354 -51.8026 624.782C-45.0315 662.628 -38.1583 712.953 -35.757 773.627Z" stroke="black" stroke-width="6" stroke-miterlimit="10"/>
<path d="M214.062 357.829L56.1521 332.732L48.3737 381.57L206.284 406.666L214.062 357.829Z" fill="#C93C25" stroke="black" stroke-width="6" stroke-miterlimit="10"/>
<path d="M127.545 175.687C127.447 172.186 148.585 170.351 148.401 168.152C148.14 165.035 105.394 164.129 70.9383 173.671C70.0929 173.904 69.3619 174.116 69.3619 174.116C63.6731 175.752 45.6387 181.386 26.2893 193.669C8.16502 205.173 4.74273 212.121 3.71768 215.519C1.90035 221.528 2.21481 228.12 -0.304943 233.872C-3.53937 241.256 -10.8005 245.931 -16.0524 252.055C-16.0524 252.055 -21.5534 258.868 -27.1115 271.657C-37.1088 294.657 -10.3595 376.014 61.7986 420.758C68.488 424.907 103.499 445.872 148.103 444.664C176.298 443.901 183.02 435.033 184.911 432.087C195.039 416.304 180.472 392.822 179.676 391.574C89.1279 395.661 62.8931 395.984 62.8277 394.943C62.6644 392.283 231.5 356.286 238.32 339.503C243.307 327.232 239.386 318.604 239.386 318.604C238.1 306.434 233.726 297.145 230.565 291.634C233.366 284.242 236.74 272.285 235.515 257.831C231.937 215.653 192.613 192.608 187.941 189.969C159.514 173.904 127.672 179.958 127.549 175.691L127.545 175.687Z" fill="#FFFABC" stroke="black" stroke-width="6" stroke-miterlimit="10"/>
<path d="M204.951 299.675C220.069 299.675 232.325 287.432 232.325 272.33C232.325 257.228 220.069 244.985 204.951 244.985C189.833 244.985 177.577 257.228 177.577 272.33C177.577 287.432 189.833 299.675 204.951 299.675Z" fill="white" stroke="black" stroke-width="6" stroke-miterlimit="10"/>
<path d="M212.412 286.959C221.784 286.959 229.381 279.37 229.381 270.009C229.381 260.648 221.784 253.059 212.412 253.059C203.041 253.059 195.444 260.648 195.444 270.009C195.444 279.37 203.041 286.959 212.412 286.959Z" fill="black" stroke="black" stroke-width="6" stroke-miterlimit="10"/>
<path d="M134.728 265.097C135.994 246.001 120.116 227.941 99.26 224.767C78.4077 221.589 60.4754 234.497 59.2094 253.593C57.9434 272.689 73.8215 290.749 94.6779 293.923C115.53 297.101 133.462 284.193 134.728 265.097Z" fill="white" stroke="black" stroke-width="6" stroke-miterlimit="10"/>
<path d="M103.617 292.813C118.312 292.813 130.224 280.914 130.224 266.235C130.224 251.557 118.312 239.657 103.617 239.657C88.9231 239.657 77.011 251.557 77.011 266.235C77.011 280.914 88.9231 292.813 103.617 292.813Z" fill="black" stroke="black" stroke-width="6" stroke-miterlimit="10"/>
<path d="M109.886 264.652C109.731 267.606 111.736 270.115 114.366 270.253C116.996 270.392 119.255 268.108 119.41 265.154C119.565 262.2 117.56 259.692 114.93 259.553C112.3 259.414 110.042 261.699 109.886 264.652Z" fill="white" stroke="black" stroke-width="6" stroke-miterlimit="10"/>
<path d="M231.998 276.944C230.21 275.137 223.639 282.545 209.717 284.732C204.755 285.511 198.155 286.551 191.233 283.622C183.449 280.33 180.243 274.133 177.814 275.333C175.878 276.287 175.665 281.321 177.132 285.14C181.673 296.966 205.016 304.248 219.767 295.673C229.23 290.174 233.906 278.874 231.998 276.944Z" fill="#FFFABC" stroke="black" stroke-width="6" stroke-miterlimit="10"/>
<path d="M125.74 287.383C126.634 286.482 134.642 278.306 133.172 276.32C131.624 274.227 122.056 282.443 105.52 284.536C102.249 284.948 95.0329 285.8 86.416 283.875C71.4363 280.526 63.0521 271.192 61.8841 272.485C60.9775 273.488 65.2411 280.003 71.5711 285.458C81.4786 294 99.5783 302.657 114.207 295.991C119.708 293.482 124.012 289.129 125.74 287.383Z" fill="#FFFABC" stroke="black" stroke-width="6" stroke-miterlimit="10"/>
<path d="M21.2212 327.632C21.8419 326.62 30.7979 333.527 47.8521 341.543C57.5391 346.096 73.6949 353.035 93.9877 357.322C108.294 360.345 131.523 363.384 160.829 358.881C167.044 362.136 176.445 366.138 188.46 368.023C203.787 370.43 216.455 368.312 224.022 366.428C227.722 356.588 236.981 328.729 223.965 314.414C222.781 313.113 221.67 312.195 219.4 310.424C213.168 305.57 202.954 299.973 180.746 293.862C171.3 291.263 164.982 289.484 156.103 289.138C139.723 288.497 134.549 293.225 113.117 298.076C80.5436 305.447 74.0788 298.569 59.0665 308.328C58.3722 308.78 56.1465 311.155 52.5118 313.586C52.5118 313.586 47.3416 317.041 41.3792 319.122C28.5558 323.597 -7.30881 305.451 -10.4411 309.033C-17.5185 317.131 125.63 455.577 151.636 435.061C156.124 431.52 159.938 421.015 165.75 421.787C171.749 422.582 171.916 434.237 179.079 435.951C186.647 437.766 195.076 426.821 197.473 423.72C203.313 416.173 210.154 402.315 205.363 396.734C200.442 390.999 185.495 396.6 180.611 398.134C125.025 415.598 19.069 331.132 21.213 327.632H21.2212Z" fill="#A67C52" stroke="black" stroke-width="6" stroke-miterlimit="10"/>
<path d="M194.545 195.546C199.05 187.321 235.878 189.793 251.34 212.443C255.812 218.994 257.555 225.856 258.233 231.209C260.549 243.072 257.964 244.43 260.14 251.072C264.939 265.705 280.286 267.606 279.273 275.145C278.436 281.37 267.328 284.874 261.619 285.78C251.315 287.412 243.25 283.01 240.677 281.464C240.832 279.322 241.481 267.573 232.685 257.713C222.708 246.531 208.79 246.98 206.964 247.07C207.687 243.084 208.385 236.985 207.463 229.752C204.8 208.861 191.49 201.122 194.541 195.546H194.545Z" fill="#E5A968" stroke="black" stroke-width="6" stroke-miterlimit="10"/>
<path d="M171.259 322.161C175.249 320.843 180.705 317.343 180.329 313.826C180.321 313.745 180.313 313.688 180.305 313.639C180.17 312.876 179.468 310.995 174.751 308.27C164.19 302.167 153.274 303.269 151.918 303.424C145.771 304.125 133.32 306.981 133.046 311.734C132.817 315.719 141.189 320.227 152.898 323.099C153.764 324.066 154.956 325.53 156.116 327.476C157.509 329.806 158.75 333.208 159.167 334.758C161.115 342.036 158.93 360.985 159.199 361.034C159.35 361.063 161.323 353.956 163.242 339.078C164.104 332.384 164.606 326.815 164.904 322.981C167.767 323.132 169.94 322.597 171.255 322.161H171.259Z" fill="#534741" stroke="black" stroke-width="6" stroke-miterlimit="10"/>
<path d="M232.843 262.054C230.307 266.247 216.52 257.187 199.151 258.451C183.016 259.626 175.845 268.503 172.173 265.228C167.946 261.462 172.757 244.112 184.788 236.21C187.108 234.684 192.887 230.564 200.867 231.437C207.879 232.2 212.457 236.324 214.013 237.862C218.57 236.691 223.32 237.932 226.387 241.158C229.646 244.585 229.682 248.873 229.666 249.856C230.369 250.815 231.247 252.218 231.924 254.054C232.292 255.045 234.113 259.961 232.843 262.058V262.054Z" fill="#FFFABC" stroke="black" stroke-width="6" stroke-miterlimit="10"/>
<path d="M133.593 259.8C129.587 264.85 115.681 253.97 99.1004 253.909C74.9279 253.815 63.2603 270.794 57.8981 266.054C51.4742 260.371 60.8712 229.473 80.6249 223.823C80.6617 223.811 80.6944 223.802 80.7229 223.794C80.7229 223.794 80.825 223.766 80.9271 223.737C105.696 217.079 113.365 224.99 113.365 224.99C114.448 226.103 115.82 227.984 116.588 231.166C118.148 231.403 122.35 232.251 126.099 235.784C130.269 239.721 131.2 244.461 131.432 245.95C132.327 246.864 134.05 248.895 134.683 251.951C135.251 254.692 134.912 258.127 133.589 259.796L133.593 259.8Z" fill="#FFFABC" stroke="black" stroke-width="6" stroke-miterlimit="10"/>
<path d="M114.321 325.869C114.928 325.869 115.42 325.378 115.42 324.772C115.42 324.166 114.928 323.674 114.321 323.674C113.715 323.674 113.223 324.166 113.223 324.772C113.223 325.378 113.715 325.869 114.321 325.869Z" fill="black" stroke="black" stroke-width="6" stroke-miterlimit="10"/>
<path d="M127.443 320.652C128.05 320.652 128.542 320.16 128.542 319.554C128.542 318.948 128.05 318.457 127.443 318.457C126.836 318.457 126.344 318.948 126.344 319.554C126.344 320.16 126.836 320.652 127.443 320.652Z" fill="black" stroke="black" stroke-width="6" stroke-miterlimit="10"/>
<path d="M136.28 328.619C136.887 328.619 137.379 328.127 137.379 327.521C137.379 326.915 136.887 326.424 136.28 326.424C135.674 326.424 135.182 326.915 135.182 327.521C135.182 328.127 135.674 328.619 136.28 328.619Z" fill="black" stroke="black" stroke-width="6" stroke-miterlimit="10"/>
<path d="M121.697 333.845C122.303 333.845 122.795 333.353 122.795 332.747C122.795 332.141 122.303 331.65 121.697 331.65C121.09 331.65 120.598 332.141 120.598 332.747C120.598 333.353 121.09 333.845 121.697 333.845Z" fill="black" stroke="black" stroke-width="6" stroke-miterlimit="10"/>
<path d="M131.253 340.343C131.86 340.343 132.352 339.852 132.352 339.246C132.352 338.64 131.86 338.148 131.253 338.148C130.646 338.148 130.155 338.64 130.155 339.246C130.155 339.852 130.646 340.343 131.253 340.343Z" fill="black" stroke="black" stroke-width="6" stroke-miterlimit="10"/>
<path d="M202.092 323.491C202.699 323.491 203.191 323 203.191 322.394C203.191 321.788 202.699 321.296 202.092 321.296C201.485 321.296 200.994 321.788 200.994 322.394C200.994 323 201.485 323.491 202.092 323.491Z" fill="black" stroke="black" stroke-width="6" stroke-miterlimit="10"/>
<path d="M103.422 334.718C104.028 334.718 104.52 334.226 104.52 333.62C104.52 333.014 104.028 332.523 103.422 332.523C102.815 332.523 102.323 333.014 102.323 333.62C102.323 334.226 102.815 334.718 103.422 334.718Z" fill="black" stroke="black" stroke-width="6" stroke-miterlimit="10"/>
<path d="M188.338 341.126C188.944 341.126 189.436 340.635 189.436 340.029C189.436 339.423 188.944 338.932 188.338 338.932C187.731 338.932 187.239 339.423 187.239 340.029C187.239 340.635 187.731 341.126 188.338 341.126Z" fill="black" stroke="black" stroke-width="6" stroke-miterlimit="10"/>
<path d="M197.796 335.211C198.403 335.211 198.894 334.72 198.894 334.114C198.894 333.508 198.403 333.017 197.796 333.017C197.189 333.017 196.697 333.508 196.697 334.114C196.697 334.72 197.189 335.211 197.796 335.211Z" fill="black" stroke="black" stroke-width="6" stroke-miterlimit="10"/>
<path d="M188.17 319.95C188.777 319.95 189.269 319.458 189.269 318.852C189.269 318.246 188.777 317.755 188.17 317.755C187.563 317.755 187.072 318.246 187.072 318.852C187.072 319.458 187.563 319.95 188.17 319.95Z" fill="black" stroke="black" stroke-width="6" stroke-miterlimit="10"/>
<path d="M188.975 329.439C189.581 329.439 190.073 328.948 190.073 328.342C190.073 327.735 189.581 327.244 188.975 327.244C188.368 327.244 187.876 327.735 187.876 328.342C187.876 328.948 188.368 329.439 188.975 329.439Z" fill="black" stroke="black" stroke-width="6" stroke-miterlimit="10"/>
<path d="M209.492 335.122C210.099 335.122 210.591 334.63 210.591 334.024C210.591 333.418 210.099 332.927 209.492 332.927C208.885 332.927 208.394 333.418 208.394 334.024C208.394 334.63 208.885 335.122 209.492 335.122Z" fill="black" stroke="black" stroke-width="6" stroke-miterlimit="10"/>
<path d="M231.639 351.223C234.51 350.97 240.354 323.124 227.081 311.66C221.731 307.038 219.056 310.077 204.077 305.627C185.348 300.066 182.404 293.2 165.023 290.1C156.487 288.578 149.818 288.913 148.185 289.011C126.312 290.312 124.625 301.229 108.191 301.168C96.4012 301.127 85.632 295.465 75.2386 297.031C69.9336 297.831 65.1596 299.679 65.1596 299.679C60.1527 301.645 56.7672 303.881 55.5216 304.692C55.5216 304.692 45.6713 311.085 30.075 314.74C9.08384 319.66 -8.85665 306.185 -10.4289 309.033C-11.1109 310.269 -8.36657 313.977 6.22513 324.641C15.614 326.73 29.1683 328.247 43.76 323.764C47.3743 322.654 50.041 321.488 52.2545 320.252C58.7152 316.653 59.826 313.227 64.5551 311.725C68.2265 310.559 70.779 311.542 75.4795 312.419C79.8697 315.124 87.2493 318.836 96.83 319.652C107.224 320.537 115.604 317.616 124.948 314.255C139.87 308.886 141.009 305.055 151.926 303.375C155.94 302.759 163.61 301.576 172.251 304.411C183.318 308.046 183.045 314.022 194.308 318.697C206.029 323.564 210.007 318.62 217.721 323.332C230.769 331.303 229.184 351.439 231.639 351.223Z" fill="#C19672" stroke="black" stroke-width="6" stroke-miterlimit="10"/>
<path d="M217.521 271.612C218.444 273.909 220.49 274.994 222.095 274.035C223.7 273.077 224.255 270.433 223.332 268.136C222.41 265.84 220.363 264.754 218.759 265.713C217.154 266.672 216.598 269.315 217.521 271.612Z" fill="white" stroke="black" stroke-width="6" stroke-miterlimit="10"/>
<path d="M-15.4929 272.191C20.5433 269.821 44.3074 239.021 44.3074 239.021C48.6689 233.37 55.0439 225.109 59.2625 216.147C63.6282 206.874 56.7713 199.36 61.2759 189.079C64.7676 181.116 69.5335 180.141 68.6187 177.147C66.3807 169.812 36.6542 171.79 14.0989 173.292C13.4537 173.337 12.6287 173.406 11.5261 173.512C4.4732 174.177 -8.46043 175.58 -16.3301 185.469C-17.4409 186.864 -19.4461 189.434 -20.6631 193.342C-24.6163 206.042 -14.0349 212.944 -16.0319 228.136C-16.861 234.456 -19.4951 239.371 -20.7856 241.778C-26.4989 252.438 -33.8826 255.934 -32.8779 262.392C-32.347 265.802 -29.7864 268.054 -28.9084 268.821C-24.408 272.774 -18.2822 272.37 -15.4929 272.187V272.191Z" fill="#E5A968" stroke="black" stroke-width="6" stroke-miterlimit="10"/>
<path d="M175.282 205.724C172.157 203.207 167.432 200.29 161.944 200.702C156.651 201.102 155.846 204.202 150.721 205.891C140.585 209.228 134.52 200.123 119.978 199.968C116.527 199.931 111.226 200.384 104.651 203.138" stroke="black" stroke-width="6" stroke-miterlimit="10"/>
<path d="M164.958 192.719C162.785 190.964 159.497 188.937 155.679 189.227C151.999 189.504 151.436 191.662 147.871 192.837C140.818 195.158 136.599 188.823 126.483 188.717C124.082 188.692 120.394 189.006 115.82 190.924" stroke="black" stroke-width="6" stroke-miterlimit="10"/>
<path d="M107.134 214.046C110.964 216.347 116.233 218.566 122.024 217.657C128.345 216.665 130.608 212.68 134.386 213.859C138.833 215.25 140.442 222.246 141.92 228.655C143.215 234.281 143.35 239.07 143.252 242.26" stroke="black" stroke-width="6" stroke-miterlimit="10"/>
<path d="M189.673 227.129C188.452 227.9 184.237 230.348 178.54 229.678C171.961 228.907 168.155 224.538 167.351 223.567" stroke="black" stroke-width="6" stroke-miterlimit="10"/>
<path d="M164.606 276.287C163.7 272.815 162.43 266.639 162.63 258.794C162.834 250.741 164.496 244.622 165.607 241.269" stroke="black" stroke-width="6" stroke-miterlimit="10"/>
<path d="M146.531 258.362C146.556 262.074 146.58 265.786 146.609 269.499Z" fill="#FFFABC"/>
<path d="M146.531 258.362C146.556 262.074 146.58 265.786 146.609 269.499" stroke="black" stroke-width="6" stroke-miterlimit="10"/>
<path d="M228.899 356.543C224.223 352.023 211.852 363.376 194.868 365.754C186.933 366.864 175.547 366.354 160.837 358.884C129.444 363.127 107.007 358.146 92.783 353.206C53.1775 339.454 27.6655 308.809 12.3183 318.461C12.1182 318.587 7.51157 321.577 6.40892 326.84C2.72526 344.418 42.5635 365.991 55.2725 372.873C86.3018 389.676 110.213 393.393 156.928 400.654C156.928 400.654 194.998 406.574 214.025 393.65C219.632 389.844 221.147 384.548 221.147 384.548C222.054 381.387 222.058 376.936 220.135 375.982C218.248 375.047 215.16 377.785 214.45 378.368C209.876 382.117 196.624 384.357 161.172 379.767C146.151 379.408 124.523 377.585 99.7051 370.544C55.3624 357.962 26.959 336.125 26.8569 336.304C26.7548 336.484 55.5175 359.819 99.7541 370.633C124.38 376.655 145.857 376.855 160.873 375.88C166.399 378.894 174.848 382.419 185.52 383.088C200.054 383.998 209.839 379.057 221.891 372.971C224.525 371.641 228.172 369.605 229.65 365.616C230.606 363.029 231.03 358.603 228.899 356.543Z" fill="#754C24" stroke="black" stroke-width="6" stroke-miterlimit="10"/>
<path d="M82.8345 232.864C86.5998 231.257 92.7828 229.168 100.657 228.936C107.415 228.736 112.937 229.976 116.592 231.102" fill="#FFFABC"/>
<path d="M82.8345 232.864C86.5998 231.257 92.7828 229.168 100.657 228.936C107.415 228.736 112.937 229.976 116.592 231.102" stroke="black" stroke-width="6" stroke-miterlimit="10"/>
<path d="M99.1987 240.808C102.572 239.967 108.596 238.919 115.947 240.179C123.241 241.432 128.541 244.389 131.437 246.299" fill="#FFFABC"/>
<path d="M99.1987 240.808C102.572 239.967 108.596 238.919 115.947 240.179C123.241 241.432 128.541 244.389 131.437 246.299" stroke="black" stroke-width="6" stroke-miterlimit="10"/>
<path d="M189.686 243.214C192.136 241.982 195.264 240.689 199.017 239.763C205.078 238.266 210.35 238.323 214.009 238.674" fill="#FFFABC"/>
<path d="M189.686 243.214C192.136 241.982 195.264 240.689 199.017 239.763C205.078 238.266 210.35 238.323 214.009 238.674" stroke="black" stroke-width="6" stroke-miterlimit="10"/>
<path d="M202.729 247.481C205.592 246.67 210.533 245.662 216.622 246.4C222.601 247.127 227.089 249.219 229.662 250.668" fill="#FFFABC"/>
<path d="M202.729 247.481C205.592 246.67 210.533 245.662 216.622 246.4C222.601 247.127 227.089 249.219 229.662 250.668" stroke="black" stroke-width="6" stroke-miterlimit="10"/>
<path d="M139.939 291.944C138.767 292.213 137.126 292.478 135.165 292.434C132.735 292.376 130.269 292.323 129.66 291.087C128.795 289.341 131.502 284.923 134.728 284.952C137.346 284.972 140.127 287.918 139.939 291.944Z" fill="black" stroke="black" stroke-width="6" stroke-miterlimit="10"/>
<path d="M163.275 284.111C163.201 285.466 161.748 286.392 160.13 287.424C157.431 289.146 154.805 289.704 153.18 289.917C152.996 289.647 151.264 286.979 152.408 283.916C153.094 282.076 154.797 280.146 157.182 279.881C160.224 279.546 163.385 282.039 163.275 284.111Z" fill="black" stroke="black" stroke-width="6" stroke-miterlimit="10"/>
<path d="M177.801 394.801C176.421 389.228 170.14 382.546 157.586 369.182C150.419 361.557 145.747 357.588 139.784 357.726C139.061 357.743 134.185 357.857 131.335 360.741C122.24 369.94 147.862 393.12 143.1 418.911C139.837 436.591 126.091 434.935 111.12 464.723C104.308 478.275 101.661 489.543 99.3539 499.383C96.3646 512.119 95.9439 519.715 94.2246 565.389C92.5339 610.3 92.4481 615.938 92.4154 622.053C92.3052 641.949 92.7626 659.042 93.3221 672.386C93.2526 687.472 94.3063 705.565 97.847 725.734C101.118 744.353 105.774 760.544 110.519 773.958C179.01 775.165 247.501 776.369 315.991 777.576C334.598 721.817 353.204 666.059 371.81 610.3C371.406 604.675 371.005 599.049 370.601 593.423C374.321 591.012 378.042 588.601 381.766 586.19C379.394 581.067 377.025 575.943 374.652 570.823C376.421 564.594 378.189 558.364 379.953 552.135C377.638 538.13 371.736 514.763 354.609 492.158C341.405 474.734 327.32 465.392 311.462 455.088C293.297 443.277 264.829 427.633 225.774 416.81C228.021 421.856 230.961 430.37 229.695 440.32C226.158 468.162 193.794 475.057 178.704 504.821C175.882 510.385 171.394 521.233 173.877 561.485C175.702 591.086 181.117 633.639 197.412 684.759C206.425 692.698 218.354 704.81 229.095 721.83C239.321 738.042 244.426 752.299 244.483 752.271C244.544 752.242 238.7 735.251 226.681 717.31C216.549 702.183 205.498 691.564 197.412 684.759C204.885 672.745 213.061 657.235 219.739 638.343C228.976 612.205 232.096 588.793 233.015 571.431C230.638 591.714 225.77 616.583 215.818 643.768C210.137 659.279 203.75 672.957 197.412 684.759C194.574 679.154 190.665 670.701 187.153 660.046C182.416 645.674 181.636 637.107 177.801 604.891C173.926 572.332 172.153 559.519 171.765 538.281C171.361 516.19 173.015 511.279 174.783 507.538C181.791 492.713 192.613 493.215 210.386 473.78C219.518 463.793 228.196 454.304 229.695 440.324C231.173 426.543 224.945 415.19 221.245 409.581C221.601 412.995 222.005 421.42 217.325 430.378C213.772 437.175 206.719 442.808 207.368 442.131C210.019 439.377 220.58 427.779 221.25 409.581C221.874 392.598 213.478 380.861 210.991 377.634C201.165 364.865 188.203 360.916 184.139 359.852C186.708 362.112 205.906 379.588 204.355 406.57C203.325 424.504 193.708 436.587 190.175 440.63C191.739 438.99 209.864 419.302 204.056 392.708C199.699 372.767 183.637 356.959 163.022 352.321C149.818 351.88 145.992 353.989 145.22 356.237C142.7 363.58 172.549 373.11 177.805 394.817C180.803 407.19 174.849 419.555 168.453 428.877C170.781 425.919 181.873 411.221 177.805 394.817L177.801 394.801Z" fill="#FFFABC"/>
<path d="M197.412 684.759C181.117 633.639 175.702 591.086 173.877 561.485C171.394 521.233 175.882 510.385 178.704 504.821C193.794 475.057 226.158 468.162 229.695 440.32C230.961 430.37 228.021 421.856 225.774 416.81C264.829 427.633 293.297 443.277 311.462 455.088C327.32 465.392 341.405 474.734 354.609 492.158C371.736 514.763 377.638 538.13 379.953 552.135C378.189 558.364 376.421 564.594 374.652 570.823C377.025 575.943 379.394 581.067 381.766 586.19C378.042 588.601 374.321 591.012 370.601 593.423C371.005 599.049 371.406 604.675 371.81 610.3C353.204 666.059 334.598 721.817 315.991 777.576C247.501 776.369 179.01 775.165 110.519 773.958C105.774 760.544 101.118 744.353 97.847 725.734C94.3063 705.565 93.2526 687.472 93.3221 672.386C92.7626 659.042 92.3052 641.949 92.4154 622.053C92.4481 615.938 92.5339 610.3 94.2246 565.389C95.9439 519.715 96.3646 512.119 99.3539 499.383C101.661 489.543 104.308 478.275 111.12 464.723C126.091 434.935 139.837 436.591 143.1 418.911C147.862 393.12 122.24 369.94 131.335 360.741C134.185 357.857 139.061 357.743 139.784 357.726C145.747 357.588 150.419 361.557 157.586 369.182C170.14 382.546 176.421 389.228 177.801 394.801L177.805 394.817M197.412 684.759C206.425 692.698 218.354 704.81 229.095 721.83C239.321 738.042 244.426 752.299 244.483 752.271C244.544 752.242 238.7 735.251 226.681 717.31C216.549 702.183 205.498 691.564 197.412 684.759ZM197.412 684.759C204.885 672.745 213.061 657.235 219.739 638.343C228.976 612.205 232.096 588.793 233.015 571.431C230.638 591.714 225.77 616.583 215.818 643.768C210.137 659.279 203.75 672.957 197.412 684.759ZM197.412 684.759C194.574 679.154 190.665 670.701 187.153 660.046C182.416 645.674 181.636 637.107 177.801 604.891C173.926 572.332 172.153 559.519 171.765 538.281C171.361 516.19 173.015 511.279 174.783 507.538C181.791 492.713 192.613 493.215 210.386 473.78C219.518 463.793 228.196 454.304 229.695 440.324C231.173 426.543 224.945 415.19 221.245 409.581C221.601 412.995 222.005 421.42 217.325 430.378C213.772 437.175 206.719 442.808 207.368 442.131C210.019 439.377 220.58 427.779 221.25 409.581C221.874 392.598 213.478 380.861 210.991 377.634C201.165 364.865 188.203 360.916 184.139 359.852C186.708 362.112 205.906 379.588 204.355 406.57C203.325 424.504 193.708 436.587 190.175 440.63C191.739 438.99 209.864 419.302 204.056 392.708C199.699 372.767 183.637 356.959 163.022 352.321C149.818 351.88 145.992 353.989 145.22 356.237C142.7 363.58 172.549 373.11 177.805 394.817M177.805 394.817C180.803 407.19 174.849 419.555 168.453 428.877C170.781 425.919 181.873 411.221 177.805 394.817Z" stroke="black" stroke-width="6" stroke-miterlimit="10"/>
</g>
<defs>
<radialGradient id="paint0_radial_382_2608" cx="0" cy="0" r="1" gradientUnits="userSpaceOnUse" gradientTransform="translate(95 381) rotate(90) scale(652)">
<stop stop-color="#A31F1F"/>
<stop offset="1" stop-opacity="0"/>
</radialGradient>
<radialGradient id="paint1_radial_382_2608" cx="0" cy="0" r="1" gradientUnits="userSpaceOnUse" gradientTransform="translate(313 415.5) rotate(90) scale(249.5 250)">
<stop stop-color="#9B71EB"/>
<stop offset="1" stop-opacity="0"/>
</radialGradient>
<radialGradient id="paint2_radial_382_2608" cx="0" cy="0" r="1" gradientUnits="userSpaceOnUse" gradientTransform="translate(63 270) rotate(90) scale(176)">
<stop stop-color="#CA1D8F"/>
<stop offset="1" stop-opacity="0"/>
</radialGradient>
<radialGradient id="paint3_radial_382_2608" cx="0" cy="0" r="1" gradientUnits="userSpaceOnUse" gradientTransform="translate(203.5 270) rotate(90) scale(472 471.5)">
<stop stop-color="#14704F"/>
<stop offset="1" stop-opacity="0"/>
</radialGradient>
<radialGradient id="paint4_radial_382_2608" cx="0" cy="0" r="1" gradientUnits="userSpaceOnUse" gradientTransform="translate(203.5 270) rotate(90) scale(472 471.5)">
<stop stop-color="#0D4B35"/>
<stop offset="1" stop-opacity="0"/>
</radialGradient>
<clipPath id="clip0_382_2608">
<rect width="601" height="654" fill="white"/>
</clipPath>
</defs>
</svg>
