<svg width="840" height="933" viewBox="0 0 840 933" fill="none" xmlns="http://www.w3.org/2000/svg">
<g clip-path="url(#clip0_545_65)">
<path d="M457.275 89.3441L458.101 88.7801L457.275 89.3442C480.738 123.687 489.26 150.209 495.835 170.672L496.084 171.447C502.688 191.993 507.538 206.685 524.329 216.689L524.841 215.83L524.329 216.689C549.899 231.922 578.852 221.853 605.079 211.685C606.525 211.125 607.962 210.564 609.39 210.007C621.006 205.475 632.025 201.175 642.062 199.201C653.308 196.988 663.095 197.742 670.983 204.192C676.585 208.773 679.506 214.811 680.626 223.457C681.753 232.154 681.048 243.404 679.437 258.314C678.761 264.564 677.928 271.444 677.01 279.027C673.555 307.563 668.894 346.06 666.88 398.463C665.8 426.58 665.03 447.815 665.574 464.427C666.117 481.037 667.975 493.129 672.21 502.927L672.211 502.927C687.375 537.955 712.924 551.747 739.898 565.24C740.986 565.784 742.076 566.328 743.168 566.873C769.157 579.834 796.161 593.302 816.951 625.664C841.268 663.518 843.881 706.708 840.155 741.053C836.429 775.391 826.378 800.77 825.504 802.885L825.503 802.887C790.621 887.564 712.365 916.887 699.61 921.426L699.405 921.499L699.249 921.65C652.325 967.177 573.592 1028.09 474.651 1031.28C342.955 1035.54 205.961 936.544 113.182 800.185C20.4187 663.849 -27.8869 490.522 17.4221 346.535C58.9513 214.589 172.867 126.939 233.979 79.9399C279.244 45.1334 312.337 28.701 336.764 21.873C361.154 15.0552 376.927 17.8059 387.611 21.4419C417.89 31.7518 436.679 59.1848 457.275 89.3441Z" fill="#97FFAE" stroke="black" stroke-width="2"/>
<mask id="mask0_545_65" style="mask-type:alpha" maskUnits="userSpaceOnUse" x="-1" y="41" width="823" height="992">
<path d="M227.697 102.731C316.077 34.7436 357.21 38.3077 378.397 45.5216C408.284 55.7024 426.778 82.7812 446.811 112.128C493.306 180.212 479.859 216.966 511.883 236.055C560.81 265.215 622.934 197.726 654.989 223.949C677.798 242.61 656.314 284.929 651.347 414.237C649.24 469.113 648.352 496.932 656.465 515.709C685.737 583.353 754.942 568.995 797.513 635.289C845.267 709.659 807.682 804.825 805.933 809.054C771.757 892.055 695.104 920.779 682.614 925.226C636.815 969.68 559.826 1029.31 462.984 1032.43C205.205 1040.77 -72.3728 644.917 16.2204 363.252C56.8153 234.217 168.141 148.554 227.697 102.731Z" fill="black"/>
</mask>
<g mask="url(#mask0_545_65)">
<path d="M227.697 102.731C316.077 34.7436 357.21 38.3077 378.397 45.5216C408.284 55.7024 426.778 82.7812 446.811 112.128C493.306 180.212 479.859 216.966 511.883 236.055C560.81 265.215 622.934 197.726 654.989 223.949C677.798 242.61 656.314 284.929 651.347 414.237C649.24 469.113 648.352 496.932 656.465 515.709C685.737 583.353 754.942 568.995 797.513 635.289C845.267 709.659 807.682 804.825 805.933 809.054C771.757 892.055 695.104 920.779 682.614 925.226C636.815 969.68 559.826 1029.31 462.984 1032.43C205.205 1040.77 -72.3728 644.917 16.2204 363.252C56.8153 234.217 168.141 148.554 227.697 102.731Z" fill="black"/>
<circle cx="334.171" cy="538.128" r="652" transform="rotate(-0.752046 334.171 538.128)" fill="url(#paint0_radial_545_65)"/>
<ellipse cx="552.605" cy="569.764" rx="250" ry="249.5" transform="rotate(-0.752046 552.605 569.764)" fill="url(#paint1_radial_545_65)"/>
<circle cx="300.717" cy="427.558" r="176" transform="rotate(-0.752046 300.717 427.558)" fill="url(#paint2_radial_545_65)"/>
<ellipse cx="441.205" cy="425.713" rx="471.5" ry="472" transform="rotate(-0.752046 441.205 425.713)" fill="url(#paint3_radial_545_65)"/>
<ellipse cx="441.205" cy="425.713" rx="471.5" ry="472" transform="rotate(-0.752046 441.205 425.713)" fill="url(#paint4_radial_545_65)"/>
</g>
<path d="M252.823 540.04C236.087 544.837 212.881 552.653 186.673 565.473C154.103 581.408 135.355 590.356 120.724 606.105C81.3162 648.518 86.3961 717.829 93.4421 814.03C93.9344 820.734 95.702 843.065 97.5748 874.977C98.9836 898.916 99.8724 918.393 100.39 930.736C136.453 931.303 172.516 931.87 208.579 932.437C205.291 903.477 200.085 862.241 192.002 812.736C183.373 759.884 174.962 719.009 175.764 718.847C176.485 718.699 184.357 751.467 190.581 783.816C197.848 821.569 205.381 871.8 208.579 932.437C297.227 932.73 385.879 933.023 474.527 933.32C522.279 839.619 515.201 728.826 455.772 647.72C383.91 549.641 269.221 541.004 252.823 540.044L252.823 540.04Z" fill="#FFFABC"/>
<path d="M208.579 932.437C172.516 931.87 136.453 931.303 100.39 930.736C99.8724 918.393 98.9836 898.916 97.5748 874.977C95.702 843.065 93.9344 820.734 93.4421 814.03C86.3961 717.829 81.3162 648.518 120.724 606.105C135.355 590.356 154.103 581.408 186.673 565.473C212.881 552.653 236.087 544.837 252.823 540.04L252.823 540.044C269.221 541.004 383.91 549.641 455.772 647.72C515.201 728.826 522.279 839.619 474.527 933.32C385.879 933.023 297.227 932.73 208.579 932.437ZM208.579 932.437C205.291 903.477 200.085 862.241 192.002 812.736C183.373 759.884 174.962 719.009 175.764 718.847C176.485 718.699 184.357 751.467 190.581 783.816C197.848 821.569 205.381 871.8 208.579 932.437Z" stroke="black" stroke-width="6" stroke-miterlimit="10"/>
<path d="M452.919 513.396L294.693 490.375L287.557 539.31L445.782 562.332L452.919 513.396Z" fill="#C93C25" stroke="black" stroke-width="6" stroke-miterlimit="10"/>
<path d="M364.019 332.405C363.875 328.907 384.987 326.794 384.774 324.597C384.472 321.484 341.718 321.14 307.39 331.133C306.548 331.377 305.82 331.598 305.82 331.598C300.153 333.309 282.194 339.179 263.008 351.715C245.036 363.456 241.705 370.448 240.725 373.859C238.987 379.892 239.388 386.479 236.944 392.264C233.806 399.69 226.607 404.46 221.436 410.652C221.436 410.652 216.025 417.536 210.635 430.397C200.941 453.526 228.756 534.526 301.495 578.319C308.238 582.379 343.521 602.883 388.106 601.09C416.288 599.957 422.893 591.001 424.745 588.031C434.665 572.116 419.791 548.827 418.978 547.589C328.492 552.865 302.264 553.532 302.185 552.492C301.987 549.835 470.335 511.625 476.934 494.753C481.759 482.418 477.726 473.842 477.726 473.842C476.28 461.691 471.785 452.46 468.552 446.991C471.256 439.562 474.472 427.562 473.057 413.126C468.926 370.998 429.304 348.471 424.597 345.894C395.961 330.203 364.201 336.674 364.023 332.409L364.019 332.405Z" fill="#FFFABC" stroke="black" stroke-width="6" stroke-miterlimit="10"/>
<path d="M443.045 455.366C458.162 455.168 470.256 442.765 470.058 427.664C469.86 412.564 457.445 400.483 442.327 400.681C427.21 400.88 415.116 413.282 415.314 428.383C415.513 443.484 427.928 455.565 443.045 455.366Z" fill="white" stroke="black" stroke-width="6" stroke-miterlimit="10"/>
<path d="M450.339 442.554C459.71 442.431 467.207 434.743 467.084 425.382C466.961 416.022 459.265 408.533 449.894 408.656C440.524 408.779 433.027 416.467 433.15 425.828C433.273 435.188 440.969 442.677 450.339 442.554Z" fill="black" stroke="black" stroke-width="6" stroke-miterlimit="10"/>
<path d="M372.375 421.713C373.391 402.602 357.277 384.752 336.381 381.852C315.488 378.948 297.727 392.09 296.712 411.201C295.696 430.312 311.81 448.162 332.706 451.062C353.599 453.966 371.36 440.824 372.375 421.713Z" fill="white" stroke="black" stroke-width="6" stroke-miterlimit="10"/>
<path d="M341.631 449.835C356.324 449.642 368.079 437.588 367.886 422.91C367.694 408.233 355.626 396.491 340.933 396.684C326.24 396.877 314.485 408.932 314.678 423.609C314.871 438.286 326.938 450.028 341.631 449.835Z" fill="black" stroke="black" stroke-width="6" stroke-miterlimit="10"/>
<path d="M347.53 421.595C347.413 424.55 349.451 427.032 352.083 427.136C354.714 427.241 356.943 424.927 357.059 421.971C357.175 419.016 355.137 416.534 352.506 416.429C349.874 416.325 347.646 418.639 347.53 421.595Z" fill="white" stroke="black" stroke-width="6" stroke-miterlimit="10"/>
<path d="M469.792 432.282C467.98 430.499 461.507 437.993 447.615 440.362C442.663 441.206 436.078 442.333 429.118 439.495C421.292 436.305 418.005 430.151 415.591 431.382C413.668 432.362 413.521 437.399 415.038 441.198C419.734 452.963 443.171 459.938 457.808 451.17C467.197 445.547 471.725 434.187 469.792 432.282Z" fill="#FFFABC" stroke="black" stroke-width="6" stroke-miterlimit="10"/>
<path d="M363.68 444.116C364.562 443.203 372.463 434.923 370.967 432.956C369.391 430.883 359.932 439.224 343.425 441.534C340.159 441.989 332.955 442.936 324.313 441.124C309.291 437.972 300.785 428.749 299.634 430.057C298.741 431.072 303.09 437.531 309.491 442.902C319.509 451.313 337.721 459.732 352.261 452.874C357.728 450.293 361.975 445.884 363.68 444.116Z" fill="#FFFABC" stroke="black" stroke-width="6" stroke-miterlimit="10"/>
<path d="M259.699 485.732C260.306 484.713 269.352 491.501 286.51 499.293C296.256 503.718 312.501 510.445 332.849 514.465C347.193 517.3 370.46 520.034 399.704 515.146C405.962 518.32 415.415 522.198 427.453 523.925C442.81 526.131 455.45 523.847 462.992 521.863C466.562 511.976 475.454 483.998 462.252 469.855C461.05 468.569 459.928 467.666 457.634 465.925C451.339 461.153 441.052 455.691 418.766 449.871C409.287 447.397 402.946 445.701 394.064 445.471C377.677 445.046 372.565 449.841 351.198 454.973C318.725 462.771 312.17 455.979 297.287 465.933C296.599 466.395 294.405 468.798 290.802 471.277C290.802 471.277 285.678 474.8 279.743 476.959C266.98 481.602 230.88 463.929 227.795 467.551C220.824 475.741 365.777 612.296 391.512 591.441C395.953 587.841 399.629 577.287 405.45 577.982C411.46 578.699 411.78 590.351 418.965 591.97C426.556 593.686 434.84 582.631 437.197 579.499C442.937 571.876 449.595 557.93 444.732 552.412C439.736 546.741 424.864 552.538 420 554.136C364.648 572.329 257.592 489.261 259.69 485.733L259.699 485.732Z" fill="#A67C52" stroke="black" stroke-width="6" stroke-miterlimit="10"/>
<path d="M431.274 351.383C435.67 343.1 472.528 345.089 488.285 367.533C492.843 374.026 494.676 380.864 495.425 386.207C497.896 398.039 495.329 399.431 497.592 406.043C502.582 420.612 517.953 422.312 517.04 429.863C516.284 436.099 505.223 439.749 499.526 440.729C489.245 442.496 481.122 438.201 478.529 436.688C478.656 434.545 479.151 422.788 470.226 413.044C460.103 401.994 446.192 402.626 444.368 402.74C445.039 398.745 445.657 392.637 444.639 385.417C441.702 364.563 428.293 356.999 431.27 351.383L431.274 351.383Z" fill="#E5A968" stroke="black" stroke-width="6" stroke-miterlimit="10"/>
<path d="M409.651 478.293C413.624 476.923 419.033 473.351 418.611 469.84C418.602 469.758 418.593 469.702 418.584 469.653C418.44 468.892 417.713 467.02 412.96 464.357C402.32 458.394 391.42 459.638 390.066 459.811C383.929 460.593 371.516 463.612 371.305 468.368C371.129 472.356 379.559 476.754 391.304 479.472C392.182 480.427 393.394 481.876 394.579 483.807C396.002 486.118 397.288 489.503 397.725 491.048C399.769 498.299 397.833 517.276 398.103 517.321C398.254 517.348 400.133 510.216 401.857 495.314C402.631 488.609 403.06 483.034 403.308 479.196C406.173 479.309 408.338 478.747 409.647 478.293L409.651 478.293Z" fill="#534741" stroke="black" stroke-width="6" stroke-miterlimit="10"/>
<path d="M470.442 417.383C467.961 421.61 454.056 412.731 436.705 414.223C420.587 415.61 413.532 424.58 409.818 421.353C405.543 417.643 410.125 400.231 422.052 392.172C424.351 390.616 430.075 386.42 438.066 387.189C445.087 387.859 449.719 391.923 451.295 393.441C455.837 392.21 460.602 393.388 463.711 396.574C467.015 399.958 467.108 404.245 467.105 405.228C467.819 406.177 468.716 407.569 469.418 409.396C469.798 410.382 471.684 415.274 470.442 417.387L470.442 417.383Z" fill="#FFFABC" stroke="black" stroke-width="6" stroke-miterlimit="10"/>
<path d="M371.17 416.432C367.23 421.534 353.183 410.838 336.603 410.994C312.432 411.217 300.988 428.348 295.564 423.678C289.066 418.08 298.057 387.062 317.735 381.153C317.771 381.14 317.804 381.131 317.832 381.123C317.832 381.123 317.934 381.093 318.036 381.063C342.715 374.081 350.488 381.89 350.488 381.89C351.584 382.989 352.981 384.852 353.791 388.023C355.354 388.239 359.567 389.033 363.362 392.516C367.583 396.398 368.576 401.125 368.828 402.611C369.734 403.513 371.484 405.522 372.157 408.569C372.761 411.303 372.467 414.742 371.166 416.428L371.17 416.432Z" fill="#FFFABC" stroke="black" stroke-width="6" stroke-miterlimit="10"/>
<path d="M352.768 482.748C353.375 482.74 353.86 482.242 353.852 481.636C353.844 481.03 353.346 480.545 352.739 480.553C352.132 480.561 351.647 481.059 351.655 481.665C351.663 482.271 352.161 482.756 352.768 482.748Z" fill="black" stroke="black" stroke-width="6" stroke-miterlimit="10"/>
<path d="M365.82 477.359C366.426 477.351 366.912 476.853 366.904 476.247C366.896 475.641 366.398 475.156 365.791 475.164C365.184 475.172 364.699 475.67 364.707 476.276C364.715 476.882 365.213 477.367 365.82 477.359Z" fill="black" stroke="black" stroke-width="6" stroke-miterlimit="10"/>
<path d="M374.761 485.209C375.368 485.201 375.853 484.704 375.845 484.098C375.837 483.492 375.339 483.007 374.732 483.015C374.126 483.023 373.64 483.521 373.648 484.127C373.656 484.733 374.154 485.217 374.761 485.209Z" fill="black" stroke="black" stroke-width="6" stroke-miterlimit="10"/>
<path d="M360.247 490.626C360.854 490.618 361.339 490.12 361.331 489.514C361.323 488.908 360.825 488.423 360.218 488.431C359.611 488.439 359.126 488.937 359.134 489.543C359.142 490.149 359.64 490.634 360.247 490.626Z" fill="black" stroke="black" stroke-width="6" stroke-miterlimit="10"/>
<path d="M369.888 496.999C370.495 496.991 370.98 496.493 370.972 495.887C370.964 495.281 370.466 494.796 369.859 494.804C369.253 494.812 368.767 495.31 368.775 495.916C368.783 496.522 369.281 497.007 369.888 496.999Z" fill="black" stroke="black" stroke-width="6" stroke-miterlimit="10"/>
<path d="M440.5 479.218C441.107 479.21 441.592 478.713 441.584 478.107C441.576 477.501 441.078 477.016 440.471 477.024C439.864 477.032 439.379 477.529 439.387 478.135C439.395 478.741 439.893 479.226 440.5 479.218Z" fill="black" stroke="black" stroke-width="6" stroke-miterlimit="10"/>
<path d="M341.985 491.739C342.591 491.731 343.077 491.234 343.069 490.628C343.061 490.022 342.563 489.537 341.956 489.545C341.349 489.553 340.864 490.05 340.872 490.656C340.88 491.262 341.378 491.747 341.985 491.739Z" fill="black" stroke="black" stroke-width="6" stroke-miterlimit="10"/>
<path d="M426.978 497.033C427.585 497.025 428.07 496.527 428.062 495.921C428.054 495.315 427.556 494.83 426.949 494.838C426.342 494.846 425.857 495.344 425.865 495.95C425.873 496.556 426.371 497.041 426.978 497.033Z" fill="black" stroke="black" stroke-width="6" stroke-miterlimit="10"/>
<path d="M436.357 490.994C436.964 490.986 437.449 490.488 437.441 489.882C437.433 489.276 436.935 488.792 436.328 488.8C435.722 488.808 435.236 489.305 435.244 489.911C435.252 490.517 435.751 491.002 436.357 490.994Z" fill="black" stroke="black" stroke-width="6" stroke-miterlimit="10"/>
<path d="M426.533 475.86C427.139 475.852 427.625 475.354 427.617 474.748C427.609 474.142 427.11 473.657 426.504 473.665C425.897 473.673 425.412 474.171 425.42 474.777C425.428 475.383 425.926 475.868 426.533 475.86Z" fill="black" stroke="black" stroke-width="6" stroke-miterlimit="10"/>
<path d="M427.461 485.338C428.068 485.33 428.553 484.832 428.545 484.226C428.537 483.62 428.039 483.135 427.432 483.143C426.826 483.151 426.34 483.649 426.348 484.255C426.356 484.861 426.855 485.346 427.461 485.338Z" fill="black" stroke="black" stroke-width="6" stroke-miterlimit="10"/>
<path d="M448.052 490.751C448.658 490.743 449.144 490.245 449.136 489.639C449.128 489.033 448.629 488.548 448.023 488.556C447.416 488.564 446.931 489.062 446.939 489.668C446.947 490.274 447.445 490.759 448.052 490.751Z" fill="black" stroke="black" stroke-width="6" stroke-miterlimit="10"/>
<path d="M470.408 506.56C473.275 506.27 478.753 478.349 465.331 467.061C459.921 462.509 457.286 465.583 442.25 461.329C423.45 456.015 420.415 449.189 402.995 446.317C394.44 444.907 387.776 445.329 386.144 445.449C364.29 447.037 362.747 457.975 346.314 458.129C334.524 458.243 323.682 452.723 313.31 454.426C308.016 455.295 303.266 457.205 303.266 457.205C298.286 459.237 294.93 461.517 293.695 462.345C293.695 462.345 283.929 468.866 268.382 472.726C247.458 477.921 229.342 464.683 227.807 467.551C227.141 468.796 229.934 472.468 244.665 482.939C254.08 484.904 267.653 486.244 282.185 481.569C285.784 480.413 288.435 479.211 290.632 477.946C297.045 474.263 298.111 470.822 302.82 469.259C306.476 468.044 309.041 468.994 313.753 469.809C318.178 472.456 325.606 476.071 335.196 476.761C345.6 477.51 353.941 474.479 363.24 470.995C378.091 465.431 379.18 461.586 390.073 459.762C394.079 459.094 401.733 457.81 410.411 460.532C421.525 464.021 421.33 470 432.653 474.527C444.437 479.24 448.349 474.244 456.125 478.854C469.277 486.653 467.956 506.809 470.408 506.56Z" fill="#C19672" stroke="black" stroke-width="6" stroke-miterlimit="10"/>
<path d="M455.246 427.141C456.199 429.426 458.259 430.484 459.852 429.504C461.444 428.525 461.965 425.874 461.012 423.59C460.059 421.305 457.999 420.247 456.406 421.227C454.814 422.206 454.293 424.857 455.246 427.141Z" fill="white" stroke="black" stroke-width="6" stroke-miterlimit="10"/>
<path d="M222.26 430.779C258.262 427.936 281.62 396.826 281.62 396.826C285.907 391.119 292.173 382.775 296.274 373.758C300.517 364.429 293.562 357.005 297.931 346.667C301.318 338.658 306.071 337.621 305.117 334.639C302.783 327.334 273.085 329.702 250.551 331.499C249.907 331.553 249.083 331.633 247.982 331.753C240.938 332.511 228.024 334.084 220.285 344.075C219.192 345.485 217.221 348.081 216.055 352.005C212.269 364.755 222.94 371.518 221.143 386.735C220.397 393.064 217.828 398.014 216.569 400.438C210.996 411.172 203.659 414.765 204.748 421.209C205.324 424.612 207.914 426.83 208.802 427.585C213.353 431.479 219.473 430.995 222.26 430.775L222.26 430.779Z" fill="#E5A968" stroke="black" stroke-width="6" stroke-miterlimit="10"/>
<path d="M412.145 361.813C408.989 359.337 404.226 356.483 398.743 356.967C393.456 357.436 392.692 360.547 387.589 362.303C377.498 365.772 371.314 356.747 356.771 356.783C353.32 356.792 348.025 357.314 341.487 360.154" stroke="black" stroke-width="6" stroke-miterlimit="10"/>
<path d="M401.652 348.944C399.456 347.218 396.143 345.234 392.328 345.574C388.653 345.9 388.117 348.065 384.568 349.286C377.546 351.7 373.245 345.421 363.128 345.447C360.727 345.454 357.044 345.817 352.495 347.794" stroke="black" stroke-width="6" stroke-miterlimit="10"/>
<path d="M344.113 371.029C347.974 373.279 353.271 375.429 359.049 374.444C365.357 373.37 367.567 369.354 371.36 370.484C375.825 371.816 377.526 378.791 379.088 385.18C380.457 390.788 380.654 395.575 380.598 398.766" stroke="black" stroke-width="6" stroke-miterlimit="10"/>
<path d="M426.817 383.027C425.606 383.814 421.424 386.317 415.719 385.723C409.13 385.038 405.267 380.72 404.45 379.759" stroke="black" stroke-width="6" stroke-miterlimit="10"/>
<path d="M402.398 432.51C401.445 429.051 400.094 422.892 400.192 415.045C400.29 406.99 401.872 400.849 402.938 397.482" stroke="black" stroke-width="6" stroke-miterlimit="10"/>
<path d="M384.088 414.823C384.162 418.535 384.235 422.247 384.312 425.958Z" fill="#FFFABC"/>
<path d="M384.088 414.823C384.162 418.535 384.235 422.247 384.312 425.958" stroke="black" stroke-width="6" stroke-miterlimit="10"/>
<path d="M467.737 511.916C463.003 507.457 450.783 518.972 433.83 521.573C425.911 522.787 414.519 522.426 399.712 515.15C368.378 519.805 345.878 515.119 331.59 510.366C291.807 497.135 265.895 466.827 250.676 476.68C250.478 476.809 245.911 479.859 244.877 485.136C241.424 502.761 281.542 523.809 294.341 530.523C325.588 546.918 349.546 550.32 396.352 556.968C396.352 556.968 434.497 562.387 453.352 549.215C458.909 545.335 460.355 540.021 460.355 540.021C461.22 536.848 461.165 532.397 459.229 531.468C457.331 530.559 454.279 533.336 453.576 533.929C449.052 537.738 435.83 540.151 400.321 536.027C385.297 535.865 363.647 534.326 338.739 527.611C294.235 515.613 265.547 494.15 265.448 494.331C265.348 494.512 294.414 517.467 338.789 527.7C363.492 533.398 384.97 533.316 399.972 532.144C405.537 535.086 414.032 538.499 424.711 539.028C439.256 539.747 448.975 534.679 460.946 528.434C463.562 527.07 467.182 524.987 468.608 520.978C469.53 518.379 469.896 513.948 467.737 511.916Z" fill="#754C24" stroke="black" stroke-width="6" stroke-miterlimit="10"/>
<path d="M320.063 390.165C323.807 388.508 329.962 386.339 337.832 386.003C344.587 385.714 350.124 386.882 353.794 387.96" fill="#FFFABC"/>
<path d="M320.063 390.165C323.807 388.508 329.962 386.339 337.832 386.003C344.587 385.714 350.124 386.882 353.794 387.96" stroke="black" stroke-width="6" stroke-miterlimit="10"/>
<path d="M336.53 397.892C339.892 397.008 345.901 395.88 353.268 397.044C360.577 398.201 365.917 401.089 368.837 402.96" fill="#FFFABC"/>
<path d="M336.53 397.892C339.892 397.008 345.901 395.88 353.268 397.044C360.577 398.201 365.917 401.089 368.837 402.96" stroke="black" stroke-width="6" stroke-miterlimit="10"/>
<path d="M427.04 399.111C429.474 397.847 432.585 396.513 436.326 395.538C442.366 393.961 447.639 393.949 451.302 394.252" fill="#FFFABC"/>
<path d="M427.04 399.111C429.474 397.847 432.585 396.513 436.326 395.538C442.366 393.961 447.639 393.949 451.302 394.252" stroke="black" stroke-width="6" stroke-miterlimit="10"/>
<path d="M440.139 403.207C442.991 402.358 447.918 401.285 454.017 401.944C460.004 402.591 464.52 404.625 467.111 406.039" fill="#FFFABC"/>
<path d="M440.139 403.207C442.991 402.358 447.918 401.285 454.017 401.944C460.004 402.591 464.52 404.625 467.111 406.039" stroke="black" stroke-width="6" stroke-miterlimit="10"/>
<path d="M377.938 448.49C376.77 448.775 375.131 449.061 373.171 449.042C370.74 449.017 368.273 448.996 367.649 447.768C366.76 446.034 369.409 441.581 372.636 441.567C375.253 441.553 378.073 444.461 377.938 448.49Z" fill="black" stroke="black" stroke-width="6" stroke-miterlimit="10"/>
<path d="M401.169 440.352C401.113 441.707 399.672 442.652 398.068 443.705C395.391 445.462 392.773 446.055 391.151 446.289C390.963 446.022 389.197 443.377 390.3 440.298C390.962 438.45 392.639 436.498 395.021 436.201C398.059 435.827 401.252 438.278 401.169 440.352Z" fill="black" stroke="black" stroke-width="6" stroke-miterlimit="10"/>
<path d="M417.147 550.841C415.693 545.287 409.325 538.688 396.597 525.489C389.33 517.959 384.607 514.051 378.646 514.268C377.924 514.294 373.05 514.472 370.237 517.394C361.264 526.712 387.188 549.553 382.765 575.404C379.735 593.126 365.968 591.65 351.389 621.633C344.755 635.273 342.257 646.574 340.079 656.443C337.257 669.218 336.936 676.819 335.816 722.511C334.715 767.441 334.703 773.079 334.751 779.194C334.902 799.09 335.584 816.175 336.318 829.511C336.447 844.597 337.738 862.674 341.543 882.795C345.058 901.369 349.926 917.498 354.847 930.848C423.348 931.156 491.848 931.461 560.349 931.769C578.222 875.771 596.094 819.773 613.967 763.775C613.489 758.155 613.015 752.536 612.537 746.916C616.225 744.456 619.914 741.996 623.606 739.537C621.166 734.445 618.731 729.352 616.291 724.264C617.977 718.012 619.664 711.76 621.346 705.508C618.847 691.535 612.64 668.247 595.217 645.869C581.786 628.62 567.579 619.464 551.588 609.368C533.269 597.797 504.597 582.527 465.405 572.218C467.717 577.234 470.769 585.709 469.633 595.675C466.463 623.561 434.191 630.88 419.493 660.839C416.744 666.44 412.399 677.346 415.41 717.562C417.624 747.136 423.597 789.615 440.561 840.517C449.678 848.337 461.765 860.291 472.728 877.168C483.166 893.245 488.457 907.434 488.514 907.405C488.575 907.375 482.509 890.463 470.255 872.68C459.926 857.688 448.736 847.215 440.561 840.517C447.877 828.406 455.848 812.789 462.277 793.811C471.171 767.555 473.983 744.104 474.674 726.731C472.564 747.044 468.023 771.974 458.428 799.288C452.951 814.871 446.744 828.633 440.561 840.517C437.65 834.949 433.631 826.549 429.979 815.94C425.054 801.631 424.161 793.075 419.904 760.913C415.601 728.408 413.661 715.619 412.994 694.388C412.3 672.304 413.889 667.371 415.609 663.608C422.421 648.692 433.249 649.052 450.766 629.385C459.765 619.28 468.318 609.678 469.633 595.679C470.931 581.88 464.554 570.61 460.781 565.049C461.181 568.459 461.696 576.877 457.134 585.896C453.67 592.739 446.692 598.465 447.333 597.779C449.947 594.991 460.354 583.255 460.785 565.049C461.187 548.06 452.637 536.434 450.108 533.24C440.116 520.601 427.103 516.823 423.025 515.811C425.624 518.038 445.05 535.261 443.852 562.261C443.058 580.206 433.6 592.415 430.121 596.503C431.664 594.843 449.528 574.919 443.372 548.404C438.753 528.522 422.485 512.926 401.811 508.559C388.603 508.291 384.804 510.45 384.062 512.708C381.639 520.084 411.61 529.221 417.151 550.857C420.311 563.19 414.519 575.632 408.247 585.037C410.535 582.049 421.433 567.206 417.151 550.857L417.147 550.841Z" fill="#FFFABC"/>
<path d="M440.561 840.517C423.597 789.615 417.624 747.136 415.41 717.562C412.399 677.346 416.744 666.44 419.493 660.839C434.191 630.88 466.463 623.561 469.633 595.675C470.769 585.709 467.717 577.234 465.405 572.218C504.597 582.527 533.269 597.797 551.588 609.368C567.579 619.464 581.786 628.62 595.217 645.869C612.64 668.247 618.847 691.535 621.346 705.508C619.664 711.76 617.977 718.012 616.291 724.264C618.731 729.352 621.166 734.445 623.606 739.537C619.914 741.996 616.225 744.456 612.537 746.916C613.015 752.536 613.489 758.155 613.967 763.775C596.094 819.773 578.222 875.771 560.349 931.769C491.848 931.461 423.348 931.156 354.847 930.848C349.926 917.498 345.058 901.369 341.543 882.795C337.738 862.674 336.447 844.597 336.318 829.511C335.584 816.175 334.902 799.09 334.751 779.194C334.703 773.079 334.715 767.441 335.816 722.511C336.936 676.819 337.257 669.218 340.079 656.443C342.257 646.574 344.755 635.273 351.389 621.633C365.968 591.65 379.735 593.126 382.765 575.404C387.188 549.553 361.264 526.712 370.237 517.394C373.05 514.472 377.924 514.294 378.646 514.268C384.607 514.051 389.33 517.959 396.597 525.489C409.325 538.688 415.693 545.287 417.147 550.841L417.151 550.857M440.561 840.517C449.678 848.337 461.765 860.291 472.728 877.168C483.166 893.245 488.457 907.434 488.514 907.405C488.575 907.375 482.509 890.463 470.255 872.68C459.926 857.688 448.736 847.215 440.561 840.517ZM440.561 840.517C447.877 828.406 455.848 812.789 462.277 793.811C471.171 767.555 473.983 744.104 474.674 726.731C472.564 747.044 468.023 771.974 458.428 799.288C452.951 814.871 446.744 828.633 440.561 840.517ZM440.561 840.517C437.65 834.949 433.631 826.549 429.979 815.94C425.054 801.631 424.161 793.075 419.904 760.913C415.601 728.408 413.661 715.619 412.994 694.388C412.3 672.304 413.889 667.371 415.609 663.608C422.421 648.692 433.249 649.052 450.766 629.385C459.765 619.28 468.318 609.678 469.633 595.679C470.931 581.88 464.554 570.61 460.781 565.049C461.181 568.459 461.696 576.877 457.134 585.896C453.67 592.739 446.692 598.465 447.333 597.779C449.947 594.991 460.354 583.255 460.785 565.049C461.187 548.06 452.637 536.434 450.108 533.24C440.116 520.601 427.103 516.823 423.025 515.811C425.624 518.038 445.05 535.261 443.852 562.261C443.058 580.206 433.6 592.415 430.121 596.503C431.664 594.843 449.528 574.919 443.372 548.404C438.753 528.522 422.485 512.926 401.811 508.559C388.603 508.291 384.804 510.45 384.062 512.708C381.639 520.084 411.61 529.221 417.151 550.857M417.151 550.857C420.311 563.19 414.519 575.632 408.247 585.037C410.535 582.049 421.433 567.206 417.151 550.857Z" stroke="black" stroke-width="6" stroke-miterlimit="10"/>
</g>
<defs>
<radialGradient id="paint0_radial_545_65" cx="0" cy="0" r="1" gradientUnits="userSpaceOnUse" gradientTransform="translate(334.171 538.128) rotate(90) scale(652)">
<stop stop-color="#A31F1F"/>
<stop offset="1" stop-opacity="0"/>
</radialGradient>
<radialGradient id="paint1_radial_545_65" cx="0" cy="0" r="1" gradientUnits="userSpaceOnUse" gradientTransform="translate(552.605 569.764) rotate(90) scale(249.5 250)">
<stop stop-color="#9B71EB"/>
<stop offset="1" stop-opacity="0"/>
</radialGradient>
<radialGradient id="paint2_radial_545_65" cx="0" cy="0" r="1" gradientUnits="userSpaceOnUse" gradientTransform="translate(300.717 427.558) rotate(90) scale(176)">
<stop stop-color="#CA1D8F"/>
<stop offset="1" stop-opacity="0"/>
</radialGradient>
<radialGradient id="paint3_radial_545_65" cx="0" cy="0" r="1" gradientUnits="userSpaceOnUse" gradientTransform="translate(441.205 425.713) rotate(90) scale(472 471.5)">
<stop stop-color="#14704F"/>
<stop offset="1" stop-opacity="0"/>
</radialGradient>
<radialGradient id="paint4_radial_545_65" cx="0" cy="0" r="1" gradientUnits="userSpaceOnUse" gradientTransform="translate(441.205 425.713) rotate(90) scale(472 471.5)">
<stop stop-color="#0D4B35"/>
<stop offset="1" stop-opacity="0"/>
</radialGradient>
<clipPath id="clip0_545_65">
<rect width="840" height="933" fill="white"/>
</clipPath>
</defs>
</svg>
