<svg width="742" height="650" viewBox="0 0 742 650" fill="none" xmlns="http://www.w3.org/2000/svg">
<path d="M349.41 25.4397C349.577 17.3585 300.78 13.4999 301.17 8.4141C301.721 1.21695 400.308 -1.64319 479.953 19.761C481.903 20.2863 483.599 20.7595 483.599 20.7595C496.752 24.4361 538.455 37.1195 583.309 65.1332C625.324 91.3685 633.344 107.349 635.773 115.175C640.074 129.018 639.471 144.239 645.384 157.474C652.978 174.468 669.809 185.124 682.031 199.164C691.248 210.896 700.708 225.837 707.891 244.219C734.495 312.327 709.956 376.909 701.296 397.128C708.411 397.039 715.578 398.162 718.325 402.801C732.394 426.566 621.189 526.765 505.49 590.067C444.195 623.604 380.742 648.242 306.844 646.812C241.789 645.554 226.123 625.205 221.713 618.44C198.063 582.184 231.246 527.706 233.062 524.809C412.952 522.204 454.883 528.439 455.419 535.329C456.808 553.229 179.885 591.69 164.573 544.976C158.852 527.519 190.241 504.31 182.491 468.257C178.388 449.146 166.373 434.887 162.274 430.128C142.411 407.039 129.081 413.768 114.029 394.756C90.6345 365.198 101.593 322.925 102.275 320.445C105.374 309.145 110.206 300.543 113.873 294.989C107.278 277.974 99.2787 250.429 101.843 217.033C109.332 119.585 199.624 65.674 210.359 59.4909C275.648 21.8827 349.207 35.2942 349.41 25.4449V25.4397Z" fill="#FFFABC" stroke="black" stroke-width="12" stroke-miterlimit="10"/>
<path d="M207.28 297.995C176.458 319.659 131.822 311.791 107.585 280.418C83.3477 249.045 88.6893 206.055 119.516 184.391C150.343 162.726 194.974 170.594 219.211 201.967C243.448 233.34 238.107 276.331 207.28 297.995Z" fill="white" stroke="black" stroke-width="12" stroke-miterlimit="10"/>
<path d="M191.333 280.08C212.954 280.08 230.482 262.556 230.482 240.938C230.482 219.32 212.954 201.796 191.333 201.796C169.712 201.796 152.184 219.32 152.184 240.938C152.184 262.556 169.712 280.08 191.333 280.08Z" fill="black" stroke="black" stroke-width="12" stroke-miterlimit="10"/>
<path d="M202.76 250.86C208.522 250.86 213.193 246.19 213.193 240.428C213.193 234.667 208.522 229.997 202.76 229.997C196.998 229.997 192.326 234.667 192.326 240.428C192.326 246.19 196.998 250.86 202.76 250.86Z" fill="white" stroke="black" stroke-width="12" stroke-miterlimit="10"/>
<path d="M338.254 236.18C338.389 191.988 377.813 152.929 426.314 148.935C474.814 144.941 514.02 177.526 513.885 221.713C513.749 265.904 474.325 304.964 425.825 308.957C377.324 312.951 338.119 280.366 338.254 236.18Z" fill="white" stroke="black" stroke-width="12" stroke-miterlimit="10"/>
<path d="M444.117 302.067C478.013 302.067 505.49 274.594 505.49 240.704C505.49 206.814 478.013 179.341 444.117 179.341C410.222 179.341 382.744 206.814 382.744 240.704C382.744 274.594 410.222 302.067 444.117 302.067Z" fill="black" stroke="black" stroke-width="12" stroke-miterlimit="10"/>
<path d="M433.98 237.225C431.702 246.206 422.574 251.645 413.587 249.368C404.599 247.09 399.164 237.964 401.442 228.977C403.72 219.997 412.848 214.557 421.836 216.835C430.823 219.113 436.258 228.239 433.98 237.225Z" fill="white" stroke="black" stroke-width="12" stroke-miterlimit="10"/>
<path d="M571.373 398.573C216.99 351.074 123.417 353.929 119.995 370.31C116.791 385.651 197.741 406.722 201.683 462.594C204.502 502.589 179.376 531.174 173.837 537.196C198.245 546.749 287.512 578.284 393.391 543.26C505.449 506.192 558.828 420.139 571.367 398.573H571.373Z" fill="#EF6759" stroke="black" stroke-width="12" stroke-miterlimit="10"/>
<path d="M206.775 445.505C208.783 445.396 211.061 441.194 215.617 432.786C217.723 428.901 219.357 425.531 220.532 422.999C215.799 423.202 210.151 423.03 203.878 421.99C200.674 421.46 197.73 420.773 195.062 420.014C200.929 443.321 204.934 445.604 206.77 445.505H206.775Z" fill="white" stroke="black" stroke-width="12" stroke-miterlimit="10"/>
<path d="M335.372 450.55C337.474 450.217 340.698 444.793 347.148 433.951C350.133 428.938 352.52 424.611 354.263 421.361C349.337 422.068 343.538 422.406 337.276 421.73C334.077 421.382 331.18 420.82 328.585 420.144C329.792 448.423 333.453 450.857 335.372 450.555V450.55Z" fill="white" stroke="black" stroke-width="12" stroke-miterlimit="10"/>
<path d="M227.413 518.777C225.431 518.829 223.081 522.906 218.374 531.055C216.199 534.82 214.499 538.091 213.271 540.55C217.931 540.478 223.486 540.8 229.634 541.991C232.775 542.599 235.652 543.359 238.252 544.17C233.108 521.076 229.228 518.725 227.418 518.772L227.413 518.777Z" fill="white" stroke="black" stroke-width="12" stroke-miterlimit="10"/>
<path d="M318.042 523.202C317.293 523.098 315.421 523.166 307.11 533.832C303.027 539.074 299.844 543.723 297.55 547.264C302.736 547.706 309.18 547.716 316.425 546.468C319.598 545.922 322.5 545.21 325.116 544.425C324.856 541.138 323.374 523.956 318.042 523.202Z" fill="white" stroke="black" stroke-width="12" stroke-miterlimit="10"/>
<path d="M703.72 226.414C630.879 222.118 582.43 160.163 582.43 160.163C573.541 148.8 560.544 132.18 551.9 114.114C542.954 95.4247 556.7 80.1255 547.453 59.4025C540.286 43.3442 530.643 41.4409 532.448 35.3722C536.863 20.5099 596.957 24.1033 642.555 26.823C643.86 26.901 645.53 27.0362 647.761 27.2286C662.018 28.4715 688.174 31.134 704.209 51.0249C706.471 53.8331 710.559 59.0021 713.072 66.8857C721.237 92.5125 699.949 106.621 704.198 137.318C705.967 150.084 711.355 159.996 713.992 164.838C725.679 186.32 740.653 193.288 738.713 206.356C737.688 213.262 732.539 217.849 730.781 219.414C721.742 227.469 709.363 226.741 703.72 226.409V226.414Z" fill="#E5A968" stroke="black" stroke-width="12" stroke-miterlimit="10"/>
<path d="M228.802 69.4182C222.316 48.9292 138.443 38.2219 93.6667 82.3512C80.7107 95.1178 73.7673 109.783 69.8664 121.53C59.4122 147.193 64.6289 151.395 56.7961 165.373C39.544 196.18 4.19728 193.673 3.14146 211.078C2.26767 225.452 25.6882 238.244 38.1293 242.8C60.5669 251.021 80.6483 244.682 87.1133 242.342C87.7062 237.459 91.4458 210.735 115.579 192.435C142.947 171.681 174.034 178.842 178.096 179.851C178.237 170.568 179.365 156.533 184.634 140.667C199.858 94.8422 233.202 83.3081 228.802 69.413V69.4182Z" fill="#E5A968" stroke="black" stroke-width="12" stroke-miterlimit="10"/>
<path d="M102.519 275.13C104.859 272.545 118.679 287.907 143.623 293.897C150.619 295.577 175.012 301.433 194.828 289.498C212.663 278.754 217.25 259.352 221.707 260.949C225.01 262.129 225.998 274.032 221.707 283.648C209.49 311.022 153.297 322.514 121.909 301.115C108.49 291.968 100.47 277.397 102.519 275.135V275.13Z" fill="#FFFABC" stroke="black" stroke-width="12" stroke-miterlimit="10"/>
<path d="M346.57 269.451C350.05 266.388 369.112 298.006 403.325 303.497C423.193 306.685 441.178 299.945 454.405 294.984C481.575 284.797 495.26 270.325 496.971 272.285C498.906 274.495 484.337 296.128 460.079 309.171C452.907 313.029 425.658 327.678 394.811 317.683C377.855 312.187 367.38 301.703 363.594 297.824C352.869 286.835 344.167 271.562 346.565 269.451H346.57Z" fill="#FFFABC" stroke="black" stroke-width="12" stroke-miterlimit="10"/>
<path d="M597.399 374.345C594.226 369.166 516.735 441.663 404.017 434.907C351.922 431.787 308.254 412.692 274.795 392.291C258.126 403.087 228.927 418.007 191.791 417.414C160.475 416.915 113.259 405.224 108.979 382.354C107.699 375.505 110.44 368.609 111.735 365.354C117.711 350.336 131.177 342.863 139.946 338.183C189.809 311.563 228.807 299.243 228.807 299.243C250.553 293.071 265.09 288.853 285.561 287.896C323.332 286.123 335.357 296.945 384.887 307.756C460.152 324.189 474.944 308.188 509.75 330.455C511.357 331.485 516.537 336.935 524.963 342.473C530.955 346.524 539.615 351.506 550.74 355.052C604.01 372.042 650.632 335.978 657.586 344.22C663.645 351.397 637.099 389.156 525.26 501.335C378.739 622.522 319.956 641.482 298.491 624.722C287.585 616.209 278.831 592.48 265.698 594.326C251.879 596.266 251.697 623.177 235.204 627.275C217.781 631.602 198.136 606.479 192.55 599.37C178.944 582.048 162.914 550.181 173.863 537.202C185.107 523.873 219.695 536.536 230.981 539.989C359.61 579.344 602.876 383.29 597.399 374.345Z" fill="#A67C52" stroke="black" stroke-width="12" stroke-miterlimit="10"/>
<path d="M247.713 327.585C232.536 326.42 222.316 322.223 221.754 317.101C221.655 316.201 221.624 313.185 230.752 306.95C249.414 294.204 271.435 291.88 274.171 291.615C286.596 290.429 312.306 290.122 314.604 296.986C316.529 302.743 301.612 312.369 279.492 320.798C278.81 321.662 278.02 322.738 277.198 324.007C277.198 324.007 275.747 326.077 274.733 328.37C270.988 336.836 272.522 351.485 272.522 351.485C273.927 364.865 275.409 369.519 274.431 369.748C272.902 370.112 267.384 359.197 263.608 349.478C260.56 341.636 258.812 335 257.798 330.507C254.438 329.53 251.078 328.552 247.718 327.579L247.713 327.585Z" fill="#534741" stroke="black" stroke-width="12" stroke-miterlimit="10"/>
<path d="M237.316 100.973C244.436 95.149 255.208 88.3887 267.789 89.252C279.918 90.084 281.811 97.1823 293.576 100.973C316.851 108.467 330.598 87.4891 363.906 86.9118C371.811 86.7714 383.961 87.7283 399.07 93.9426" stroke="black" stroke-width="11" stroke-miterlimit="10" stroke-linecap="round"/>
<path d="M260.757 70.9939C265.709 66.9429 273.204 62.2367 281.957 62.8399C290.393 63.4171 291.714 68.3574 299.896 70.9939C316.087 76.2045 325.651 61.6126 348.822 61.2122C354.32 61.1186 362.777 61.7791 373.283 66.1057" stroke="black" stroke-width="11" stroke-miterlimit="10" stroke-linecap="round"/>
<path opacity="0.5" d="M445.079 203.527C445.381 205.93 453.068 204.547 460.241 210.153C467.683 215.966 466.893 223.398 471.433 224.058C476.031 224.729 482.548 217.937 482.34 211.837C482.049 203.299 468.63 197.079 458.285 197.615C451.331 197.974 444.824 201.505 445.079 203.527Z" fill="white" stroke="black" stroke-width="12" stroke-miterlimit="10"/>
<path opacity="0.5" d="M186.22 209.861C178.637 210.381 172.671 223.403 175.522 226.97C177.009 228.827 181.326 228.676 184.077 226.97C188.098 224.479 187.136 219.695 190.496 218.416C194.136 217.027 198.157 221.546 199.051 220.553C199.894 219.622 197.132 214.776 192.633 211.999C191.13 211.073 188.873 209.679 186.215 209.861H186.22Z" fill="white" stroke="black" stroke-width="12" stroke-miterlimit="10"/>
<path d="M124.145 403.014C123.251 402.442 123.901 401.064 124.915 401.392C140.773 406.498 166.623 412.271 198.11 408.537C237.071 403.919 264.471 387.148 277.141 378.214C315.681 390.055 372.503 402.354 439.909 396.774C547.515 387.866 614.063 339.051 625.214 355.052C636.423 371.132 578.909 435.948 519.673 479.411C486.959 503.416 413.394 550.259 309.674 561.695C244.603 568.871 162.15 562.615 159.268 544.669C157.947 536.437 173.259 525.023 187.645 521.97C208.216 517.607 225.868 530.55 235.886 536.156C271.139 555.881 315.473 541.523 374.937 521.97C486.901 485.152 577.593 409.411 571.362 398.563C567.082 391.111 521.634 424.403 446.629 431.314C378.926 437.549 320.679 419.213 279.424 400.721C273.854 406.036 234.799 442.151 184.774 433.337C168.552 430.477 155.861 423.722 147.098 417.715C139.442 412.812 131.786 407.908 124.135 403.004L124.145 403.014Z" fill="#754C24" stroke="black" stroke-width="12" stroke-miterlimit="10"/>
<path d="M102.945 269.82C118.679 276.087 134.23 232.519 175.631 226.752C209.162 222.082 230.497 246.268 238.897 237.516C247.937 228.093 233.764 189.019 204.679 172.981C170.269 154.005 118.325 169.112 99.6792 204.193C86.3696 229.243 89.9427 264.641 102.945 269.82Z" fill="#FFFABC" stroke="black" stroke-width="12" stroke-miterlimit="10"/>
<path d="M341.645 224.958C351.158 236.689 378.136 214.016 421.96 216.882C477.607 220.522 501.745 261.489 514.837 251.427C530.528 239.362 513.833 166.694 469.28 150.527C469.025 150.433 468.859 150.376 468.594 150.282C439.727 140.209 392.611 141.473 363.594 170.142C347.34 186.205 333.037 214.344 341.645 224.952V224.958Z" fill="#FFFABC" stroke="black" stroke-width="12" stroke-miterlimit="10"/>
<path d="M400.49 128.587C391.752 133.922 379.712 139.091 366.439 137.1C351.943 134.926 346.7 125.82 338.061 128.587C327.898 131.842 324.315 147.916 321.033 162.633C318.152 175.55 317.923 186.538 318.193 193.845" stroke="black" stroke-width="6" stroke-miterlimit="10" stroke-linecap="round"/>
<path d="M204.679 148.446C207.488 150.194 217.177 155.742 230.222 154.12C245.284 152.248 253.934 142.17 255.764 139.934" stroke="black" stroke-width="6" stroke-miterlimit="10" stroke-linecap="round"/>
<path d="M257.179 226.476C259.202 221.12 262.016 211.598 261.434 199.523C260.835 187.126 256.935 177.724 254.339 172.57" stroke="black" stroke-width="6" stroke-miterlimit="10" stroke-linecap="round"/>
<path d="M304.005 219.383V244.921V219.383Z" fill="#FFFABC"/>
<path d="M304.005 219.383V244.921" stroke="black" stroke-width="6" stroke-miterlimit="10" stroke-linecap="round"/>
<path d="M232.354 330.2C233.75 330.2 234.882 329.069 234.882 327.673C234.882 326.277 233.75 325.146 232.354 325.146C230.958 325.146 229.826 326.277 229.826 327.673C229.826 329.069 230.958 330.2 232.354 330.2Z" fill="black" stroke="black" stroke-width="12" stroke-miterlimit="10"/>
<path d="M407.865 346.592C409.261 346.592 410.393 345.46 410.393 344.064C410.393 342.668 409.261 341.537 407.865 341.537C406.469 341.537 405.338 342.668 405.338 344.064C405.338 345.46 406.469 346.592 407.865 346.592Z" fill="black" stroke="black" stroke-width="6" stroke-miterlimit="10"/>
<path d="M368.488 341.547C369.884 341.547 371.016 340.416 371.016 339.02C371.016 337.624 369.884 336.493 368.488 336.493C367.092 336.493 365.96 337.624 365.96 339.02C365.96 340.416 367.092 341.547 368.488 341.547Z" fill="black" stroke="black" stroke-width="6" stroke-miterlimit="10"/>
<path d="M334.727 333.05C336.123 333.05 337.255 331.919 337.255 330.523C337.255 329.127 336.123 327.995 334.727 327.995C333.331 327.995 332.2 329.127 332.2 330.523C332.2 331.919 333.331 333.05 334.727 333.05Z" fill="black" stroke="black" stroke-width="6" stroke-miterlimit="10"/>
<path d="M323.264 368.121C324.66 368.121 325.792 366.989 325.792 365.593C325.792 364.197 324.66 363.066 323.264 363.066C321.868 363.066 320.736 364.197 320.736 365.593C320.736 366.989 321.868 368.121 323.264 368.121Z" fill="black" stroke="black" stroke-width="6" stroke-miterlimit="10"/>
<path d="M388.746 367.393C390.142 367.393 391.274 366.261 391.274 364.865C391.274 363.469 390.142 362.338 388.746 362.338C387.35 362.338 386.218 363.469 386.218 364.865C386.218 366.261 387.35 367.393 388.746 367.393Z" fill="black" stroke="black" stroke-width="6" stroke-miterlimit="10"/>
<path d="M355.001 361.787C356.397 361.787 357.529 360.655 357.529 359.259C357.529 357.864 356.397 356.732 355.001 356.732C353.605 356.732 352.474 357.864 352.474 359.259C352.474 360.655 353.605 361.787 355.001 361.787Z" fill="black" stroke="black" stroke-width="6" stroke-miterlimit="10"/>
<path d="M204.903 344.605C206.299 344.605 207.43 343.474 207.43 342.078C207.43 340.682 206.299 339.55 204.903 339.55C203.507 339.55 202.375 340.682 202.375 342.078C202.375 343.474 203.507 344.605 204.903 344.605Z" fill="black" stroke="black" stroke-width="6" stroke-miterlimit="10"/>
<path d="M444.434 355.557C445.83 355.557 446.962 354.425 446.962 353.029C446.962 351.634 445.83 350.502 444.434 350.502C443.038 350.502 441.907 351.634 441.907 353.029C441.907 354.425 443.038 355.557 444.434 355.557Z" fill="black" stroke="black" stroke-width="6" stroke-miterlimit="10"/>
<path d="M202.292 375.385C203.688 375.385 204.819 374.254 204.819 372.858C204.819 371.462 203.688 370.331 202.292 370.331C200.896 370.331 199.764 371.462 199.764 372.858C199.764 374.254 200.896 375.385 202.292 375.385Z" fill="black" stroke="black" stroke-width="6" stroke-miterlimit="10"/>
<path d="M151.893 381.496C153.289 381.496 154.421 380.364 154.421 378.968C154.421 377.572 153.289 376.441 151.893 376.441C150.497 376.441 149.365 377.572 149.365 378.968C149.365 380.364 150.497 381.496 151.893 381.496Z" fill="black" stroke="black" stroke-width="6" stroke-miterlimit="10"/>
<path d="M230.669 352.125C232.065 352.125 233.197 350.993 233.197 349.597C233.197 348.201 232.065 347.07 230.669 347.07C229.273 347.07 228.141 348.201 228.141 349.597C228.141 350.993 229.273 352.125 230.669 352.125Z" fill="black" stroke="black" stroke-width="6" stroke-miterlimit="10"/>
<path d="M181.191 358.854C182.587 358.854 183.719 357.722 183.719 356.326C183.719 354.931 182.587 353.799 181.191 353.799C179.795 353.799 178.663 354.931 178.663 356.326C178.663 357.722 179.795 358.854 181.191 358.854Z" fill="black" stroke="black" stroke-width="6" stroke-miterlimit="10"/>
<path d="M102.082 339.171C106.326 333.643 113.046 326.42 123.022 320.986C132.493 315.827 135.624 316.872 155.872 310.304C161.229 308.567 168.693 305.728 183.396 299.248C212.267 286.518 222.129 277.673 236.702 270.72C265.454 257.017 293.738 259.68 313.434 261.531C352.983 265.254 350.019 278.395 409.462 290.933C430.423 295.353 451.055 301.552 472.25 304.667C475.053 305.078 484.686 306.425 495.551 310.595C507.134 315.042 514.987 320.148 517.874 321.994C517.874 321.994 540.707 336.581 576.75 344.74C625.256 355.718 666.397 324.293 670.079 330.835C671.681 333.679 665.409 342.291 631.939 367.174C610.324 372.166 579.081 375.916 545.341 365.827C511.757 355.786 513.547 343.347 475.683 327.621C443.529 314.267 413.992 319.082 374.214 308.739C335.606 298.702 339.861 287.506 310.209 284.963C300.936 284.168 270.322 281.542 241.29 296.908C232.999 301.297 221.661 308.833 200.414 319.108C186.251 325.957 182.096 326.909 179.339 327.642C170.872 329.894 166.633 330.986 153.448 333.159C146.146 334.366 132.665 342.905 105.744 373.628C104.516 362.14 103.294 350.658 102.066 339.171H102.082Z" fill="#C19672" stroke="black" stroke-width="12" stroke-miterlimit="10"/>
</svg>
