<svg width="18" height="16" viewBox="0 0 18 16" fill="currentColor" xmlns="http://www.w3.org/2000/svg">
<g clip-path="url(#clip0_563_7)">
<path d="M17.9999 8.12103C17.9597 7.03402 17.046 6.18195 15.9532 6.22052C15.4708 6.23805 15.0103 6.43442 14.6594 6.76753C13.1207 5.7191 11.3152 5.14404 9.45492 5.10547L10.3321 0.890696L13.223 1.49731C13.3035 2.24068 13.9686 2.77717 14.7106 2.69652C15.4525 2.61588 15.9897 1.94965 15.9093 1.20978C15.8289 0.466413 15.1638 -0.0700759 14.4218 0.0105728C13.9942 0.0526504 13.6105 0.301609 13.4021 0.673295L10.0909 0.0105728C9.86426 -0.0385177 9.64132 0.101741 9.59015 0.329661V0.336674L8.59239 5.02482C6.71015 5.05638 4.87909 5.63144 3.32213 6.68688C2.52904 5.94 1.27909 5.97858 0.533503 6.77454C-0.212081 7.567 -0.175532 8.81531 0.621219 9.56218C0.774721 9.70595 0.953808 9.83218 1.15117 9.91984C1.13655 10.1162 1.13655 10.3161 1.15117 10.5159C1.15117 13.542 4.67807 16.0036 9.02731 16.0036C13.3765 16.0036 16.9035 13.5455 16.9035 10.5159C16.9181 10.3196 16.9181 10.1197 16.9035 9.91984C17.5832 9.57972 18.0072 8.88193 17.9962 8.12453L17.9999 8.12103ZM4.48437 9.47452C4.48437 8.72764 5.09107 8.12103 5.83665 8.12103C6.58223 8.12103 7.18893 8.72764 7.18893 9.47452C7.18893 10.2214 6.58223 10.828 5.83665 10.828C5.08741 10.821 4.48437 10.2214 4.48437 9.47452ZM12.3349 13.1879C11.3737 13.9102 10.1969 14.2784 8.99442 14.2293C7.79198 14.2784 6.61513 13.9102 5.65391 13.1879C5.52599 13.0336 5.55157 12.8022 5.70508 12.6724C5.8403 12.5602 6.03036 12.5602 6.16924 12.6724C6.98061 13.2685 7.97472 13.5701 8.9798 13.521C9.98853 13.5736 10.9826 13.286 11.805 12.697C11.9512 12.5532 12.196 12.5567 12.3386 12.704C12.4811 12.8512 12.4811 13.0932 12.3313 13.237V13.1844L12.3349 13.1879ZM12.0937 10.8736C11.3481 10.8736 10.7414 10.267 10.7414 9.52011C10.7414 8.77323 11.3481 8.16661 12.0937 8.16661C12.8393 8.16661 13.446 8.77323 13.446 9.52011C13.4752 10.267 12.8941 10.8946 12.1485 10.9227H12.0827L12.0937 10.8736Z" fill="currentColor"/>
</g>
<defs>
<clipPath id="clip0_563_7">
<rect width="18" height="16" fill="white"/>
</clipPath>
</defs>
</svg>
