<svg width="21" height="20" viewBox="0 0 21 20" fill="none" xmlns="http://www.w3.org/2000/svg">
<g clip-path="url(#clip0_26_505)">
<g clip-path="url(#clip1_26_505)">
<path fill-rule="evenodd" clip-rule="evenodd" d="M8.76752 2.90162C7.80983 3.39855 7.02272 3.81811 7.02572 3.83597C7.02572 3.8806 9.32718 5.03813 9.40798 5.03515C9.4439 5.03515 9.71325 4.91017 10.0065 4.76139L10.5393 4.49061L11.1199 4.78817L11.7005 5.08574L12.6522 4.66022C14.0828 4.02046 14.2324 3.94904 14.2085 3.92821C14.1785 3.89548 13.6638 3.62172 12.2691 2.89269C11.5958 2.54157 10.9433 2.19342 10.8176 2.12498C10.6919 2.05356 10.5722 2 10.5512 2C10.5303 2 9.72522 2.40469 8.76752 2.90162ZM4.56265 5.06788L3.56305 5.57969V7.82927C3.56305 9.06714 3.57502 10.0789 3.59298 10.0789C3.60794 10.0789 4.09876 9.86758 4.68535 9.6087L5.74779 9.13855V6.76697L6.26555 7.04668C6.66658 7.2639 7.06462 7.47815 7.46566 7.69537L8.14802 8.06137L8.45029 7.92449C8.64183 7.8382 8.83037 7.7519 9.01892 7.66561C9.16557 7.59717 9.5247 7.43649 9.818 7.30854C10.1113 7.18058 10.3806 7.04966 10.4195 7.0199C10.4704 6.98122 9.84792 6.63902 8.11809 5.75525C6.81323 5.08871 5.7029 4.54715 5.65202 4.55012C5.60115 4.5531 5.11033 4.7852 4.56265 5.06788ZM14.385 5.21071C13.7057 5.5172 13.149 5.77906 13.149 5.79394C13.149 5.80882 13.5201 6.02901 13.972 6.28194C14.4269 6.53487 14.7951 6.75507 14.7951 6.77292C14.7951 6.79077 14.394 6.98419 13.9032 7.20141C13.4124 7.42161 12.1734 7.97805 11.1468 8.43928L7.71406 9.98363C6.84914 10.3705 6.07102 10.7216 5.98422 10.7603C4.22147 11.5548 3.73364 11.775 3.6678 11.8137C3.60196 11.8523 3.587 12.0725 3.57502 13.1824L3.56006 14.5066L4.45191 14.9589L5.34377 15.4112L6.58278 14.8548C7.26215 14.5483 7.8218 14.2834 7.8218 14.2626C7.8218 14.2418 7.6961 14.1614 7.54347 14.0811C7.39084 14.0007 7.0736 13.8222 6.83717 13.6853C6.60373 13.5484 6.3703 13.4235 6.31942 13.4056C6.26854 13.3878 6.22664 13.361 6.22664 13.3402C6.22664 13.3223 6.77133 13.0634 7.43872 12.7688C8.73161 12.1945 9.71923 11.7512 11.8412 10.796C12.7899 10.3705 13.7386 9.94197 14.6903 9.51646C15.5253 9.14153 16.495 8.70411 16.8451 8.54342L17.4826 8.25181L17.4975 6.91278L17.5125 5.57374L16.6087 5.11549C16.1119 4.86256 15.6839 4.65427 15.663 4.65427C15.639 4.65427 15.0644 4.9072 14.385 5.21071ZM17.2432 10.0431C17.1085 10.1086 16.8451 10.2306 16.6566 10.3139C16.468 10.3972 16.1089 10.5579 15.8605 10.671L15.4086 10.8763L15.3996 12.0517C15.3936 12.6974 15.3697 13.2241 15.3457 13.2211C15.2919 13.2122 14.4449 12.7807 13.592 12.3255C12.9754 11.9981 12.9365 11.9833 12.7929 12.0547C12.7091 12.0963 12.2093 12.3195 11.6825 12.5486C11.1558 12.7807 10.7069 12.9831 10.6859 13.0039C10.665 13.0218 11.7244 13.5931 13.0443 14.2745L15.4385 15.5124L16.462 14.9857C17.0247 14.697 17.5035 14.4322 17.5245 14.3995C17.5754 14.3251 17.5694 9.91519 17.5215 9.92115C17.5005 9.92412 17.3748 9.97768 17.2432 10.0431ZM11.5748 15.2178C11.3982 15.2922 11.2187 15.3695 11.0421 15.4469C10.5063 15.676 10.6111 15.685 9.97362 15.3695C9.54864 15.1583 9.36608 15.0958 9.28528 15.1255C9.22542 15.1493 8.71365 15.3785 8.14502 15.6344C7.57938 15.8903 7.09455 16.1015 7.07061 16.1015C6.83119 16.1015 7.22923 16.3366 8.75555 17.1014L10.5452 18L11.2995 17.631C11.7125 17.4287 12.5505 17.021 13.155 16.7264C13.7625 16.4318 14.2504 16.1849 14.2414 16.173C14.2324 16.164 13.7236 15.9052 13.1101 15.5957L11.9968 15.0363L11.5748 15.2178Z" fill="#C93C25"/>
</g>
</g>
<defs>
<clipPath id="clip0_26_505">
<rect width="20" height="20" fill="white" transform="translate(0.560059)"/>
</clipPath>
<clipPath id="clip1_26_505">
<rect width="20" height="20" fill="white" transform="translate(0.560059)"/>
</clipPath>
</defs>
</svg>
